<?xml version="1.0" encoding="utf-8" standalone="no"?>
<!DOCTYPE svg PUBLIC "-//W3C//DTD SVG 1.1//EN"
  "http://www.w3.org/Graphics/SVG/1.1/DTD/svg11.dtd">
<svg height="360pt" version="1.1" viewBox="0 0 864 360" width="864pt" xmlns="http://www.w3.org/2000/svg" xmlns:xlink="http://www.w3.org/1999/xlink">
 <metadata>
  <rdf:RDF xmlns:cc="http://creativecommons.org/ns#" xmlns:dc="http://purl.org/dc/elements/1.1/" xmlns:rdf="http://www.w3.org/1999/02/22-rdf-syntax-ns#">
   <cc:Work>
    <dc:type rdf:resource="http://purl.org/dc/dcmitype/StillImage"/>
    <dc:date>2021-04-25T11:38:39.078922</dc:date>
    <dc:format>image/svg+xml</dc:format>
    <dc:creator>
     <cc:Agent>
      <dc:title>Matplotlib v3.4.1, https://matplotlib.org/</dc:title>
     </cc:Agent>
    </dc:creator>
   </cc:Work>
  </rdf:RDF>
 </metadata>
 <defs>
  <style type="text/css">*{stroke-linecap:butt;stroke-linejoin:round;}</style>
 </defs>
 <g id="figure_1">
  <g id="patch_1">
   <path d="M 0 360 
L 864 360 
L 864 0 
L 0 0 
z
" style="fill:#ffffff;"/>
  </g>
  <g id="axes_1">
   <g id="patch_2">
    <path d="M 52.289961 312.726625 
L 447.34498 312.726625 
L 447.34498 25.49625 
L 52.289961 25.49625 
z
" style="fill:#ffffff;"/>
   </g>
   <g id="matplotlib.axis_1">
    <g id="xtick_1">
     <g id="line2d_1">
      <path clip-path="url(#pd25a66de8d)" d="M 70.247007 312.726625 
L 70.247007 25.49625 
" style="fill:none;stroke:#cccccc;stroke-linecap:round;stroke-width:0.8;"/>
     </g>
     <g id="text_1">
      <!-- $\mathdefault{10^{-5}}$ -->
      <g style="fill:#262626;" transform="translate(60.347007 329.939125)scale(0.1 -0.1)">
       <defs>
        <path d="M 2384 0 
L 1822 0 
L 1822 3584 
Q 1619 3391 1289 3197 
Q 959 3003 697 2906 
L 697 3450 
Q 1169 3672 1522 3987 
Q 1875 4303 2022 4600 
L 2384 4600 
L 2384 0 
z
" id="ArialMT-31" transform="scale(0.015625)"/>
        <path d="M 266 2259 
Q 266 3072 433 3567 
Q 600 4063 929 4331 
Q 1259 4600 1759 4600 
Q 2128 4600 2406 4451 
Q 2684 4303 2865 4023 
Q 3047 3744 3150 3342 
Q 3253 2941 3253 2259 
Q 3253 1453 3087 958 
Q 2922 463 2592 192 
Q 2263 -78 1759 -78 
Q 1097 -78 719 397 
Q 266 969 266 2259 
z
M 844 2259 
Q 844 1131 1108 757 
Q 1372 384 1759 384 
Q 2147 384 2411 759 
Q 2675 1134 2675 2259 
Q 2675 3391 2411 3762 
Q 2147 4134 1753 4134 
Q 1366 4134 1134 3806 
Q 844 3388 844 2259 
z
" id="ArialMT-30" transform="scale(0.015625)"/>
        <path d="M 3381 1997 
L 356 1997 
L 356 2522 
L 3381 2522 
L 3381 1997 
z
" id="ArialMT-2212" transform="scale(0.015625)"/>
        <path d="M 266 1200 
L 856 1250 
Q 922 819 1161 601 
Q 1400 384 1738 384 
Q 2144 384 2425 690 
Q 2706 997 2706 1503 
Q 2706 1984 2436 2262 
Q 2166 2541 1728 2541 
Q 1456 2541 1237 2417 
Q 1019 2294 894 2097 
L 366 2166 
L 809 4519 
L 3088 4519 
L 3088 3981 
L 1259 3981 
L 1013 2750 
Q 1425 3038 1878 3038 
Q 2478 3038 2890 2622 
Q 3303 2206 3303 1553 
Q 3303 931 2941 478 
Q 2500 -78 1738 -78 
Q 1113 -78 717 272 
Q 322 622 266 1200 
z
" id="ArialMT-35" transform="scale(0.015625)"/>
       </defs>
       <use transform="translate(0 0.879688)" xlink:href="#ArialMT-31"/>
       <use transform="translate(55.615234 0.879688)" xlink:href="#ArialMT-30"/>
       <use transform="translate(112.972813 70.573438)scale(0.7)" xlink:href="#ArialMT-2212"/>
       <use transform="translate(153.851719 70.573438)scale(0.7)" xlink:href="#ArialMT-35"/>
      </g>
     </g>
    </g>
    <g id="xtick_2">
     <g id="line2d_2">
      <path clip-path="url(#pd25a66de8d)" d="M 142.075193 312.726625 
L 142.075193 25.49625 
" style="fill:none;stroke:#cccccc;stroke-linecap:round;stroke-width:0.8;"/>
     </g>
     <g id="text_2">
      <!-- $\mathdefault{10^{-4}}$ -->
      <g style="fill:#262626;" transform="translate(132.175193 329.939125)scale(0.1 -0.1)">
       <defs>
        <path d="M 2069 0 
L 2069 1097 
L 81 1097 
L 81 1613 
L 2172 4581 
L 2631 4581 
L 2631 1613 
L 3250 1613 
L 3250 1097 
L 2631 1097 
L 2631 0 
L 2069 0 
z
M 2069 1613 
L 2069 3678 
L 634 1613 
L 2069 1613 
z
" id="ArialMT-34" transform="scale(0.015625)"/>
       </defs>
       <use transform="translate(0 0.201563)" xlink:href="#ArialMT-31"/>
       <use transform="translate(55.615234 0.201563)" xlink:href="#ArialMT-30"/>
       <use transform="translate(112.972813 69.895313)scale(0.7)" xlink:href="#ArialMT-2212"/>
       <use transform="translate(153.851719 69.895313)scale(0.7)" xlink:href="#ArialMT-34"/>
      </g>
     </g>
    </g>
    <g id="xtick_3">
     <g id="line2d_3">
      <path clip-path="url(#pd25a66de8d)" d="M 213.903378 312.726625 
L 213.903378 25.49625 
" style="fill:none;stroke:#cccccc;stroke-linecap:round;stroke-width:0.8;"/>
     </g>
     <g id="text_3">
      <!-- $\mathdefault{10^{-3}}$ -->
      <g style="fill:#262626;" transform="translate(204.003378 330.039125)scale(0.1 -0.1)">
       <defs>
        <path d="M 269 1209 
L 831 1284 
Q 928 806 1161 595 
Q 1394 384 1728 384 
Q 2125 384 2398 659 
Q 2672 934 2672 1341 
Q 2672 1728 2419 1979 
Q 2166 2231 1775 2231 
Q 1616 2231 1378 2169 
L 1441 2663 
Q 1497 2656 1531 2656 
Q 1891 2656 2178 2843 
Q 2466 3031 2466 3422 
Q 2466 3731 2256 3934 
Q 2047 4138 1716 4138 
Q 1388 4138 1169 3931 
Q 950 3725 888 3313 
L 325 3413 
Q 428 3978 793 4289 
Q 1159 4600 1703 4600 
Q 2078 4600 2393 4439 
Q 2709 4278 2876 4000 
Q 3044 3722 3044 3409 
Q 3044 3113 2884 2869 
Q 2725 2625 2413 2481 
Q 2819 2388 3044 2092 
Q 3269 1797 3269 1353 
Q 3269 753 2831 336 
Q 2394 -81 1725 -81 
Q 1122 -81 723 278 
Q 325 638 269 1209 
z
" id="ArialMT-33" transform="scale(0.015625)"/>
       </defs>
       <use transform="translate(0 0.99375)" xlink:href="#ArialMT-31"/>
       <use transform="translate(55.615234 0.99375)" xlink:href="#ArialMT-30"/>
       <use transform="translate(112.972813 70.6875)scale(0.7)" xlink:href="#ArialMT-2212"/>
       <use transform="translate(153.851719 70.6875)scale(0.7)" xlink:href="#ArialMT-33"/>
      </g>
     </g>
    </g>
    <g id="xtick_4">
     <g id="line2d_4">
      <path clip-path="url(#pd25a66de8d)" d="M 285.731563 312.726625 
L 285.731563 25.49625 
" style="fill:none;stroke:#cccccc;stroke-linecap:round;stroke-width:0.8;"/>
     </g>
     <g id="text_4">
      <!-- $\mathdefault{10^{-2}}$ -->
      <g style="fill:#262626;" transform="translate(275.831563 330.039125)scale(0.1 -0.1)">
       <defs>
        <path d="M 3222 541 
L 3222 0 
L 194 0 
Q 188 203 259 391 
Q 375 700 629 1000 
Q 884 1300 1366 1694 
Q 2113 2306 2375 2664 
Q 2638 3022 2638 3341 
Q 2638 3675 2398 3904 
Q 2159 4134 1775 4134 
Q 1369 4134 1125 3890 
Q 881 3647 878 3216 
L 300 3275 
Q 359 3922 746 4261 
Q 1134 4600 1788 4600 
Q 2447 4600 2831 4234 
Q 3216 3869 3216 3328 
Q 3216 3053 3103 2787 
Q 2991 2522 2730 2228 
Q 2469 1934 1863 1422 
Q 1356 997 1212 845 
Q 1069 694 975 541 
L 3222 541 
z
" id="ArialMT-32" transform="scale(0.015625)"/>
       </defs>
       <use transform="translate(0 0.99375)" xlink:href="#ArialMT-31"/>
       <use transform="translate(55.615234 0.99375)" xlink:href="#ArialMT-30"/>
       <use transform="translate(112.972813 70.6875)scale(0.7)" xlink:href="#ArialMT-2212"/>
       <use transform="translate(153.851719 70.6875)scale(0.7)" xlink:href="#ArialMT-32"/>
      </g>
     </g>
    </g>
    <g id="xtick_5">
     <g id="line2d_5">
      <path clip-path="url(#pd25a66de8d)" d="M 357.559749 312.726625 
L 357.559749 25.49625 
" style="fill:none;stroke:#cccccc;stroke-linecap:round;stroke-width:0.8;"/>
     </g>
     <g id="text_5">
      <!-- $\mathdefault{10^{-1}}$ -->
      <g style="fill:#262626;" transform="translate(347.659749 330.039125)scale(0.1 -0.1)">
       <use transform="translate(0 0.99375)" xlink:href="#ArialMT-31"/>
       <use transform="translate(55.615234 0.99375)" xlink:href="#ArialMT-30"/>
       <use transform="translate(112.972813 70.6875)scale(0.7)" xlink:href="#ArialMT-2212"/>
       <use transform="translate(153.851719 70.6875)scale(0.7)" xlink:href="#ArialMT-31"/>
      </g>
     </g>
    </g>
    <g id="xtick_6">
     <g id="line2d_6">
      <path clip-path="url(#pd25a66de8d)" d="M 429.387934 312.726625 
L 429.387934 25.49625 
" style="fill:none;stroke:#cccccc;stroke-linecap:round;stroke-width:0.8;"/>
     </g>
     <g id="text_6">
      <!-- $\mathdefault{10^{0}}$ -->
      <g style="fill:#262626;" transform="translate(421.537934 330.039125)scale(0.1 -0.1)">
       <use transform="translate(0 0.99375)" xlink:href="#ArialMT-31"/>
       <use transform="translate(55.615234 0.99375)" xlink:href="#ArialMT-30"/>
       <use transform="translate(112.972813 70.6875)scale(0.7)" xlink:href="#ArialMT-30"/>
      </g>
     </g>
    </g>
    <g id="xtick_7"/>
    <g id="xtick_8"/>
    <g id="xtick_9"/>
    <g id="xtick_10"/>
    <g id="xtick_11"/>
    <g id="xtick_12"/>
    <g id="xtick_13"/>
    <g id="xtick_14"/>
    <g id="xtick_15"/>
    <g id="xtick_16"/>
    <g id="xtick_17"/>
    <g id="xtick_18"/>
    <g id="xtick_19"/>
    <g id="xtick_20"/>
    <g id="xtick_21"/>
    <g id="xtick_22"/>
    <g id="xtick_23"/>
    <g id="xtick_24"/>
    <g id="xtick_25"/>
    <g id="xtick_26"/>
    <g id="xtick_27"/>
    <g id="xtick_28"/>
    <g id="xtick_29"/>
    <g id="xtick_30"/>
    <g id="xtick_31"/>
    <g id="xtick_32"/>
    <g id="xtick_33"/>
    <g id="xtick_34"/>
    <g id="xtick_35"/>
    <g id="xtick_36"/>
    <g id="xtick_37"/>
    <g id="xtick_38"/>
    <g id="xtick_39"/>
    <g id="xtick_40"/>
    <g id="xtick_41"/>
    <g id="xtick_42"/>
    <g id="xtick_43"/>
    <g id="xtick_44"/>
    <g id="xtick_45"/>
    <g id="xtick_46"/>
    <g id="xtick_47"/>
    <g id="xtick_48"/>
    <g id="xtick_49"/>
    <g id="xtick_50"/>
    <g id="text_7">
     <!-- Bloom Filter Error Rate -->
     <g style="fill:#262626;" transform="translate(198.697158 343.184438)scale(0.1 -0.1)">
      <defs>
       <path d="M 469 0 
L 469 4581 
L 2188 4581 
Q 2713 4581 3030 4442 
Q 3347 4303 3526 4014 
Q 3706 3725 3706 3409 
Q 3706 3116 3547 2856 
Q 3388 2597 3066 2438 
Q 3481 2316 3704 2022 
Q 3928 1728 3928 1328 
Q 3928 1006 3792 729 
Q 3656 453 3456 303 
Q 3256 153 2954 76 
Q 2653 0 2216 0 
L 469 0 
z
M 1075 2656 
L 2066 2656 
Q 2469 2656 2644 2709 
Q 2875 2778 2992 2937 
Q 3109 3097 3109 3338 
Q 3109 3566 3000 3739 
Q 2891 3913 2687 3977 
Q 2484 4041 1991 4041 
L 1075 4041 
L 1075 2656 
z
M 1075 541 
L 2216 541 
Q 2509 541 2628 563 
Q 2838 600 2978 687 
Q 3119 775 3209 942 
Q 3300 1109 3300 1328 
Q 3300 1584 3169 1773 
Q 3038 1963 2805 2039 
Q 2572 2116 2134 2116 
L 1075 2116 
L 1075 541 
z
" id="ArialMT-42" transform="scale(0.015625)"/>
       <path d="M 409 0 
L 409 4581 
L 972 4581 
L 972 0 
L 409 0 
z
" id="ArialMT-6c" transform="scale(0.015625)"/>
       <path d="M 213 1659 
Q 213 2581 725 3025 
Q 1153 3394 1769 3394 
Q 2453 3394 2887 2945 
Q 3322 2497 3322 1706 
Q 3322 1066 3130 698 
Q 2938 331 2570 128 
Q 2203 -75 1769 -75 
Q 1072 -75 642 372 
Q 213 819 213 1659 
z
M 791 1659 
Q 791 1022 1069 705 
Q 1347 388 1769 388 
Q 2188 388 2466 706 
Q 2744 1025 2744 1678 
Q 2744 2294 2464 2611 
Q 2184 2928 1769 2928 
Q 1347 2928 1069 2612 
Q 791 2297 791 1659 
z
" id="ArialMT-6f" transform="scale(0.015625)"/>
       <path d="M 422 0 
L 422 3319 
L 925 3319 
L 925 2853 
Q 1081 3097 1340 3245 
Q 1600 3394 1931 3394 
Q 2300 3394 2536 3241 
Q 2772 3088 2869 2813 
Q 3263 3394 3894 3394 
Q 4388 3394 4653 3120 
Q 4919 2847 4919 2278 
L 4919 0 
L 4359 0 
L 4359 2091 
Q 4359 2428 4304 2576 
Q 4250 2725 4106 2815 
Q 3963 2906 3769 2906 
Q 3419 2906 3187 2673 
Q 2956 2441 2956 1928 
L 2956 0 
L 2394 0 
L 2394 2156 
Q 2394 2531 2256 2718 
Q 2119 2906 1806 2906 
Q 1569 2906 1367 2781 
Q 1166 2656 1075 2415 
Q 984 2175 984 1722 
L 984 0 
L 422 0 
z
" id="ArialMT-6d" transform="scale(0.015625)"/>
       <path id="ArialMT-20" transform="scale(0.015625)"/>
       <path d="M 525 0 
L 525 4581 
L 3616 4581 
L 3616 4041 
L 1131 4041 
L 1131 2622 
L 3281 2622 
L 3281 2081 
L 1131 2081 
L 1131 0 
L 525 0 
z
" id="ArialMT-46" transform="scale(0.015625)"/>
       <path d="M 425 3934 
L 425 4581 
L 988 4581 
L 988 3934 
L 425 3934 
z
M 425 0 
L 425 3319 
L 988 3319 
L 988 0 
L 425 0 
z
" id="ArialMT-69" transform="scale(0.015625)"/>
       <path d="M 1650 503 
L 1731 6 
Q 1494 -44 1306 -44 
Q 1000 -44 831 53 
Q 663 150 594 308 
Q 525 466 525 972 
L 525 2881 
L 113 2881 
L 113 3319 
L 525 3319 
L 525 4141 
L 1084 4478 
L 1084 3319 
L 1650 3319 
L 1650 2881 
L 1084 2881 
L 1084 941 
Q 1084 700 1114 631 
Q 1144 563 1211 522 
Q 1278 481 1403 481 
Q 1497 481 1650 503 
z
" id="ArialMT-74" transform="scale(0.015625)"/>
       <path d="M 2694 1069 
L 3275 997 
Q 3138 488 2766 206 
Q 2394 -75 1816 -75 
Q 1088 -75 661 373 
Q 234 822 234 1631 
Q 234 2469 665 2931 
Q 1097 3394 1784 3394 
Q 2450 3394 2872 2941 
Q 3294 2488 3294 1666 
Q 3294 1616 3291 1516 
L 816 1516 
Q 847 969 1125 678 
Q 1403 388 1819 388 
Q 2128 388 2347 550 
Q 2566 713 2694 1069 
z
M 847 1978 
L 2700 1978 
Q 2663 2397 2488 2606 
Q 2219 2931 1791 2931 
Q 1403 2931 1139 2672 
Q 875 2413 847 1978 
z
" id="ArialMT-65" transform="scale(0.015625)"/>
       <path d="M 416 0 
L 416 3319 
L 922 3319 
L 922 2816 
Q 1116 3169 1280 3281 
Q 1444 3394 1641 3394 
Q 1925 3394 2219 3213 
L 2025 2691 
Q 1819 2813 1613 2813 
Q 1428 2813 1281 2702 
Q 1134 2591 1072 2394 
Q 978 2094 978 1738 
L 978 0 
L 416 0 
z
" id="ArialMT-72" transform="scale(0.015625)"/>
       <path d="M 506 0 
L 506 4581 
L 3819 4581 
L 3819 4041 
L 1113 4041 
L 1113 2638 
L 3647 2638 
L 3647 2100 
L 1113 2100 
L 1113 541 
L 3925 541 
L 3925 0 
L 506 0 
z
" id="ArialMT-45" transform="scale(0.015625)"/>
       <path d="M 503 0 
L 503 4581 
L 2534 4581 
Q 3147 4581 3465 4457 
Q 3784 4334 3975 4021 
Q 4166 3709 4166 3331 
Q 4166 2844 3850 2509 
Q 3534 2175 2875 2084 
Q 3116 1969 3241 1856 
Q 3506 1613 3744 1247 
L 4541 0 
L 3778 0 
L 3172 953 
Q 2906 1366 2734 1584 
Q 2563 1803 2427 1890 
Q 2291 1978 2150 2013 
Q 2047 2034 1813 2034 
L 1109 2034 
L 1109 0 
L 503 0 
z
M 1109 2559 
L 2413 2559 
Q 2828 2559 3062 2645 
Q 3297 2731 3419 2920 
Q 3541 3109 3541 3331 
Q 3541 3656 3305 3865 
Q 3069 4075 2559 4075 
L 1109 4075 
L 1109 2559 
z
" id="ArialMT-52" transform="scale(0.015625)"/>
       <path d="M 2588 409 
Q 2275 144 1986 34 
Q 1697 -75 1366 -75 
Q 819 -75 525 192 
Q 231 459 231 875 
Q 231 1119 342 1320 
Q 453 1522 633 1644 
Q 813 1766 1038 1828 
Q 1203 1872 1538 1913 
Q 2219 1994 2541 2106 
Q 2544 2222 2544 2253 
Q 2544 2597 2384 2738 
Q 2169 2928 1744 2928 
Q 1347 2928 1158 2789 
Q 969 2650 878 2297 
L 328 2372 
Q 403 2725 575 2942 
Q 747 3159 1072 3276 
Q 1397 3394 1825 3394 
Q 2250 3394 2515 3294 
Q 2781 3194 2906 3042 
Q 3031 2891 3081 2659 
Q 3109 2516 3109 2141 
L 3109 1391 
Q 3109 606 3145 398 
Q 3181 191 3288 0 
L 2700 0 
Q 2613 175 2588 409 
z
M 2541 1666 
Q 2234 1541 1622 1453 
Q 1275 1403 1131 1340 
Q 988 1278 909 1158 
Q 831 1038 831 891 
Q 831 666 1001 516 
Q 1172 366 1500 366 
Q 1825 366 2078 508 
Q 2331 650 2450 897 
Q 2541 1088 2541 1459 
L 2541 1666 
z
" id="ArialMT-61" transform="scale(0.015625)"/>
      </defs>
      <use xlink:href="#ArialMT-42"/>
      <use x="66.699219" xlink:href="#ArialMT-6c"/>
      <use x="88.916016" xlink:href="#ArialMT-6f"/>
      <use x="144.53125" xlink:href="#ArialMT-6f"/>
      <use x="200.146484" xlink:href="#ArialMT-6d"/>
      <use x="283.447266" xlink:href="#ArialMT-20"/>
      <use x="311.230469" xlink:href="#ArialMT-46"/>
      <use x="372.314453" xlink:href="#ArialMT-69"/>
      <use x="394.53125" xlink:href="#ArialMT-6c"/>
      <use x="416.748047" xlink:href="#ArialMT-74"/>
      <use x="444.53125" xlink:href="#ArialMT-65"/>
      <use x="500.146484" xlink:href="#ArialMT-72"/>
      <use x="533.447266" xlink:href="#ArialMT-20"/>
      <use x="561.230469" xlink:href="#ArialMT-45"/>
      <use x="627.929688" xlink:href="#ArialMT-72"/>
      <use x="661.230469" xlink:href="#ArialMT-72"/>
      <use x="694.53125" xlink:href="#ArialMT-6f"/>
      <use x="750.146484" xlink:href="#ArialMT-72"/>
      <use x="783.447266" xlink:href="#ArialMT-20"/>
      <use x="811.230469" xlink:href="#ArialMT-52"/>
      <use x="883.447266" xlink:href="#ArialMT-61"/>
      <use x="939.0625" xlink:href="#ArialMT-74"/>
      <use x="966.845703" xlink:href="#ArialMT-65"/>
     </g>
    </g>
   </g>
   <g id="matplotlib.axis_2">
    <g id="ytick_1">
     <g id="line2d_7">
      <path clip-path="url(#pd25a66de8d)" d="M 52.289961 300.519391 
L 447.34498 300.519391 
" style="fill:none;stroke:#cccccc;stroke-linecap:round;stroke-width:0.8;"/>
     </g>
     <g id="text_8">
      <!-- $\mathdefault{10^{-5}}$ -->
      <g style="fill:#262626;" transform="translate(25.489961 305.625641)scale(0.1 -0.1)">
       <use transform="translate(0 0.879688)" xlink:href="#ArialMT-31"/>
       <use transform="translate(55.615234 0.879688)" xlink:href="#ArialMT-30"/>
       <use transform="translate(112.972813 70.573438)scale(0.7)" xlink:href="#ArialMT-2212"/>
       <use transform="translate(153.851719 70.573438)scale(0.7)" xlink:href="#ArialMT-35"/>
      </g>
     </g>
    </g>
    <g id="ytick_2">
     <g id="line2d_8">
      <path clip-path="url(#pd25a66de8d)" d="M 52.289961 222.876314 
L 447.34498 222.876314 
" style="fill:none;stroke:#cccccc;stroke-linecap:round;stroke-width:0.8;"/>
     </g>
     <g id="text_9">
      <!-- $\mathdefault{10^{-4}}$ -->
      <g style="fill:#262626;" transform="translate(25.489961 227.982564)scale(0.1 -0.1)">
       <use transform="translate(0 0.201563)" xlink:href="#ArialMT-31"/>
       <use transform="translate(55.615234 0.201563)" xlink:href="#ArialMT-30"/>
       <use transform="translate(112.972813 69.895313)scale(0.7)" xlink:href="#ArialMT-2212"/>
       <use transform="translate(153.851719 69.895313)scale(0.7)" xlink:href="#ArialMT-34"/>
      </g>
     </g>
    </g>
    <g id="ytick_3">
     <g id="line2d_9">
      <path clip-path="url(#pd25a66de8d)" d="M 52.289961 145.233238 
L 447.34498 145.233238 
" style="fill:none;stroke:#cccccc;stroke-linecap:round;stroke-width:0.8;"/>
     </g>
     <g id="text_10">
      <!-- $\mathdefault{10^{-3}}$ -->
      <g style="fill:#262626;" transform="translate(25.489961 150.389488)scale(0.1 -0.1)">
       <use transform="translate(0 0.99375)" xlink:href="#ArialMT-31"/>
       <use transform="translate(55.615234 0.99375)" xlink:href="#ArialMT-30"/>
       <use transform="translate(112.972813 70.6875)scale(0.7)" xlink:href="#ArialMT-2212"/>
       <use transform="translate(153.851719 70.6875)scale(0.7)" xlink:href="#ArialMT-33"/>
      </g>
     </g>
    </g>
    <g id="ytick_4">
     <g id="line2d_10">
      <path clip-path="url(#pd25a66de8d)" d="M 52.289961 67.590161 
L 447.34498 67.590161 
" style="fill:none;stroke:#cccccc;stroke-linecap:round;stroke-width:0.8;"/>
     </g>
     <g id="text_11">
      <!-- $\mathdefault{10^{-2}}$ -->
      <g style="fill:#262626;" transform="translate(25.489961 72.746411)scale(0.1 -0.1)">
       <use transform="translate(0 0.99375)" xlink:href="#ArialMT-31"/>
       <use transform="translate(55.615234 0.99375)" xlink:href="#ArialMT-30"/>
       <use transform="translate(112.972813 70.6875)scale(0.7)" xlink:href="#ArialMT-2212"/>
       <use transform="translate(153.851719 70.6875)scale(0.7)" xlink:href="#ArialMT-32"/>
      </g>
     </g>
    </g>
    <g id="ytick_5"/>
    <g id="ytick_6"/>
    <g id="ytick_7"/>
    <g id="ytick_8"/>
    <g id="ytick_9"/>
    <g id="ytick_10"/>
    <g id="ytick_11"/>
    <g id="ytick_12"/>
    <g id="ytick_13"/>
    <g id="ytick_14"/>
    <g id="ytick_15"/>
    <g id="ytick_16"/>
    <g id="ytick_17"/>
    <g id="ytick_18"/>
    <g id="ytick_19"/>
    <g id="ytick_20"/>
    <g id="ytick_21"/>
    <g id="ytick_22"/>
    <g id="ytick_23"/>
    <g id="ytick_24"/>
    <g id="ytick_25"/>
    <g id="ytick_26"/>
    <g id="ytick_27"/>
    <g id="ytick_28"/>
    <g id="ytick_29"/>
    <g id="ytick_30"/>
    <g id="ytick_31"/>
    <g id="ytick_32"/>
    <g id="ytick_33"/>
    <g id="text_12">
     <!-- Lookup Time (s) -->
     <g style="fill:#262626;" transform="translate(19.385273 204.95675)rotate(-90)scale(0.1 -0.1)">
      <defs>
       <path d="M 469 0 
L 469 4581 
L 1075 4581 
L 1075 541 
L 3331 541 
L 3331 0 
L 469 0 
z
" id="ArialMT-4c" transform="scale(0.015625)"/>
       <path d="M 425 0 
L 425 4581 
L 988 4581 
L 988 1969 
L 2319 3319 
L 3047 3319 
L 1778 2088 
L 3175 0 
L 2481 0 
L 1384 1697 
L 988 1316 
L 988 0 
L 425 0 
z
" id="ArialMT-6b" transform="scale(0.015625)"/>
       <path d="M 2597 0 
L 2597 488 
Q 2209 -75 1544 -75 
Q 1250 -75 995 37 
Q 741 150 617 320 
Q 494 491 444 738 
Q 409 903 409 1263 
L 409 3319 
L 972 3319 
L 972 1478 
Q 972 1038 1006 884 
Q 1059 663 1231 536 
Q 1403 409 1656 409 
Q 1909 409 2131 539 
Q 2353 669 2445 892 
Q 2538 1116 2538 1541 
L 2538 3319 
L 3100 3319 
L 3100 0 
L 2597 0 
z
" id="ArialMT-75" transform="scale(0.015625)"/>
       <path d="M 422 -1272 
L 422 3319 
L 934 3319 
L 934 2888 
Q 1116 3141 1344 3267 
Q 1572 3394 1897 3394 
Q 2322 3394 2647 3175 
Q 2972 2956 3137 2557 
Q 3303 2159 3303 1684 
Q 3303 1175 3120 767 
Q 2938 359 2589 142 
Q 2241 -75 1856 -75 
Q 1575 -75 1351 44 
Q 1128 163 984 344 
L 984 -1272 
L 422 -1272 
z
M 931 1641 
Q 931 1000 1190 694 
Q 1450 388 1819 388 
Q 2194 388 2461 705 
Q 2728 1022 2728 1688 
Q 2728 2322 2467 2637 
Q 2206 2953 1844 2953 
Q 1484 2953 1207 2617 
Q 931 2281 931 1641 
z
" id="ArialMT-70" transform="scale(0.015625)"/>
       <path d="M 1659 0 
L 1659 4041 
L 150 4041 
L 150 4581 
L 3781 4581 
L 3781 4041 
L 2266 4041 
L 2266 0 
L 1659 0 
z
" id="ArialMT-54" transform="scale(0.015625)"/>
       <path d="M 1497 -1347 
Q 1031 -759 709 28 
Q 388 816 388 1659 
Q 388 2403 628 3084 
Q 909 3875 1497 4659 
L 1900 4659 
Q 1522 4009 1400 3731 
Q 1209 3300 1100 2831 
Q 966 2247 966 1656 
Q 966 153 1900 -1347 
L 1497 -1347 
z
" id="ArialMT-28" transform="scale(0.015625)"/>
       <path d="M 197 991 
L 753 1078 
Q 800 744 1014 566 
Q 1228 388 1613 388 
Q 2000 388 2187 545 
Q 2375 703 2375 916 
Q 2375 1106 2209 1216 
Q 2094 1291 1634 1406 
Q 1016 1563 777 1677 
Q 538 1791 414 1992 
Q 291 2194 291 2438 
Q 291 2659 392 2848 
Q 494 3038 669 3163 
Q 800 3259 1026 3326 
Q 1253 3394 1513 3394 
Q 1903 3394 2198 3281 
Q 2494 3169 2634 2976 
Q 2775 2784 2828 2463 
L 2278 2388 
Q 2241 2644 2061 2787 
Q 1881 2931 1553 2931 
Q 1166 2931 1000 2803 
Q 834 2675 834 2503 
Q 834 2394 903 2306 
Q 972 2216 1119 2156 
Q 1203 2125 1616 2013 
Q 2213 1853 2448 1751 
Q 2684 1650 2818 1456 
Q 2953 1263 2953 975 
Q 2953 694 2789 445 
Q 2625 197 2315 61 
Q 2006 -75 1616 -75 
Q 969 -75 630 194 
Q 291 463 197 991 
z
" id="ArialMT-73" transform="scale(0.015625)"/>
       <path d="M 791 -1347 
L 388 -1347 
Q 1322 153 1322 1656 
Q 1322 2244 1188 2822 
Q 1081 3291 891 3722 
Q 769 4003 388 4659 
L 791 4659 
Q 1378 3875 1659 3084 
Q 1900 2403 1900 1659 
Q 1900 816 1576 28 
Q 1253 -759 791 -1347 
z
" id="ArialMT-29" transform="scale(0.015625)"/>
      </defs>
      <use xlink:href="#ArialMT-4c"/>
      <use x="55.615234" xlink:href="#ArialMT-6f"/>
      <use x="111.230469" xlink:href="#ArialMT-6f"/>
      <use x="166.845703" xlink:href="#ArialMT-6b"/>
      <use x="216.845703" xlink:href="#ArialMT-75"/>
      <use x="272.460938" xlink:href="#ArialMT-70"/>
      <use x="328.076172" xlink:href="#ArialMT-20"/>
      <use x="354.109375" xlink:href="#ArialMT-54"/>
      <use x="411.443359" xlink:href="#ArialMT-69"/>
      <use x="433.660156" xlink:href="#ArialMT-6d"/>
      <use x="516.960938" xlink:href="#ArialMT-65"/>
      <use x="572.576172" xlink:href="#ArialMT-20"/>
      <use x="600.359375" xlink:href="#ArialMT-28"/>
      <use x="633.660156" xlink:href="#ArialMT-73"/>
      <use x="683.660156" xlink:href="#ArialMT-29"/>
     </g>
    </g>
   </g>
   <g id="line2d_11">
    <path clip-path="url(#pd25a66de8d)" d="M 70.247007 146.655899 
L 142.075193 152.9832 
L 213.903378 161.748068 
L 285.731563 180.777769 
L 357.559749 197.012554 
L 379.182187 205.554537 
L 407.765496 216.477157 
L 413.452941 231.268221 
L 422.427064 233.381097 
L 429.387934 268.963128 
" style="fill:none;stroke:#f77189;stroke-linecap:round;stroke-width:1.5;"/>
   </g>
   <g id="line2d_12">
    <path clip-path="url(#pd25a66de8d)" d="M 70.247007 162.832104 
L 142.075193 162.195332 
L 213.903378 172.44699 
L 285.731563 183.900574 
L 357.559749 209.430487 
L 379.182187 218.160468 
L 407.765496 226.352128 
L 413.452941 247.135453 
L 422.427064 244.925969 
L 429.387934 289.238499 
" style="fill:none;stroke:#eb8032;stroke-linecap:round;stroke-width:1.5;"/>
   </g>
   <g id="line2d_13">
    <path clip-path="url(#pd25a66de8d)" d="M 70.247007 155.072836 
L 142.075193 159.782131 
L 213.903378 171.62758 
L 285.731563 182.713343 
L 357.559749 197.031649 
L 379.182187 207.944013 
L 407.765496 219.385269 
L 413.452941 236.75046 
L 422.427064 229.699225 
L 429.387934 262.249571 
" style="fill:none;stroke:#c19632;stroke-linecap:round;stroke-width:1.5;"/>
   </g>
   <g id="line2d_14">
    <path clip-path="url(#pd25a66de8d)" d="M 70.247007 165.198268 
L 142.075193 164.491683 
L 213.903378 166.150789 
L 285.731563 186.016514 
L 357.559749 211.059349 
L 379.182187 215.850732 
L 407.765496 232.439134 
L 413.452941 250.728109 
L 422.427064 248.723252 
L 429.387934 299.670699 
" style="fill:none;stroke:#a0a131;stroke-linecap:round;stroke-width:1.5;"/>
   </g>
   <g id="line2d_15">
    <path clip-path="url(#pd25a66de8d)" d="M 70.247007 140.076662 
L 142.075193 149.739218 
L 213.903378 161.045136 
L 285.731563 170.14933 
L 357.559749 182.896235 
L 379.182187 195.828613 
L 407.765496 198.012987 
L 413.452941 218.794641 
L 422.427064 213.649246 
L 429.387934 243.420893 
" style="fill:none;stroke:#71ac31;stroke-linecap:round;stroke-width:1.5;"/>
   </g>
   <g id="line2d_16">
    <path clip-path="url(#pd25a66de8d)" d="M 70.247007 101.979008 
L 142.075193 108.760836 
L 213.903378 118.819387 
L 285.731563 129.540699 
L 357.559749 139.062632 
L 379.182187 144.536971 
L 407.765496 152.473114 
L 413.452941 174.290187 
L 422.427064 158.715547 
L 429.387934 185.233386 
" style="fill:none;stroke:#33b16f;stroke-linecap:round;stroke-width:1.5;"/>
   </g>
   <g id="line2d_17">
    <path clip-path="url(#pd25a66de8d)" d="M 70.247007 54.672718 
L 142.075193 64.986366 
L 213.903378 69.511321 
L 285.731563 88.80695 
L 357.559749 111.101979 
L 379.182187 117.943044 
L 407.765496 130.551489 
L 413.452941 143.158776 
L 422.427064 145.691818 
L 429.387934 185.925833 
" style="fill:none;stroke:#35ae97;stroke-linecap:round;stroke-width:1.5;"/>
   </g>
   <g id="line2d_18">
    <path clip-path="url(#pd25a66de8d)" d="M 70.247007 41.744312 
L 142.075193 67.271976 
L 213.903378 79.652076 
L 285.731563 91.195973 
L 357.559749 108.167392 
L 379.182187 115.84249 
L 407.765496 127.390092 
L 413.452941 145.896143 
L 422.427064 146.076216 
L 429.387934 185.057891 
" style="fill:none;stroke:#36abb0;stroke-linecap:round;stroke-width:1.5;"/>
   </g>
   <g id="line2d_19">
    <path clip-path="url(#pd25a66de8d)" d="M 70.247007 73.81903 
L 142.075193 85.909191 
L 213.903378 97.055039 
L 285.731563 106.370621 
L 357.559749 121.592803 
L 379.182187 129.524355 
L 407.765496 141.714252 
L 413.452941 158.13286 
L 422.427064 160.551787 
L 429.387934 190.930586 
" style="fill:none;stroke:#39a8cc;stroke-linecap:round;stroke-width:1.5;"/>
   </g>
   <g id="line2d_20">
    <path clip-path="url(#pd25a66de8d)" d="M 70.247007 119.40001 
L 142.075193 125.21911 
L 213.903378 135.415509 
L 285.731563 143.228888 
L 357.559749 162.855587 
L 379.182187 168.440233 
L 407.765496 180.697624 
L 413.452941 193.78636 
L 422.427064 196.791016 
L 429.387934 222.074138 
" style="fill:none;stroke:#639df4;stroke-linecap:round;stroke-width:1.5;"/>
   </g>
   <g id="line2d_21">
    <path clip-path="url(#pd25a66de8d)" d="M 70.247007 133.528779 
L 142.075193 140.24485 
L 213.903378 150.397851 
L 285.731563 160.932738 
L 357.559749 175.033823 
L 379.182187 185.295426 
L 407.765496 195.131075 
L 413.452941 209.115854 
L 422.427064 207.633489 
L 429.387934 240.057011 
" style="fill:none;stroke:#b486f4;stroke-linecap:round;stroke-width:1.5;"/>
   </g>
   <g id="line2d_22">
    <path clip-path="url(#pd25a66de8d)" d="M 70.247007 84.111952 
L 142.075193 121.757382 
L 213.903378 135.168682 
L 285.731563 143.277653 
L 357.559749 165.065075 
L 379.182187 173.432176 
L 407.765496 183.028009 
L 413.452941 198.490719 
L 422.427064 193.970655 
L 429.387934 226.692981 
" style="fill:none;stroke:#f35cf4;stroke-linecap:round;stroke-width:1.5;"/>
   </g>
   <g id="line2d_23">
    <path clip-path="url(#pd25a66de8d)" d="M 70.247007 140.556593 
L 142.075193 147.517601 
L 213.903378 158.133856 
L 285.731563 169.638707 
L 357.559749 186.274899 
L 379.182187 194.056131 
L 407.765496 205.552431 
L 413.452941 220.350517 
L 422.427064 220.804403 
L 429.387934 247.739971 
" style="fill:none;stroke:#f668be;stroke-linecap:round;stroke-width:1.5;"/>
   </g>
   <g id="line2d_24"/>
   <g id="line2d_25"/>
   <g id="line2d_26"/>
   <g id="line2d_27"/>
   <g id="line2d_28"/>
   <g id="line2d_29"/>
   <g id="line2d_30"/>
   <g id="line2d_31"/>
   <g id="line2d_32"/>
   <g id="line2d_33"/>
   <g id="line2d_34"/>
   <g id="line2d_35"/>
   <g id="line2d_36"/>
   <g id="patch_3">
    <path d="M 52.289961 312.726625 
L 52.289961 25.49625 
" style="fill:none;stroke:#cccccc;stroke-linecap:square;stroke-linejoin:miter;stroke-width:0.8;"/>
   </g>
   <g id="patch_4">
    <path d="M 447.34498 312.726625 
L 447.34498 25.49625 
" style="fill:none;stroke:#cccccc;stroke-linecap:square;stroke-linejoin:miter;stroke-width:0.8;"/>
   </g>
   <g id="patch_5">
    <path d="M 52.289961 312.726625 
L 447.34498 312.726625 
" style="fill:none;stroke:#cccccc;stroke-linecap:square;stroke-linejoin:miter;stroke-width:0.8;"/>
   </g>
   <g id="patch_6">
    <path d="M 52.289961 25.49625 
L 447.34498 25.49625 
" style="fill:none;stroke:#cccccc;stroke-linecap:square;stroke-linejoin:miter;stroke-width:0.8;"/>
   </g>
   <g id="text_13">
    <!-- Testing -->
    <g style="fill:#262626;" transform="translate(230.810596 19.49625)scale(0.12 -0.12)">
     <defs>
      <path d="M 422 0 
L 422 3319 
L 928 3319 
L 928 2847 
Q 1294 3394 1984 3394 
Q 2284 3394 2536 3286 
Q 2788 3178 2913 3003 
Q 3038 2828 3088 2588 
Q 3119 2431 3119 2041 
L 3119 0 
L 2556 0 
L 2556 2019 
Q 2556 2363 2490 2533 
Q 2425 2703 2258 2804 
Q 2091 2906 1866 2906 
Q 1506 2906 1245 2678 
Q 984 2450 984 1813 
L 984 0 
L 422 0 
z
" id="ArialMT-6e" transform="scale(0.015625)"/>
      <path d="M 319 -275 
L 866 -356 
Q 900 -609 1056 -725 
Q 1266 -881 1628 -881 
Q 2019 -881 2231 -725 
Q 2444 -569 2519 -288 
Q 2563 -116 2559 434 
Q 2191 0 1641 0 
Q 956 0 581 494 
Q 206 988 206 1678 
Q 206 2153 378 2554 
Q 550 2956 876 3175 
Q 1203 3394 1644 3394 
Q 2231 3394 2613 2919 
L 2613 3319 
L 3131 3319 
L 3131 450 
Q 3131 -325 2973 -648 
Q 2816 -972 2473 -1159 
Q 2131 -1347 1631 -1347 
Q 1038 -1347 672 -1080 
Q 306 -813 319 -275 
z
M 784 1719 
Q 784 1066 1043 766 
Q 1303 466 1694 466 
Q 2081 466 2343 764 
Q 2606 1063 2606 1700 
Q 2606 2309 2336 2618 
Q 2066 2928 1684 2928 
Q 1309 2928 1046 2623 
Q 784 2319 784 1719 
z
" id="ArialMT-67" transform="scale(0.015625)"/>
     </defs>
     <use xlink:href="#ArialMT-54"/>
     <use x="49.958984" xlink:href="#ArialMT-65"/>
     <use x="105.574219" xlink:href="#ArialMT-73"/>
     <use x="155.574219" xlink:href="#ArialMT-74"/>
     <use x="183.357422" xlink:href="#ArialMT-69"/>
     <use x="205.574219" xlink:href="#ArialMT-6e"/>
     <use x="261.189453" xlink:href="#ArialMT-67"/>
    </g>
   </g>
   <g id="legend_1">
    <g id="patch_7">
     <path d="M 59.289961 307.726625 
L 153.536836 307.726625 
Q 155.536836 307.726625 155.536836 305.726625 
L 155.536836 108.3985 
Q 155.536836 106.3985 153.536836 106.3985 
L 59.289961 106.3985 
Q 57.289961 106.3985 57.289961 108.3985 
L 57.289961 305.726625 
Q 57.289961 307.726625 59.289961 307.726625 
z
" style="fill:#ffffff;opacity:0.8;stroke:#cccccc;stroke-linejoin:miter;"/>
    </g>
    <g id="text_14">
     <!-- dataset -->
     <g style="fill:#262626;" transform="translate(90.013398 117.556313)scale(0.1 -0.1)">
      <defs>
       <path d="M 2575 0 
L 2575 419 
Q 2259 -75 1647 -75 
Q 1250 -75 917 144 
Q 584 363 401 755 
Q 219 1147 219 1656 
Q 219 2153 384 2558 
Q 550 2963 881 3178 
Q 1213 3394 1622 3394 
Q 1922 3394 2156 3267 
Q 2391 3141 2538 2938 
L 2538 4581 
L 3097 4581 
L 3097 0 
L 2575 0 
z
M 797 1656 
Q 797 1019 1065 703 
Q 1334 388 1700 388 
Q 2069 388 2326 689 
Q 2584 991 2584 1609 
Q 2584 2291 2321 2609 
Q 2059 2928 1675 2928 
Q 1300 2928 1048 2622 
Q 797 2316 797 1656 
z
" id="ArialMT-64" transform="scale(0.015625)"/>
      </defs>
      <use xlink:href="#ArialMT-64"/>
      <use x="55.615234" xlink:href="#ArialMT-61"/>
      <use x="111.230469" xlink:href="#ArialMT-74"/>
      <use x="139.013672" xlink:href="#ArialMT-61"/>
      <use x="194.628906" xlink:href="#ArialMT-73"/>
      <use x="244.628906" xlink:href="#ArialMT-65"/>
      <use x="300.244141" xlink:href="#ArialMT-74"/>
     </g>
    </g>
    <g id="line2d_37">
     <path d="M 61.289961 128.201625 
L 81.289961 128.201625 
" style="fill:none;stroke:#f77189;stroke-linecap:round;stroke-width:1.5;"/>
    </g>
    <g id="line2d_38"/>
    <g id="text_15">
     <!-- kinships -->
     <g style="fill:#262626;" transform="translate(89.289961 131.701625)scale(0.1 -0.1)">
      <defs>
       <path d="M 422 0 
L 422 4581 
L 984 4581 
L 984 2938 
Q 1378 3394 1978 3394 
Q 2347 3394 2619 3248 
Q 2891 3103 3008 2847 
Q 3125 2591 3125 2103 
L 3125 0 
L 2563 0 
L 2563 2103 
Q 2563 2525 2380 2717 
Q 2197 2909 1863 2909 
Q 1613 2909 1392 2779 
Q 1172 2650 1078 2428 
Q 984 2206 984 1816 
L 984 0 
L 422 0 
z
" id="ArialMT-68" transform="scale(0.015625)"/>
      </defs>
      <use xlink:href="#ArialMT-6b"/>
      <use x="50" xlink:href="#ArialMT-69"/>
      <use x="72.216797" xlink:href="#ArialMT-6e"/>
      <use x="127.832031" xlink:href="#ArialMT-73"/>
      <use x="177.832031" xlink:href="#ArialMT-68"/>
      <use x="233.447266" xlink:href="#ArialMT-69"/>
      <use x="255.664062" xlink:href="#ArialMT-70"/>
      <use x="311.279297" xlink:href="#ArialMT-73"/>
     </g>
    </g>
    <g id="line2d_39">
     <path d="M 61.289961 142.346938 
L 81.289961 142.346938 
" style="fill:none;stroke:#eb8032;stroke-linecap:round;stroke-width:1.5;"/>
    </g>
    <g id="line2d_40"/>
    <g id="text_16">
     <!-- nations -->
     <g style="fill:#262626;" transform="translate(89.289961 145.846938)scale(0.1 -0.1)">
      <use xlink:href="#ArialMT-6e"/>
      <use x="55.615234" xlink:href="#ArialMT-61"/>
      <use x="111.230469" xlink:href="#ArialMT-74"/>
      <use x="139.013672" xlink:href="#ArialMT-69"/>
      <use x="161.230469" xlink:href="#ArialMT-6f"/>
      <use x="216.845703" xlink:href="#ArialMT-6e"/>
      <use x="272.460938" xlink:href="#ArialMT-73"/>
     </g>
    </g>
    <g id="line2d_41">
     <path d="M 61.289961 156.49225 
L 81.289961 156.49225 
" style="fill:none;stroke:#c19632;stroke-linecap:round;stroke-width:1.5;"/>
    </g>
    <g id="line2d_42"/>
    <g id="text_17">
     <!-- umls -->
     <g style="fill:#262626;" transform="translate(89.289961 159.99225)scale(0.1 -0.1)">
      <use xlink:href="#ArialMT-75"/>
      <use x="55.615234" xlink:href="#ArialMT-6d"/>
      <use x="138.916016" xlink:href="#ArialMT-6c"/>
      <use x="161.132812" xlink:href="#ArialMT-73"/>
     </g>
    </g>
    <g id="line2d_43">
     <path d="M 61.289961 170.637563 
L 81.289961 170.637563 
" style="fill:none;stroke:#a0a131;stroke-linecap:round;stroke-width:1.5;"/>
    </g>
    <g id="line2d_44"/>
    <g id="text_18">
     <!-- countries -->
     <g style="fill:#262626;" transform="translate(89.289961 174.137563)scale(0.1 -0.1)">
      <defs>
       <path d="M 2588 1216 
L 3141 1144 
Q 3050 572 2676 248 
Q 2303 -75 1759 -75 
Q 1078 -75 664 370 
Q 250 816 250 1647 
Q 250 2184 428 2587 
Q 606 2991 970 3192 
Q 1334 3394 1763 3394 
Q 2303 3394 2647 3120 
Q 2991 2847 3088 2344 
L 2541 2259 
Q 2463 2594 2264 2762 
Q 2066 2931 1784 2931 
Q 1359 2931 1093 2626 
Q 828 2322 828 1663 
Q 828 994 1084 691 
Q 1341 388 1753 388 
Q 2084 388 2306 591 
Q 2528 794 2588 1216 
z
" id="ArialMT-63" transform="scale(0.015625)"/>
      </defs>
      <use xlink:href="#ArialMT-63"/>
      <use x="50" xlink:href="#ArialMT-6f"/>
      <use x="105.615234" xlink:href="#ArialMT-75"/>
      <use x="161.230469" xlink:href="#ArialMT-6e"/>
      <use x="216.845703" xlink:href="#ArialMT-74"/>
      <use x="244.628906" xlink:href="#ArialMT-72"/>
      <use x="277.929688" xlink:href="#ArialMT-69"/>
      <use x="300.146484" xlink:href="#ArialMT-65"/>
      <use x="355.761719" xlink:href="#ArialMT-73"/>
     </g>
    </g>
    <g id="line2d_45">
     <path d="M 61.289961 184.782875 
L 81.289961 184.782875 
" style="fill:none;stroke:#71ac31;stroke-linecap:round;stroke-width:1.5;"/>
    </g>
    <g id="line2d_46"/>
    <g id="text_19">
     <!-- codexsmall -->
     <g style="fill:#262626;" transform="translate(89.289961 188.282875)scale(0.1 -0.1)">
      <defs>
       <path d="M 47 0 
L 1259 1725 
L 138 3319 
L 841 3319 
L 1350 2541 
Q 1494 2319 1581 2169 
Q 1719 2375 1834 2534 
L 2394 3319 
L 3066 3319 
L 1919 1756 
L 3153 0 
L 2463 0 
L 1781 1031 
L 1600 1309 
L 728 0 
L 47 0 
z
" id="ArialMT-78" transform="scale(0.015625)"/>
      </defs>
      <use xlink:href="#ArialMT-63"/>
      <use x="50" xlink:href="#ArialMT-6f"/>
      <use x="105.615234" xlink:href="#ArialMT-64"/>
      <use x="161.230469" xlink:href="#ArialMT-65"/>
      <use x="216.845703" xlink:href="#ArialMT-78"/>
      <use x="266.845703" xlink:href="#ArialMT-73"/>
      <use x="316.845703" xlink:href="#ArialMT-6d"/>
      <use x="400.146484" xlink:href="#ArialMT-61"/>
      <use x="455.761719" xlink:href="#ArialMT-6c"/>
      <use x="477.978516" xlink:href="#ArialMT-6c"/>
     </g>
    </g>
    <g id="line2d_47">
     <path d="M 61.289961 198.928188 
L 81.289961 198.928188 
" style="fill:none;stroke:#33b16f;stroke-linecap:round;stroke-width:1.5;"/>
    </g>
    <g id="line2d_48"/>
    <g id="text_20">
     <!-- codexmedium -->
     <g style="fill:#262626;" transform="translate(89.289961 202.428188)scale(0.1 -0.1)">
      <use xlink:href="#ArialMT-63"/>
      <use x="50" xlink:href="#ArialMT-6f"/>
      <use x="105.615234" xlink:href="#ArialMT-64"/>
      <use x="161.230469" xlink:href="#ArialMT-65"/>
      <use x="216.845703" xlink:href="#ArialMT-78"/>
      <use x="266.845703" xlink:href="#ArialMT-6d"/>
      <use x="350.146484" xlink:href="#ArialMT-65"/>
      <use x="405.761719" xlink:href="#ArialMT-64"/>
      <use x="461.376953" xlink:href="#ArialMT-69"/>
      <use x="483.59375" xlink:href="#ArialMT-75"/>
      <use x="539.208984" xlink:href="#ArialMT-6d"/>
     </g>
    </g>
    <g id="line2d_49">
     <path d="M 61.289961 213.0735 
L 81.289961 213.0735 
" style="fill:none;stroke:#35ae97;stroke-linecap:round;stroke-width:1.5;"/>
    </g>
    <g id="line2d_50"/>
    <g id="text_21">
     <!-- codexlarge -->
     <g style="fill:#262626;" transform="translate(89.289961 216.5735)scale(0.1 -0.1)">
      <use xlink:href="#ArialMT-63"/>
      <use x="50" xlink:href="#ArialMT-6f"/>
      <use x="105.615234" xlink:href="#ArialMT-64"/>
      <use x="161.230469" xlink:href="#ArialMT-65"/>
      <use x="216.845703" xlink:href="#ArialMT-78"/>
      <use x="266.845703" xlink:href="#ArialMT-6c"/>
      <use x="289.0625" xlink:href="#ArialMT-61"/>
      <use x="344.677734" xlink:href="#ArialMT-72"/>
      <use x="377.978516" xlink:href="#ArialMT-67"/>
      <use x="433.59375" xlink:href="#ArialMT-65"/>
     </g>
    </g>
    <g id="line2d_51">
     <path d="M 61.289961 227.336 
L 81.289961 227.336 
" style="fill:none;stroke:#36abb0;stroke-linecap:round;stroke-width:1.5;"/>
    </g>
    <g id="line2d_52"/>
    <g id="text_22">
     <!-- fb15k -->
     <g style="fill:#262626;" transform="translate(89.289961 230.836)scale(0.1 -0.1)">
      <defs>
       <path d="M 556 0 
L 556 2881 
L 59 2881 
L 59 3319 
L 556 3319 
L 556 3672 
Q 556 4006 616 4169 
Q 697 4388 901 4523 
Q 1106 4659 1475 4659 
Q 1713 4659 2000 4603 
L 1916 4113 
Q 1741 4144 1584 4144 
Q 1328 4144 1222 4034 
Q 1116 3925 1116 3625 
L 1116 3319 
L 1763 3319 
L 1763 2881 
L 1116 2881 
L 1116 0 
L 556 0 
z
" id="ArialMT-66" transform="scale(0.015625)"/>
       <path d="M 941 0 
L 419 0 
L 419 4581 
L 981 4581 
L 981 2947 
Q 1338 3394 1891 3394 
Q 2197 3394 2470 3270 
Q 2744 3147 2920 2923 
Q 3097 2700 3197 2384 
Q 3297 2069 3297 1709 
Q 3297 856 2875 390 
Q 2453 -75 1863 -75 
Q 1275 -75 941 416 
L 941 0 
z
M 934 1684 
Q 934 1088 1097 822 
Q 1363 388 1816 388 
Q 2184 388 2453 708 
Q 2722 1028 2722 1663 
Q 2722 2313 2464 2622 
Q 2206 2931 1841 2931 
Q 1472 2931 1203 2611 
Q 934 2291 934 1684 
z
" id="ArialMT-62" transform="scale(0.015625)"/>
      </defs>
      <use xlink:href="#ArialMT-66"/>
      <use x="27.783203" xlink:href="#ArialMT-62"/>
      <use x="83.398438" xlink:href="#ArialMT-31"/>
      <use x="139.013672" xlink:href="#ArialMT-35"/>
      <use x="194.628906" xlink:href="#ArialMT-6b"/>
     </g>
    </g>
    <g id="line2d_53">
     <path d="M 61.289961 241.481313 
L 81.289961 241.481313 
" style="fill:none;stroke:#39a8cc;stroke-linecap:round;stroke-width:1.5;"/>
    </g>
    <g id="line2d_54"/>
    <g id="text_23">
     <!-- fb15k237 -->
     <g style="fill:#262626;" transform="translate(89.289961 244.981313)scale(0.1 -0.1)">
      <defs>
       <path d="M 303 3981 
L 303 4522 
L 3269 4522 
L 3269 4084 
Q 2831 3619 2401 2847 
Q 1972 2075 1738 1259 
Q 1569 684 1522 0 
L 944 0 
Q 953 541 1156 1306 
Q 1359 2072 1739 2783 
Q 2119 3494 2547 3981 
L 303 3981 
z
" id="ArialMT-37" transform="scale(0.015625)"/>
      </defs>
      <use xlink:href="#ArialMT-66"/>
      <use x="27.783203" xlink:href="#ArialMT-62"/>
      <use x="83.398438" xlink:href="#ArialMT-31"/>
      <use x="139.013672" xlink:href="#ArialMT-35"/>
      <use x="194.628906" xlink:href="#ArialMT-6b"/>
      <use x="244.628906" xlink:href="#ArialMT-32"/>
      <use x="300.244141" xlink:href="#ArialMT-33"/>
      <use x="355.859375" xlink:href="#ArialMT-37"/>
     </g>
    </g>
    <g id="line2d_55">
     <path d="M 61.289961 255.626625 
L 81.289961 255.626625 
" style="fill:none;stroke:#639df4;stroke-linecap:round;stroke-width:1.5;"/>
    </g>
    <g id="line2d_56"/>
    <g id="text_24">
     <!-- wn18 -->
     <g style="fill:#262626;" transform="translate(89.289961 259.126625)scale(0.1 -0.1)">
      <defs>
       <path d="M 1034 0 
L 19 3319 
L 600 3319 
L 1128 1403 
L 1325 691 
Q 1338 744 1497 1375 
L 2025 3319 
L 2603 3319 
L 3100 1394 
L 3266 759 
L 3456 1400 
L 4025 3319 
L 4572 3319 
L 3534 0 
L 2950 0 
L 2422 1988 
L 2294 2553 
L 1622 0 
L 1034 0 
z
" id="ArialMT-77" transform="scale(0.015625)"/>
       <path d="M 1131 2484 
Q 781 2613 612 2850 
Q 444 3088 444 3419 
Q 444 3919 803 4259 
Q 1163 4600 1759 4600 
Q 2359 4600 2725 4251 
Q 3091 3903 3091 3403 
Q 3091 3084 2923 2848 
Q 2756 2613 2416 2484 
Q 2838 2347 3058 2040 
Q 3278 1734 3278 1309 
Q 3278 722 2862 322 
Q 2447 -78 1769 -78 
Q 1091 -78 675 323 
Q 259 725 259 1325 
Q 259 1772 486 2073 
Q 713 2375 1131 2484 
z
M 1019 3438 
Q 1019 3113 1228 2906 
Q 1438 2700 1772 2700 
Q 2097 2700 2305 2904 
Q 2513 3109 2513 3406 
Q 2513 3716 2298 3927 
Q 2084 4138 1766 4138 
Q 1444 4138 1231 3931 
Q 1019 3725 1019 3438 
z
M 838 1322 
Q 838 1081 952 856 
Q 1066 631 1291 507 
Q 1516 384 1775 384 
Q 2178 384 2440 643 
Q 2703 903 2703 1303 
Q 2703 1709 2433 1975 
Q 2163 2241 1756 2241 
Q 1359 2241 1098 1978 
Q 838 1716 838 1322 
z
" id="ArialMT-38" transform="scale(0.015625)"/>
      </defs>
      <use xlink:href="#ArialMT-77"/>
      <use x="72.216797" xlink:href="#ArialMT-6e"/>
      <use x="127.832031" xlink:href="#ArialMT-31"/>
      <use x="183.447266" xlink:href="#ArialMT-38"/>
     </g>
    </g>
    <g id="line2d_57">
     <path d="M 61.289961 269.771938 
L 81.289961 269.771938 
" style="fill:none;stroke:#b486f4;stroke-linecap:round;stroke-width:1.5;"/>
    </g>
    <g id="line2d_58"/>
    <g id="text_25">
     <!-- wn18rr -->
     <g style="fill:#262626;" transform="translate(89.289961 273.271938)scale(0.1 -0.1)">
      <use xlink:href="#ArialMT-77"/>
      <use x="72.216797" xlink:href="#ArialMT-6e"/>
      <use x="127.832031" xlink:href="#ArialMT-31"/>
      <use x="183.447266" xlink:href="#ArialMT-38"/>
      <use x="239.0625" xlink:href="#ArialMT-72"/>
      <use x="272.363281" xlink:href="#ArialMT-72"/>
     </g>
    </g>
    <g id="line2d_59">
     <path d="M 61.289961 283.946937 
L 81.289961 283.946937 
" style="fill:none;stroke:#f35cf4;stroke-linecap:round;stroke-width:1.5;"/>
    </g>
    <g id="line2d_60"/>
    <g id="text_26">
     <!-- yago310 -->
     <g style="fill:#262626;" transform="translate(89.289961 287.446937)scale(0.1 -0.1)">
      <defs>
       <path d="M 397 -1278 
L 334 -750 
Q 519 -800 656 -800 
Q 844 -800 956 -737 
Q 1069 -675 1141 -563 
Q 1194 -478 1313 -144 
Q 1328 -97 1363 -6 
L 103 3319 
L 709 3319 
L 1400 1397 
Q 1534 1031 1641 628 
Q 1738 1016 1872 1384 
L 2581 3319 
L 3144 3319 
L 1881 -56 
Q 1678 -603 1566 -809 
Q 1416 -1088 1222 -1217 
Q 1028 -1347 759 -1347 
Q 597 -1347 397 -1278 
z
" id="ArialMT-79" transform="scale(0.015625)"/>
      </defs>
      <use xlink:href="#ArialMT-79"/>
      <use x="50" xlink:href="#ArialMT-61"/>
      <use x="105.615234" xlink:href="#ArialMT-67"/>
      <use x="161.230469" xlink:href="#ArialMT-6f"/>
      <use x="216.845703" xlink:href="#ArialMT-33"/>
      <use x="272.460938" xlink:href="#ArialMT-31"/>
      <use x="328.076172" xlink:href="#ArialMT-30"/>
     </g>
    </g>
    <g id="line2d_61">
     <path d="M 61.289961 298.239125 
L 81.289961 298.239125 
" style="fill:none;stroke:#f668be;stroke-linecap:round;stroke-width:1.5;"/>
    </g>
    <g id="line2d_62"/>
    <g id="text_27">
     <!-- dbpedia50 -->
     <g style="fill:#262626;" transform="translate(89.289961 301.739125)scale(0.1 -0.1)">
      <use xlink:href="#ArialMT-64"/>
      <use x="55.615234" xlink:href="#ArialMT-62"/>
      <use x="111.230469" xlink:href="#ArialMT-70"/>
      <use x="166.845703" xlink:href="#ArialMT-65"/>
      <use x="222.460938" xlink:href="#ArialMT-64"/>
      <use x="278.076172" xlink:href="#ArialMT-69"/>
      <use x="300.292969" xlink:href="#ArialMT-61"/>
      <use x="355.908203" xlink:href="#ArialMT-35"/>
      <use x="411.523438" xlink:href="#ArialMT-30"/>
     </g>
    </g>
   </g>
  </g>
  <g id="axes_2">
   <g id="patch_8">
    <path d="M 458.14498 312.726625 
L 853.2 312.726625 
L 853.2 25.49625 
L 458.14498 25.49625 
z
" style="fill:#ffffff;"/>
   </g>
   <g id="matplotlib.axis_3">
    <g id="xtick_51">
     <g id="line2d_63">
      <path clip-path="url(#pdb52727cb4)" d="M 476.102027 312.726625 
L 476.102027 25.49625 
" style="fill:none;stroke:#cccccc;stroke-linecap:round;stroke-width:0.8;"/>
     </g>
     <g id="text_28">
      <!-- $\mathdefault{10^{-5}}$ -->
      <g style="fill:#262626;" transform="translate(466.202027 329.939125)scale(0.1 -0.1)">
       <use transform="translate(0 0.879688)" xlink:href="#ArialMT-31"/>
       <use transform="translate(55.615234 0.879688)" xlink:href="#ArialMT-30"/>
       <use transform="translate(112.972813 70.573438)scale(0.7)" xlink:href="#ArialMT-2212"/>
       <use transform="translate(153.851719 70.573438)scale(0.7)" xlink:href="#ArialMT-35"/>
      </g>
     </g>
    </g>
    <g id="xtick_52">
     <g id="line2d_64">
      <path clip-path="url(#pdb52727cb4)" d="M 547.930212 312.726625 
L 547.930212 25.49625 
" style="fill:none;stroke:#cccccc;stroke-linecap:round;stroke-width:0.8;"/>
     </g>
     <g id="text_29">
      <!-- $\mathdefault{10^{-4}}$ -->
      <g style="fill:#262626;" transform="translate(538.030212 329.939125)scale(0.1 -0.1)">
       <use transform="translate(0 0.201563)" xlink:href="#ArialMT-31"/>
       <use transform="translate(55.615234 0.201563)" xlink:href="#ArialMT-30"/>
       <use transform="translate(112.972813 69.895313)scale(0.7)" xlink:href="#ArialMT-2212"/>
       <use transform="translate(153.851719 69.895313)scale(0.7)" xlink:href="#ArialMT-34"/>
      </g>
     </g>
    </g>
    <g id="xtick_53">
     <g id="line2d_65">
      <path clip-path="url(#pdb52727cb4)" d="M 619.758398 312.726625 
L 619.758398 25.49625 
" style="fill:none;stroke:#cccccc;stroke-linecap:round;stroke-width:0.8;"/>
     </g>
     <g id="text_30">
      <!-- $\mathdefault{10^{-3}}$ -->
      <g style="fill:#262626;" transform="translate(609.858398 330.039125)scale(0.1 -0.1)">
       <use transform="translate(0 0.99375)" xlink:href="#ArialMT-31"/>
       <use transform="translate(55.615234 0.99375)" xlink:href="#ArialMT-30"/>
       <use transform="translate(112.972813 70.6875)scale(0.7)" xlink:href="#ArialMT-2212"/>
       <use transform="translate(153.851719 70.6875)scale(0.7)" xlink:href="#ArialMT-33"/>
      </g>
     </g>
    </g>
    <g id="xtick_54">
     <g id="line2d_66">
      <path clip-path="url(#pdb52727cb4)" d="M 691.586583 312.726625 
L 691.586583 25.49625 
" style="fill:none;stroke:#cccccc;stroke-linecap:round;stroke-width:0.8;"/>
     </g>
     <g id="text_31">
      <!-- $\mathdefault{10^{-2}}$ -->
      <g style="fill:#262626;" transform="translate(681.686583 330.039125)scale(0.1 -0.1)">
       <use transform="translate(0 0.99375)" xlink:href="#ArialMT-31"/>
       <use transform="translate(55.615234 0.99375)" xlink:href="#ArialMT-30"/>
       <use transform="translate(112.972813 70.6875)scale(0.7)" xlink:href="#ArialMT-2212"/>
       <use transform="translate(153.851719 70.6875)scale(0.7)" xlink:href="#ArialMT-32"/>
      </g>
     </g>
    </g>
    <g id="xtick_55">
     <g id="line2d_67">
      <path clip-path="url(#pdb52727cb4)" d="M 763.414768 312.726625 
L 763.414768 25.49625 
" style="fill:none;stroke:#cccccc;stroke-linecap:round;stroke-width:0.8;"/>
     </g>
     <g id="text_32">
      <!-- $\mathdefault{10^{-1}}$ -->
      <g style="fill:#262626;" transform="translate(753.514768 330.039125)scale(0.1 -0.1)">
       <use transform="translate(0 0.99375)" xlink:href="#ArialMT-31"/>
       <use transform="translate(55.615234 0.99375)" xlink:href="#ArialMT-30"/>
       <use transform="translate(112.972813 70.6875)scale(0.7)" xlink:href="#ArialMT-2212"/>
       <use transform="translate(153.851719 70.6875)scale(0.7)" xlink:href="#ArialMT-31"/>
      </g>
     </g>
    </g>
    <g id="xtick_56">
     <g id="line2d_68">
      <path clip-path="url(#pdb52727cb4)" d="M 835.242954 312.726625 
L 835.242954 25.49625 
" style="fill:none;stroke:#cccccc;stroke-linecap:round;stroke-width:0.8;"/>
     </g>
     <g id="text_33">
      <!-- $\mathdefault{10^{0}}$ -->
      <g style="fill:#262626;" transform="translate(827.392954 330.039125)scale(0.1 -0.1)">
       <use transform="translate(0 0.99375)" xlink:href="#ArialMT-31"/>
       <use transform="translate(55.615234 0.99375)" xlink:href="#ArialMT-30"/>
       <use transform="translate(112.972813 70.6875)scale(0.7)" xlink:href="#ArialMT-30"/>
      </g>
     </g>
    </g>
    <g id="xtick_57"/>
    <g id="xtick_58"/>
    <g id="xtick_59"/>
    <g id="xtick_60"/>
    <g id="xtick_61"/>
    <g id="xtick_62"/>
    <g id="xtick_63"/>
    <g id="xtick_64"/>
    <g id="xtick_65"/>
    <g id="xtick_66"/>
    <g id="xtick_67"/>
    <g id="xtick_68"/>
    <g id="xtick_69"/>
    <g id="xtick_70"/>
    <g id="xtick_71"/>
    <g id="xtick_72"/>
    <g id="xtick_73"/>
    <g id="xtick_74"/>
    <g id="xtick_75"/>
    <g id="xtick_76"/>
    <g id="xtick_77"/>
    <g id="xtick_78"/>
    <g id="xtick_79"/>
    <g id="xtick_80"/>
    <g id="xtick_81"/>
    <g id="xtick_82"/>
    <g id="xtick_83"/>
    <g id="xtick_84"/>
    <g id="xtick_85"/>
    <g id="xtick_86"/>
    <g id="xtick_87"/>
    <g id="xtick_88"/>
    <g id="xtick_89"/>
    <g id="xtick_90"/>
    <g id="xtick_91"/>
    <g id="xtick_92"/>
    <g id="xtick_93"/>
    <g id="xtick_94"/>
    <g id="xtick_95"/>
    <g id="xtick_96"/>
    <g id="xtick_97"/>
    <g id="xtick_98"/>
    <g id="xtick_99"/>
    <g id="xtick_100"/>
    <g id="text_34">
     <!-- Bloom Filter Error Rate -->
     <g style="fill:#262626;" transform="translate(604.552178 343.184438)scale(0.1 -0.1)">
      <use xlink:href="#ArialMT-42"/>
      <use x="66.699219" xlink:href="#ArialMT-6c"/>
      <use x="88.916016" xlink:href="#ArialMT-6f"/>
      <use x="144.53125" xlink:href="#ArialMT-6f"/>
      <use x="200.146484" xlink:href="#ArialMT-6d"/>
      <use x="283.447266" xlink:href="#ArialMT-20"/>
      <use x="311.230469" xlink:href="#ArialMT-46"/>
      <use x="372.314453" xlink:href="#ArialMT-69"/>
      <use x="394.53125" xlink:href="#ArialMT-6c"/>
      <use x="416.748047" xlink:href="#ArialMT-74"/>
      <use x="444.53125" xlink:href="#ArialMT-65"/>
      <use x="500.146484" xlink:href="#ArialMT-72"/>
      <use x="533.447266" xlink:href="#ArialMT-20"/>
      <use x="561.230469" xlink:href="#ArialMT-45"/>
      <use x="627.929688" xlink:href="#ArialMT-72"/>
      <use x="661.230469" xlink:href="#ArialMT-72"/>
      <use x="694.53125" xlink:href="#ArialMT-6f"/>
      <use x="750.146484" xlink:href="#ArialMT-72"/>
      <use x="783.447266" xlink:href="#ArialMT-20"/>
      <use x="811.230469" xlink:href="#ArialMT-52"/>
      <use x="883.447266" xlink:href="#ArialMT-61"/>
      <use x="939.0625" xlink:href="#ArialMT-74"/>
      <use x="966.845703" xlink:href="#ArialMT-65"/>
     </g>
    </g>
   </g>
   <g id="matplotlib.axis_4">
    <g id="ytick_34">
     <g id="line2d_69">
      <path clip-path="url(#pdb52727cb4)" d="M 458.14498 300.519391 
L 853.2 300.519391 
" style="fill:none;stroke:#cccccc;stroke-linecap:round;stroke-width:0.8;"/>
     </g>
    </g>
    <g id="ytick_35">
     <g id="line2d_70">
      <path clip-path="url(#pdb52727cb4)" d="M 458.14498 222.876314 
L 853.2 222.876314 
" style="fill:none;stroke:#cccccc;stroke-linecap:round;stroke-width:0.8;"/>
     </g>
    </g>
    <g id="ytick_36">
     <g id="line2d_71">
      <path clip-path="url(#pdb52727cb4)" d="M 458.14498 145.233238 
L 853.2 145.233238 
" style="fill:none;stroke:#cccccc;stroke-linecap:round;stroke-width:0.8;"/>
     </g>
    </g>
    <g id="ytick_37">
     <g id="line2d_72">
      <path clip-path="url(#pdb52727cb4)" d="M 458.14498 67.590161 
L 853.2 67.590161 
" style="fill:none;stroke:#cccccc;stroke-linecap:round;stroke-width:0.8;"/>
     </g>
    </g>
    <g id="ytick_38"/>
    <g id="ytick_39"/>
    <g id="ytick_40"/>
    <g id="ytick_41"/>
    <g id="ytick_42"/>
    <g id="ytick_43"/>
    <g id="ytick_44"/>
    <g id="ytick_45"/>
    <g id="ytick_46"/>
    <g id="ytick_47"/>
    <g id="ytick_48"/>
    <g id="ytick_49"/>
    <g id="ytick_50"/>
    <g id="ytick_51"/>
    <g id="ytick_52"/>
    <g id="ytick_53"/>
    <g id="ytick_54"/>
    <g id="ytick_55"/>
    <g id="ytick_56"/>
    <g id="ytick_57"/>
    <g id="ytick_58"/>
    <g id="ytick_59"/>
    <g id="ytick_60"/>
    <g id="ytick_61"/>
    <g id="ytick_62"/>
    <g id="ytick_63"/>
    <g id="ytick_64"/>
    <g id="ytick_65"/>
    <g id="ytick_66"/>
   </g>
   <g id="line2d_73">
    <path clip-path="url(#pdb52727cb4)" d="M 476.102027 141.850807 
L 547.930212 148.388805 
L 619.758398 170.03119 
L 691.586583 181.118073 
L 763.414768 196.471412 
L 785.037207 200.841654 
L 813.620515 214.8501 
L 819.307961 230.415805 
L 828.282083 231.323279 
L 835.242954 266.525329 
" style="fill:none;stroke:#f77189;stroke-linecap:round;stroke-width:1.5;"/>
   </g>
   <g id="line2d_74">
    <path clip-path="url(#pdb52727cb4)" d="M 476.102027 157.72832 
L 547.930212 148.374795 
L 619.758398 163.479018 
L 691.586583 183.263248 
L 763.414768 207.261631 
L 785.037207 218.607267 
L 813.620515 229.185022 
L 819.307961 239.055144 
L 828.282083 247.028158 
L 835.242954 284.396884 
" style="fill:none;stroke:#eb8032;stroke-linecap:round;stroke-width:1.5;"/>
   </g>
   <g id="line2d_75">
    <path clip-path="url(#pdb52727cb4)" d="M 476.102027 155.157859 
L 547.930212 161.192058 
L 619.758398 171.59682 
L 691.586583 183.045085 
L 763.414768 201.829773 
L 785.037207 209.296061 
L 813.620515 219.270435 
L 819.307961 236.169934 
L 828.282083 236.960728 
L 835.242954 264.973874 
" style="fill:none;stroke:#c19632;stroke-linecap:round;stroke-width:1.5;"/>
   </g>
   <g id="line2d_76">
    <path clip-path="url(#pdb52727cb4)" d="M 476.102027 156.11454 
L 547.930212 170.046883 
L 619.758398 174.162934 
L 691.586583 194.134329 
L 763.414768 208.08583 
L 785.037207 214.590675 
L 813.620515 228.859307 
L 819.307961 248.100028 
L 828.282083 245.493254 
L 835.242954 299.668047 
" style="fill:none;stroke:#a0a131;stroke-linecap:round;stroke-width:1.5;"/>
   </g>
   <g id="line2d_77">
    <path clip-path="url(#pdb52727cb4)" d="M 476.102027 141.77118 
L 547.930212 148.744634 
L 619.758398 160.060097 
L 691.586583 172.660361 
L 763.414768 187.633496 
L 785.037207 193.240121 
L 813.620515 207.835553 
L 819.307961 210.929678 
L 828.282083 211.743721 
L 835.242954 245.115956 
" style="fill:none;stroke:#71ac31;stroke-linecap:round;stroke-width:1.5;"/>
   </g>
   <g id="line2d_78">
    <path clip-path="url(#pdb52727cb4)" d="M 476.102027 101.54412 
L 547.930212 107.393494 
L 619.758398 87.320656 
L 691.586583 130.179328 
L 763.414768 146.666118 
L 785.037207 135.048331 
L 813.620515 165.125874 
L 819.307961 169.860137 
L 828.282083 175.360336 
L 835.242954 191.722785 
" style="fill:none;stroke:#33b16f;stroke-linecap:round;stroke-width:1.5;"/>
   </g>
   <g id="line2d_79">
    <path clip-path="url(#pdb52727cb4)" d="M 476.102027 50.131056 
L 547.930212 64.171707 
L 619.758398 76.222399 
L 691.586583 92.984973 
L 763.414768 106.301465 
L 785.037207 113.950288 
L 813.620515 130.062138 
L 819.307961 146.229939 
L 828.282083 147.787682 
L 835.242954 182.80687 
" style="fill:none;stroke:#35ae97;stroke-linecap:round;stroke-width:1.5;"/>
   </g>
   <g id="line2d_80">
    <path clip-path="url(#pdb52727cb4)" d="M 476.102027 38.552176 
L 547.930212 43.254654 
L 619.758398 82.135215 
L 691.586583 93.73583 
L 763.414768 110.97164 
L 785.037207 118.37276 
L 813.620515 129.927774 
L 819.307961 148.197887 
L 828.282083 148.508475 
L 835.242954 186.245859 
" style="fill:none;stroke:#36abb0;stroke-linecap:round;stroke-width:1.5;"/>
   </g>
   <g id="line2d_81">
    <path clip-path="url(#pdb52727cb4)" d="M 476.102027 84.670744 
L 547.930212 88.715169 
L 619.758398 97.213804 
L 691.586583 112.559099 
L 763.414768 128.196148 
L 785.037207 133.400354 
L 813.620515 145.165858 
L 819.307961 156.464627 
L 828.282083 163.162556 
L 835.242954 191.46542 
" style="fill:none;stroke:#39a8cc;stroke-linecap:round;stroke-width:1.5;"/>
   </g>
   <g id="line2d_82">
    <path clip-path="url(#pdb52727cb4)" d="M 476.102027 119.183254 
L 547.930212 125.760603 
L 619.758398 134.66472 
L 691.586583 146.055381 
L 763.414768 161.452367 
L 785.037207 167.413732 
L 813.620515 181.070647 
L 819.307961 193.118113 
L 828.282083 196.319464 
L 835.242954 223.472513 
" style="fill:none;stroke:#639df4;stroke-linecap:round;stroke-width:1.5;"/>
   </g>
   <g id="line2d_83">
    <path clip-path="url(#pdb52727cb4)" d="M 476.102027 133.837933 
L 547.930212 140.814315 
L 619.758398 151.485016 
L 691.586583 162.02909 
L 763.414768 168.766711 
L 785.037207 186.052853 
L 813.620515 195.103903 
L 819.307961 211.34541 
L 828.282083 208.288073 
L 835.242954 238.391366 
" style="fill:none;stroke:#b486f4;stroke-linecap:round;stroke-width:1.5;"/>
   </g>
   <g id="line2d_84">
    <path clip-path="url(#pdb52727cb4)" d="M 476.102027 90.098359 
L 547.930212 109.699435 
L 619.758398 135.664647 
L 691.586583 144.626241 
L 763.414768 164.475665 
L 785.037207 173.169989 
L 813.620515 183.9071 
L 819.307961 198.22569 
L 828.282083 194.264851 
L 835.242954 222.807058 
" style="fill:none;stroke:#f35cf4;stroke-linecap:round;stroke-width:1.5;"/>
   </g>
   <g id="line2d_85">
    <path clip-path="url(#pdb52727cb4)" d="M 476.102027 164.526982 
L 547.930212 170.507127 
L 619.758398 181.547464 
L 691.586583 191.980558 
L 763.414768 209.739877 
L 785.037207 217.292261 
L 813.620515 228.705475 
L 819.307961 247.502133 
L 828.282083 246.686999 
L 835.242954 295.201698 
" style="fill:none;stroke:#f668be;stroke-linecap:round;stroke-width:1.5;"/>
   </g>
   <g id="line2d_86"/>
   <g id="line2d_87"/>
   <g id="line2d_88"/>
   <g id="line2d_89"/>
   <g id="line2d_90"/>
   <g id="line2d_91"/>
   <g id="line2d_92"/>
   <g id="line2d_93"/>
   <g id="line2d_94"/>
   <g id="line2d_95"/>
   <g id="line2d_96"/>
   <g id="line2d_97"/>
   <g id="line2d_98"/>
   <g id="patch_9">
    <path d="M 458.14498 312.726625 
L 458.14498 25.49625 
" style="fill:none;stroke:#cccccc;stroke-linecap:square;stroke-linejoin:miter;stroke-width:0.8;"/>
   </g>
   <g id="patch_10">
    <path d="M 853.2 312.726625 
L 853.2 25.49625 
" style="fill:none;stroke:#cccccc;stroke-linecap:square;stroke-linejoin:miter;stroke-width:0.8;"/>
   </g>
   <g id="patch_11">
    <path d="M 458.14498 312.726625 
L 853.2 312.726625 
" style="fill:none;stroke:#cccccc;stroke-linecap:square;stroke-linejoin:miter;stroke-width:0.8;"/>
   </g>
   <g id="patch_12">
    <path d="M 458.14498 25.49625 
L 853.2 25.49625 
" style="fill:none;stroke:#cccccc;stroke-linecap:square;stroke-linejoin:miter;stroke-width:0.8;"/>
   </g>
   <g id="text_35">
    <!-- Validation -->
    <g style="fill:#262626;" transform="translate(629.76374 19.49625)scale(0.12 -0.12)">
     <defs>
      <path d="M 1803 0 
L 28 4581 
L 684 4581 
L 1875 1253 
Q 2019 853 2116 503 
Q 2222 878 2363 1253 
L 3600 4581 
L 4219 4581 
L 2425 0 
L 1803 0 
z
" id="ArialMT-56" transform="scale(0.015625)"/>
     </defs>
     <use xlink:href="#ArialMT-56"/>
     <use x="59.324219" xlink:href="#ArialMT-61"/>
     <use x="114.939453" xlink:href="#ArialMT-6c"/>
     <use x="137.15625" xlink:href="#ArialMT-69"/>
     <use x="159.373047" xlink:href="#ArialMT-64"/>
     <use x="214.988281" xlink:href="#ArialMT-61"/>
     <use x="270.603516" xlink:href="#ArialMT-74"/>
     <use x="298.386719" xlink:href="#ArialMT-69"/>
     <use x="320.603516" xlink:href="#ArialMT-6f"/>
     <use x="376.21875" xlink:href="#ArialMT-6e"/>
    </g>
   </g>
   <g id="legend_2">
    <g id="patch_13">
     <path d="M 465.14498 307.726625 
L 559.391855 307.726625 
Q 561.391855 307.726625 561.391855 305.726625 
L 561.391855 108.3985 
Q 561.391855 106.3985 559.391855 106.3985 
L 465.14498 106.3985 
Q 463.14498 106.3985 463.14498 108.3985 
L 463.14498 305.726625 
Q 463.14498 307.726625 465.14498 307.726625 
z
" style="fill:#ffffff;opacity:0.8;stroke:#cccccc;stroke-linejoin:miter;"/>
    </g>
    <g id="text_36">
     <!-- dataset -->
     <g style="fill:#262626;" transform="translate(495.868418 117.556313)scale(0.1 -0.1)">
      <use xlink:href="#ArialMT-64"/>
      <use x="55.615234" xlink:href="#ArialMT-61"/>
      <use x="111.230469" xlink:href="#ArialMT-74"/>
      <use x="139.013672" xlink:href="#ArialMT-61"/>
      <use x="194.628906" xlink:href="#ArialMT-73"/>
      <use x="244.628906" xlink:href="#ArialMT-65"/>
      <use x="300.244141" xlink:href="#ArialMT-74"/>
     </g>
    </g>
    <g id="line2d_99">
     <path d="M 467.14498 128.201625 
L 487.14498 128.201625 
" style="fill:none;stroke:#f77189;stroke-linecap:round;stroke-width:1.5;"/>
    </g>
    <g id="line2d_100"/>
    <g id="text_37">
     <!-- kinships -->
     <g style="fill:#262626;" transform="translate(495.14498 131.701625)scale(0.1 -0.1)">
      <use xlink:href="#ArialMT-6b"/>
      <use x="50" xlink:href="#ArialMT-69"/>
      <use x="72.216797" xlink:href="#ArialMT-6e"/>
      <use x="127.832031" xlink:href="#ArialMT-73"/>
      <use x="177.832031" xlink:href="#ArialMT-68"/>
      <use x="233.447266" xlink:href="#ArialMT-69"/>
      <use x="255.664062" xlink:href="#ArialMT-70"/>
      <use x="311.279297" xlink:href="#ArialMT-73"/>
     </g>
    </g>
    <g id="line2d_101">
     <path d="M 467.14498 142.346938 
L 487.14498 142.346938 
" style="fill:none;stroke:#eb8032;stroke-linecap:round;stroke-width:1.5;"/>
    </g>
    <g id="line2d_102"/>
    <g id="text_38">
     <!-- nations -->
     <g style="fill:#262626;" transform="translate(495.14498 145.846938)scale(0.1 -0.1)">
      <use xlink:href="#ArialMT-6e"/>
      <use x="55.615234" xlink:href="#ArialMT-61"/>
      <use x="111.230469" xlink:href="#ArialMT-74"/>
      <use x="139.013672" xlink:href="#ArialMT-69"/>
      <use x="161.230469" xlink:href="#ArialMT-6f"/>
      <use x="216.845703" xlink:href="#ArialMT-6e"/>
      <use x="272.460938" xlink:href="#ArialMT-73"/>
     </g>
    </g>
    <g id="line2d_103">
     <path d="M 467.14498 156.49225 
L 487.14498 156.49225 
" style="fill:none;stroke:#c19632;stroke-linecap:round;stroke-width:1.5;"/>
    </g>
    <g id="line2d_104"/>
    <g id="text_39">
     <!-- umls -->
     <g style="fill:#262626;" transform="translate(495.14498 159.99225)scale(0.1 -0.1)">
      <use xlink:href="#ArialMT-75"/>
      <use x="55.615234" xlink:href="#ArialMT-6d"/>
      <use x="138.916016" xlink:href="#ArialMT-6c"/>
      <use x="161.132812" xlink:href="#ArialMT-73"/>
     </g>
    </g>
    <g id="line2d_105">
     <path d="M 467.14498 170.637563 
L 487.14498 170.637563 
" style="fill:none;stroke:#a0a131;stroke-linecap:round;stroke-width:1.5;"/>
    </g>
    <g id="line2d_106"/>
    <g id="text_40">
     <!-- countries -->
     <g style="fill:#262626;" transform="translate(495.14498 174.137563)scale(0.1 -0.1)">
      <use xlink:href="#ArialMT-63"/>
      <use x="50" xlink:href="#ArialMT-6f"/>
      <use x="105.615234" xlink:href="#ArialMT-75"/>
      <use x="161.230469" xlink:href="#ArialMT-6e"/>
      <use x="216.845703" xlink:href="#ArialMT-74"/>
      <use x="244.628906" xlink:href="#ArialMT-72"/>
      <use x="277.929688" xlink:href="#ArialMT-69"/>
      <use x="300.146484" xlink:href="#ArialMT-65"/>
      <use x="355.761719" xlink:href="#ArialMT-73"/>
     </g>
    </g>
    <g id="line2d_107">
     <path d="M 467.14498 184.782875 
L 487.14498 184.782875 
" style="fill:none;stroke:#71ac31;stroke-linecap:round;stroke-width:1.5;"/>
    </g>
    <g id="line2d_108"/>
    <g id="text_41">
     <!-- codexsmall -->
     <g style="fill:#262626;" transform="translate(495.14498 188.282875)scale(0.1 -0.1)">
      <use xlink:href="#ArialMT-63"/>
      <use x="50" xlink:href="#ArialMT-6f"/>
      <use x="105.615234" xlink:href="#ArialMT-64"/>
      <use x="161.230469" xlink:href="#ArialMT-65"/>
      <use x="216.845703" xlink:href="#ArialMT-78"/>
      <use x="266.845703" xlink:href="#ArialMT-73"/>
      <use x="316.845703" xlink:href="#ArialMT-6d"/>
      <use x="400.146484" xlink:href="#ArialMT-61"/>
      <use x="455.761719" xlink:href="#ArialMT-6c"/>
      <use x="477.978516" xlink:href="#ArialMT-6c"/>
     </g>
    </g>
    <g id="line2d_109">
     <path d="M 467.14498 198.928188 
L 487.14498 198.928188 
" style="fill:none;stroke:#33b16f;stroke-linecap:round;stroke-width:1.5;"/>
    </g>
    <g id="line2d_110"/>
    <g id="text_42">
     <!-- codexmedium -->
     <g style="fill:#262626;" transform="translate(495.14498 202.428188)scale(0.1 -0.1)">
      <use xlink:href="#ArialMT-63"/>
      <use x="50" xlink:href="#ArialMT-6f"/>
      <use x="105.615234" xlink:href="#ArialMT-64"/>
      <use x="161.230469" xlink:href="#ArialMT-65"/>
      <use x="216.845703" xlink:href="#ArialMT-78"/>
      <use x="266.845703" xlink:href="#ArialMT-6d"/>
      <use x="350.146484" xlink:href="#ArialMT-65"/>
      <use x="405.761719" xlink:href="#ArialMT-64"/>
      <use x="461.376953" xlink:href="#ArialMT-69"/>
      <use x="483.59375" xlink:href="#ArialMT-75"/>
      <use x="539.208984" xlink:href="#ArialMT-6d"/>
     </g>
    </g>
    <g id="line2d_111">
     <path d="M 467.14498 213.0735 
L 487.14498 213.0735 
" style="fill:none;stroke:#35ae97;stroke-linecap:round;stroke-width:1.5;"/>
    </g>
    <g id="line2d_112"/>
    <g id="text_43">
     <!-- codexlarge -->
     <g style="fill:#262626;" transform="translate(495.14498 216.5735)scale(0.1 -0.1)">
      <use xlink:href="#ArialMT-63"/>
      <use x="50" xlink:href="#ArialMT-6f"/>
      <use x="105.615234" xlink:href="#ArialMT-64"/>
      <use x="161.230469" xlink:href="#ArialMT-65"/>
      <use x="216.845703" xlink:href="#ArialMT-78"/>
      <use x="266.845703" xlink:href="#ArialMT-6c"/>
      <use x="289.0625" xlink:href="#ArialMT-61"/>
      <use x="344.677734" xlink:href="#ArialMT-72"/>
      <use x="377.978516" xlink:href="#ArialMT-67"/>
      <use x="433.59375" xlink:href="#ArialMT-65"/>
     </g>
    </g>
    <g id="line2d_113">
     <path d="M 467.14498 227.336 
L 487.14498 227.336 
" style="fill:none;stroke:#36abb0;stroke-linecap:round;stroke-width:1.5;"/>
    </g>
    <g id="line2d_114"/>
    <g id="text_44">
     <!-- fb15k -->
     <g style="fill:#262626;" transform="translate(495.14498 230.836)scale(0.1 -0.1)">
      <use xlink:href="#ArialMT-66"/>
      <use x="27.783203" xlink:href="#ArialMT-62"/>
      <use x="83.398438" xlink:href="#ArialMT-31"/>
      <use x="139.013672" xlink:href="#ArialMT-35"/>
      <use x="194.628906" xlink:href="#ArialMT-6b"/>
     </g>
    </g>
    <g id="line2d_115">
     <path d="M 467.14498 241.481313 
L 487.14498 241.481313 
" style="fill:none;stroke:#39a8cc;stroke-linecap:round;stroke-width:1.5;"/>
    </g>
    <g id="line2d_116"/>
    <g id="text_45">
     <!-- fb15k237 -->
     <g style="fill:#262626;" transform="translate(495.14498 244.981313)scale(0.1 -0.1)">
      <use xlink:href="#ArialMT-66"/>
      <use x="27.783203" xlink:href="#ArialMT-62"/>
      <use x="83.398438" xlink:href="#ArialMT-31"/>
      <use x="139.013672" xlink:href="#ArialMT-35"/>
      <use x="194.628906" xlink:href="#ArialMT-6b"/>
      <use x="244.628906" xlink:href="#ArialMT-32"/>
      <use x="300.244141" xlink:href="#ArialMT-33"/>
      <use x="355.859375" xlink:href="#ArialMT-37"/>
     </g>
    </g>
    <g id="line2d_117">
     <path d="M 467.14498 255.626625 
L 487.14498 255.626625 
" style="fill:none;stroke:#639df4;stroke-linecap:round;stroke-width:1.5;"/>
    </g>
    <g id="line2d_118"/>
    <g id="text_46">
     <!-- wn18 -->
     <g style="fill:#262626;" transform="translate(495.14498 259.126625)scale(0.1 -0.1)">
      <use xlink:href="#ArialMT-77"/>
      <use x="72.216797" xlink:href="#ArialMT-6e"/>
      <use x="127.832031" xlink:href="#ArialMT-31"/>
      <use x="183.447266" xlink:href="#ArialMT-38"/>
     </g>
    </g>
    <g id="line2d_119">
     <path d="M 467.14498 269.771938 
L 487.14498 269.771938 
" style="fill:none;stroke:#b486f4;stroke-linecap:round;stroke-width:1.5;"/>
    </g>
    <g id="line2d_120"/>
    <g id="text_47">
     <!-- wn18rr -->
     <g style="fill:#262626;" transform="translate(495.14498 273.271938)scale(0.1 -0.1)">
      <use xlink:href="#ArialMT-77"/>
      <use x="72.216797" xlink:href="#ArialMT-6e"/>
      <use x="127.832031" xlink:href="#ArialMT-31"/>
      <use x="183.447266" xlink:href="#ArialMT-38"/>
      <use x="239.0625" xlink:href="#ArialMT-72"/>
      <use x="272.363281" xlink:href="#ArialMT-72"/>
     </g>
    </g>
    <g id="line2d_121">
     <path d="M 467.14498 283.946937 
L 487.14498 283.946937 
" style="fill:none;stroke:#f35cf4;stroke-linecap:round;stroke-width:1.5;"/>
    </g>
    <g id="line2d_122"/>
    <g id="text_48">
     <!-- yago310 -->
     <g style="fill:#262626;" transform="translate(495.14498 287.446937)scale(0.1 -0.1)">
      <use xlink:href="#ArialMT-79"/>
      <use x="50" xlink:href="#ArialMT-61"/>
      <use x="105.615234" xlink:href="#ArialMT-67"/>
      <use x="161.230469" xlink:href="#ArialMT-6f"/>
      <use x="216.845703" xlink:href="#ArialMT-33"/>
      <use x="272.460938" xlink:href="#ArialMT-31"/>
      <use x="328.076172" xlink:href="#ArialMT-30"/>
     </g>
    </g>
    <g id="line2d_123">
     <path d="M 467.14498 298.239125 
L 487.14498 298.239125 
" style="fill:none;stroke:#f668be;stroke-linecap:round;stroke-width:1.5;"/>
    </g>
    <g id="line2d_124"/>
    <g id="text_49">
     <!-- dbpedia50 -->
     <g style="fill:#262626;" transform="translate(495.14498 301.739125)scale(0.1 -0.1)">
      <use xlink:href="#ArialMT-64"/>
      <use x="55.615234" xlink:href="#ArialMT-62"/>
      <use x="111.230469" xlink:href="#ArialMT-70"/>
      <use x="166.845703" xlink:href="#ArialMT-65"/>
      <use x="222.460938" xlink:href="#ArialMT-64"/>
      <use x="278.076172" xlink:href="#ArialMT-69"/>
      <use x="300.292969" xlink:href="#ArialMT-61"/>
      <use x="355.908203" xlink:href="#ArialMT-35"/>
      <use x="411.523438" xlink:href="#ArialMT-30"/>
     </g>
    </g>
   </g>
  </g>
 </g>
 <defs>
  <clipPath id="pd25a66de8d">
   <rect height="287.230375" width="395.05502" x="52.289961" y="25.49625"/>
  </clipPath>
  <clipPath id="pdb52727cb4">
   <rect height="287.230375" width="395.05502" x="458.14498" y="25.49625"/>
  </clipPath>
 </defs>
</svg>
