<?xml version="1.0" encoding="utf-8" standalone="no"?>
<!DOCTYPE svg PUBLIC "-//W3C//DTD SVG 1.1//EN"
  "http://www.w3.org/Graphics/SVG/1.1/DTD/svg11.dtd">
<svg height="360pt" version="1.1" viewBox="0 0 864 360" width="864pt" xmlns="http://www.w3.org/2000/svg" xmlns:xlink="http://www.w3.org/1999/xlink">
 <metadata>
  <rdf:RDF xmlns:cc="http://creativecommons.org/ns#" xmlns:dc="http://purl.org/dc/elements/1.1/" xmlns:rdf="http://www.w3.org/1999/02/22-rdf-syntax-ns#">
   <cc:Work>
    <dc:type rdf:resource="http://purl.org/dc/dcmitype/StillImage"/>
    <dc:date>2021-04-25T09:48:02.733412</dc:date>
    <dc:format>image/svg+xml</dc:format>
    <dc:creator>
     <cc:Agent>
      <dc:title>Matplotlib v3.4.1, https://matplotlib.org/</dc:title>
     </cc:Agent>
    </dc:creator>
   </cc:Work>
  </rdf:RDF>
 </metadata>
 <defs>
  <style type="text/css">*{stroke-linecap:butt;stroke-linejoin:round;}</style>
 </defs>
 <g id="figure_1">
  <g id="patch_1">
   <path d="M 0 360 
L 864 360 
L 864 0 
L 0 0 
z
" style="fill:#ffffff;"/>
  </g>
  <g id="axes_1">
   <g id="patch_2">
    <path d="M 52.289961 332.12 
L 447.34498 332.12 
L 447.34498 25.49625 
L 52.289961 25.49625 
z
" style="fill:#ffffff;"/>
   </g>
   <g id="matplotlib.axis_1">
    <g id="xtick_1">
     <g id="text_1">
      <!-- kinships -->
      <g style="fill:#262626;" transform="translate(83.608557 346.277812)scale(0.1 -0.1)">
       <defs>
        <path d="M 425 0 
L 425 4581 
L 988 4581 
L 988 1969 
L 2319 3319 
L 3047 3319 
L 1778 2088 
L 3175 0 
L 2481 0 
L 1384 1697 
L 988 1316 
L 988 0 
L 425 0 
z
" id="ArialMT-6b" transform="scale(0.015625)"/>
        <path d="M 425 3934 
L 425 4581 
L 988 4581 
L 988 3934 
L 425 3934 
z
M 425 0 
L 425 3319 
L 988 3319 
L 988 0 
L 425 0 
z
" id="ArialMT-69" transform="scale(0.015625)"/>
        <path d="M 422 0 
L 422 3319 
L 928 3319 
L 928 2847 
Q 1294 3394 1984 3394 
Q 2284 3394 2536 3286 
Q 2788 3178 2913 3003 
Q 3038 2828 3088 2588 
Q 3119 2431 3119 2041 
L 3119 0 
L 2556 0 
L 2556 2019 
Q 2556 2363 2490 2533 
Q 2425 2703 2258 2804 
Q 2091 2906 1866 2906 
Q 1506 2906 1245 2678 
Q 984 2450 984 1813 
L 984 0 
L 422 0 
z
" id="ArialMT-6e" transform="scale(0.015625)"/>
        <path d="M 197 991 
L 753 1078 
Q 800 744 1014 566 
Q 1228 388 1613 388 
Q 2000 388 2187 545 
Q 2375 703 2375 916 
Q 2375 1106 2209 1216 
Q 2094 1291 1634 1406 
Q 1016 1563 777 1677 
Q 538 1791 414 1992 
Q 291 2194 291 2438 
Q 291 2659 392 2848 
Q 494 3038 669 3163 
Q 800 3259 1026 3326 
Q 1253 3394 1513 3394 
Q 1903 3394 2198 3281 
Q 2494 3169 2634 2976 
Q 2775 2784 2828 2463 
L 2278 2388 
Q 2241 2644 2061 2787 
Q 1881 2931 1553 2931 
Q 1166 2931 1000 2803 
Q 834 2675 834 2503 
Q 834 2394 903 2306 
Q 972 2216 1119 2156 
Q 1203 2125 1616 2013 
Q 2213 1853 2448 1751 
Q 2684 1650 2818 1456 
Q 2953 1263 2953 975 
Q 2953 694 2789 445 
Q 2625 197 2315 61 
Q 2006 -75 1616 -75 
Q 969 -75 630 194 
Q 291 463 197 991 
z
" id="ArialMT-73" transform="scale(0.015625)"/>
        <path d="M 422 0 
L 422 4581 
L 984 4581 
L 984 2938 
Q 1378 3394 1978 3394 
Q 2347 3394 2619 3248 
Q 2891 3103 3008 2847 
Q 3125 2591 3125 2103 
L 3125 0 
L 2563 0 
L 2563 2103 
Q 2563 2525 2380 2717 
Q 2197 2909 1863 2909 
Q 1613 2909 1392 2779 
Q 1172 2650 1078 2428 
Q 984 2206 984 1816 
L 984 0 
L 422 0 
z
" id="ArialMT-68" transform="scale(0.015625)"/>
        <path d="M 422 -1272 
L 422 3319 
L 934 3319 
L 934 2888 
Q 1116 3141 1344 3267 
Q 1572 3394 1897 3394 
Q 2322 3394 2647 3175 
Q 2972 2956 3137 2557 
Q 3303 2159 3303 1684 
Q 3303 1175 3120 767 
Q 2938 359 2589 142 
Q 2241 -75 1856 -75 
Q 1575 -75 1351 44 
Q 1128 163 984 344 
L 984 -1272 
L 422 -1272 
z
M 931 1641 
Q 931 1000 1190 694 
Q 1450 388 1819 388 
Q 2194 388 2461 705 
Q 2728 1022 2728 1688 
Q 2728 2322 2467 2637 
Q 2206 2953 1844 2953 
Q 1484 2953 1207 2617 
Q 931 2281 931 1641 
z
" id="ArialMT-70" transform="scale(0.015625)"/>
       </defs>
       <use xlink:href="#ArialMT-6b"/>
       <use x="50" xlink:href="#ArialMT-69"/>
       <use x="72.216797" xlink:href="#ArialMT-6e"/>
       <use x="127.832031" xlink:href="#ArialMT-73"/>
       <use x="177.832031" xlink:href="#ArialMT-68"/>
       <use x="233.447266" xlink:href="#ArialMT-69"/>
       <use x="255.664062" xlink:href="#ArialMT-70"/>
       <use x="311.279297" xlink:href="#ArialMT-73"/>
      </g>
     </g>
    </g>
    <g id="xtick_2">
     <g id="text_2">
      <!-- nations -->
      <g style="fill:#262626;" transform="translate(184.313718 346.277812)scale(0.1 -0.1)">
       <defs>
        <path d="M 2588 409 
Q 2275 144 1986 34 
Q 1697 -75 1366 -75 
Q 819 -75 525 192 
Q 231 459 231 875 
Q 231 1119 342 1320 
Q 453 1522 633 1644 
Q 813 1766 1038 1828 
Q 1203 1872 1538 1913 
Q 2219 1994 2541 2106 
Q 2544 2222 2544 2253 
Q 2544 2597 2384 2738 
Q 2169 2928 1744 2928 
Q 1347 2928 1158 2789 
Q 969 2650 878 2297 
L 328 2372 
Q 403 2725 575 2942 
Q 747 3159 1072 3276 
Q 1397 3394 1825 3394 
Q 2250 3394 2515 3294 
Q 2781 3194 2906 3042 
Q 3031 2891 3081 2659 
Q 3109 2516 3109 2141 
L 3109 1391 
Q 3109 606 3145 398 
Q 3181 191 3288 0 
L 2700 0 
Q 2613 175 2588 409 
z
M 2541 1666 
Q 2234 1541 1622 1453 
Q 1275 1403 1131 1340 
Q 988 1278 909 1158 
Q 831 1038 831 891 
Q 831 666 1001 516 
Q 1172 366 1500 366 
Q 1825 366 2078 508 
Q 2331 650 2450 897 
Q 2541 1088 2541 1459 
L 2541 1666 
z
" id="ArialMT-61" transform="scale(0.015625)"/>
        <path d="M 1650 503 
L 1731 6 
Q 1494 -44 1306 -44 
Q 1000 -44 831 53 
Q 663 150 594 308 
Q 525 466 525 972 
L 525 2881 
L 113 2881 
L 113 3319 
L 525 3319 
L 525 4141 
L 1084 4478 
L 1084 3319 
L 1650 3319 
L 1650 2881 
L 1084 2881 
L 1084 941 
Q 1084 700 1114 631 
Q 1144 563 1211 522 
Q 1278 481 1403 481 
Q 1497 481 1650 503 
z
" id="ArialMT-74" transform="scale(0.015625)"/>
        <path d="M 213 1659 
Q 213 2581 725 3025 
Q 1153 3394 1769 3394 
Q 2453 3394 2887 2945 
Q 3322 2497 3322 1706 
Q 3322 1066 3130 698 
Q 2938 331 2570 128 
Q 2203 -75 1769 -75 
Q 1072 -75 642 372 
Q 213 819 213 1659 
z
M 791 1659 
Q 791 1022 1069 705 
Q 1347 388 1769 388 
Q 2188 388 2466 706 
Q 2744 1025 2744 1678 
Q 2744 2294 2464 2611 
Q 2184 2928 1769 2928 
Q 1347 2928 1069 2612 
Q 791 2297 791 1659 
z
" id="ArialMT-6f" transform="scale(0.015625)"/>
       </defs>
       <use xlink:href="#ArialMT-6e"/>
       <use x="55.615234" xlink:href="#ArialMT-61"/>
       <use x="111.230469" xlink:href="#ArialMT-74"/>
       <use x="139.013672" xlink:href="#ArialMT-69"/>
       <use x="161.230469" xlink:href="#ArialMT-6f"/>
       <use x="216.845703" xlink:href="#ArialMT-6e"/>
       <use x="272.460938" xlink:href="#ArialMT-73"/>
      </g>
     </g>
    </g>
    <g id="xtick_3">
     <g id="text_3">
      <!-- umls -->
      <g style="fill:#262626;" transform="translate(288.643098 346.277812)scale(0.1 -0.1)">
       <defs>
        <path d="M 2597 0 
L 2597 488 
Q 2209 -75 1544 -75 
Q 1250 -75 995 37 
Q 741 150 617 320 
Q 494 491 444 738 
Q 409 903 409 1263 
L 409 3319 
L 972 3319 
L 972 1478 
Q 972 1038 1006 884 
Q 1059 663 1231 536 
Q 1403 409 1656 409 
Q 1909 409 2131 539 
Q 2353 669 2445 892 
Q 2538 1116 2538 1541 
L 2538 3319 
L 3100 3319 
L 3100 0 
L 2597 0 
z
" id="ArialMT-75" transform="scale(0.015625)"/>
        <path d="M 422 0 
L 422 3319 
L 925 3319 
L 925 2853 
Q 1081 3097 1340 3245 
Q 1600 3394 1931 3394 
Q 2300 3394 2536 3241 
Q 2772 3088 2869 2813 
Q 3263 3394 3894 3394 
Q 4388 3394 4653 3120 
Q 4919 2847 4919 2278 
L 4919 0 
L 4359 0 
L 4359 2091 
Q 4359 2428 4304 2576 
Q 4250 2725 4106 2815 
Q 3963 2906 3769 2906 
Q 3419 2906 3187 2673 
Q 2956 2441 2956 1928 
L 2956 0 
L 2394 0 
L 2394 2156 
Q 2394 2531 2256 2718 
Q 2119 2906 1806 2906 
Q 1569 2906 1367 2781 
Q 1166 2656 1075 2415 
Q 984 2175 984 1722 
L 984 0 
L 422 0 
z
" id="ArialMT-6d" transform="scale(0.015625)"/>
        <path d="M 409 0 
L 409 4581 
L 972 4581 
L 972 0 
L 409 0 
z
" id="ArialMT-6c" transform="scale(0.015625)"/>
       </defs>
       <use xlink:href="#ArialMT-75"/>
       <use x="55.615234" xlink:href="#ArialMT-6d"/>
       <use x="138.916016" xlink:href="#ArialMT-6c"/>
       <use x="161.132812" xlink:href="#ArialMT-73"/>
      </g>
     </g>
    </g>
    <g id="xtick_4">
     <g id="text_4">
      <!-- countries -->
      <g style="fill:#262626;" transform="translate(377.676384 346.277812)scale(0.1 -0.1)">
       <defs>
        <path d="M 2588 1216 
L 3141 1144 
Q 3050 572 2676 248 
Q 2303 -75 1759 -75 
Q 1078 -75 664 370 
Q 250 816 250 1647 
Q 250 2184 428 2587 
Q 606 2991 970 3192 
Q 1334 3394 1763 3394 
Q 2303 3394 2647 3120 
Q 2991 2847 3088 2344 
L 2541 2259 
Q 2463 2594 2264 2762 
Q 2066 2931 1784 2931 
Q 1359 2931 1093 2626 
Q 828 2322 828 1663 
Q 828 994 1084 691 
Q 1341 388 1753 388 
Q 2084 388 2306 591 
Q 2528 794 2588 1216 
z
" id="ArialMT-63" transform="scale(0.015625)"/>
        <path d="M 416 0 
L 416 3319 
L 922 3319 
L 922 2816 
Q 1116 3169 1280 3281 
Q 1444 3394 1641 3394 
Q 1925 3394 2219 3213 
L 2025 2691 
Q 1819 2813 1613 2813 
Q 1428 2813 1281 2702 
Q 1134 2591 1072 2394 
Q 978 2094 978 1738 
L 978 0 
L 416 0 
z
" id="ArialMT-72" transform="scale(0.015625)"/>
        <path d="M 2694 1069 
L 3275 997 
Q 3138 488 2766 206 
Q 2394 -75 1816 -75 
Q 1088 -75 661 373 
Q 234 822 234 1631 
Q 234 2469 665 2931 
Q 1097 3394 1784 3394 
Q 2450 3394 2872 2941 
Q 3294 2488 3294 1666 
Q 3294 1616 3291 1516 
L 816 1516 
Q 847 969 1125 678 
Q 1403 388 1819 388 
Q 2128 388 2347 550 
Q 2566 713 2694 1069 
z
M 847 1978 
L 2700 1978 
Q 2663 2397 2488 2606 
Q 2219 2931 1791 2931 
Q 1403 2931 1139 2672 
Q 875 2413 847 1978 
z
" id="ArialMT-65" transform="scale(0.015625)"/>
       </defs>
       <use xlink:href="#ArialMT-63"/>
       <use x="50" xlink:href="#ArialMT-6f"/>
       <use x="105.615234" xlink:href="#ArialMT-75"/>
       <use x="161.230469" xlink:href="#ArialMT-6e"/>
       <use x="216.845703" xlink:href="#ArialMT-74"/>
       <use x="244.628906" xlink:href="#ArialMT-72"/>
       <use x="277.929688" xlink:href="#ArialMT-69"/>
       <use x="300.146484" xlink:href="#ArialMT-65"/>
       <use x="355.761719" xlink:href="#ArialMT-73"/>
      </g>
     </g>
    </g>
   </g>
   <g id="matplotlib.axis_2">
    <g id="ytick_1">
     <g id="line2d_1">
      <path clip-path="url(#p38ef9d04da)" d="M 52.289961 260.334283 
L 447.34498 260.334283 
" style="fill:none;stroke:#cccccc;stroke-linecap:round;stroke-width:0.8;"/>
     </g>
     <g id="text_5">
      <!-- $\mathdefault{10^{-4}}$ -->
      <g style="fill:#262626;" transform="translate(25.489961 265.440533)scale(0.1 -0.1)">
       <defs>
        <path d="M 2384 0 
L 1822 0 
L 1822 3584 
Q 1619 3391 1289 3197 
Q 959 3003 697 2906 
L 697 3450 
Q 1169 3672 1522 3987 
Q 1875 4303 2022 4600 
L 2384 4600 
L 2384 0 
z
" id="ArialMT-31" transform="scale(0.015625)"/>
        <path d="M 266 2259 
Q 266 3072 433 3567 
Q 600 4063 929 4331 
Q 1259 4600 1759 4600 
Q 2128 4600 2406 4451 
Q 2684 4303 2865 4023 
Q 3047 3744 3150 3342 
Q 3253 2941 3253 2259 
Q 3253 1453 3087 958 
Q 2922 463 2592 192 
Q 2263 -78 1759 -78 
Q 1097 -78 719 397 
Q 266 969 266 2259 
z
M 844 2259 
Q 844 1131 1108 757 
Q 1372 384 1759 384 
Q 2147 384 2411 759 
Q 2675 1134 2675 2259 
Q 2675 3391 2411 3762 
Q 2147 4134 1753 4134 
Q 1366 4134 1134 3806 
Q 844 3388 844 2259 
z
" id="ArialMT-30" transform="scale(0.015625)"/>
        <path d="M 3381 1997 
L 356 1997 
L 356 2522 
L 3381 2522 
L 3381 1997 
z
" id="ArialMT-2212" transform="scale(0.015625)"/>
        <path d="M 2069 0 
L 2069 1097 
L 81 1097 
L 81 1613 
L 2172 4581 
L 2631 4581 
L 2631 1613 
L 3250 1613 
L 3250 1097 
L 2631 1097 
L 2631 0 
L 2069 0 
z
M 2069 1613 
L 2069 3678 
L 634 1613 
L 2069 1613 
z
" id="ArialMT-34" transform="scale(0.015625)"/>
       </defs>
       <use transform="translate(0 0.201563)" xlink:href="#ArialMT-31"/>
       <use transform="translate(55.615234 0.201563)" xlink:href="#ArialMT-30"/>
       <use transform="translate(112.972813 69.895313)scale(0.7)" xlink:href="#ArialMT-2212"/>
       <use transform="translate(153.851719 69.895313)scale(0.7)" xlink:href="#ArialMT-34"/>
      </g>
     </g>
    </g>
    <g id="ytick_2">
     <g id="line2d_2">
      <path clip-path="url(#p38ef9d04da)" d="M 52.289961 178.49351 
L 447.34498 178.49351 
" style="fill:none;stroke:#cccccc;stroke-linecap:round;stroke-width:0.8;"/>
     </g>
     <g id="text_6">
      <!-- $\mathdefault{10^{-3}}$ -->
      <g style="fill:#262626;" transform="translate(25.489961 183.64976)scale(0.1 -0.1)">
       <defs>
        <path d="M 269 1209 
L 831 1284 
Q 928 806 1161 595 
Q 1394 384 1728 384 
Q 2125 384 2398 659 
Q 2672 934 2672 1341 
Q 2672 1728 2419 1979 
Q 2166 2231 1775 2231 
Q 1616 2231 1378 2169 
L 1441 2663 
Q 1497 2656 1531 2656 
Q 1891 2656 2178 2843 
Q 2466 3031 2466 3422 
Q 2466 3731 2256 3934 
Q 2047 4138 1716 4138 
Q 1388 4138 1169 3931 
Q 950 3725 888 3313 
L 325 3413 
Q 428 3978 793 4289 
Q 1159 4600 1703 4600 
Q 2078 4600 2393 4439 
Q 2709 4278 2876 4000 
Q 3044 3722 3044 3409 
Q 3044 3113 2884 2869 
Q 2725 2625 2413 2481 
Q 2819 2388 3044 2092 
Q 3269 1797 3269 1353 
Q 3269 753 2831 336 
Q 2394 -81 1725 -81 
Q 1122 -81 723 278 
Q 325 638 269 1209 
z
" id="ArialMT-33" transform="scale(0.015625)"/>
       </defs>
       <use transform="translate(0 0.99375)" xlink:href="#ArialMT-31"/>
       <use transform="translate(55.615234 0.99375)" xlink:href="#ArialMT-30"/>
       <use transform="translate(112.972813 70.6875)scale(0.7)" xlink:href="#ArialMT-2212"/>
       <use transform="translate(153.851719 70.6875)scale(0.7)" xlink:href="#ArialMT-33"/>
      </g>
     </g>
    </g>
    <g id="ytick_3">
     <g id="line2d_3">
      <path clip-path="url(#p38ef9d04da)" d="M 52.289961 96.652736 
L 447.34498 96.652736 
" style="fill:none;stroke:#cccccc;stroke-linecap:round;stroke-width:0.8;"/>
     </g>
     <g id="text_7">
      <!-- $\mathdefault{10^{-2}}$ -->
      <g style="fill:#262626;" transform="translate(25.489961 101.808986)scale(0.1 -0.1)">
       <defs>
        <path d="M 3222 541 
L 3222 0 
L 194 0 
Q 188 203 259 391 
Q 375 700 629 1000 
Q 884 1300 1366 1694 
Q 2113 2306 2375 2664 
Q 2638 3022 2638 3341 
Q 2638 3675 2398 3904 
Q 2159 4134 1775 4134 
Q 1369 4134 1125 3890 
Q 881 3647 878 3216 
L 300 3275 
Q 359 3922 746 4261 
Q 1134 4600 1788 4600 
Q 2447 4600 2831 4234 
Q 3216 3869 3216 3328 
Q 3216 3053 3103 2787 
Q 2991 2522 2730 2228 
Q 2469 1934 1863 1422 
Q 1356 997 1212 845 
Q 1069 694 975 541 
L 3222 541 
z
" id="ArialMT-32" transform="scale(0.015625)"/>
       </defs>
       <use transform="translate(0 0.99375)" xlink:href="#ArialMT-31"/>
       <use transform="translate(55.615234 0.99375)" xlink:href="#ArialMT-30"/>
       <use transform="translate(112.972813 70.6875)scale(0.7)" xlink:href="#ArialMT-2212"/>
       <use transform="translate(153.851719 70.6875)scale(0.7)" xlink:href="#ArialMT-32"/>
      </g>
     </g>
    </g>
    <g id="ytick_4"/>
    <g id="ytick_5"/>
    <g id="ytick_6"/>
    <g id="ytick_7"/>
    <g id="ytick_8"/>
    <g id="ytick_9"/>
    <g id="ytick_10"/>
    <g id="ytick_11"/>
    <g id="ytick_12"/>
    <g id="ytick_13"/>
    <g id="ytick_14"/>
    <g id="ytick_15"/>
    <g id="ytick_16"/>
    <g id="ytick_17"/>
    <g id="ytick_18"/>
    <g id="ytick_19"/>
    <g id="ytick_20"/>
    <g id="ytick_21"/>
    <g id="ytick_22"/>
    <g id="ytick_23"/>
    <g id="ytick_24"/>
    <g id="ytick_25"/>
    <g id="ytick_26"/>
    <g id="ytick_27"/>
    <g id="ytick_28"/>
    <g id="ytick_29"/>
    <g id="ytick_30"/>
    <g id="ytick_31"/>
    <g id="ytick_32"/>
    <g id="ytick_33"/>
    <g id="text_8">
     <!-- Lookup Time (s) -->
     <g style="fill:#262626;" transform="translate(19.385273 214.653437)rotate(-90)scale(0.1 -0.1)">
      <defs>
       <path d="M 469 0 
L 469 4581 
L 1075 4581 
L 1075 541 
L 3331 541 
L 3331 0 
L 469 0 
z
" id="ArialMT-4c" transform="scale(0.015625)"/>
       <path id="ArialMT-20" transform="scale(0.015625)"/>
       <path d="M 1659 0 
L 1659 4041 
L 150 4041 
L 150 4581 
L 3781 4581 
L 3781 4041 
L 2266 4041 
L 2266 0 
L 1659 0 
z
" id="ArialMT-54" transform="scale(0.015625)"/>
       <path d="M 1497 -1347 
Q 1031 -759 709 28 
Q 388 816 388 1659 
Q 388 2403 628 3084 
Q 909 3875 1497 4659 
L 1900 4659 
Q 1522 4009 1400 3731 
Q 1209 3300 1100 2831 
Q 966 2247 966 1656 
Q 966 153 1900 -1347 
L 1497 -1347 
z
" id="ArialMT-28" transform="scale(0.015625)"/>
       <path d="M 791 -1347 
L 388 -1347 
Q 1322 153 1322 1656 
Q 1322 2244 1188 2822 
Q 1081 3291 891 3722 
Q 769 4003 388 4659 
L 791 4659 
Q 1378 3875 1659 3084 
Q 1900 2403 1900 1659 
Q 1900 816 1576 28 
Q 1253 -759 791 -1347 
z
" id="ArialMT-29" transform="scale(0.015625)"/>
      </defs>
      <use xlink:href="#ArialMT-4c"/>
      <use x="55.615234" xlink:href="#ArialMT-6f"/>
      <use x="111.230469" xlink:href="#ArialMT-6f"/>
      <use x="166.845703" xlink:href="#ArialMT-6b"/>
      <use x="216.845703" xlink:href="#ArialMT-75"/>
      <use x="272.460938" xlink:href="#ArialMT-70"/>
      <use x="328.076172" xlink:href="#ArialMT-20"/>
      <use x="354.109375" xlink:href="#ArialMT-54"/>
      <use x="411.443359" xlink:href="#ArialMT-69"/>
      <use x="433.660156" xlink:href="#ArialMT-6d"/>
      <use x="516.960938" xlink:href="#ArialMT-65"/>
      <use x="572.576172" xlink:href="#ArialMT-20"/>
      <use x="600.359375" xlink:href="#ArialMT-28"/>
      <use x="633.660156" xlink:href="#ArialMT-73"/>
      <use x="683.660156" xlink:href="#ArialMT-29"/>
     </g>
    </g>
   </g>
   <g id="PathCollection_1"/>
   <g id="PathCollection_2"/>
   <g id="PathCollection_3"/>
   <g id="patch_3">
    <path d="M 52.289961 332.12 
L 52.289961 25.49625 
" style="fill:none;stroke:#cccccc;stroke-linecap:square;stroke-linejoin:miter;stroke-width:0.8;"/>
   </g>
   <g id="patch_4">
    <path d="M 447.34498 332.12 
L 447.34498 25.49625 
" style="fill:none;stroke:#cccccc;stroke-linecap:square;stroke-linejoin:miter;stroke-width:0.8;"/>
   </g>
   <g id="patch_5">
    <path d="M 52.289961 332.12 
L 447.34498 332.12 
" style="fill:none;stroke:#cccccc;stroke-linecap:square;stroke-linejoin:miter;stroke-width:0.8;"/>
   </g>
   <g id="patch_6">
    <path d="M 52.289961 25.49625 
L 447.34498 25.49625 
" style="fill:none;stroke:#cccccc;stroke-linecap:square;stroke-linejoin:miter;stroke-width:0.8;"/>
   </g>
   <g id="PathCollection_4">
    <defs>
     <path d="M 0 2.5 
C 0.663008 2.5 1.29895 2.236584 1.767767 1.767767 
C 2.236584 1.29895 2.5 0.663008 2.5 0 
C 2.5 -0.663008 2.236584 -1.29895 1.767767 -1.767767 
C 1.29895 -2.236584 0.663008 -2.5 0 -2.5 
C -0.663008 -2.5 -1.29895 -2.236584 -1.767767 -1.767767 
C -2.236584 -1.29895 -2.5 -0.663008 -2.5 0 
C -2.5 0.663008 -2.236584 1.29895 -1.767767 1.767767 
C -1.29895 2.236584 -0.663008 2.5 0 2.5 
z
" id="m6dc04228d8"/>
    </defs>
    <g clip-path="url(#p38ef9d04da)">
     <use style="fill:#1f77b4;" x="77.121005" xlink:href="#m6dc04228d8" y="47.722966"/>
    </g>
   </g>
   <g id="PathCollection_5">
    <defs>
     <path d="M 0 2.5 
C 0.663008 2.5 1.29895 2.236584 1.767767 1.767767 
C 2.236584 1.29895 2.5 0.663008 2.5 0 
C 2.5 -0.663008 2.236584 -1.29895 1.767767 -1.767767 
C 1.29895 -2.236584 0.663008 -2.5 0 -2.5 
C -0.663008 -2.5 -1.29895 -2.236584 -1.767767 -1.767767 
C -2.236584 -1.29895 -2.5 -0.663008 -2.5 0 
C -2.5 0.663008 -2.236584 1.29895 -1.767767 1.767767 
C -1.29895 2.236584 -0.663008 2.5 0 2.5 
z
" id="m4c7f6e08da"/>
    </defs>
    <g clip-path="url(#p38ef9d04da)">
     <use style="fill:#ff7f0e;" x="103.815708" xlink:href="#m4c7f6e08da" y="228.579097"/>
    </g>
   </g>
   <g id="PathCollection_6">
    <defs>
     <path d="M 0 2.5 
C 0.663008 2.5 1.29895 2.236584 1.767767 1.767767 
C 2.236584 1.29895 2.5 0.663008 2.5 -0 
C 2.5 -0.663008 2.236584 -1.29895 1.767767 -1.767767 
C 1.29895 -2.236584 0.663008 -2.5 0 -2.5 
C -0.663008 -2.5 -1.29895 -2.236584 -1.767767 -1.767767 
C -2.236584 -1.29895 -2.5 -0.663008 -2.5 0 
C -2.5 0.663008 -2.236584 1.29895 -1.767767 1.767767 
C -1.29895 2.236584 -0.663008 2.5 0 2.5 
z
" id="C0_0_7e3619ca34"/>
    </defs>
    <g clip-path="url(#p38ef9d04da)">
     <use style="fill:#2ca02c;" x="126.459232" xlink:href="#C0_0_7e3619ca34" y="290.148767"/>
    </g>
    <g clip-path="url(#p38ef9d04da)">
     <use style="fill:#2ca02c;" x="131.095239" xlink:href="#C0_0_7e3619ca34" y="261.011207"/>
    </g>
    <g clip-path="url(#p38ef9d04da)">
     <use style="fill:#2ca02c;" x="130.02589" xlink:href="#C0_0_7e3619ca34" y="259.098815"/>
    </g>
    <g clip-path="url(#p38ef9d04da)">
     <use style="fill:#2ca02c;" x="129.510544" xlink:href="#C0_0_7e3619ca34" y="244.806565"/>
    </g>
    <g clip-path="url(#p38ef9d04da)">
     <use style="fill:#2ca02c;" x="130.681482" xlink:href="#C0_0_7e3619ca34" y="229.059995"/>
    </g>
    <g clip-path="url(#p38ef9d04da)">
     <use style="fill:#2ca02c;" x="129.06802" xlink:href="#C0_0_7e3619ca34" y="226.217273"/>
    </g>
    <g clip-path="url(#p38ef9d04da)">
     <use style="fill:#2ca02c;" x="125.407079" xlink:href="#C0_0_7e3619ca34" y="211.054324"/>
    </g>
    <g clip-path="url(#p38ef9d04da)">
     <use style="fill:#2ca02c;" x="126.560017" xlink:href="#C0_0_7e3619ca34" y="199.633749"/>
    </g>
    <g clip-path="url(#p38ef9d04da)">
     <use style="fill:#2ca02c;" x="130.18128" xlink:href="#C0_0_7e3619ca34" y="189.444637"/>
    </g>
    <g clip-path="url(#p38ef9d04da)">
     <use style="fill:#2ca02c;" x="128.500971" xlink:href="#C0_0_7e3619ca34" y="183.193967"/>
    </g>
   </g>
   <g id="PathCollection_7">
    <g clip-path="url(#p38ef9d04da)">
     <use style="fill:#1f77b4;" x="172.921681" xlink:href="#m6dc04228d8" y="171.367419"/>
    </g>
   </g>
   <g id="PathCollection_8">
    <g clip-path="url(#p38ef9d04da)">
     <use style="fill:#ff7f0e;" x="200.89229" xlink:href="#m4c7f6e08da" y="281.40829"/>
    </g>
   </g>
   <g id="PathCollection_9">
    <defs>
     <path d="M 0 2.5 
C 0.663008 2.5 1.29895 2.236584 1.767767 1.767767 
C 2.236584 1.29895 2.5 0.663008 2.5 -0 
C 2.5 -0.663008 2.236584 -1.29895 1.767767 -1.767767 
C 1.29895 -2.236584 0.663008 -2.5 0 -2.5 
C -0.663008 -2.5 -1.29895 -2.236584 -1.767767 -1.767767 
C -2.236584 -1.29895 -2.5 -0.663008 -2.5 0 
C -2.5 0.663008 -2.236584 1.29895 -1.767767 1.767767 
C -1.29895 2.236584 -0.663008 2.5 0 2.5 
z
" id="C1_0_6619a223e0"/>
    </defs>
    <g clip-path="url(#p38ef9d04da)">
     <use style="fill:#2ca02c;" x="228.651261" xlink:href="#C1_0_6619a223e0" y="307.005542"/>
    </g>
    <g clip-path="url(#p38ef9d04da)">
     <use style="fill:#2ca02c;" x="224.181961" xlink:href="#C1_0_6619a223e0" y="272.942716"/>
    </g>
    <g clip-path="url(#p38ef9d04da)">
     <use style="fill:#2ca02c;" x="229.22688" xlink:href="#C1_0_6619a223e0" y="273.34201"/>
    </g>
    <g clip-path="url(#p38ef9d04da)">
     <use style="fill:#2ca02c;" x="223.961039" xlink:href="#C1_0_6619a223e0" y="258.765285"/>
    </g>
    <g clip-path="url(#p38ef9d04da)">
     <use style="fill:#2ca02c;" x="229.851418" xlink:href="#C1_0_6619a223e0" y="248.493608"/>
    </g>
    <g clip-path="url(#p38ef9d04da)">
     <use style="fill:#2ca02c;" x="224.056324" xlink:href="#C1_0_6619a223e0" y="241.013639"/>
    </g>
    <g clip-path="url(#p38ef9d04da)">
     <use style="fill:#2ca02c;" x="228.219381" xlink:href="#C1_0_6619a223e0" y="223.735135"/>
    </g>
    <g clip-path="url(#p38ef9d04da)">
     <use style="fill:#2ca02c;" x="226.281786" xlink:href="#C1_0_6619a223e0" y="213.332352"/>
    </g>
    <g clip-path="url(#p38ef9d04da)">
     <use style="fill:#2ca02c;" x="225.761076" xlink:href="#C1_0_6619a223e0" y="198.514098"/>
    </g>
    <g clip-path="url(#p38ef9d04da)">
     <use style="fill:#2ca02c;" x="226.447179" xlink:href="#C1_0_6619a223e0" y="195.330001"/>
    </g>
   </g>
   <g id="PathCollection_10">
    <g clip-path="url(#p38ef9d04da)">
     <use style="fill:#1f77b4;" x="270.973134" xlink:href="#m6dc04228d8" y="86.080207"/>
    </g>
   </g>
   <g id="PathCollection_11">
    <g clip-path="url(#p38ef9d04da)">
     <use style="fill:#ff7f0e;" x="299.237635" xlink:href="#m4c7f6e08da" y="247.0711"/>
    </g>
   </g>
   <g id="PathCollection_12">
    <defs>
     <path d="M 0 2.5 
C 0.663008 2.5 1.29895 2.236584 1.767767 1.767767 
C 2.236584 1.29895 2.5 0.663008 2.5 -0 
C 2.5 -0.663008 2.236584 -1.29895 1.767767 -1.767767 
C 1.29895 -2.236584 0.663008 -2.5 0 -2.5 
C -0.663008 -2.5 -1.29895 -2.236584 -1.767767 -1.767767 
C -2.236584 -1.29895 -2.5 -0.663008 -2.5 0 
C -2.5 0.663008 -2.236584 1.29895 -1.767767 1.767767 
C -1.29895 2.236584 -0.663008 2.5 0 2.5 
z
" id="C2_0_d77e35008d"/>
    </defs>
    <g clip-path="url(#p38ef9d04da)">
     <use style="fill:#2ca02c;" x="323.101955" xlink:href="#C2_0_d77e35008d" y="297.762333"/>
    </g>
    <g clip-path="url(#p38ef9d04da)">
     <use style="fill:#2ca02c;" x="326.596307" xlink:href="#C2_0_d77e35008d" y="264.563131"/>
    </g>
    <g clip-path="url(#p38ef9d04da)">
     <use style="fill:#2ca02c;" x="324.672983" xlink:href="#C2_0_d77e35008d" y="264.449298"/>
    </g>
    <g clip-path="url(#p38ef9d04da)">
     <use style="fill:#2ca02c;" x="328.136444" xlink:href="#C2_0_d77e35008d" y="250.591281"/>
    </g>
    <g clip-path="url(#p38ef9d04da)">
     <use style="fill:#2ca02c;" x="327.857914" xlink:href="#C2_0_d77e35008d" y="238.63781"/>
    </g>
    <g clip-path="url(#p38ef9d04da)">
     <use style="fill:#2ca02c;" x="325.580066" xlink:href="#C2_0_d77e35008d" y="231.677475"/>
    </g>
    <g clip-path="url(#p38ef9d04da)">
     <use style="fill:#2ca02c;" x="327.4206" xlink:href="#C2_0_d77e35008d" y="215.321636"/>
    </g>
    <g clip-path="url(#p38ef9d04da)">
     <use style="fill:#2ca02c;" x="328.19528" xlink:href="#C2_0_d77e35008d" y="203.723706"/>
    </g>
    <g clip-path="url(#p38ef9d04da)">
     <use style="fill:#2ca02c;" x="326.826835" xlink:href="#C2_0_d77e35008d" y="193.878755"/>
    </g>
    <g clip-path="url(#p38ef9d04da)">
     <use style="fill:#2ca02c;" x="326.833284" xlink:href="#C2_0_d77e35008d" y="188.532975"/>
    </g>
   </g>
   <g id="PathCollection_13">
    <g clip-path="url(#p38ef9d04da)">
     <use style="fill:#1f77b4;" x="374.37481" xlink:href="#m6dc04228d8" y="251.828007"/>
    </g>
   </g>
   <g id="PathCollection_14">
    <g clip-path="url(#p38ef9d04da)">
     <use style="fill:#ff7f0e;" x="401.182287" xlink:href="#m4c7f6e08da" y="317.794496"/>
    </g>
   </g>
   <g id="PathCollection_15">
    <defs>
     <path d="M 0 2.5 
C 0.663008 2.5 1.29895 2.236584 1.767767 1.767767 
C 2.236584 1.29895 2.5 0.663008 2.5 -0 
C 2.5 -0.663008 2.236584 -1.29895 1.767767 -1.767767 
C 1.29895 -2.236584 0.663008 -2.5 0 -2.5 
C -0.663008 -2.5 -1.29895 -2.236584 -1.767767 -1.767767 
C -2.236584 -1.29895 -2.5 -0.663008 -2.5 0 
C -2.5 0.663008 -2.236584 1.29895 -1.767767 1.767767 
C -1.29895 2.236584 -0.663008 2.5 0 2.5 
z
" id="C3_0_8983c0036a"/>
    </defs>
    <g clip-path="url(#p38ef9d04da)">
     <use style="fill:#2ca02c;" x="422.203416" xlink:href="#C3_0_8983c0036a" y="311.215321"/>
    </g>
    <g clip-path="url(#p38ef9d04da)">
     <use style="fill:#2ca02c;" x="426.800337" xlink:href="#C3_0_8983c0036a" y="276.091158"/>
    </g>
    <g clip-path="url(#p38ef9d04da)">
     <use style="fill:#2ca02c;" x="425.377179" xlink:href="#C3_0_8983c0036a" y="275.32035"/>
    </g>
    <g clip-path="url(#p38ef9d04da)">
     <use style="fill:#2ca02c;" x="427.310947" xlink:href="#C3_0_8983c0036a" y="261.493762"/>
    </g>
    <g clip-path="url(#p38ef9d04da)">
     <use style="fill:#2ca02c;" x="425.12247" xlink:href="#C3_0_8983c0036a" y="248.584419"/>
    </g>
    <g clip-path="url(#p38ef9d04da)">
     <use style="fill:#2ca02c;" x="423.338641" xlink:href="#C3_0_8983c0036a" y="242.296184"/>
    </g>
    <g clip-path="url(#p38ef9d04da)">
     <use style="fill:#2ca02c;" x="424.956848" xlink:href="#C3_0_8983c0036a" y="225.19274"/>
    </g>
    <g clip-path="url(#p38ef9d04da)">
     <use style="fill:#2ca02c;" x="425.987967" xlink:href="#C3_0_8983c0036a" y="214.569124"/>
    </g>
    <g clip-path="url(#p38ef9d04da)">
     <use style="fill:#2ca02c;" x="421.962839" xlink:href="#C3_0_8983c0036a" y="203.130105"/>
    </g>
    <g clip-path="url(#p38ef9d04da)">
     <use style="fill:#2ca02c;" x="425.911407" xlink:href="#C3_0_8983c0036a" y="195.64732"/>
    </g>
   </g>
   <g id="text_9">
    <!-- Testing -->
    <g style="fill:#262626;" transform="translate(230.810596 19.49625)scale(0.12 -0.12)">
     <defs>
      <path d="M 319 -275 
L 866 -356 
Q 900 -609 1056 -725 
Q 1266 -881 1628 -881 
Q 2019 -881 2231 -725 
Q 2444 -569 2519 -288 
Q 2563 -116 2559 434 
Q 2191 0 1641 0 
Q 956 0 581 494 
Q 206 988 206 1678 
Q 206 2153 378 2554 
Q 550 2956 876 3175 
Q 1203 3394 1644 3394 
Q 2231 3394 2613 2919 
L 2613 3319 
L 3131 3319 
L 3131 450 
Q 3131 -325 2973 -648 
Q 2816 -972 2473 -1159 
Q 2131 -1347 1631 -1347 
Q 1038 -1347 672 -1080 
Q 306 -813 319 -275 
z
M 784 1719 
Q 784 1066 1043 766 
Q 1303 466 1694 466 
Q 2081 466 2343 764 
Q 2606 1063 2606 1700 
Q 2606 2309 2336 2618 
Q 2066 2928 1684 2928 
Q 1309 2928 1046 2623 
Q 784 2319 784 1719 
z
" id="ArialMT-67" transform="scale(0.015625)"/>
     </defs>
     <use xlink:href="#ArialMT-54"/>
     <use x="49.958984" xlink:href="#ArialMT-65"/>
     <use x="105.574219" xlink:href="#ArialMT-73"/>
     <use x="155.574219" xlink:href="#ArialMT-74"/>
     <use x="183.357422" xlink:href="#ArialMT-69"/>
     <use x="205.574219" xlink:href="#ArialMT-6e"/>
     <use x="261.189453" xlink:href="#ArialMT-67"/>
    </g>
   </g>
   <g id="legend_1">
    <g id="patch_7">
     <path d="M 364.984043 90.194687 
L 440.34498 90.194687 
Q 442.34498 90.194687 442.34498 88.194687 
L 442.34498 32.49625 
Q 442.34498 30.49625 440.34498 30.49625 
L 364.984043 30.49625 
Q 362.984043 30.49625 362.984043 32.49625 
L 362.984043 88.194687 
Q 362.984043 90.194687 364.984043 90.194687 
z
" style="fill:#ffffff;opacity:0.8;stroke:#cccccc;stroke-linejoin:miter;"/>
    </g>
    <g id="text_10">
     <!-- filterer -->
     <g style="fill:#262626;" transform="translate(388.773887 41.654063)scale(0.1 -0.1)">
      <defs>
       <path d="M 556 0 
L 556 2881 
L 59 2881 
L 59 3319 
L 556 3319 
L 556 3672 
Q 556 4006 616 4169 
Q 697 4388 901 4523 
Q 1106 4659 1475 4659 
Q 1713 4659 2000 4603 
L 1916 4113 
Q 1741 4144 1584 4144 
Q 1328 4144 1222 4034 
Q 1116 3925 1116 3625 
L 1116 3319 
L 1763 3319 
L 1763 2881 
L 1116 2881 
L 1116 0 
L 556 0 
z
" id="ArialMT-66" transform="scale(0.015625)"/>
      </defs>
      <use xlink:href="#ArialMT-66"/>
      <use x="27.783203" xlink:href="#ArialMT-69"/>
      <use x="50" xlink:href="#ArialMT-6c"/>
      <use x="72.216797" xlink:href="#ArialMT-74"/>
      <use x="100" xlink:href="#ArialMT-65"/>
      <use x="155.615234" xlink:href="#ArialMT-72"/>
      <use x="188.916016" xlink:href="#ArialMT-65"/>
      <use x="244.53125" xlink:href="#ArialMT-72"/>
     </g>
    </g>
    <g id="PathCollection_16">
     <defs>
      <path d="M 0 3.872983 
C 1.027127 3.872983 2.012324 3.464901 2.738613 2.738613 
C 3.464901 2.012324 3.872983 1.027127 3.872983 0 
C 3.872983 -1.027127 3.464901 -2.012324 2.738613 -2.738613 
C 2.012324 -3.464901 1.027127 -3.872983 0 -3.872983 
C -1.027127 -3.872983 -2.012324 -3.464901 -2.738613 -2.738613 
C -3.464901 -2.012324 -3.872983 -1.027127 -3.872983 0 
C -3.872983 1.027127 -3.464901 2.012324 -2.738613 2.738613 
C -2.012324 3.464901 -1.027127 3.872983 0 3.872983 
z
" id="mafc1465bbe" style="stroke:#1f77b4;"/>
     </defs>
     <g>
      <use style="fill:#1f77b4;stroke:#1f77b4;" x="376.984043" xlink:href="#mafc1465bbe" y="53.174375"/>
     </g>
    </g>
    <g id="text_11">
     <!-- default -->
     <g style="fill:#262626;" transform="translate(394.984043 55.799375)scale(0.1 -0.1)">
      <defs>
       <path d="M 2575 0 
L 2575 419 
Q 2259 -75 1647 -75 
Q 1250 -75 917 144 
Q 584 363 401 755 
Q 219 1147 219 1656 
Q 219 2153 384 2558 
Q 550 2963 881 3178 
Q 1213 3394 1622 3394 
Q 1922 3394 2156 3267 
Q 2391 3141 2538 2938 
L 2538 4581 
L 3097 4581 
L 3097 0 
L 2575 0 
z
M 797 1656 
Q 797 1019 1065 703 
Q 1334 388 1700 388 
Q 2069 388 2326 689 
Q 2584 991 2584 1609 
Q 2584 2291 2321 2609 
Q 2059 2928 1675 2928 
Q 1300 2928 1048 2622 
Q 797 2316 797 1656 
z
" id="ArialMT-64" transform="scale(0.015625)"/>
      </defs>
      <use xlink:href="#ArialMT-64"/>
      <use x="55.615234" xlink:href="#ArialMT-65"/>
      <use x="111.230469" xlink:href="#ArialMT-66"/>
      <use x="139.013672" xlink:href="#ArialMT-61"/>
      <use x="194.628906" xlink:href="#ArialMT-75"/>
      <use x="250.244141" xlink:href="#ArialMT-6c"/>
      <use x="272.460938" xlink:href="#ArialMT-74"/>
     </g>
    </g>
    <g id="PathCollection_17">
     <defs>
      <path d="M 0 3.872983 
C 1.027127 3.872983 2.012324 3.464901 2.738613 2.738613 
C 3.464901 2.012324 3.872983 1.027127 3.872983 0 
C 3.872983 -1.027127 3.464901 -2.012324 2.738613 -2.738613 
C 2.012324 -3.464901 1.027127 -3.872983 0 -3.872983 
C -1.027127 -3.872983 -2.012324 -3.464901 -2.738613 -2.738613 
C -3.464901 -2.012324 -3.872983 -1.027127 -3.872983 0 
C -3.872983 1.027127 -3.464901 2.012324 -2.738613 2.738613 
C -2.012324 3.464901 -1.027127 3.872983 0 3.872983 
z
" id="m22d1bf24a7" style="stroke:#ff7f0e;"/>
     </defs>
     <g>
      <use style="fill:#ff7f0e;stroke:#ff7f0e;" x="376.984043" xlink:href="#m22d1bf24a7" y="67.319687"/>
     </g>
    </g>
    <g id="text_12">
     <!-- pythonset -->
     <g style="fill:#262626;" transform="translate(394.984043 69.944687)scale(0.1 -0.1)">
      <defs>
       <path d="M 397 -1278 
L 334 -750 
Q 519 -800 656 -800 
Q 844 -800 956 -737 
Q 1069 -675 1141 -563 
Q 1194 -478 1313 -144 
Q 1328 -97 1363 -6 
L 103 3319 
L 709 3319 
L 1400 1397 
Q 1534 1031 1641 628 
Q 1738 1016 1872 1384 
L 2581 3319 
L 3144 3319 
L 1881 -56 
Q 1678 -603 1566 -809 
Q 1416 -1088 1222 -1217 
Q 1028 -1347 759 -1347 
Q 597 -1347 397 -1278 
z
" id="ArialMT-79" transform="scale(0.015625)"/>
      </defs>
      <use xlink:href="#ArialMT-70"/>
      <use x="55.615234" xlink:href="#ArialMT-79"/>
      <use x="105.615234" xlink:href="#ArialMT-74"/>
      <use x="133.398438" xlink:href="#ArialMT-68"/>
      <use x="189.013672" xlink:href="#ArialMT-6f"/>
      <use x="244.628906" xlink:href="#ArialMT-6e"/>
      <use x="300.244141" xlink:href="#ArialMT-73"/>
      <use x="350.244141" xlink:href="#ArialMT-65"/>
      <use x="405.859375" xlink:href="#ArialMT-74"/>
     </g>
    </g>
    <g id="PathCollection_18">
     <defs>
      <path d="M 0 3.872983 
C 1.027127 3.872983 2.012324 3.464901 2.738613 2.738613 
C 3.464901 2.012324 3.872983 1.027127 3.872983 0 
C 3.872983 -1.027127 3.464901 -2.012324 2.738613 -2.738613 
C 2.012324 -3.464901 1.027127 -3.872983 0 -3.872983 
C -1.027127 -3.872983 -2.012324 -3.464901 -2.738613 -2.738613 
C -3.464901 -2.012324 -3.872983 -1.027127 -3.872983 0 
C -3.872983 1.027127 -3.464901 2.012324 -2.738613 2.738613 
C -2.012324 3.464901 -1.027127 3.872983 0 3.872983 
z
" id="m3b75c71c76" style="stroke:#2ca02c;"/>
     </defs>
     <g>
      <use style="fill:#2ca02c;stroke:#2ca02c;" x="376.984043" xlink:href="#m3b75c71c76" y="81.582187"/>
     </g>
    </g>
    <g id="text_13">
     <!-- bloom -->
     <g style="fill:#262626;" transform="translate(394.984043 84.207187)scale(0.1 -0.1)">
      <defs>
       <path d="M 941 0 
L 419 0 
L 419 4581 
L 981 4581 
L 981 2947 
Q 1338 3394 1891 3394 
Q 2197 3394 2470 3270 
Q 2744 3147 2920 2923 
Q 3097 2700 3197 2384 
Q 3297 2069 3297 1709 
Q 3297 856 2875 390 
Q 2453 -75 1863 -75 
Q 1275 -75 941 416 
L 941 0 
z
M 934 1684 
Q 934 1088 1097 822 
Q 1363 388 1816 388 
Q 2184 388 2453 708 
Q 2722 1028 2722 1663 
Q 2722 2313 2464 2622 
Q 2206 2931 1841 2931 
Q 1472 2931 1203 2611 
Q 934 2291 934 1684 
z
" id="ArialMT-62" transform="scale(0.015625)"/>
      </defs>
      <use xlink:href="#ArialMT-62"/>
      <use x="55.615234" xlink:href="#ArialMT-6c"/>
      <use x="77.832031" xlink:href="#ArialMT-6f"/>
      <use x="133.447266" xlink:href="#ArialMT-6f"/>
      <use x="189.0625" xlink:href="#ArialMT-6d"/>
     </g>
    </g>
   </g>
  </g>
  <g id="axes_2">
   <g id="patch_8">
    <path d="M 458.14498 332.12 
L 853.2 332.12 
L 853.2 25.49625 
L 458.14498 25.49625 
z
" style="fill:#ffffff;"/>
   </g>
   <g id="matplotlib.axis_3">
    <g id="xtick_5">
     <g id="text_14">
      <!-- kinships -->
      <g style="fill:#262626;" transform="translate(489.463577 346.277812)scale(0.1 -0.1)">
       <use xlink:href="#ArialMT-6b"/>
       <use x="50" xlink:href="#ArialMT-69"/>
       <use x="72.216797" xlink:href="#ArialMT-6e"/>
       <use x="127.832031" xlink:href="#ArialMT-73"/>
       <use x="177.832031" xlink:href="#ArialMT-68"/>
       <use x="233.447266" xlink:href="#ArialMT-69"/>
       <use x="255.664062" xlink:href="#ArialMT-70"/>
       <use x="311.279297" xlink:href="#ArialMT-73"/>
      </g>
     </g>
    </g>
    <g id="xtick_6">
     <g id="text_15">
      <!-- nations -->
      <g style="fill:#262626;" transform="translate(590.168738 346.277812)scale(0.1 -0.1)">
       <use xlink:href="#ArialMT-6e"/>
       <use x="55.615234" xlink:href="#ArialMT-61"/>
       <use x="111.230469" xlink:href="#ArialMT-74"/>
       <use x="139.013672" xlink:href="#ArialMT-69"/>
       <use x="161.230469" xlink:href="#ArialMT-6f"/>
       <use x="216.845703" xlink:href="#ArialMT-6e"/>
       <use x="272.460938" xlink:href="#ArialMT-73"/>
      </g>
     </g>
    </g>
    <g id="xtick_7">
     <g id="text_16">
      <!-- umls -->
      <g style="fill:#262626;" transform="translate(694.498118 346.277812)scale(0.1 -0.1)">
       <use xlink:href="#ArialMT-75"/>
       <use x="55.615234" xlink:href="#ArialMT-6d"/>
       <use x="138.916016" xlink:href="#ArialMT-6c"/>
       <use x="161.132812" xlink:href="#ArialMT-73"/>
      </g>
     </g>
    </g>
    <g id="xtick_8">
     <g id="text_17">
      <!-- countries -->
      <g style="fill:#262626;" transform="translate(783.531404 346.277812)scale(0.1 -0.1)">
       <use xlink:href="#ArialMT-63"/>
       <use x="50" xlink:href="#ArialMT-6f"/>
       <use x="105.615234" xlink:href="#ArialMT-75"/>
       <use x="161.230469" xlink:href="#ArialMT-6e"/>
       <use x="216.845703" xlink:href="#ArialMT-74"/>
       <use x="244.628906" xlink:href="#ArialMT-72"/>
       <use x="277.929688" xlink:href="#ArialMT-69"/>
       <use x="300.146484" xlink:href="#ArialMT-65"/>
       <use x="355.761719" xlink:href="#ArialMT-73"/>
      </g>
     </g>
    </g>
   </g>
   <g id="matplotlib.axis_4">
    <g id="ytick_34">
     <g id="line2d_4">
      <path clip-path="url(#pad01edc1dc)" d="M 458.14498 260.334283 
L 853.2 260.334283 
" style="fill:none;stroke:#cccccc;stroke-linecap:round;stroke-width:0.8;"/>
     </g>
    </g>
    <g id="ytick_35">
     <g id="line2d_5">
      <path clip-path="url(#pad01edc1dc)" d="M 458.14498 178.49351 
L 853.2 178.49351 
" style="fill:none;stroke:#cccccc;stroke-linecap:round;stroke-width:0.8;"/>
     </g>
    </g>
    <g id="ytick_36">
     <g id="line2d_6">
      <path clip-path="url(#pad01edc1dc)" d="M 458.14498 96.652736 
L 853.2 96.652736 
" style="fill:none;stroke:#cccccc;stroke-linecap:round;stroke-width:0.8;"/>
     </g>
    </g>
    <g id="ytick_37"/>
    <g id="ytick_38"/>
    <g id="ytick_39"/>
    <g id="ytick_40"/>
    <g id="ytick_41"/>
    <g id="ytick_42"/>
    <g id="ytick_43"/>
    <g id="ytick_44"/>
    <g id="ytick_45"/>
    <g id="ytick_46"/>
    <g id="ytick_47"/>
    <g id="ytick_48"/>
    <g id="ytick_49"/>
    <g id="ytick_50"/>
    <g id="ytick_51"/>
    <g id="ytick_52"/>
    <g id="ytick_53"/>
    <g id="ytick_54"/>
    <g id="ytick_55"/>
    <g id="ytick_56"/>
    <g id="ytick_57"/>
    <g id="ytick_58"/>
    <g id="ytick_59"/>
    <g id="ytick_60"/>
    <g id="ytick_61"/>
    <g id="ytick_62"/>
    <g id="ytick_63"/>
    <g id="ytick_64"/>
    <g id="ytick_65"/>
    <g id="ytick_66"/>
   </g>
   <g id="PathCollection_19"/>
   <g id="PathCollection_20"/>
   <g id="PathCollection_21"/>
   <g id="patch_9">
    <path d="M 458.14498 332.12 
L 458.14498 25.49625 
" style="fill:none;stroke:#cccccc;stroke-linecap:square;stroke-linejoin:miter;stroke-width:0.8;"/>
   </g>
   <g id="patch_10">
    <path d="M 853.2 332.12 
L 853.2 25.49625 
" style="fill:none;stroke:#cccccc;stroke-linecap:square;stroke-linejoin:miter;stroke-width:0.8;"/>
   </g>
   <g id="patch_11">
    <path d="M 458.14498 332.12 
L 853.2 332.12 
" style="fill:none;stroke:#cccccc;stroke-linecap:square;stroke-linejoin:miter;stroke-width:0.8;"/>
   </g>
   <g id="patch_12">
    <path d="M 458.14498 25.49625 
L 853.2 25.49625 
" style="fill:none;stroke:#cccccc;stroke-linecap:square;stroke-linejoin:miter;stroke-width:0.8;"/>
   </g>
   <g id="PathCollection_22">
    <g clip-path="url(#pad01edc1dc)">
     <use style="fill:#1f77b4;" x="477.970015" xlink:href="#m6dc04228d8" y="39.433693"/>
    </g>
   </g>
   <g id="PathCollection_23">
    <g clip-path="url(#pad01edc1dc)">
     <use style="fill:#ff7f0e;" x="507.14002" xlink:href="#m4c7f6e08da" y="225.205318"/>
    </g>
   </g>
   <g id="PathCollection_24">
    <defs>
     <path d="M 0 2.5 
C 0.663008 2.5 1.29895 2.236584 1.767767 1.767767 
C 2.236584 1.29895 2.5 0.663008 2.5 -0 
C 2.5 -0.663008 2.236584 -1.29895 1.767767 -1.767767 
C 1.29895 -2.236584 0.663008 -2.5 0 -2.5 
C -0.663008 -2.5 -1.29895 -2.236584 -1.767767 -1.767767 
C -2.236584 -1.29895 -2.5 -0.663008 -2.5 0 
C -2.5 0.663008 -2.236584 1.29895 -1.767767 1.767767 
C -1.29895 2.236584 -0.663008 2.5 0 2.5 
z
" id="C4_0_8d97b0b42f"/>
    </defs>
    <g clip-path="url(#pad01edc1dc)">
     <use style="fill:#2ca02c;" x="536.034266" xlink:href="#C4_0_8d97b0b42f" y="287.470393"/>
    </g>
    <g clip-path="url(#pad01edc1dc)">
     <use style="fill:#2ca02c;" x="533.956213" xlink:href="#C4_0_8d97b0b42f" y="261.767508"/>
    </g>
    <g clip-path="url(#pad01edc1dc)">
     <use style="fill:#2ca02c;" x="530.78243" xlink:href="#C4_0_8d97b0b42f" y="258.962175"/>
    </g>
    <g clip-path="url(#pad01edc1dc)">
     <use style="fill:#2ca02c;" x="534.016536" xlink:href="#C4_0_8d97b0b42f" y="245.172656"/>
    </g>
    <g clip-path="url(#pad01edc1dc)">
     <use style="fill:#2ca02c;" x="535.752063" xlink:href="#C4_0_8d97b0b42f" y="233.49999"/>
    </g>
    <g clip-path="url(#pad01edc1dc)">
     <use style="fill:#2ca02c;" x="534.127035" xlink:href="#C4_0_8d97b0b42f" y="226.71929"/>
    </g>
    <g clip-path="url(#pad01edc1dc)">
     <use style="fill:#2ca02c;" x="535.768809" xlink:href="#C4_0_8d97b0b42f" y="211.110801"/>
    </g>
    <g clip-path="url(#pad01edc1dc)">
     <use style="fill:#2ca02c;" x="535.109534" xlink:href="#C4_0_8d97b0b42f" y="199.808143"/>
    </g>
    <g clip-path="url(#pad01edc1dc)">
     <use style="fill:#2ca02c;" x="531.553169" xlink:href="#C4_0_8d97b0b42f" y="188.500366"/>
    </g>
    <g clip-path="url(#pad01edc1dc)">
     <use style="fill:#2ca02c;" x="534.864987" xlink:href="#C4_0_8d97b0b42f" y="182.544115"/>
    </g>
   </g>
   <g id="PathCollection_25">
    <g clip-path="url(#pad01edc1dc)">
     <use style="fill:#1f77b4;" x="581.938678" xlink:href="#m6dc04228d8" y="171.458487"/>
    </g>
   </g>
   <g id="PathCollection_26">
    <g clip-path="url(#pad01edc1dc)">
     <use style="fill:#ff7f0e;" x="609.25233" xlink:href="#m4c7f6e08da" y="281.8826"/>
    </g>
   </g>
   <g id="PathCollection_27">
    <defs>
     <path d="M 0 2.5 
C 0.663008 2.5 1.29895 2.236584 1.767767 1.767767 
C 2.236584 1.29895 2.5 0.663008 2.5 -0 
C 2.5 -0.663008 2.236584 -1.29895 1.767767 -1.767767 
C 1.29895 -2.236584 0.663008 -2.5 0 -2.5 
C -0.663008 -2.5 -1.29895 -2.236584 -1.767767 -1.767767 
C -2.236584 -1.29895 -2.5 -0.663008 -2.5 0 
C -2.5 0.663008 -2.236584 1.29895 -1.767767 1.767767 
C -1.29895 2.236584 -0.663008 2.5 0 2.5 
z
" id="C5_0_f8a0e9336f"/>
    </defs>
    <g clip-path="url(#pad01edc1dc)">
     <use style="fill:#2ca02c;" x="633.478177" xlink:href="#C5_0_f8a0e9336f" y="307.374513"/>
    </g>
    <g clip-path="url(#pad01edc1dc)">
     <use style="fill:#2ca02c;" x="634.244157" xlink:href="#C5_0_f8a0e9336f" y="273.648072"/>
    </g>
    <g clip-path="url(#pad01edc1dc)">
     <use style="fill:#2ca02c;" x="630.193467" xlink:href="#C5_0_f8a0e9336f" y="272.786096"/>
    </g>
    <g clip-path="url(#pad01edc1dc)">
     <use style="fill:#2ca02c;" x="632.573397" xlink:href="#C5_0_f8a0e9336f" y="258.406278"/>
    </g>
    <g clip-path="url(#pad01edc1dc)">
     <use style="fill:#2ca02c;" x="630.526015" xlink:href="#C5_0_f8a0e9336f" y="249.027066"/>
    </g>
    <g clip-path="url(#pad01edc1dc)">
     <use style="fill:#2ca02c;" x="632.662402" xlink:href="#C5_0_f8a0e9336f" y="240.662799"/>
    </g>
    <g clip-path="url(#pad01edc1dc)">
     <use style="fill:#2ca02c;" x="634.59097" xlink:href="#C5_0_f8a0e9336f" y="224.718555"/>
    </g>
    <g clip-path="url(#pad01edc1dc)">
     <use style="fill:#2ca02c;" x="632.883655" xlink:href="#C5_0_f8a0e9336f" y="213.270808"/>
    </g>
    <g clip-path="url(#pad01edc1dc)">
     <use style="fill:#2ca02c;" x="631.326611" xlink:href="#C5_0_f8a0e9336f" y="199.832252"/>
    </g>
    <g clip-path="url(#pad01edc1dc)">
     <use style="fill:#2ca02c;" x="634.117644" xlink:href="#C5_0_f8a0e9336f" y="194.162608"/>
    </g>
   </g>
   <g id="PathCollection_28">
    <g clip-path="url(#pad01edc1dc)">
     <use style="fill:#1f77b4;" x="675.699869" xlink:href="#m6dc04228d8" y="87.786505"/>
    </g>
   </g>
   <g id="PathCollection_29">
    <g clip-path="url(#pad01edc1dc)">
     <use style="fill:#ff7f0e;" x="706.243498" xlink:href="#m4c7f6e08da" y="248.089699"/>
    </g>
   </g>
   <g id="PathCollection_30">
    <defs>
     <path d="M 0 2.5 
C 0.663008 2.5 1.29895 2.236584 1.767767 1.767767 
C 2.236584 1.29895 2.5 0.663008 2.5 -0 
C 2.5 -0.663008 2.236584 -1.29895 1.767767 -1.767767 
C 1.29895 -2.236584 0.663008 -2.5 0 -2.5 
C -0.663008 -2.5 -1.29895 -2.236584 -1.767767 -1.767767 
C -2.236584 -1.29895 -2.5 -0.663008 -2.5 0 
C -2.5 0.663008 -2.236584 1.29895 -1.767767 1.767767 
C -1.29895 2.236584 -0.663008 2.5 0 2.5 
z
" id="C6_0_79432f89cb"/>
    </defs>
    <g clip-path="url(#pad01edc1dc)">
     <use style="fill:#2ca02c;" x="730.843169" xlink:href="#C6_0_79432f89cb" y="297.404116"/>
    </g>
    <g clip-path="url(#pad01edc1dc)">
     <use style="fill:#2ca02c;" x="729.428265" xlink:href="#C6_0_79432f89cb" y="265.750198"/>
    </g>
    <g clip-path="url(#pad01edc1dc)">
     <use style="fill:#2ca02c;" x="733.404292" xlink:href="#C6_0_79432f89cb" y="264.671548"/>
    </g>
    <g clip-path="url(#pad01edc1dc)">
     <use style="fill:#2ca02c;" x="731.123609" xlink:href="#C6_0_79432f89cb" y="250.644553"/>
    </g>
    <g clip-path="url(#pad01edc1dc)">
     <use style="fill:#2ca02c;" x="728.608976" xlink:href="#C6_0_79432f89cb" y="239.515265"/>
    </g>
    <g clip-path="url(#pad01edc1dc)">
     <use style="fill:#2ca02c;" x="728.45353" xlink:href="#C6_0_79432f89cb" y="231.162437"/>
    </g>
    <g clip-path="url(#pad01edc1dc)">
     <use style="fill:#2ca02c;" x="731.751129" xlink:href="#C6_0_79432f89cb" y="215.384782"/>
    </g>
    <g clip-path="url(#pad01edc1dc)">
     <use style="fill:#2ca02c;" x="733.315436" xlink:href="#C6_0_79432f89cb" y="203.651204"/>
    </g>
    <g clip-path="url(#pad01edc1dc)">
     <use style="fill:#2ca02c;" x="731.152515" xlink:href="#C6_0_79432f89cb" y="192.133509"/>
    </g>
    <g clip-path="url(#pad01edc1dc)">
     <use style="fill:#2ca02c;" x="730.509094" xlink:href="#C6_0_79432f89cb" y="188.537548"/>
    </g>
   </g>
   <g id="PathCollection_31">
    <g clip-path="url(#pad01edc1dc)">
     <use style="fill:#1f77b4;" x="777.182234" xlink:href="#m6dc04228d8" y="252.416929"/>
    </g>
   </g>
   <g id="PathCollection_32">
    <g clip-path="url(#pad01edc1dc)">
     <use style="fill:#ff7f0e;" x="801.053417" xlink:href="#m4c7f6e08da" y="318.182557"/>
    </g>
   </g>
   <g id="PathCollection_33">
    <defs>
     <path d="M 0 2.5 
C 0.663008 2.5 1.29895 2.236584 1.767767 1.767767 
C 2.236584 1.29895 2.5 0.663008 2.5 -0 
C 2.5 -0.663008 2.236584 -1.29895 1.767767 -1.767767 
C 1.29895 -2.236584 0.663008 -2.5 0 -2.5 
C -0.663008 -2.5 -1.29895 -2.236584 -1.767767 -1.767767 
C -2.236584 -1.29895 -2.5 -0.663008 -2.5 0 
C -2.5 0.663008 -2.236584 1.29895 -1.767767 1.767767 
C -1.29895 2.236584 -0.663008 2.5 0 2.5 
z
" id="C7_0_d120e278c5"/>
    </defs>
    <g clip-path="url(#pad01edc1dc)">
     <use style="fill:#2ca02c;" x="828.668681" xlink:href="#C7_0_d120e278c5" y="311.107655"/>
    </g>
    <g clip-path="url(#pad01edc1dc)">
     <use style="fill:#2ca02c;" x="829.360195" xlink:href="#C7_0_d120e278c5" y="276.577396"/>
    </g>
    <g clip-path="url(#pad01edc1dc)">
     <use style="fill:#2ca02c;" x="832.136174" xlink:href="#C7_0_d120e278c5" y="274.66197"/>
    </g>
    <g clip-path="url(#pad01edc1dc)">
     <use style="fill:#2ca02c;" x="830.127765" xlink:href="#C7_0_d120e278c5" y="261.35987"/>
    </g>
    <g clip-path="url(#pad01edc1dc)">
     <use style="fill:#2ca02c;" x="827.375747" xlink:href="#C7_0_d120e278c5" y="249.341775"/>
    </g>
    <g clip-path="url(#pad01edc1dc)">
     <use style="fill:#2ca02c;" x="827.334299" xlink:href="#C7_0_d120e278c5" y="241.539164"/>
    </g>
    <g clip-path="url(#pad01edc1dc)">
     <use style="fill:#2ca02c;" x="828.276437" xlink:href="#C7_0_d120e278c5" y="225.763325"/>
    </g>
    <g clip-path="url(#pad01edc1dc)">
     <use style="fill:#2ca02c;" x="831.637285" xlink:href="#C7_0_d120e278c5" y="215.007925"/>
    </g>
    <g clip-path="url(#pad01edc1dc)">
     <use style="fill:#2ca02c;" x="830.944396" xlink:href="#C7_0_d120e278c5" y="203.232046"/>
    </g>
    <g clip-path="url(#pad01edc1dc)">
     <use style="fill:#2ca02c;" x="828.421207" xlink:href="#C7_0_d120e278c5" y="196.637055"/>
    </g>
   </g>
   <g id="text_18">
    <!-- Validation -->
    <g style="fill:#262626;" transform="translate(629.76374 19.49625)scale(0.12 -0.12)">
     <defs>
      <path d="M 1803 0 
L 28 4581 
L 684 4581 
L 1875 1253 
Q 2019 853 2116 503 
Q 2222 878 2363 1253 
L 3600 4581 
L 4219 4581 
L 2425 0 
L 1803 0 
z
" id="ArialMT-56" transform="scale(0.015625)"/>
     </defs>
     <use xlink:href="#ArialMT-56"/>
     <use x="59.324219" xlink:href="#ArialMT-61"/>
     <use x="114.939453" xlink:href="#ArialMT-6c"/>
     <use x="137.15625" xlink:href="#ArialMT-69"/>
     <use x="159.373047" xlink:href="#ArialMT-64"/>
     <use x="214.988281" xlink:href="#ArialMT-61"/>
     <use x="270.603516" xlink:href="#ArialMT-74"/>
     <use x="298.386719" xlink:href="#ArialMT-69"/>
     <use x="320.603516" xlink:href="#ArialMT-6f"/>
     <use x="376.21875" xlink:href="#ArialMT-6e"/>
    </g>
   </g>
   <g id="legend_2">
    <g id="patch_13">
     <path d="M 770.839062 90.194687 
L 846.2 90.194687 
Q 848.2 90.194687 848.2 88.194687 
L 848.2 32.49625 
Q 848.2 30.49625 846.2 30.49625 
L 770.839062 30.49625 
Q 768.839062 30.49625 768.839062 32.49625 
L 768.839062 88.194687 
Q 768.839062 90.194687 770.839062 90.194687 
z
" style="fill:#ffffff;opacity:0.8;stroke:#cccccc;stroke-linejoin:miter;"/>
    </g>
    <g id="text_19">
     <!-- filterer -->
     <g style="fill:#262626;" transform="translate(794.628906 41.654063)scale(0.1 -0.1)">
      <use xlink:href="#ArialMT-66"/>
      <use x="27.783203" xlink:href="#ArialMT-69"/>
      <use x="50" xlink:href="#ArialMT-6c"/>
      <use x="72.216797" xlink:href="#ArialMT-74"/>
      <use x="100" xlink:href="#ArialMT-65"/>
      <use x="155.615234" xlink:href="#ArialMT-72"/>
      <use x="188.916016" xlink:href="#ArialMT-65"/>
      <use x="244.53125" xlink:href="#ArialMT-72"/>
     </g>
    </g>
    <g id="PathCollection_34">
     <g>
      <use style="fill:#1f77b4;stroke:#1f77b4;" x="782.839062" xlink:href="#mafc1465bbe" y="53.174375"/>
     </g>
    </g>
    <g id="text_20">
     <!-- default -->
     <g style="fill:#262626;" transform="translate(800.839062 55.799375)scale(0.1 -0.1)">
      <use xlink:href="#ArialMT-64"/>
      <use x="55.615234" xlink:href="#ArialMT-65"/>
      <use x="111.230469" xlink:href="#ArialMT-66"/>
      <use x="139.013672" xlink:href="#ArialMT-61"/>
      <use x="194.628906" xlink:href="#ArialMT-75"/>
      <use x="250.244141" xlink:href="#ArialMT-6c"/>
      <use x="272.460938" xlink:href="#ArialMT-74"/>
     </g>
    </g>
    <g id="PathCollection_35">
     <g>
      <use style="fill:#ff7f0e;stroke:#ff7f0e;" x="782.839062" xlink:href="#m22d1bf24a7" y="67.319687"/>
     </g>
    </g>
    <g id="text_21">
     <!-- pythonset -->
     <g style="fill:#262626;" transform="translate(800.839062 69.944687)scale(0.1 -0.1)">
      <use xlink:href="#ArialMT-70"/>
      <use x="55.615234" xlink:href="#ArialMT-79"/>
      <use x="105.615234" xlink:href="#ArialMT-74"/>
      <use x="133.398438" xlink:href="#ArialMT-68"/>
      <use x="189.013672" xlink:href="#ArialMT-6f"/>
      <use x="244.628906" xlink:href="#ArialMT-6e"/>
      <use x="300.244141" xlink:href="#ArialMT-73"/>
      <use x="350.244141" xlink:href="#ArialMT-65"/>
      <use x="405.859375" xlink:href="#ArialMT-74"/>
     </g>
    </g>
    <g id="PathCollection_36">
     <g>
      <use style="fill:#2ca02c;stroke:#2ca02c;" x="782.839062" xlink:href="#m3b75c71c76" y="81.582187"/>
     </g>
    </g>
    <g id="text_22">
     <!-- bloom -->
     <g style="fill:#262626;" transform="translate(800.839062 84.207187)scale(0.1 -0.1)">
      <use xlink:href="#ArialMT-62"/>
      <use x="55.615234" xlink:href="#ArialMT-6c"/>
      <use x="77.832031" xlink:href="#ArialMT-6f"/>
      <use x="133.447266" xlink:href="#ArialMT-6f"/>
      <use x="189.0625" xlink:href="#ArialMT-6d"/>
     </g>
    </g>
   </g>
  </g>
 </g>
 <defs>
  <clipPath id="p38ef9d04da">
   <rect height="306.62375" width="395.05502" x="52.289961" y="25.49625"/>
  </clipPath>
  <clipPath id="pad01edc1dc">
   <rect height="306.62375" width="395.05502" x="458.14498" y="25.49625"/>
  </clipPath>
 </defs>
</svg>
