<?xml version="1.0" encoding="utf-8" standalone="no"?>
<!DOCTYPE svg PUBLIC "-//W3C//DTD SVG 1.1//EN"
  "http://www.w3.org/Graphics/SVG/1.1/DTD/svg11.dtd">
<svg height="288pt" version="1.1" viewBox="0 0 720 288" width="720pt" xmlns="http://www.w3.org/2000/svg" xmlns:xlink="http://www.w3.org/1999/xlink">
 <metadata>
  <rdf:RDF xmlns:cc="http://creativecommons.org/ns#" xmlns:dc="http://purl.org/dc/elements/1.1/" xmlns:rdf="http://www.w3.org/1999/02/22-rdf-syntax-ns#">
   <cc:Work>
    <dc:type rdf:resource="http://purl.org/dc/dcmitype/StillImage"/>
    <dc:date>2021-04-25T11:34:40.172455</dc:date>
    <dc:format>image/svg+xml</dc:format>
    <dc:creator>
     <cc:Agent>
      <dc:title>Matplotlib v3.4.1, https://matplotlib.org/</dc:title>
     </cc:Agent>
    </dc:creator>
   </cc:Work>
  </rdf:RDF>
 </metadata>
 <defs>
  <style type="text/css">*{stroke-linecap:butt;stroke-linejoin:round;}</style>
 </defs>
 <g id="figure_1">
  <g id="patch_1">
   <path d="M 0 288 
L 720 288 
L 720 0 
L 0 0 
z
" style="fill:#ffffff;"/>
  </g>
  <g id="axes_1">
   <g id="patch_2">
    <path d="M 90 256.32 
L 648 256.32 
L 648 34.56 
L 90 34.56 
z
" style="fill:#ffffff;"/>
   </g>
   <g id="matplotlib.axis_1">
    <g id="xtick_1">
     <g id="line2d_1">
      <path clip-path="url(#pff5f157101)" d="M 107.66842 256.32 
L 107.66842 34.56 
" style="fill:none;stroke:#cccccc;stroke-linecap:round;stroke-width:0.8;"/>
     </g>
     <g id="text_1">
      <!-- $\mathdefault{10^{3}}$ -->
      <g style="fill:#262626;" transform="translate(99.81842 273.6325)scale(0.1 -0.1)">
       <defs>
        <path d="M 2384 0 
L 1822 0 
L 1822 3584 
Q 1619 3391 1289 3197 
Q 959 3003 697 2906 
L 697 3450 
Q 1169 3672 1522 3987 
Q 1875 4303 2022 4600 
L 2384 4600 
L 2384 0 
z
" id="ArialMT-31" transform="scale(0.015625)"/>
        <path d="M 266 2259 
Q 266 3072 433 3567 
Q 600 4063 929 4331 
Q 1259 4600 1759 4600 
Q 2128 4600 2406 4451 
Q 2684 4303 2865 4023 
Q 3047 3744 3150 3342 
Q 3253 2941 3253 2259 
Q 3253 1453 3087 958 
Q 2922 463 2592 192 
Q 2263 -78 1759 -78 
Q 1097 -78 719 397 
Q 266 969 266 2259 
z
M 844 2259 
Q 844 1131 1108 757 
Q 1372 384 1759 384 
Q 2147 384 2411 759 
Q 2675 1134 2675 2259 
Q 2675 3391 2411 3762 
Q 2147 4134 1753 4134 
Q 1366 4134 1134 3806 
Q 844 3388 844 2259 
z
" id="ArialMT-30" transform="scale(0.015625)"/>
        <path d="M 269 1209 
L 831 1284 
Q 928 806 1161 595 
Q 1394 384 1728 384 
Q 2125 384 2398 659 
Q 2672 934 2672 1341 
Q 2672 1728 2419 1979 
Q 2166 2231 1775 2231 
Q 1616 2231 1378 2169 
L 1441 2663 
Q 1497 2656 1531 2656 
Q 1891 2656 2178 2843 
Q 2466 3031 2466 3422 
Q 2466 3731 2256 3934 
Q 2047 4138 1716 4138 
Q 1388 4138 1169 3931 
Q 950 3725 888 3313 
L 325 3413 
Q 428 3978 793 4289 
Q 1159 4600 1703 4600 
Q 2078 4600 2393 4439 
Q 2709 4278 2876 4000 
Q 3044 3722 3044 3409 
Q 3044 3113 2884 2869 
Q 2725 2625 2413 2481 
Q 2819 2388 3044 2092 
Q 3269 1797 3269 1353 
Q 3269 753 2831 336 
Q 2394 -81 1725 -81 
Q 1122 -81 723 278 
Q 325 638 269 1209 
z
" id="ArialMT-33" transform="scale(0.015625)"/>
       </defs>
       <use transform="translate(0 0.99375)" xlink:href="#ArialMT-31"/>
       <use transform="translate(55.615234 0.99375)" xlink:href="#ArialMT-30"/>
       <use transform="translate(112.972813 70.6875)scale(0.7)" xlink:href="#ArialMT-33"/>
      </g>
     </g>
    </g>
    <g id="xtick_2">
     <g id="line2d_2">
      <path clip-path="url(#pff5f157101)" d="M 277.454628 256.32 
L 277.454628 34.56 
" style="fill:none;stroke:#cccccc;stroke-linecap:round;stroke-width:0.8;"/>
     </g>
     <g id="text_2">
      <!-- $\mathdefault{10^{4}}$ -->
      <g style="fill:#262626;" transform="translate(269.604628 273.5325)scale(0.1 -0.1)">
       <defs>
        <path d="M 2069 0 
L 2069 1097 
L 81 1097 
L 81 1613 
L 2172 4581 
L 2631 4581 
L 2631 1613 
L 3250 1613 
L 3250 1097 
L 2631 1097 
L 2631 0 
L 2069 0 
z
M 2069 1613 
L 2069 3678 
L 634 1613 
L 2069 1613 
z
" id="ArialMT-34" transform="scale(0.015625)"/>
       </defs>
       <use transform="translate(0 0.201563)" xlink:href="#ArialMT-31"/>
       <use transform="translate(55.615234 0.201563)" xlink:href="#ArialMT-30"/>
       <use transform="translate(112.972813 69.895313)scale(0.7)" xlink:href="#ArialMT-34"/>
      </g>
     </g>
    </g>
    <g id="xtick_3">
     <g id="line2d_3">
      <path clip-path="url(#pff5f157101)" d="M 447.240836 256.32 
L 447.240836 34.56 
" style="fill:none;stroke:#cccccc;stroke-linecap:round;stroke-width:0.8;"/>
     </g>
     <g id="text_3">
      <!-- $\mathdefault{10^{5}}$ -->
      <g style="fill:#262626;" transform="translate(439.390836 273.5325)scale(0.1 -0.1)">
       <defs>
        <path d="M 266 1200 
L 856 1250 
Q 922 819 1161 601 
Q 1400 384 1738 384 
Q 2144 384 2425 690 
Q 2706 997 2706 1503 
Q 2706 1984 2436 2262 
Q 2166 2541 1728 2541 
Q 1456 2541 1237 2417 
Q 1019 2294 894 2097 
L 366 2166 
L 809 4519 
L 3088 4519 
L 3088 3981 
L 1259 3981 
L 1013 2750 
Q 1425 3038 1878 3038 
Q 2478 3038 2890 2622 
Q 3303 2206 3303 1553 
Q 3303 931 2941 478 
Q 2500 -78 1738 -78 
Q 1113 -78 717 272 
Q 322 622 266 1200 
z
" id="ArialMT-35" transform="scale(0.015625)"/>
       </defs>
       <use transform="translate(0 0.879688)" xlink:href="#ArialMT-31"/>
       <use transform="translate(55.615234 0.879688)" xlink:href="#ArialMT-30"/>
       <use transform="translate(112.972813 70.573438)scale(0.7)" xlink:href="#ArialMT-35"/>
      </g>
     </g>
    </g>
    <g id="xtick_4">
     <g id="line2d_4">
      <path clip-path="url(#pff5f157101)" d="M 617.027044 256.32 
L 617.027044 34.56 
" style="fill:none;stroke:#cccccc;stroke-linecap:round;stroke-width:0.8;"/>
     </g>
     <g id="text_4">
      <!-- $\mathdefault{10^{6}}$ -->
      <g style="fill:#262626;" transform="translate(609.177044 273.6325)scale(0.1 -0.1)">
       <defs>
        <path d="M 3184 3459 
L 2625 3416 
Q 2550 3747 2413 3897 
Q 2184 4138 1850 4138 
Q 1581 4138 1378 3988 
Q 1113 3794 959 3422 
Q 806 3050 800 2363 
Q 1003 2672 1297 2822 
Q 1591 2972 1913 2972 
Q 2475 2972 2870 2558 
Q 3266 2144 3266 1488 
Q 3266 1056 3080 686 
Q 2894 316 2569 119 
Q 2244 -78 1831 -78 
Q 1128 -78 684 439 
Q 241 956 241 2144 
Q 241 3472 731 4075 
Q 1159 4600 1884 4600 
Q 2425 4600 2770 4297 
Q 3116 3994 3184 3459 
z
M 888 1484 
Q 888 1194 1011 928 
Q 1134 663 1356 523 
Q 1578 384 1822 384 
Q 2178 384 2434 671 
Q 2691 959 2691 1453 
Q 2691 1928 2437 2201 
Q 2184 2475 1800 2475 
Q 1419 2475 1153 2201 
Q 888 1928 888 1484 
z
" id="ArialMT-36" transform="scale(0.015625)"/>
       </defs>
       <use transform="translate(0 0.99375)" xlink:href="#ArialMT-31"/>
       <use transform="translate(55.615234 0.99375)" xlink:href="#ArialMT-30"/>
       <use transform="translate(112.972813 70.6875)scale(0.7)" xlink:href="#ArialMT-36"/>
      </g>
     </g>
    </g>
    <g id="xtick_5"/>
    <g id="xtick_6"/>
    <g id="xtick_7"/>
    <g id="xtick_8"/>
    <g id="xtick_9"/>
    <g id="xtick_10"/>
    <g id="xtick_11"/>
    <g id="xtick_12"/>
    <g id="xtick_13"/>
    <g id="xtick_14"/>
    <g id="xtick_15"/>
    <g id="xtick_16"/>
    <g id="xtick_17"/>
    <g id="xtick_18"/>
    <g id="xtick_19"/>
    <g id="xtick_20"/>
    <g id="xtick_21"/>
    <g id="xtick_22"/>
    <g id="xtick_23"/>
    <g id="xtick_24"/>
    <g id="xtick_25"/>
    <g id="xtick_26"/>
    <g id="xtick_27"/>
    <g id="xtick_28"/>
    <g id="xtick_29"/>
    <g id="xtick_30"/>
    <g id="text_5">
     <!-- Number Triples -->
     <g style="fill:#262626;" transform="translate(335.102344 286.777812)scale(0.1 -0.1)">
      <defs>
       <path d="M 488 0 
L 488 4581 
L 1109 4581 
L 3516 984 
L 3516 4581 
L 4097 4581 
L 4097 0 
L 3475 0 
L 1069 3600 
L 1069 0 
L 488 0 
z
" id="ArialMT-4e" transform="scale(0.015625)"/>
       <path d="M 2597 0 
L 2597 488 
Q 2209 -75 1544 -75 
Q 1250 -75 995 37 
Q 741 150 617 320 
Q 494 491 444 738 
Q 409 903 409 1263 
L 409 3319 
L 972 3319 
L 972 1478 
Q 972 1038 1006 884 
Q 1059 663 1231 536 
Q 1403 409 1656 409 
Q 1909 409 2131 539 
Q 2353 669 2445 892 
Q 2538 1116 2538 1541 
L 2538 3319 
L 3100 3319 
L 3100 0 
L 2597 0 
z
" id="ArialMT-75" transform="scale(0.015625)"/>
       <path d="M 422 0 
L 422 3319 
L 925 3319 
L 925 2853 
Q 1081 3097 1340 3245 
Q 1600 3394 1931 3394 
Q 2300 3394 2536 3241 
Q 2772 3088 2869 2813 
Q 3263 3394 3894 3394 
Q 4388 3394 4653 3120 
Q 4919 2847 4919 2278 
L 4919 0 
L 4359 0 
L 4359 2091 
Q 4359 2428 4304 2576 
Q 4250 2725 4106 2815 
Q 3963 2906 3769 2906 
Q 3419 2906 3187 2673 
Q 2956 2441 2956 1928 
L 2956 0 
L 2394 0 
L 2394 2156 
Q 2394 2531 2256 2718 
Q 2119 2906 1806 2906 
Q 1569 2906 1367 2781 
Q 1166 2656 1075 2415 
Q 984 2175 984 1722 
L 984 0 
L 422 0 
z
" id="ArialMT-6d" transform="scale(0.015625)"/>
       <path d="M 941 0 
L 419 0 
L 419 4581 
L 981 4581 
L 981 2947 
Q 1338 3394 1891 3394 
Q 2197 3394 2470 3270 
Q 2744 3147 2920 2923 
Q 3097 2700 3197 2384 
Q 3297 2069 3297 1709 
Q 3297 856 2875 390 
Q 2453 -75 1863 -75 
Q 1275 -75 941 416 
L 941 0 
z
M 934 1684 
Q 934 1088 1097 822 
Q 1363 388 1816 388 
Q 2184 388 2453 708 
Q 2722 1028 2722 1663 
Q 2722 2313 2464 2622 
Q 2206 2931 1841 2931 
Q 1472 2931 1203 2611 
Q 934 2291 934 1684 
z
" id="ArialMT-62" transform="scale(0.015625)"/>
       <path d="M 2694 1069 
L 3275 997 
Q 3138 488 2766 206 
Q 2394 -75 1816 -75 
Q 1088 -75 661 373 
Q 234 822 234 1631 
Q 234 2469 665 2931 
Q 1097 3394 1784 3394 
Q 2450 3394 2872 2941 
Q 3294 2488 3294 1666 
Q 3294 1616 3291 1516 
L 816 1516 
Q 847 969 1125 678 
Q 1403 388 1819 388 
Q 2128 388 2347 550 
Q 2566 713 2694 1069 
z
M 847 1978 
L 2700 1978 
Q 2663 2397 2488 2606 
Q 2219 2931 1791 2931 
Q 1403 2931 1139 2672 
Q 875 2413 847 1978 
z
" id="ArialMT-65" transform="scale(0.015625)"/>
       <path d="M 416 0 
L 416 3319 
L 922 3319 
L 922 2816 
Q 1116 3169 1280 3281 
Q 1444 3394 1641 3394 
Q 1925 3394 2219 3213 
L 2025 2691 
Q 1819 2813 1613 2813 
Q 1428 2813 1281 2702 
Q 1134 2591 1072 2394 
Q 978 2094 978 1738 
L 978 0 
L 416 0 
z
" id="ArialMT-72" transform="scale(0.015625)"/>
       <path id="ArialMT-20" transform="scale(0.015625)"/>
       <path d="M 1659 0 
L 1659 4041 
L 150 4041 
L 150 4581 
L 3781 4581 
L 3781 4041 
L 2266 4041 
L 2266 0 
L 1659 0 
z
" id="ArialMT-54" transform="scale(0.015625)"/>
       <path d="M 425 3934 
L 425 4581 
L 988 4581 
L 988 3934 
L 425 3934 
z
M 425 0 
L 425 3319 
L 988 3319 
L 988 0 
L 425 0 
z
" id="ArialMT-69" transform="scale(0.015625)"/>
       <path d="M 422 -1272 
L 422 3319 
L 934 3319 
L 934 2888 
Q 1116 3141 1344 3267 
Q 1572 3394 1897 3394 
Q 2322 3394 2647 3175 
Q 2972 2956 3137 2557 
Q 3303 2159 3303 1684 
Q 3303 1175 3120 767 
Q 2938 359 2589 142 
Q 2241 -75 1856 -75 
Q 1575 -75 1351 44 
Q 1128 163 984 344 
L 984 -1272 
L 422 -1272 
z
M 931 1641 
Q 931 1000 1190 694 
Q 1450 388 1819 388 
Q 2194 388 2461 705 
Q 2728 1022 2728 1688 
Q 2728 2322 2467 2637 
Q 2206 2953 1844 2953 
Q 1484 2953 1207 2617 
Q 931 2281 931 1641 
z
" id="ArialMT-70" transform="scale(0.015625)"/>
       <path d="M 409 0 
L 409 4581 
L 972 4581 
L 972 0 
L 409 0 
z
" id="ArialMT-6c" transform="scale(0.015625)"/>
       <path d="M 197 991 
L 753 1078 
Q 800 744 1014 566 
Q 1228 388 1613 388 
Q 2000 388 2187 545 
Q 2375 703 2375 916 
Q 2375 1106 2209 1216 
Q 2094 1291 1634 1406 
Q 1016 1563 777 1677 
Q 538 1791 414 1992 
Q 291 2194 291 2438 
Q 291 2659 392 2848 
Q 494 3038 669 3163 
Q 800 3259 1026 3326 
Q 1253 3394 1513 3394 
Q 1903 3394 2198 3281 
Q 2494 3169 2634 2976 
Q 2775 2784 2828 2463 
L 2278 2388 
Q 2241 2644 2061 2787 
Q 1881 2931 1553 2931 
Q 1166 2931 1000 2803 
Q 834 2675 834 2503 
Q 834 2394 903 2306 
Q 972 2216 1119 2156 
Q 1203 2125 1616 2013 
Q 2213 1853 2448 1751 
Q 2684 1650 2818 1456 
Q 2953 1263 2953 975 
Q 2953 694 2789 445 
Q 2625 197 2315 61 
Q 2006 -75 1616 -75 
Q 969 -75 630 194 
Q 291 463 197 991 
z
" id="ArialMT-73" transform="scale(0.015625)"/>
      </defs>
      <use xlink:href="#ArialMT-4e"/>
      <use x="72.216797" xlink:href="#ArialMT-75"/>
      <use x="127.832031" xlink:href="#ArialMT-6d"/>
      <use x="211.132812" xlink:href="#ArialMT-62"/>
      <use x="266.748047" xlink:href="#ArialMT-65"/>
      <use x="322.363281" xlink:href="#ArialMT-72"/>
      <use x="355.664062" xlink:href="#ArialMT-20"/>
      <use x="381.697266" xlink:href="#ArialMT-54"/>
      <use x="439.03125" xlink:href="#ArialMT-72"/>
      <use x="472.332031" xlink:href="#ArialMT-69"/>
      <use x="494.548828" xlink:href="#ArialMT-70"/>
      <use x="550.164062" xlink:href="#ArialMT-6c"/>
      <use x="572.380859" xlink:href="#ArialMT-65"/>
      <use x="627.996094" xlink:href="#ArialMT-73"/>
     </g>
    </g>
   </g>
   <g id="matplotlib.axis_2">
    <g id="ytick_1">
     <g id="line2d_5">
      <path clip-path="url(#pff5f157101)" d="M 90 234.550668 
L 648 234.550668 
" style="fill:none;stroke:#cccccc;stroke-linecap:round;stroke-width:0.8;"/>
     </g>
     <g id="text_6">
      <!-- $\mathdefault{10^{-4}}$ -->
      <g style="fill:#262626;" transform="translate(63.2 239.656918)scale(0.1 -0.1)">
       <defs>
        <path d="M 3381 1997 
L 356 1997 
L 356 2522 
L 3381 2522 
L 3381 1997 
z
" id="ArialMT-2212" transform="scale(0.015625)"/>
       </defs>
       <use transform="translate(0 0.201563)" xlink:href="#ArialMT-31"/>
       <use transform="translate(55.615234 0.201563)" xlink:href="#ArialMT-30"/>
       <use transform="translate(112.972813 69.895313)scale(0.7)" xlink:href="#ArialMT-2212"/>
       <use transform="translate(153.851719 69.895313)scale(0.7)" xlink:href="#ArialMT-34"/>
      </g>
     </g>
    </g>
    <g id="ytick_2">
     <g id="line2d_6">
      <path clip-path="url(#pff5f157101)" d="M 90 184.136636 
L 648 184.136636 
" style="fill:none;stroke:#cccccc;stroke-linecap:round;stroke-width:0.8;"/>
     </g>
     <g id="text_7">
      <!-- $\mathdefault{10^{-3}}$ -->
      <g style="fill:#262626;" transform="translate(63.2 189.292886)scale(0.1 -0.1)">
       <use transform="translate(0 0.99375)" xlink:href="#ArialMT-31"/>
       <use transform="translate(55.615234 0.99375)" xlink:href="#ArialMT-30"/>
       <use transform="translate(112.972813 70.6875)scale(0.7)" xlink:href="#ArialMT-2212"/>
       <use transform="translate(153.851719 70.6875)scale(0.7)" xlink:href="#ArialMT-33"/>
      </g>
     </g>
    </g>
    <g id="ytick_3">
     <g id="line2d_7">
      <path clip-path="url(#pff5f157101)" d="M 90 133.722603 
L 648 133.722603 
" style="fill:none;stroke:#cccccc;stroke-linecap:round;stroke-width:0.8;"/>
     </g>
     <g id="text_8">
      <!-- $\mathdefault{10^{-2}}$ -->
      <g style="fill:#262626;" transform="translate(63.2 138.878853)scale(0.1 -0.1)">
       <defs>
        <path d="M 3222 541 
L 3222 0 
L 194 0 
Q 188 203 259 391 
Q 375 700 629 1000 
Q 884 1300 1366 1694 
Q 2113 2306 2375 2664 
Q 2638 3022 2638 3341 
Q 2638 3675 2398 3904 
Q 2159 4134 1775 4134 
Q 1369 4134 1125 3890 
Q 881 3647 878 3216 
L 300 3275 
Q 359 3922 746 4261 
Q 1134 4600 1788 4600 
Q 2447 4600 2831 4234 
Q 3216 3869 3216 3328 
Q 3216 3053 3103 2787 
Q 2991 2522 2730 2228 
Q 2469 1934 1863 1422 
Q 1356 997 1212 845 
Q 1069 694 975 541 
L 3222 541 
z
" id="ArialMT-32" transform="scale(0.015625)"/>
       </defs>
       <use transform="translate(0 0.99375)" xlink:href="#ArialMT-31"/>
       <use transform="translate(55.615234 0.99375)" xlink:href="#ArialMT-30"/>
       <use transform="translate(112.972813 70.6875)scale(0.7)" xlink:href="#ArialMT-2212"/>
       <use transform="translate(153.851719 70.6875)scale(0.7)" xlink:href="#ArialMT-32"/>
      </g>
     </g>
    </g>
    <g id="ytick_4">
     <g id="line2d_8">
      <path clip-path="url(#pff5f157101)" d="M 90 83.308571 
L 648 83.308571 
" style="fill:none;stroke:#cccccc;stroke-linecap:round;stroke-width:0.8;"/>
     </g>
     <g id="text_9">
      <!-- $\mathdefault{10^{-1}}$ -->
      <g style="fill:#262626;" transform="translate(63.2 88.464821)scale(0.1 -0.1)">
       <use transform="translate(0 0.99375)" xlink:href="#ArialMT-31"/>
       <use transform="translate(55.615234 0.99375)" xlink:href="#ArialMT-30"/>
       <use transform="translate(112.972813 70.6875)scale(0.7)" xlink:href="#ArialMT-2212"/>
       <use transform="translate(153.851719 70.6875)scale(0.7)" xlink:href="#ArialMT-31"/>
      </g>
     </g>
    </g>
    <g id="ytick_5"/>
    <g id="ytick_6"/>
    <g id="ytick_7"/>
    <g id="ytick_8"/>
    <g id="ytick_9"/>
    <g id="ytick_10"/>
    <g id="ytick_11"/>
    <g id="ytick_12"/>
    <g id="ytick_13"/>
    <g id="ytick_14"/>
    <g id="ytick_15"/>
    <g id="ytick_16"/>
    <g id="ytick_17"/>
    <g id="ytick_18"/>
    <g id="ytick_19"/>
    <g id="ytick_20"/>
    <g id="ytick_21"/>
    <g id="ytick_22"/>
    <g id="ytick_23"/>
    <g id="ytick_24"/>
    <g id="ytick_25"/>
    <g id="ytick_26"/>
    <g id="ytick_27"/>
    <g id="ytick_28"/>
    <g id="ytick_29"/>
    <g id="ytick_30"/>
    <g id="ytick_31"/>
    <g id="ytick_32"/>
    <g id="ytick_33"/>
    <g id="ytick_34"/>
    <g id="ytick_35"/>
    <g id="ytick_36"/>
    <g id="ytick_37"/>
    <g id="ytick_38"/>
    <g id="ytick_39"/>
    <g id="ytick_40"/>
    <g id="ytick_41"/>
    <g id="ytick_42"/>
    <g id="text_10">
     <!-- Index Time (s) -->
     <g style="fill:#262626;" transform="translate(57.095312 177.113438)rotate(-90)scale(0.1 -0.1)">
      <defs>
       <path d="M 597 0 
L 597 4581 
L 1203 4581 
L 1203 0 
L 597 0 
z
" id="ArialMT-49" transform="scale(0.015625)"/>
       <path d="M 422 0 
L 422 3319 
L 928 3319 
L 928 2847 
Q 1294 3394 1984 3394 
Q 2284 3394 2536 3286 
Q 2788 3178 2913 3003 
Q 3038 2828 3088 2588 
Q 3119 2431 3119 2041 
L 3119 0 
L 2556 0 
L 2556 2019 
Q 2556 2363 2490 2533 
Q 2425 2703 2258 2804 
Q 2091 2906 1866 2906 
Q 1506 2906 1245 2678 
Q 984 2450 984 1813 
L 984 0 
L 422 0 
z
" id="ArialMT-6e" transform="scale(0.015625)"/>
       <path d="M 2575 0 
L 2575 419 
Q 2259 -75 1647 -75 
Q 1250 -75 917 144 
Q 584 363 401 755 
Q 219 1147 219 1656 
Q 219 2153 384 2558 
Q 550 2963 881 3178 
Q 1213 3394 1622 3394 
Q 1922 3394 2156 3267 
Q 2391 3141 2538 2938 
L 2538 4581 
L 3097 4581 
L 3097 0 
L 2575 0 
z
M 797 1656 
Q 797 1019 1065 703 
Q 1334 388 1700 388 
Q 2069 388 2326 689 
Q 2584 991 2584 1609 
Q 2584 2291 2321 2609 
Q 2059 2928 1675 2928 
Q 1300 2928 1048 2622 
Q 797 2316 797 1656 
z
" id="ArialMT-64" transform="scale(0.015625)"/>
       <path d="M 47 0 
L 1259 1725 
L 138 3319 
L 841 3319 
L 1350 2541 
Q 1494 2319 1581 2169 
Q 1719 2375 1834 2534 
L 2394 3319 
L 3066 3319 
L 1919 1756 
L 3153 0 
L 2463 0 
L 1781 1031 
L 1600 1309 
L 728 0 
L 47 0 
z
" id="ArialMT-78" transform="scale(0.015625)"/>
       <path d="M 1497 -1347 
Q 1031 -759 709 28 
Q 388 816 388 1659 
Q 388 2403 628 3084 
Q 909 3875 1497 4659 
L 1900 4659 
Q 1522 4009 1400 3731 
Q 1209 3300 1100 2831 
Q 966 2247 966 1656 
Q 966 153 1900 -1347 
L 1497 -1347 
z
" id="ArialMT-28" transform="scale(0.015625)"/>
       <path d="M 791 -1347 
L 388 -1347 
Q 1322 153 1322 1656 
Q 1322 2244 1188 2822 
Q 1081 3291 891 3722 
Q 769 4003 388 4659 
L 791 4659 
Q 1378 3875 1659 3084 
Q 1900 2403 1900 1659 
Q 1900 816 1576 28 
Q 1253 -759 791 -1347 
z
" id="ArialMT-29" transform="scale(0.015625)"/>
      </defs>
      <use xlink:href="#ArialMT-49"/>
      <use x="27.783203" xlink:href="#ArialMT-6e"/>
      <use x="83.398438" xlink:href="#ArialMT-64"/>
      <use x="139.013672" xlink:href="#ArialMT-65"/>
      <use x="194.628906" xlink:href="#ArialMT-78"/>
      <use x="244.628906" xlink:href="#ArialMT-20"/>
      <use x="270.662109" xlink:href="#ArialMT-54"/>
      <use x="327.996094" xlink:href="#ArialMT-69"/>
      <use x="350.212891" xlink:href="#ArialMT-6d"/>
      <use x="433.513672" xlink:href="#ArialMT-65"/>
      <use x="489.128906" xlink:href="#ArialMT-20"/>
      <use x="516.912109" xlink:href="#ArialMT-28"/>
      <use x="550.212891" xlink:href="#ArialMT-73"/>
      <use x="600.212891" xlink:href="#ArialMT-29"/>
     </g>
    </g>
   </g>
   <g id="PathCollection_1">
    <path clip-path="url(#pff5f157101)" d="M 491.774654 117.282879 
L 492.835315 116.222219 
L 493.895975 117.282879 
L 494.956635 116.222219 
L 493.895975 115.161559 
L 494.956635 114.100899 
L 493.895975 113.040239 
L 492.835315 114.100899 
L 491.774654 113.040239 
L 490.713994 114.100899 
L 491.774654 115.161559 
L 490.713994 116.222219 
z
" style="fill:#ff7f0e;fill-opacity:0.8;stroke:#ffffff;stroke-opacity:0.8;stroke-width:0.339411;"/>
    <path clip-path="url(#pff5f157101)" d="M 491.774654 128.074454 
L 492.835315 127.013794 
L 493.895975 128.074454 
L 494.956635 127.013794 
L 493.895975 125.953134 
L 494.956635 124.892474 
L 493.895975 123.831813 
L 492.835315 124.892474 
L 491.774654 123.831813 
L 490.713994 124.892474 
L 491.774654 125.953134 
L 490.713994 127.013794 
z
" style="fill:#ff7f0e;fill-opacity:0.8;stroke:#ffffff;stroke-opacity:0.8;stroke-width:0.339411;"/>
    <path clip-path="url(#pff5f157101)" d="M 491.774654 132.748438 
L 492.835315 131.687777 
L 493.895975 132.748438 
L 494.956635 131.687777 
L 493.895975 130.627117 
L 494.956635 129.566457 
L 493.895975 128.505797 
L 492.835315 129.566457 
L 491.774654 128.505797 
L 490.713994 129.566457 
L 491.774654 130.627117 
L 490.713994 131.687777 
z
" style="fill:#ff7f0e;fill-opacity:0.8;stroke:#ffffff;stroke-opacity:0.8;stroke-width:0.339411;"/>
    <path clip-path="url(#pff5f157101)" d="M 491.774654 139.58509 
L 492.835315 138.52443 
L 493.895975 139.58509 
L 494.956635 138.52443 
L 493.895975 137.46377 
L 494.956635 136.403109 
L 493.895975 135.342449 
L 492.835315 136.403109 
L 491.774654 135.342449 
L 490.713994 136.403109 
L 491.774654 137.46377 
L 490.713994 138.52443 
z
" style="fill:#ff7f0e;fill-opacity:0.8;stroke:#ffffff;stroke-opacity:0.8;stroke-width:0.339411;"/>
    <path clip-path="url(#pff5f157101)" d="M 491.774654 147.963228 
L 492.835315 146.902568 
L 493.895975 147.963228 
L 494.956635 146.902568 
L 493.895975 145.841908 
L 494.956635 144.781247 
L 493.895975 143.720587 
L 492.835315 144.781247 
L 491.774654 143.720587 
L 490.713994 144.781247 
L 491.774654 145.841908 
L 490.713994 146.902568 
z
" style="fill:#ff7f0e;fill-opacity:0.8;stroke:#ffffff;stroke-opacity:0.8;stroke-width:0.339411;"/>
    <path clip-path="url(#pff5f157101)" d="M 491.774654 148.650145 
L 492.835315 147.589485 
L 493.895975 148.650145 
L 494.956635 147.589485 
L 493.895975 146.528825 
L 494.956635 145.468165 
L 493.895975 144.407504 
L 492.835315 145.468165 
L 491.774654 144.407504 
L 490.713994 145.468165 
L 491.774654 146.528825 
L 490.713994 147.589485 
z
" style="fill:#ff7f0e;fill-opacity:0.8;stroke:#ffffff;stroke-opacity:0.8;stroke-width:0.339411;"/>
    <path clip-path="url(#pff5f157101)" d="M 491.774654 163.287086 
L 492.835315 162.226426 
L 493.895975 163.287086 
L 494.956635 162.226426 
L 493.895975 161.165766 
L 494.956635 160.105106 
L 493.895975 159.044446 
L 492.835315 160.105106 
L 491.774654 159.044446 
L 490.713994 160.105106 
L 491.774654 161.165766 
L 490.713994 162.226426 
z
" style="fill:#ff7f0e;fill-opacity:0.8;stroke:#ffffff;stroke-opacity:0.8;stroke-width:0.339411;"/>
    <path clip-path="url(#pff5f157101)" d="M 491.774654 109.494775 
L 492.835315 108.434115 
L 493.895975 109.494775 
L 494.956635 108.434115 
L 493.895975 107.373455 
L 494.956635 106.312795 
L 493.895975 105.252134 
L 492.835315 106.312795 
L 491.774654 105.252134 
L 490.713994 106.312795 
L 491.774654 107.373455 
L 490.713994 108.434115 
z
" style="fill:#ff7f0e;fill-opacity:0.8;stroke:#ffffff;stroke-opacity:0.8;stroke-width:0.339411;"/>
    <path clip-path="url(#pff5f157101)" d="M 519.995151 115.158697 
L 521.055812 114.098037 
L 522.116472 115.158697 
L 523.177132 114.098037 
L 522.116472 113.037377 
L 523.177132 111.976716 
L 522.116472 110.916056 
L 521.055812 111.976716 
L 519.995151 110.916056 
L 518.934491 111.976716 
L 519.995151 113.037377 
L 518.934491 114.098037 
z
" style="fill:#ff7f0e;fill-opacity:0.8;stroke:#ffffff;stroke-opacity:0.8;stroke-width:0.339411;"/>
    <path clip-path="url(#pff5f157101)" d="M 519.995151 121.993413 
L 521.055812 120.932752 
L 522.116472 121.993413 
L 523.177132 120.932752 
L 522.116472 119.872092 
L 523.177132 118.811432 
L 522.116472 117.750772 
L 521.055812 118.811432 
L 519.995151 117.750772 
L 518.934491 118.811432 
L 519.995151 119.872092 
L 518.934491 120.932752 
z
" style="fill:#ff7f0e;fill-opacity:0.8;stroke:#ffffff;stroke-opacity:0.8;stroke-width:0.339411;"/>
    <path clip-path="url(#pff5f157101)" d="M 519.995151 136.084995 
L 521.055812 135.024334 
L 522.116472 136.084995 
L 523.177132 135.024334 
L 522.116472 133.963674 
L 523.177132 132.903014 
L 522.116472 131.842354 
L 521.055812 132.903014 
L 519.995151 131.842354 
L 518.934491 132.903014 
L 519.995151 133.963674 
L 518.934491 135.024334 
z
" style="fill:#ff7f0e;fill-opacity:0.8;stroke:#ffffff;stroke-opacity:0.8;stroke-width:0.339411;"/>
    <path clip-path="url(#pff5f157101)" d="M 471.74631 100.493152 
L 472.80697 99.432491 
L 473.86763 100.493152 
L 474.92829 99.432491 
L 473.86763 98.371831 
L 474.92829 97.311171 
L 473.86763 96.250511 
L 472.80697 97.311171 
L 471.74631 96.250511 
L 470.685649 97.311171 
L 471.74631 98.371831 
L 470.685649 99.432491 
z
" style="fill:#ff7f0e;fill-opacity:0.8;stroke:#ffffff;stroke-opacity:0.8;stroke-width:0.339411;"/>
    <path clip-path="url(#pff5f157101)" d="M 519.995151 150.794232 
L 521.055812 149.733572 
L 522.116472 150.794232 
L 523.177132 149.733572 
L 522.116472 148.672912 
L 523.177132 147.612252 
L 522.116472 146.551592 
L 521.055812 147.612252 
L 519.995151 146.551592 
L 518.934491 147.612252 
L 519.995151 148.672912 
L 518.934491 149.733572 
z
" style="fill:#ff7f0e;fill-opacity:0.8;stroke:#ffffff;stroke-opacity:0.8;stroke-width:0.339411;"/>
    <path clip-path="url(#pff5f157101)" d="M 491.774654 99.578417 
L 492.835315 98.517757 
L 493.895975 99.578417 
L 494.956635 98.517757 
L 493.895975 97.457097 
L 494.956635 96.396437 
L 493.895975 95.335777 
L 492.835315 96.396437 
L 491.774654 95.335777 
L 490.713994 96.396437 
L 491.774654 97.457097 
L 490.713994 98.517757 
z
" style="fill:#ff7f0e;fill-opacity:0.8;stroke:#ffffff;stroke-opacity:0.8;stroke-width:0.339411;"/>
    <path clip-path="url(#pff5f157101)" d="M 491.774654 103.077798 
L 492.835315 102.017138 
L 493.895975 103.077798 
L 494.956635 102.017138 
L 493.895975 100.956478 
L 494.956635 99.895818 
L 493.895975 98.835158 
L 492.835315 99.895818 
L 491.774654 98.835158 
L 490.713994 99.895818 
L 491.774654 100.956478 
L 490.713994 102.017138 
z
" style="fill:#ff7f0e;fill-opacity:0.8;stroke:#ffffff;stroke-opacity:0.8;stroke-width:0.339411;"/>
    <path clip-path="url(#pff5f157101)" d="M 519.995151 131.142919 
L 521.055812 130.082258 
L 522.116472 131.142919 
L 523.177132 130.082258 
L 522.116472 129.021598 
L 523.177132 127.960938 
L 522.116472 126.900278 
L 521.055812 127.960938 
L 519.995151 126.900278 
L 518.934491 127.960938 
L 519.995151 129.021598 
L 518.934491 130.082258 
z
" style="fill:#ff7f0e;fill-opacity:0.8;stroke:#ffffff;stroke-opacity:0.8;stroke-width:0.339411;"/>
    <path clip-path="url(#pff5f157101)" d="M 471.74631 102.42342 
L 472.80697 101.36276 
L 473.86763 102.42342 
L 474.92829 101.36276 
L 473.86763 100.3021 
L 474.92829 99.241439 
L 473.86763 98.180779 
L 472.80697 99.241439 
L 471.74631 98.180779 
L 470.685649 99.241439 
L 471.74631 100.3021 
L 470.685649 101.36276 
z
" style="fill:#ff7f0e;fill-opacity:0.8;stroke:#ffffff;stroke-opacity:0.8;stroke-width:0.339411;"/>
    <path clip-path="url(#pff5f157101)" d="M 435.7714 115.277325 
L 436.83206 114.216665 
L 437.89272 115.277325 
L 438.95338 114.216665 
L 437.89272 113.156004 
L 438.95338 112.095344 
L 437.89272 111.034684 
L 436.83206 112.095344 
L 435.7714 111.034684 
L 434.71074 112.095344 
L 435.7714 113.156004 
L 434.71074 114.216665 
z
" style="fill:#ff7f0e;fill-opacity:0.8;stroke:#ffffff;stroke-opacity:0.8;stroke-width:0.339411;"/>
    <path clip-path="url(#pff5f157101)" d="M 435.7714 119.487165 
L 436.83206 118.426505 
L 437.89272 119.487165 
L 438.95338 118.426505 
L 437.89272 117.365845 
L 438.95338 116.305185 
L 437.89272 115.244525 
L 436.83206 116.305185 
L 435.7714 115.244525 
L 434.71074 116.305185 
L 435.7714 117.365845 
L 434.71074 118.426505 
z
" style="fill:#ff7f0e;fill-opacity:0.8;stroke:#ffffff;stroke-opacity:0.8;stroke-width:0.339411;"/>
    <path clip-path="url(#pff5f157101)" d="M 435.7714 119.520662 
L 436.83206 118.460002 
L 437.89272 119.520662 
L 438.95338 118.460002 
L 437.89272 117.399342 
L 438.95338 116.338682 
L 437.89272 115.278021 
L 436.83206 116.338682 
L 435.7714 115.278021 
L 434.71074 116.338682 
L 435.7714 117.399342 
L 434.71074 118.460002 
z
" style="fill:#ff7f0e;fill-opacity:0.8;stroke:#ffffff;stroke-opacity:0.8;stroke-width:0.339411;"/>
    <path clip-path="url(#pff5f157101)" d="M 435.7714 133.653631 
L 436.83206 132.59297 
L 437.89272 133.653631 
L 438.95338 132.59297 
L 437.89272 131.53231 
L 438.95338 130.47165 
L 437.89272 129.41099 
L 436.83206 130.47165 
L 435.7714 129.41099 
L 434.71074 130.47165 
L 435.7714 131.53231 
L 434.71074 132.59297 
z
" style="fill:#ff7f0e;fill-opacity:0.8;stroke:#ffffff;stroke-opacity:0.8;stroke-width:0.339411;"/>
    <path clip-path="url(#pff5f157101)" d="M 435.7714 142.570345 
L 436.83206 141.509684 
L 437.89272 142.570345 
L 438.95338 141.509684 
L 437.89272 140.449024 
L 438.95338 139.388364 
L 437.89272 138.327704 
L 436.83206 139.388364 
L 435.7714 138.327704 
L 434.71074 139.388364 
L 435.7714 140.449024 
L 434.71074 141.509684 
z
" style="fill:#ff7f0e;fill-opacity:0.8;stroke:#ffffff;stroke-opacity:0.8;stroke-width:0.339411;"/>
    <path clip-path="url(#pff5f157101)" d="M 435.7714 149.887891 
L 436.83206 148.827231 
L 437.89272 149.887891 
L 438.95338 148.827231 
L 437.89272 147.766571 
L 438.95338 146.705911 
L 437.89272 145.645251 
L 436.83206 146.705911 
L 435.7714 145.645251 
L 434.71074 146.705911 
L 435.7714 147.766571 
L 434.71074 148.827231 
z
" style="fill:#ff7f0e;fill-opacity:0.8;stroke:#ffffff;stroke-opacity:0.8;stroke-width:0.339411;"/>
    <path clip-path="url(#pff5f157101)" d="M 435.7714 156.767955 
L 436.83206 155.707295 
L 437.89272 156.767955 
L 438.95338 155.707295 
L 437.89272 154.646635 
L 438.95338 153.585975 
L 437.89272 152.525315 
L 436.83206 153.585975 
L 435.7714 152.525315 
L 434.71074 153.585975 
L 435.7714 154.646635 
L 434.71074 155.707295 
z
" style="fill:#ff7f0e;fill-opacity:0.8;stroke:#ffffff;stroke-opacity:0.8;stroke-width:0.339411;"/>
    <path clip-path="url(#pff5f157101)" d="M 435.7714 162.029192 
L 436.83206 160.968532 
L 437.89272 162.029192 
L 438.95338 160.968532 
L 437.89272 159.907871 
L 438.95338 158.847211 
L 437.89272 157.786551 
L 436.83206 158.847211 
L 435.7714 157.786551 
L 434.71074 158.847211 
L 435.7714 159.907871 
L 434.71074 160.968532 
z
" style="fill:#ff7f0e;fill-opacity:0.8;stroke:#ffffff;stroke-opacity:0.8;stroke-width:0.339411;"/>
    <path clip-path="url(#pff5f157101)" d="M 519.995151 110.672547 
L 521.055812 109.611887 
L 522.116472 110.672547 
L 523.177132 109.611887 
L 522.116472 108.551227 
L 523.177132 107.490567 
L 522.116472 106.429907 
L 521.055812 107.490567 
L 519.995151 106.429907 
L 518.934491 107.490567 
L 519.995151 108.551227 
L 518.934491 109.611887 
z
" style="fill:#ff7f0e;fill-opacity:0.8;stroke:#ffffff;stroke-opacity:0.8;stroke-width:0.339411;"/>
    <path clip-path="url(#pff5f157101)" d="M 471.74631 115.900457 
L 472.80697 114.839796 
L 473.86763 115.900457 
L 474.92829 114.839796 
L 473.86763 113.779136 
L 474.92829 112.718476 
L 473.86763 111.657816 
L 472.80697 112.718476 
L 471.74631 111.657816 
L 470.685649 112.718476 
L 471.74631 113.779136 
L 470.685649 114.839796 
z
" style="fill:#ff7f0e;fill-opacity:0.8;stroke:#ffffff;stroke-opacity:0.8;stroke-width:0.339411;"/>
    <path clip-path="url(#pff5f157101)" d="M 471.74631 121.901536 
L 472.80697 120.840876 
L 473.86763 121.901536 
L 474.92829 120.840876 
L 473.86763 119.780216 
L 474.92829 118.719556 
L 473.86763 117.658896 
L 472.80697 118.719556 
L 471.74631 117.658896 
L 470.685649 118.719556 
L 471.74631 119.780216 
L 470.685649 120.840876 
z
" style="fill:#ff7f0e;fill-opacity:0.8;stroke:#ffffff;stroke-opacity:0.8;stroke-width:0.339411;"/>
    <path clip-path="url(#pff5f157101)" d="M 471.74631 133.463692 
L 472.80697 132.403032 
L 473.86763 133.463692 
L 474.92829 132.403032 
L 473.86763 131.342372 
L 474.92829 130.281712 
L 473.86763 129.221051 
L 472.80697 130.281712 
L 471.74631 129.221051 
L 470.685649 130.281712 
L 471.74631 131.342372 
L 470.685649 132.403032 
z
" style="fill:#ff7f0e;fill-opacity:0.8;stroke:#ffffff;stroke-opacity:0.8;stroke-width:0.339411;"/>
    <path clip-path="url(#pff5f157101)" d="M 471.74631 168.369932 
L 472.80697 167.309272 
L 473.86763 168.369932 
L 474.92829 167.309272 
L 473.86763 166.248612 
L 474.92829 165.187952 
L 473.86763 164.127291 
L 472.80697 165.187952 
L 471.74631 164.127291 
L 470.685649 165.187952 
L 471.74631 166.248612 
L 470.685649 167.309272 
z
" style="fill:#ff7f0e;fill-opacity:0.8;stroke:#ffffff;stroke-opacity:0.8;stroke-width:0.339411;"/>
    <path clip-path="url(#pff5f157101)" d="M 471.74631 144.603998 
L 472.80697 143.543338 
L 473.86763 144.603998 
L 474.92829 143.543338 
L 473.86763 142.482678 
L 474.92829 141.422018 
L 473.86763 140.361358 
L 472.80697 141.422018 
L 471.74631 140.361358 
L 470.685649 141.422018 
L 471.74631 142.482678 
L 470.685649 143.543338 
z
" style="fill:#ff7f0e;fill-opacity:0.8;stroke:#ffffff;stroke-opacity:0.8;stroke-width:0.339411;"/>
    <path clip-path="url(#pff5f157101)" d="M 471.74631 152.885646 
L 472.80697 151.824986 
L 473.86763 152.885646 
L 474.92829 151.824986 
L 473.86763 150.764326 
L 474.92829 149.703665 
L 473.86763 148.643005 
L 472.80697 149.703665 
L 471.74631 148.643005 
L 470.685649 149.703665 
L 471.74631 150.764326 
L 470.685649 151.824986 
z
" style="fill:#ff7f0e;fill-opacity:0.8;stroke:#ffffff;stroke-opacity:0.8;stroke-width:0.339411;"/>
    <path clip-path="url(#pff5f157101)" d="M 471.74631 152.708007 
L 472.80697 151.647347 
L 473.86763 152.708007 
L 474.92829 151.647347 
L 473.86763 150.586687 
L 474.92829 149.526027 
L 473.86763 148.465366 
L 472.80697 149.526027 
L 471.74631 148.465366 
L 470.685649 149.526027 
L 471.74631 150.586687 
L 470.685649 151.647347 
z
" style="fill:#ff7f0e;fill-opacity:0.8;stroke:#ffffff;stroke-opacity:0.8;stroke-width:0.339411;"/>
    <path clip-path="url(#pff5f157101)" d="M 471.74631 136.560431 
L 472.80697 135.499771 
L 473.86763 136.560431 
L 474.92829 135.499771 
L 473.86763 134.43911 
L 474.92829 133.37845 
L 473.86763 132.31779 
L 472.80697 133.37845 
L 471.74631 132.31779 
L 470.685649 133.37845 
L 471.74631 134.43911 
L 470.685649 135.499771 
z
" style="fill:#ff7f0e;fill-opacity:0.8;stroke:#ffffff;stroke-opacity:0.8;stroke-width:0.339411;"/>
    <path clip-path="url(#pff5f157101)" d="M 519.995151 99.428574 
L 521.055812 98.367913 
L 522.116472 99.428574 
L 523.177132 98.367913 
L 522.116472 97.307253 
L 523.177132 96.246593 
L 522.116472 95.185933 
L 521.055812 96.246593 
L 519.995151 95.185933 
L 518.934491 96.246593 
L 519.995151 97.307253 
L 518.934491 98.367913 
z
" style="fill:#ff7f0e;fill-opacity:0.8;stroke:#ffffff;stroke-opacity:0.8;stroke-width:0.339411;"/>
    <path clip-path="url(#pff5f157101)" d="M 621.575703 117.47079 
L 622.636364 116.41013 
L 623.697024 117.47079 
L 624.757684 116.41013 
L 623.697024 115.34947 
L 624.757684 114.288809 
L 623.697024 113.228149 
L 622.636364 114.288809 
L 621.575703 113.228149 
L 620.515043 114.288809 
L 621.575703 115.34947 
L 620.515043 116.41013 
z
" style="fill:#ff7f0e;fill-opacity:0.8;stroke:#ffffff;stroke-opacity:0.8;stroke-width:0.339411;"/>
    <path clip-path="url(#pff5f157101)" d="M 572.043319 68.556294 
L 573.103979 67.495634 
L 574.164639 68.556294 
L 575.2253 67.495634 
L 574.164639 66.434974 
L 575.2253 65.374314 
L 574.164639 64.313654 
L 573.103979 65.374314 
L 572.043319 64.313654 
L 570.982659 65.374314 
L 572.043319 66.434974 
L 570.982659 67.495634 
z
" style="fill:#ff7f0e;fill-opacity:0.8;stroke:#ffffff;stroke-opacity:0.8;stroke-width:0.339411;"/>
    <path clip-path="url(#pff5f157101)" d="M 572.043319 72.478384 
L 573.103979 71.417723 
L 574.164639 72.478384 
L 575.2253 71.417723 
L 574.164639 70.357063 
L 575.2253 69.296403 
L 574.164639 68.235743 
L 573.103979 69.296403 
L 572.043319 68.235743 
L 570.982659 69.296403 
L 572.043319 70.357063 
L 570.982659 71.417723 
z
" style="fill:#ff7f0e;fill-opacity:0.8;stroke:#ffffff;stroke-opacity:0.8;stroke-width:0.339411;"/>
    <path clip-path="url(#pff5f157101)" d="M 572.043319 74.786978 
L 573.103979 73.726318 
L 574.164639 74.786978 
L 575.2253 73.726318 
L 574.164639 72.665658 
L 575.2253 71.604998 
L 574.164639 70.544337 
L 573.103979 71.604998 
L 572.043319 70.544337 
L 570.982659 71.604998 
L 572.043319 72.665658 
L 570.982659 73.726318 
z
" style="fill:#ff7f0e;fill-opacity:0.8;stroke:#ffffff;stroke-opacity:0.8;stroke-width:0.339411;"/>
    <path clip-path="url(#pff5f157101)" d="M 572.043319 86.34946 
L 573.103979 85.2888 
L 574.164639 86.34946 
L 575.2253 85.2888 
L 574.164639 84.22814 
L 575.2253 83.16748 
L 574.164639 82.10682 
L 573.103979 83.16748 
L 572.043319 82.10682 
L 570.982659 83.16748 
L 572.043319 84.22814 
L 570.982659 85.2888 
z
" style="fill:#ff7f0e;fill-opacity:0.8;stroke:#ffffff;stroke-opacity:0.8;stroke-width:0.339411;"/>
    <path clip-path="url(#pff5f157101)" d="M 572.043319 97.234861 
L 573.103979 96.174201 
L 574.164639 97.234861 
L 575.2253 96.174201 
L 574.164639 95.113541 
L 575.2253 94.052881 
L 574.164639 92.992221 
L 573.103979 94.052881 
L 572.043319 92.992221 
L 570.982659 94.052881 
L 572.043319 95.113541 
L 570.982659 96.174201 
z
" style="fill:#ff7f0e;fill-opacity:0.8;stroke:#ffffff;stroke-opacity:0.8;stroke-width:0.339411;"/>
    <path clip-path="url(#pff5f157101)" d="M 572.043319 101.261721 
L 573.103979 100.201061 
L 574.164639 101.261721 
L 575.2253 100.201061 
L 574.164639 99.140401 
L 575.2253 98.079741 
L 574.164639 97.01908 
L 573.103979 98.079741 
L 572.043319 97.01908 
L 570.982659 98.079741 
L 572.043319 99.140401 
L 570.982659 100.201061 
z
" style="fill:#ff7f0e;fill-opacity:0.8;stroke:#ffffff;stroke-opacity:0.8;stroke-width:0.339411;"/>
    <path clip-path="url(#pff5f157101)" d="M 621.575703 99.633866 
L 622.636364 98.573206 
L 623.697024 99.633866 
L 624.757684 98.573206 
L 623.697024 97.512546 
L 624.757684 96.451886 
L 623.697024 95.391225 
L 622.636364 96.451886 
L 621.575703 95.391225 
L 620.515043 96.451886 
L 621.575703 97.512546 
L 620.515043 98.573206 
z
" style="fill:#ff7f0e;fill-opacity:0.8;stroke:#ffffff;stroke-opacity:0.8;stroke-width:0.339411;"/>
    <path clip-path="url(#pff5f157101)" d="M 621.575703 47.767579 
L 622.636364 46.706919 
L 623.697024 47.767579 
L 624.757684 46.706919 
L 623.697024 45.646258 
L 624.757684 44.585598 
L 623.697024 43.524938 
L 622.636364 44.585598 
L 621.575703 43.524938 
L 620.515043 44.585598 
L 621.575703 45.646258 
L 620.515043 46.706919 
z
" style="fill:#ff7f0e;fill-opacity:0.8;stroke:#ffffff;stroke-opacity:0.8;stroke-width:0.339411;"/>
    <path clip-path="url(#pff5f157101)" d="M 621.575703 52.300793 
L 622.636364 51.240133 
L 623.697024 52.300793 
L 624.757684 51.240133 
L 623.697024 50.179473 
L 624.757684 49.118813 
L 623.697024 48.058152 
L 622.636364 49.118813 
L 621.575703 48.058152 
L 620.515043 49.118813 
L 621.575703 50.179473 
L 620.515043 51.240133 
z
" style="fill:#ff7f0e;fill-opacity:0.8;stroke:#ffffff;stroke-opacity:0.8;stroke-width:0.339411;"/>
    <path clip-path="url(#pff5f157101)" d="M 621.575703 58.84422 
L 622.636364 57.78356 
L 623.697024 58.84422 
L 624.757684 57.78356 
L 623.697024 56.7229 
L 624.757684 55.66224 
L 623.697024 54.601579 
L 622.636364 55.66224 
L 621.575703 54.601579 
L 620.515043 55.66224 
L 621.575703 56.7229 
L 620.515043 57.78356 
z
" style="fill:#ff7f0e;fill-opacity:0.8;stroke:#ffffff;stroke-opacity:0.8;stroke-width:0.339411;"/>
    <path clip-path="url(#pff5f157101)" d="M 621.575703 65.506924 
L 622.636364 64.446264 
L 623.697024 65.506924 
L 624.757684 64.446264 
L 623.697024 63.385604 
L 624.757684 62.324943 
L 623.697024 61.264283 
L 622.636364 62.324943 
L 621.575703 61.264283 
L 620.515043 62.324943 
L 621.575703 63.385604 
L 620.515043 64.446264 
z
" style="fill:#ff7f0e;fill-opacity:0.8;stroke:#ffffff;stroke-opacity:0.8;stroke-width:0.339411;"/>
    <path clip-path="url(#pff5f157101)" d="M 621.575703 76.234257 
L 622.636364 75.173597 
L 623.697024 76.234257 
L 624.757684 75.173597 
L 623.697024 74.112936 
L 624.757684 73.052276 
L 623.697024 71.991616 
L 622.636364 73.052276 
L 621.575703 71.991616 
L 620.515043 73.052276 
L 621.575703 74.112936 
L 620.515043 75.173597 
z
" style="fill:#ff7f0e;fill-opacity:0.8;stroke:#ffffff;stroke-opacity:0.8;stroke-width:0.339411;"/>
    <path clip-path="url(#pff5f157101)" d="M 621.575703 81.967506 
L 622.636364 80.906846 
L 623.697024 81.967506 
L 624.757684 80.906846 
L 623.697024 79.846186 
L 624.757684 78.785526 
L 623.697024 77.724865 
L 622.636364 78.785526 
L 621.575703 77.724865 
L 620.515043 78.785526 
L 621.575703 79.846186 
L 620.515043 80.906846 
z
" style="fill:#ff7f0e;fill-opacity:0.8;stroke:#ffffff;stroke-opacity:0.8;stroke-width:0.339411;"/>
    <path clip-path="url(#pff5f157101)" d="M 621.575703 86.215908 
L 622.636364 85.155248 
L 623.697024 86.215908 
L 624.757684 85.155248 
L 623.697024 84.094587 
L 624.757684 83.033927 
L 623.697024 81.973267 
L 622.636364 83.033927 
L 621.575703 81.973267 
L 620.515043 83.033927 
L 621.575703 84.094587 
L 620.515043 85.155248 
z
" style="fill:#ff7f0e;fill-opacity:0.8;stroke:#ffffff;stroke-opacity:0.8;stroke-width:0.339411;"/>
    <path clip-path="url(#pff5f157101)" d="M 621.575703 99.10543 
L 622.636364 98.044769 
L 623.697024 99.10543 
L 624.757684 98.044769 
L 623.697024 96.984109 
L 624.757684 95.923449 
L 623.697024 94.862789 
L 622.636364 95.923449 
L 621.575703 94.862789 
L 620.515043 95.923449 
L 621.575703 96.984109 
L 620.515043 98.044769 
z
" style="fill:#ff7f0e;fill-opacity:0.8;stroke:#ffffff;stroke-opacity:0.8;stroke-width:0.339411;"/>
    <path clip-path="url(#pff5f157101)" d="M 572.043319 110.453612 
L 573.103979 109.392952 
L 574.164639 110.453612 
L 575.2253 109.392952 
L 574.164639 108.332291 
L 575.2253 107.271631 
L 574.164639 106.210971 
L 573.103979 107.271631 
L 572.043319 106.210971 
L 570.982659 107.271631 
L 572.043319 108.332291 
L 570.982659 109.392952 
z
" style="fill:#ff7f0e;fill-opacity:0.8;stroke:#ffffff;stroke-opacity:0.8;stroke-width:0.339411;"/>
    <path clip-path="url(#pff5f157101)" d="M 562.326641 111.612901 
L 563.387301 110.552241 
L 564.447961 111.612901 
L 565.508622 110.552241 
L 564.447961 109.491581 
L 565.508622 108.430921 
L 564.447961 107.370261 
L 563.387301 108.430921 
L 562.326641 107.370261 
L 561.265981 108.430921 
L 562.326641 109.491581 
L 561.265981 110.552241 
z
" style="fill:#ff7f0e;fill-opacity:0.8;stroke:#ffffff;stroke-opacity:0.8;stroke-width:0.339411;"/>
    <path clip-path="url(#pff5f157101)" d="M 562.326641 120.127023 
L 563.387301 119.066363 
L 564.447961 120.127023 
L 565.508622 119.066363 
L 564.447961 118.005703 
L 565.508622 116.945043 
L 564.447961 115.884382 
L 563.387301 116.945043 
L 562.326641 115.884382 
L 561.265981 116.945043 
L 562.326641 118.005703 
L 561.265981 119.066363 
z
" style="fill:#ff7f0e;fill-opacity:0.8;stroke:#ffffff;stroke-opacity:0.8;stroke-width:0.339411;"/>
    <path clip-path="url(#pff5f157101)" d="M 562.326641 121.90833 
L 563.387301 120.847669 
L 564.447961 121.90833 
L 565.508622 120.847669 
L 564.447961 119.787009 
L 565.508622 118.726349 
L 564.447961 117.665689 
L 563.387301 118.726349 
L 562.326641 117.665689 
L 561.265981 118.726349 
L 562.326641 119.787009 
L 561.265981 120.847669 
z
" style="fill:#ff7f0e;fill-opacity:0.8;stroke:#ffffff;stroke-opacity:0.8;stroke-width:0.339411;"/>
    <path clip-path="url(#pff5f157101)" d="M 562.326641 135.648682 
L 563.387301 134.588022 
L 564.447961 135.648682 
L 565.508622 134.588022 
L 564.447961 133.527362 
L 565.508622 132.466702 
L 564.447961 131.406041 
L 563.387301 132.466702 
L 562.326641 131.406041 
L 561.265981 132.466702 
L 562.326641 133.527362 
L 561.265981 134.588022 
z
" style="fill:#ff7f0e;fill-opacity:0.8;stroke:#ffffff;stroke-opacity:0.8;stroke-width:0.339411;"/>
    <path clip-path="url(#pff5f157101)" d="M 519.995151 88.237359 
L 521.055812 87.176698 
L 522.116472 88.237359 
L 523.177132 87.176698 
L 522.116472 86.116038 
L 523.177132 85.055378 
L 522.116472 83.994718 
L 521.055812 85.055378 
L 519.995151 83.994718 
L 518.934491 85.055378 
L 519.995151 86.116038 
L 518.934491 87.176698 
z
" style="fill:#ff7f0e;fill-opacity:0.8;stroke:#ffffff;stroke-opacity:0.8;stroke-width:0.339411;"/>
    <path clip-path="url(#pff5f157101)" d="M 519.995151 83.990709 
L 521.055812 82.930049 
L 522.116472 83.990709 
L 523.177132 82.930049 
L 522.116472 81.869389 
L 523.177132 80.808729 
L 522.116472 79.748069 
L 521.055812 80.808729 
L 519.995151 79.748069 
L 518.934491 80.808729 
L 519.995151 81.869389 
L 518.934491 82.930049 
z
" style="fill:#ff7f0e;fill-opacity:0.8;stroke:#ffffff;stroke-opacity:0.8;stroke-width:0.339411;"/>
    <path clip-path="url(#pff5f157101)" d="M 519.995151 91.611112 
L 521.055812 90.550451 
L 522.116472 91.611112 
L 523.177132 90.550451 
L 522.116472 89.489791 
L 523.177132 88.429131 
L 522.116472 87.368471 
L 521.055812 88.429131 
L 519.995151 87.368471 
L 518.934491 88.429131 
L 519.995151 89.489791 
L 518.934491 90.550451 
z
" style="fill:#ff7f0e;fill-opacity:0.8;stroke:#ffffff;stroke-opacity:0.8;stroke-width:0.339411;"/>
    <path clip-path="url(#pff5f157101)" d="M 562.326641 106.317004 
L 563.387301 105.256344 
L 564.447961 106.317004 
L 565.508622 105.256344 
L 564.447961 104.195684 
L 565.508622 103.135024 
L 564.447961 102.074363 
L 563.387301 103.135024 
L 562.326641 102.074363 
L 561.265981 103.135024 
L 562.326641 104.195684 
L 561.265981 105.256344 
z
" style="fill:#ff7f0e;fill-opacity:0.8;stroke:#ffffff;stroke-opacity:0.8;stroke-width:0.339411;"/>
    <path clip-path="url(#pff5f157101)" d="M 572.043319 118.203397 
L 573.103979 117.142736 
L 574.164639 118.203397 
L 575.2253 117.142736 
L 574.164639 116.082076 
L 575.2253 115.021416 
L 574.164639 113.960756 
L 573.103979 115.021416 
L 572.043319 113.960756 
L 570.982659 115.021416 
L 572.043319 116.082076 
L 570.982659 117.142736 
z
" style="fill:#ff7f0e;fill-opacity:0.8;stroke:#ffffff;stroke-opacity:0.8;stroke-width:0.339411;"/>
    <path clip-path="url(#pff5f157101)" d="M 572.043319 115.556769 
L 573.103979 114.496109 
L 574.164639 115.556769 
L 575.2253 114.496109 
L 574.164639 113.435449 
L 575.2253 112.374789 
L 574.164639 111.314129 
L 573.103979 112.374789 
L 572.043319 111.314129 
L 570.982659 112.374789 
L 572.043319 113.435449 
L 570.982659 114.496109 
z
" style="fill:#ff7f0e;fill-opacity:0.8;stroke:#ffffff;stroke-opacity:0.8;stroke-width:0.339411;"/>
    <path clip-path="url(#pff5f157101)" d="M 572.043319 132.195135 
L 573.103979 131.134475 
L 574.164639 132.195135 
L 575.2253 131.134475 
L 574.164639 130.073815 
L 575.2253 129.013154 
L 574.164639 127.952494 
L 573.103979 129.013154 
L 572.043319 127.952494 
L 570.982659 129.013154 
L 572.043319 130.073815 
L 570.982659 131.134475 
z
" style="fill:#ff7f0e;fill-opacity:0.8;stroke:#ffffff;stroke-opacity:0.8;stroke-width:0.339411;"/>
    <path clip-path="url(#pff5f157101)" d="M 562.326641 71.241637 
L 563.387301 70.180977 
L 564.447961 71.241637 
L 565.508622 70.180977 
L 564.447961 69.120317 
L 565.508622 68.059657 
L 564.447961 66.998996 
L 563.387301 68.059657 
L 562.326641 66.998996 
L 561.265981 68.059657 
L 562.326641 69.120317 
L 561.265981 70.180977 
z
" style="fill:#ff7f0e;fill-opacity:0.8;stroke:#ffffff;stroke-opacity:0.8;stroke-width:0.339411;"/>
    <path clip-path="url(#pff5f157101)" d="M 562.326641 68.349773 
L 563.387301 67.289113 
L 564.447961 68.349773 
L 565.508622 67.289113 
L 564.447961 66.228453 
L 565.508622 65.167793 
L 564.447961 64.107132 
L 563.387301 65.167793 
L 562.326641 64.107132 
L 561.265981 65.167793 
L 562.326641 66.228453 
L 561.265981 67.289113 
z
" style="fill:#ff7f0e;fill-opacity:0.8;stroke:#ffffff;stroke-opacity:0.8;stroke-width:0.339411;"/>
    <path clip-path="url(#pff5f157101)" d="M 562.326641 80.755319 
L 563.387301 79.694658 
L 564.447961 80.755319 
L 565.508622 79.694658 
L 564.447961 78.633998 
L 565.508622 77.573338 
L 564.447961 76.512678 
L 563.387301 77.573338 
L 562.326641 76.512678 
L 561.265981 77.573338 
L 562.326641 78.633998 
L 561.265981 79.694658 
z
" style="fill:#ff7f0e;fill-opacity:0.8;stroke:#ffffff;stroke-opacity:0.8;stroke-width:0.339411;"/>
    <path clip-path="url(#pff5f157101)" d="M 562.326641 85.318859 
L 563.387301 84.258199 
L 564.447961 85.318859 
L 565.508622 84.258199 
L 564.447961 83.197539 
L 565.508622 82.136878 
L 564.447961 81.076218 
L 563.387301 82.136878 
L 562.326641 81.076218 
L 561.265981 82.136878 
L 562.326641 83.197539 
L 561.265981 84.258199 
z
" style="fill:#ff7f0e;fill-opacity:0.8;stroke:#ffffff;stroke-opacity:0.8;stroke-width:0.339411;"/>
    <path clip-path="url(#pff5f157101)" d="M 562.326641 96.720001 
L 563.387301 95.659341 
L 564.447961 96.720001 
L 565.508622 95.659341 
L 564.447961 94.598681 
L 565.508622 93.53802 
L 564.447961 92.47736 
L 563.387301 93.53802 
L 562.326641 92.47736 
L 561.265981 93.53802 
L 562.326641 94.598681 
L 561.265981 95.659341 
z
" style="fill:#ff7f0e;fill-opacity:0.8;stroke:#ffffff;stroke-opacity:0.8;stroke-width:0.339411;"/>
    <path clip-path="url(#pff5f157101)" d="M 228.401788 173.336471 
L 229.462448 172.275811 
L 230.523108 173.336471 
L 231.583768 172.275811 
L 230.523108 171.215151 
L 231.583768 170.154491 
L 230.523108 169.093831 
L 229.462448 170.154491 
L 228.401788 169.093831 
L 227.341127 170.154491 
L 228.401788 171.215151 
L 227.341127 172.275811 
z
" style="fill:#ff7f0e;fill-opacity:0.8;stroke:#ffffff;stroke-opacity:0.8;stroke-width:0.339411;"/>
    <path clip-path="url(#pff5f157101)" d="M 228.401788 179.564909 
L 229.462448 178.504249 
L 230.523108 179.564909 
L 231.583768 178.504249 
L 230.523108 177.443589 
L 231.583768 176.382929 
L 230.523108 175.322268 
L 229.462448 176.382929 
L 228.401788 175.322268 
L 227.341127 176.382929 
L 228.401788 177.443589 
L 227.341127 178.504249 
z
" style="fill:#ff7f0e;fill-opacity:0.8;stroke:#ffffff;stroke-opacity:0.8;stroke-width:0.339411;"/>
    <path clip-path="url(#pff5f157101)" d="M 114.302976 206.915661 
L 115.363636 205.855001 
L 116.424297 206.915661 
L 117.484957 205.855001 
L 116.424297 204.79434 
L 117.484957 203.73368 
L 116.424297 202.67302 
L 115.363636 203.73368 
L 114.302976 202.67302 
L 113.242316 203.73368 
L 114.302976 204.79434 
L 113.242316 205.855001 
z
" style="fill:#ff7f0e;fill-opacity:0.8;stroke:#ffffff;stroke-opacity:0.8;stroke-width:0.339411;"/>
    <path clip-path="url(#pff5f157101)" d="M 228.401788 188.752386 
L 229.462448 187.691726 
L 230.523108 188.752386 
L 231.583768 187.691726 
L 230.523108 186.631066 
L 231.583768 185.570406 
L 230.523108 184.509746 
L 229.462448 185.570406 
L 228.401788 184.509746 
L 227.341127 185.570406 
L 228.401788 186.631066 
L 227.341127 187.691726 
z
" style="fill:#ff7f0e;fill-opacity:0.8;stroke:#ffffff;stroke-opacity:0.8;stroke-width:0.339411;"/>
    <path clip-path="url(#pff5f157101)" d="M 228.401788 198.679457 
L 229.462448 197.618797 
L 230.523108 198.679457 
L 231.583768 197.618797 
L 230.523108 196.558137 
L 231.583768 195.497477 
L 230.523108 194.436817 
L 229.462448 195.497477 
L 228.401788 194.436817 
L 227.341127 195.497477 
L 228.401788 196.558137 
L 227.341127 197.618797 
z
" style="fill:#ff7f0e;fill-opacity:0.8;stroke:#ffffff;stroke-opacity:0.8;stroke-width:0.339411;"/>
    <path clip-path="url(#pff5f157101)" d="M 228.401788 203.363439 
L 229.462448 202.302778 
L 230.523108 203.363439 
L 231.583768 202.302778 
L 230.523108 201.242118 
L 231.583768 200.181458 
L 230.523108 199.120798 
L 229.462448 200.181458 
L 228.401788 199.120798 
L 227.341127 200.181458 
L 228.401788 201.242118 
L 227.341127 202.302778 
z
" style="fill:#ff7f0e;fill-opacity:0.8;stroke:#ffffff;stroke-opacity:0.8;stroke-width:0.339411;"/>
    <path clip-path="url(#pff5f157101)" d="M 228.401788 209.628522 
L 229.462448 208.567861 
L 230.523108 209.628522 
L 231.583768 208.567861 
L 230.523108 207.507201 
L 231.583768 206.446541 
L 230.523108 205.385881 
L 229.462448 206.446541 
L 228.401788 205.385881 
L 227.341127 206.446541 
L 228.401788 207.507201 
L 227.341127 208.567861 
z
" style="fill:#ff7f0e;fill-opacity:0.8;stroke:#ffffff;stroke-opacity:0.8;stroke-width:0.339411;"/>
    <path clip-path="url(#pff5f157101)" d="M 228.401788 165.748824 
L 229.462448 164.688164 
L 230.523108 165.748824 
L 231.583768 164.688164 
L 230.523108 163.627504 
L 231.583768 162.566844 
L 230.523108 161.506184 
L 229.462448 162.566844 
L 228.401788 161.506184 
L 227.341127 162.566844 
L 228.401788 163.627504 
L 227.341127 164.688164 
z
" style="fill:#ff7f0e;fill-opacity:0.8;stroke:#ffffff;stroke-opacity:0.8;stroke-width:0.339411;"/>
    <path clip-path="url(#pff5f157101)" d="M 264.790989 190.988923 
L 265.851649 189.928263 
L 266.912309 190.988923 
L 267.972969 189.928263 
L 266.912309 188.867603 
L 267.972969 187.806943 
L 266.912309 186.746283 
L 265.851649 187.806943 
L 264.790989 186.746283 
L 263.730329 187.806943 
L 264.790989 188.867603 
L 263.730329 189.928263 
z
" style="fill:#ff7f0e;fill-opacity:0.8;stroke:#ffffff;stroke-opacity:0.8;stroke-width:0.339411;"/>
    <path clip-path="url(#pff5f157101)" d="M 264.790989 196.273801 
L 265.851649 195.213141 
L 266.912309 196.273801 
L 267.972969 195.213141 
L 266.912309 194.152481 
L 267.972969 193.091821 
L 266.912309 192.03116 
L 265.851649 193.091821 
L 264.790989 192.03116 
L 263.730329 193.091821 
L 264.790989 194.152481 
L 263.730329 195.213141 
z
" style="fill:#ff7f0e;fill-opacity:0.8;stroke:#ffffff;stroke-opacity:0.8;stroke-width:0.339411;"/>
    <path clip-path="url(#pff5f157101)" d="M 264.790989 201.715375 
L 265.851649 200.654715 
L 266.912309 201.715375 
L 267.972969 200.654715 
L 266.912309 199.594055 
L 267.972969 198.533395 
L 266.912309 197.472734 
L 265.851649 198.533395 
L 264.790989 197.472734 
L 263.730329 198.533395 
L 264.790989 199.594055 
L 263.730329 200.654715 
z
" style="fill:#ff7f0e;fill-opacity:0.8;stroke:#ffffff;stroke-opacity:0.8;stroke-width:0.339411;"/>
    <path clip-path="url(#pff5f157101)" d="M 264.790989 197.809924 
L 265.851649 196.749264 
L 266.912309 197.809924 
L 267.972969 196.749264 
L 266.912309 195.688604 
L 267.972969 194.627944 
L 266.912309 193.567284 
L 265.851649 194.627944 
L 264.790989 193.567284 
L 263.730329 194.627944 
L 264.790989 195.688604 
L 263.730329 196.749264 
z
" style="fill:#ff7f0e;fill-opacity:0.8;stroke:#ffffff;stroke-opacity:0.8;stroke-width:0.339411;"/>
    <path clip-path="url(#pff5f157101)" d="M 264.790989 209.758698 
L 265.851649 208.698037 
L 266.912309 209.758698 
L 267.972969 208.698037 
L 266.912309 207.637377 
L 267.972969 206.576717 
L 266.912309 205.516057 
L 265.851649 206.576717 
L 264.790989 205.516057 
L 263.730329 206.576717 
L 264.790989 207.637377 
L 263.730329 208.698037 
z
" style="fill:#ff7f0e;fill-opacity:0.8;stroke:#ffffff;stroke-opacity:0.8;stroke-width:0.339411;"/>
    <path clip-path="url(#pff5f157101)" d="M 264.790989 216.494228 
L 265.851649 215.433568 
L 266.912309 216.494228 
L 267.972969 215.433568 
L 266.912309 214.372908 
L 267.972969 213.312247 
L 266.912309 212.251587 
L 265.851649 213.312247 
L 264.790989 212.251587 
L 263.730329 213.312247 
L 264.790989 214.372908 
L 263.730329 215.433568 
z
" style="fill:#ff7f0e;fill-opacity:0.8;stroke:#ffffff;stroke-opacity:0.8;stroke-width:0.339411;"/>
    <path clip-path="url(#pff5f157101)" d="M 435.7714 164.922214 
L 436.83206 163.861554 
L 437.89272 164.922214 
L 438.95338 163.861554 
L 437.89272 162.800894 
L 438.95338 161.740233 
L 437.89272 160.679573 
L 436.83206 161.740233 
L 435.7714 160.679573 
L 434.71074 161.740233 
L 435.7714 162.800894 
L 434.71074 163.861554 
z
" style="fill:#ff7f0e;fill-opacity:0.8;stroke:#ffffff;stroke-opacity:0.8;stroke-width:0.339411;"/>
    <path clip-path="url(#pff5f157101)" d="M 228.401788 217.827297 
L 229.462448 216.766636 
L 230.523108 217.827297 
L 231.583768 216.766636 
L 230.523108 215.705976 
L 231.583768 214.645316 
L 230.523108 213.584656 
L 229.462448 214.645316 
L 228.401788 213.584656 
L 227.341127 214.645316 
L 228.401788 215.705976 
L 227.341127 216.766636 
z
" style="fill:#ff7f0e;fill-opacity:0.8;stroke:#ffffff;stroke-opacity:0.8;stroke-width:0.339411;"/>
    <path clip-path="url(#pff5f157101)" d="M 140.894906 213.773915 
L 141.955567 212.713255 
L 143.016227 213.773915 
L 144.076887 212.713255 
L 143.016227 211.652594 
L 144.076887 210.591934 
L 143.016227 209.531274 
L 141.955567 210.591934 
L 140.894906 209.531274 
L 139.834246 210.591934 
L 140.894906 211.652594 
L 139.834246 212.713255 
z
" style="fill:#ff7f0e;fill-opacity:0.8;stroke:#ffffff;stroke-opacity:0.8;stroke-width:0.339411;"/>
    <path clip-path="url(#pff5f157101)" d="M 140.894906 218.203721 
L 141.955567 217.143061 
L 143.016227 218.203721 
L 144.076887 217.143061 
L 143.016227 216.082401 
L 144.076887 215.021741 
L 143.016227 213.961081 
L 141.955567 215.021741 
L 140.894906 213.961081 
L 139.834246 215.021741 
L 140.894906 216.082401 
L 139.834246 217.143061 
z
" style="fill:#ff7f0e;fill-opacity:0.8;stroke:#ffffff;stroke-opacity:0.8;stroke-width:0.339411;"/>
    <path clip-path="url(#pff5f157101)" d="M 140.894906 223.370928 
L 141.955567 222.310268 
L 143.016227 223.370928 
L 144.076887 222.310268 
L 143.016227 221.249607 
L 144.076887 220.188947 
L 143.016227 219.128287 
L 141.955567 220.188947 
L 140.894906 219.128287 
L 139.834246 220.188947 
L 140.894906 221.249607 
L 139.834246 222.310268 
z
" style="fill:#ff7f0e;fill-opacity:0.8;stroke:#ffffff;stroke-opacity:0.8;stroke-width:0.339411;"/>
    <path clip-path="url(#pff5f157101)" d="M 140.894906 231.426312 
L 141.955567 230.365652 
L 143.016227 231.426312 
L 144.076887 230.365652 
L 143.016227 229.304992 
L 144.076887 228.244332 
L 143.016227 227.183671 
L 141.955567 228.244332 
L 140.894906 227.183671 
L 139.834246 228.244332 
L 140.894906 229.304992 
L 139.834246 230.365652 
z
" style="fill:#ff7f0e;fill-opacity:0.8;stroke:#ffffff;stroke-opacity:0.8;stroke-width:0.339411;"/>
    <path clip-path="url(#pff5f157101)" d="M 140.894906 231.161596 
L 141.955567 230.100935 
L 143.016227 231.161596 
L 144.076887 230.100935 
L 143.016227 229.040275 
L 144.076887 227.979615 
L 143.016227 226.918955 
L 141.955567 227.979615 
L 140.894906 226.918955 
L 139.834246 227.979615 
L 140.894906 229.040275 
L 139.834246 230.100935 
z
" style="fill:#ff7f0e;fill-opacity:0.8;stroke:#ffffff;stroke-opacity:0.8;stroke-width:0.339411;"/>
    <path clip-path="url(#pff5f157101)" d="M 140.894906 245.473627 
L 141.955567 244.412966 
L 143.016227 245.473627 
L 144.076887 244.412966 
L 143.016227 243.352306 
L 144.076887 242.291646 
L 143.016227 241.230986 
L 141.955567 242.291646 
L 140.894906 241.230986 
L 139.834246 242.291646 
L 140.894906 243.352306 
L 139.834246 244.412966 
z
" style="fill:#ff7f0e;fill-opacity:0.8;stroke:#ffffff;stroke-opacity:0.8;stroke-width:0.339411;"/>
    <path clip-path="url(#pff5f157101)" d="M 140.894906 203.980115 
L 141.955567 202.919455 
L 143.016227 203.980115 
L 144.076887 202.919455 
L 143.016227 201.858795 
L 144.076887 200.798134 
L 143.016227 199.737474 
L 141.955567 200.798134 
L 140.894906 199.737474 
L 139.834246 200.798134 
L 140.894906 201.858795 
L 139.834246 202.919455 
z
" style="fill:#ff7f0e;fill-opacity:0.8;stroke:#ffffff;stroke-opacity:0.8;stroke-width:0.339411;"/>
    <path clip-path="url(#pff5f157101)" d="M 228.401788 216.538497 
L 229.462448 215.477837 
L 230.523108 216.538497 
L 231.583768 215.477837 
L 230.523108 214.417176 
L 231.583768 213.356516 
L 230.523108 212.295856 
L 229.462448 213.356516 
L 228.401788 212.295856 
L 227.341127 213.356516 
L 228.401788 214.417176 
L 227.341127 215.477837 
z
" style="fill:#ff7f0e;fill-opacity:0.8;stroke:#ffffff;stroke-opacity:0.8;stroke-width:0.339411;"/>
    <path clip-path="url(#pff5f157101)" d="M 228.401788 232.608683 
L 229.462448 231.548023 
L 230.523108 232.608683 
L 231.583768 231.548023 
L 230.523108 230.487362 
L 231.583768 229.426702 
L 230.523108 228.366042 
L 229.462448 229.426702 
L 228.401788 228.366042 
L 227.341127 229.426702 
L 228.401788 230.487362 
L 227.341127 231.548023 
z
" style="fill:#ff7f0e;fill-opacity:0.8;stroke:#ffffff;stroke-opacity:0.8;stroke-width:0.339411;"/>
    <path clip-path="url(#pff5f157101)" d="M 114.302976 200.565291 
L 115.363636 199.504631 
L 116.424297 200.565291 
L 117.484957 199.504631 
L 116.424297 198.443971 
L 117.484957 197.383311 
L 116.424297 196.32265 
L 115.363636 197.383311 
L 114.302976 196.32265 
L 113.242316 197.383311 
L 114.302976 198.443971 
L 113.242316 199.504631 
z
" style="fill:#ff7f0e;fill-opacity:0.8;stroke:#ffffff;stroke-opacity:0.8;stroke-width:0.339411;"/>
    <path clip-path="url(#pff5f157101)" d="M 140.894906 186.970251 
L 141.955567 185.909591 
L 143.016227 186.970251 
L 144.076887 185.909591 
L 143.016227 184.848931 
L 144.076887 183.788271 
L 143.016227 182.727611 
L 141.955567 183.788271 
L 140.894906 182.727611 
L 139.834246 183.788271 
L 140.894906 184.848931 
L 139.834246 185.909591 
z
" style="fill:#ff7f0e;fill-opacity:0.8;stroke:#ffffff;stroke-opacity:0.8;stroke-width:0.339411;"/>
    <path clip-path="url(#pff5f157101)" d="M 140.894906 190.883654 
L 141.955567 189.822994 
L 143.016227 190.883654 
L 144.076887 189.822994 
L 143.016227 188.762334 
L 144.076887 187.701674 
L 143.016227 186.641014 
L 141.955567 187.701674 
L 140.894906 186.641014 
L 139.834246 187.701674 
L 140.894906 188.762334 
L 139.834246 189.822994 
z
" style="fill:#ff7f0e;fill-opacity:0.8;stroke:#ffffff;stroke-opacity:0.8;stroke-width:0.339411;"/>
    <path clip-path="url(#pff5f157101)" d="M 114.302976 194.1931 
L 115.363636 193.132439 
L 116.424297 194.1931 
L 117.484957 193.132439 
L 116.424297 192.071779 
L 117.484957 191.011119 
L 116.424297 189.950459 
L 115.363636 191.011119 
L 114.302976 189.950459 
L 113.242316 191.011119 
L 114.302976 192.071779 
L 113.242316 193.132439 
z
" style="fill:#ff7f0e;fill-opacity:0.8;stroke:#ffffff;stroke-opacity:0.8;stroke-width:0.339411;"/>
    <path clip-path="url(#pff5f157101)" d="M 140.894906 197.624674 
L 141.955567 196.564014 
L 143.016227 197.624674 
L 144.076887 196.564014 
L 143.016227 195.503354 
L 144.076887 194.442694 
L 143.016227 193.382033 
L 141.955567 194.442694 
L 140.894906 193.382033 
L 139.834246 194.442694 
L 140.894906 195.503354 
L 139.834246 196.564014 
z
" style="fill:#ff7f0e;fill-opacity:0.8;stroke:#ffffff;stroke-opacity:0.8;stroke-width:0.339411;"/>
    <path clip-path="url(#pff5f157101)" d="M 114.302976 216.594566 
L 115.363636 215.533906 
L 116.424297 216.594566 
L 117.484957 215.533906 
L 116.424297 214.473246 
L 117.484957 213.412586 
L 116.424297 212.351925 
L 115.363636 213.412586 
L 114.302976 212.351925 
L 113.242316 213.412586 
L 114.302976 214.473246 
L 113.242316 215.533906 
z
" style="fill:#ff7f0e;fill-opacity:0.8;stroke:#ffffff;stroke-opacity:0.8;stroke-width:0.339411;"/>
    <path clip-path="url(#pff5f157101)" d="M 114.302976 234.55713 
L 115.363636 233.49647 
L 116.424297 234.55713 
L 117.484957 233.49647 
L 116.424297 232.43581 
L 117.484957 231.37515 
L 116.424297 230.314489 
L 115.363636 231.37515 
L 114.302976 230.314489 
L 113.242316 231.37515 
L 114.302976 232.43581 
L 113.242316 233.49647 
z
" style="fill:#ff7f0e;fill-opacity:0.8;stroke:#ffffff;stroke-opacity:0.8;stroke-width:0.339411;"/>
    <path clip-path="url(#pff5f157101)" d="M 364.179798 176.472118 
L 365.240458 175.411458 
L 366.301119 176.472118 
L 367.361779 175.411458 
L 366.301119 174.350798 
L 367.361779 173.290138 
L 366.301119 172.229477 
L 365.240458 173.290138 
L 364.179798 172.229477 
L 363.119138 173.290138 
L 364.179798 174.350798 
L 363.119138 175.411458 
z
" style="fill:#ff7f0e;fill-opacity:0.8;stroke:#ffffff;stroke-opacity:0.8;stroke-width:0.339411;"/>
    <path clip-path="url(#pff5f157101)" d="M 364.179798 185.737646 
L 365.240458 184.676986 
L 366.301119 185.737646 
L 367.361779 184.676986 
L 366.301119 183.616326 
L 367.361779 182.555666 
L 366.301119 181.495006 
L 365.240458 182.555666 
L 364.179798 181.495006 
L 363.119138 182.555666 
L 364.179798 183.616326 
L 363.119138 184.676986 
z
" style="fill:#ff7f0e;fill-opacity:0.8;stroke:#ffffff;stroke-opacity:0.8;stroke-width:0.339411;"/>
    <path clip-path="url(#pff5f157101)" d="M 364.179798 186.148451 
L 365.240458 185.087791 
L 366.301119 186.148451 
L 367.361779 185.087791 
L 366.301119 184.027131 
L 367.361779 182.966471 
L 366.301119 181.905811 
L 365.240458 182.966471 
L 364.179798 181.905811 
L 363.119138 182.966471 
L 364.179798 184.027131 
L 363.119138 185.087791 
z
" style="fill:#ff7f0e;fill-opacity:0.8;stroke:#ffffff;stroke-opacity:0.8;stroke-width:0.339411;"/>
    <path clip-path="url(#pff5f157101)" d="M 364.179798 199.360592 
L 365.240458 198.299932 
L 366.301119 199.360592 
L 367.361779 198.299932 
L 366.301119 197.239272 
L 367.361779 196.178612 
L 366.301119 195.117952 
L 365.240458 196.178612 
L 364.179798 195.117952 
L 363.119138 196.178612 
L 364.179798 197.239272 
L 363.119138 198.299932 
z
" style="fill:#ff7f0e;fill-opacity:0.8;stroke:#ffffff;stroke-opacity:0.8;stroke-width:0.339411;"/>
    <path clip-path="url(#pff5f157101)" d="M 114.302976 234.216588 
L 115.363636 233.155928 
L 116.424297 234.216588 
L 117.484957 233.155928 
L 116.424297 232.095268 
L 117.484957 231.034607 
L 116.424297 229.973947 
L 115.363636 231.034607 
L 114.302976 229.973947 
L 113.242316 231.034607 
L 114.302976 232.095268 
L 113.242316 233.155928 
z
" style="fill:#ff7f0e;fill-opacity:0.8;stroke:#ffffff;stroke-opacity:0.8;stroke-width:0.339411;"/>
    <path clip-path="url(#pff5f157101)" d="M 435.7714 178.649478 
L 436.83206 177.588818 
L 437.89272 178.649478 
L 438.95338 177.588818 
L 437.89272 176.528158 
L 438.95338 175.467498 
L 437.89272 174.406838 
L 436.83206 175.467498 
L 435.7714 174.406838 
L 434.71074 175.467498 
L 435.7714 176.528158 
L 434.71074 177.588818 
z
" style="fill:#ff7f0e;fill-opacity:0.8;stroke:#ffffff;stroke-opacity:0.8;stroke-width:0.339411;"/>
    <path clip-path="url(#pff5f157101)" d="M 114.302976 248.36132 
L 115.363636 247.30066 
L 116.424297 248.36132 
L 117.484957 247.30066 
L 116.424297 246.24 
L 117.484957 245.17934 
L 116.424297 244.11868 
L 115.363636 245.17934 
L 114.302976 244.11868 
L 113.242316 245.17934 
L 114.302976 246.24 
L 113.242316 247.30066 
z
" style="fill:#ff7f0e;fill-opacity:0.8;stroke:#ffffff;stroke-opacity:0.8;stroke-width:0.339411;"/>
    <path clip-path="url(#pff5f157101)" d="M 364.179798 134.127048 
L 365.240458 133.066388 
L 366.301119 134.127048 
L 367.361779 133.066388 
L 366.301119 132.005728 
L 367.361779 130.945067 
L 366.301119 129.884407 
L 365.240458 130.945067 
L 364.179798 129.884407 
L 363.119138 130.945067 
L 364.179798 132.005728 
L 363.119138 133.066388 
z
" style="fill:#ff7f0e;fill-opacity:0.8;stroke:#ffffff;stroke-opacity:0.8;stroke-width:0.339411;"/>
    <path clip-path="url(#pff5f157101)" d="M 364.179798 138.531441 
L 365.240458 137.470781 
L 366.301119 138.531441 
L 367.361779 137.470781 
L 366.301119 136.410121 
L 367.361779 135.349461 
L 366.301119 134.2888 
L 365.240458 135.349461 
L 364.179798 134.2888 
L 363.119138 135.349461 
L 364.179798 136.410121 
L 363.119138 137.470781 
z
" style="fill:#ff7f0e;fill-opacity:0.8;stroke:#ffffff;stroke-opacity:0.8;stroke-width:0.339411;"/>
    <path clip-path="url(#pff5f157101)" d="M 364.179798 143.539015 
L 365.240458 142.478354 
L 366.301119 143.539015 
L 367.361779 142.478354 
L 366.301119 141.417694 
L 367.361779 140.357034 
L 366.301119 139.296374 
L 365.240458 140.357034 
L 364.179798 139.296374 
L 363.119138 140.357034 
L 364.179798 141.417694 
L 363.119138 142.478354 
z
" style="fill:#ff7f0e;fill-opacity:0.8;stroke:#ffffff;stroke-opacity:0.8;stroke-width:0.339411;"/>
    <path clip-path="url(#pff5f157101)" d="M 364.179798 152.551579 
L 365.240458 151.490919 
L 366.301119 152.551579 
L 367.361779 151.490919 
L 366.301119 150.430258 
L 367.361779 149.369598 
L 366.301119 148.308938 
L 365.240458 149.369598 
L 364.179798 148.308938 
L 363.119138 149.369598 
L 364.179798 150.430258 
L 363.119138 151.490919 
z
" style="fill:#ff7f0e;fill-opacity:0.8;stroke:#ffffff;stroke-opacity:0.8;stroke-width:0.339411;"/>
    <path clip-path="url(#pff5f157101)" d="M 364.179798 164.999359 
L 365.240458 163.938698 
L 366.301119 164.999359 
L 367.361779 163.938698 
L 366.301119 162.878038 
L 367.361779 161.817378 
L 366.301119 160.756718 
L 365.240458 161.817378 
L 364.179798 160.756718 
L 363.119138 161.817378 
L 364.179798 162.878038 
L 363.119138 163.938698 
z
" style="fill:#ff7f0e;fill-opacity:0.8;stroke:#ffffff;stroke-opacity:0.8;stroke-width:0.339411;"/>
    <path clip-path="url(#pff5f157101)" d="M 364.179798 170.756758 
L 365.240458 169.696098 
L 366.301119 170.756758 
L 367.361779 169.696098 
L 366.301119 168.635437 
L 367.361779 167.574777 
L 366.301119 166.514117 
L 365.240458 167.574777 
L 364.179798 166.514117 
L 363.119138 167.574777 
L 364.179798 168.635437 
L 363.119138 169.696098 
z
" style="fill:#ff7f0e;fill-opacity:0.8;stroke:#ffffff;stroke-opacity:0.8;stroke-width:0.339411;"/>
    <path clip-path="url(#pff5f157101)" d="M 362.62776 137.155029 
L 363.68842 136.094369 
L 364.74908 137.155029 
L 365.809741 136.094369 
L 364.74908 135.033709 
L 365.809741 133.973049 
L 364.74908 132.912388 
L 363.68842 133.973049 
L 362.62776 132.912388 
L 361.5671 133.973049 
L 362.62776 135.033709 
L 361.5671 136.094369 
z
" style="fill:#ff7f0e;fill-opacity:0.8;stroke:#ffffff;stroke-opacity:0.8;stroke-width:0.339411;"/>
    <path clip-path="url(#pff5f157101)" d="M 362.62776 200.33439 
L 363.68842 199.27373 
L 364.74908 200.33439 
L 365.809741 199.27373 
L 364.74908 198.21307 
L 365.809741 197.15241 
L 364.74908 196.09175 
L 363.68842 197.15241 
L 362.62776 196.09175 
L 361.5671 197.15241 
L 362.62776 198.21307 
L 361.5671 199.27373 
z
" style="fill:#ff7f0e;fill-opacity:0.8;stroke:#ffffff;stroke-opacity:0.8;stroke-width:0.339411;"/>
    <path clip-path="url(#pff5f157101)" d="M 114.302976 220.964631 
L 115.363636 219.903971 
L 116.424297 220.964631 
L 117.484957 219.903971 
L 116.424297 218.84331 
L 117.484957 217.78265 
L 116.424297 216.72199 
L 115.363636 217.78265 
L 114.302976 216.72199 
L 113.242316 217.78265 
L 114.302976 218.84331 
L 113.242316 219.903971 
z
" style="fill:#ff7f0e;fill-opacity:0.8;stroke:#ffffff;stroke-opacity:0.8;stroke-width:0.339411;"/>
    <path clip-path="url(#pff5f157101)" d="M 264.790989 162.83458 
L 265.851649 161.77392 
L 266.912309 162.83458 
L 267.972969 161.77392 
L 266.912309 160.71326 
L 267.972969 159.6526 
L 266.912309 158.59194 
L 265.851649 159.6526 
L 264.790989 158.59194 
L 263.730329 159.6526 
L 264.790989 160.71326 
L 263.730329 161.77392 
z
" style="fill:#ff7f0e;fill-opacity:0.8;stroke:#ffffff;stroke-opacity:0.8;stroke-width:0.339411;"/>
    <path clip-path="url(#pff5f157101)" d="M 264.790989 167.165074 
L 265.851649 166.104413 
L 266.912309 167.165074 
L 267.972969 166.104413 
L 266.912309 165.043753 
L 267.972969 163.983093 
L 266.912309 162.922433 
L 265.851649 163.983093 
L 264.790989 162.922433 
L 263.730329 163.983093 
L 264.790989 165.043753 
L 263.730329 166.104413 
z
" style="fill:#ff7f0e;fill-opacity:0.8;stroke:#ffffff;stroke-opacity:0.8;stroke-width:0.339411;"/>
    <path clip-path="url(#pff5f157101)" d="M 264.790989 173.540505 
L 265.851649 172.479845 
L 266.912309 173.540505 
L 267.972969 172.479845 
L 266.912309 171.419185 
L 267.972969 170.358525 
L 266.912309 169.297865 
L 265.851649 170.358525 
L 264.790989 169.297865 
L 263.730329 170.358525 
L 264.790989 171.419185 
L 263.730329 172.479845 
z
" style="fill:#ff7f0e;fill-opacity:0.8;stroke:#ffffff;stroke-opacity:0.8;stroke-width:0.339411;"/>
    <path clip-path="url(#pff5f157101)" d="M 264.790989 181.319088 
L 265.851649 180.258428 
L 266.912309 181.319088 
L 267.972969 180.258428 
L 266.912309 179.197767 
L 267.972969 178.137107 
L 266.912309 177.076447 
L 265.851649 178.137107 
L 264.790989 177.076447 
L 263.730329 178.137107 
L 264.790989 179.197767 
L 263.730329 180.258428 
z
" style="fill:#ff7f0e;fill-opacity:0.8;stroke:#ffffff;stroke-opacity:0.8;stroke-width:0.339411;"/>
    <path clip-path="url(#pff5f157101)" d="M 362.62776 140.927875 
L 363.68842 139.867215 
L 364.74908 140.927875 
L 365.809741 139.867215 
L 364.74908 138.806555 
L 365.809741 137.745895 
L 364.74908 136.685234 
L 363.68842 137.745895 
L 362.62776 136.685234 
L 361.5671 137.745895 
L 362.62776 138.806555 
L 361.5671 139.867215 
z
" style="fill:#ff7f0e;fill-opacity:0.8;stroke:#ffffff;stroke-opacity:0.8;stroke-width:0.339411;"/>
    <path clip-path="url(#pff5f157101)" d="M 362.62776 186.217784 
L 363.68842 185.157124 
L 364.74908 186.217784 
L 365.809741 185.157124 
L 364.74908 184.096464 
L 365.809741 183.035803 
L 364.74908 181.975143 
L 363.68842 183.035803 
L 362.62776 181.975143 
L 361.5671 183.035803 
L 362.62776 184.096464 
L 361.5671 185.157124 
z
" style="fill:#ff7f0e;fill-opacity:0.8;stroke:#ffffff;stroke-opacity:0.8;stroke-width:0.339411;"/>
    <path clip-path="url(#pff5f157101)" d="M 362.62776 186.461733 
L 363.68842 185.401072 
L 364.74908 186.461733 
L 365.809741 185.401072 
L 364.74908 184.340412 
L 365.809741 183.279752 
L 364.74908 182.219092 
L 363.68842 183.279752 
L 362.62776 182.219092 
L 361.5671 183.279752 
L 362.62776 184.340412 
L 361.5671 185.401072 
z
" style="fill:#ff7f0e;fill-opacity:0.8;stroke:#ffffff;stroke-opacity:0.8;stroke-width:0.339411;"/>
    <path clip-path="url(#pff5f157101)" d="M 362.62776 148.160239 
L 363.68842 147.099579 
L 364.74908 148.160239 
L 365.809741 147.099579 
L 364.74908 146.038919 
L 365.809741 144.978259 
L 364.74908 143.917599 
L 363.68842 144.978259 
L 362.62776 143.917599 
L 361.5671 144.978259 
L 362.62776 146.038919 
L 361.5671 147.099579 
z
" style="fill:#ff7f0e;fill-opacity:0.8;stroke:#ffffff;stroke-opacity:0.8;stroke-width:0.339411;"/>
    <path clip-path="url(#pff5f157101)" d="M 362.62776 154.986764 
L 363.68842 153.926104 
L 364.74908 154.986764 
L 365.809741 153.926104 
L 364.74908 152.865444 
L 365.809741 151.804784 
L 364.74908 150.744123 
L 363.68842 151.804784 
L 362.62776 150.744123 
L 361.5671 151.804784 
L 362.62776 152.865444 
L 361.5671 153.926104 
z
" style="fill:#ff7f0e;fill-opacity:0.8;stroke:#ffffff;stroke-opacity:0.8;stroke-width:0.339411;"/>
    <path clip-path="url(#pff5f157101)" d="M 362.62776 166.095598 
L 363.68842 165.034938 
L 364.74908 166.095598 
L 365.809741 165.034938 
L 364.74908 163.974278 
L 365.809741 162.913618 
L 364.74908 161.852958 
L 363.68842 162.913618 
L 362.62776 161.852958 
L 361.5671 162.913618 
L 362.62776 163.974278 
L 361.5671 165.034938 
z
" style="fill:#ff7f0e;fill-opacity:0.8;stroke:#ffffff;stroke-opacity:0.8;stroke-width:0.339411;"/>
    <path clip-path="url(#pff5f157101)" d="M 114.302976 226.369446 
L 115.363636 225.308785 
L 116.424297 226.369446 
L 117.484957 225.308785 
L 116.424297 224.248125 
L 117.484957 223.187465 
L 116.424297 222.126805 
L 115.363636 223.187465 
L 114.302976 222.126805 
L 113.242316 223.187465 
L 114.302976 224.248125 
L 113.242316 225.308785 
z
" style="fill:#ff7f0e;fill-opacity:0.8;stroke:#ffffff;stroke-opacity:0.8;stroke-width:0.339411;"/>
    <path clip-path="url(#pff5f157101)" d="M 362.62776 171.335299 
L 363.68842 170.274639 
L 364.74908 171.335299 
L 365.809741 170.274639 
L 364.74908 169.213979 
L 365.809741 168.153318 
L 364.74908 167.092658 
L 363.68842 168.153318 
L 362.62776 167.092658 
L 361.5671 168.153318 
L 362.62776 169.213979 
L 361.5671 170.274639 
z
" style="fill:#ff7f0e;fill-opacity:0.8;stroke:#ffffff;stroke-opacity:0.8;stroke-width:0.339411;"/>
    <path clip-path="url(#pff5f157101)" d="M 362.62776 177.574504 
L 363.68842 176.513844 
L 364.74908 177.574504 
L 365.809741 176.513844 
L 364.74908 175.453183 
L 365.809741 174.392523 
L 364.74908 173.331863 
L 363.68842 174.392523 
L 362.62776 173.331863 
L 361.5671 174.392523 
L 362.62776 175.453183 
L 361.5671 176.513844 
z
" style="fill:#ff7f0e;fill-opacity:0.8;stroke:#ffffff;stroke-opacity:0.8;stroke-width:0.339411;"/>
    <path clip-path="url(#pff5f157101)" d="M 114.302976 189.89853 
L 115.363636 188.83787 
L 116.424297 189.89853 
L 117.484957 188.83787 
L 116.424297 187.77721 
L 117.484957 186.71655 
L 116.424297 185.65589 
L 115.363636 186.71655 
L 114.302976 185.65589 
L 113.242316 186.71655 
L 114.302976 187.77721 
L 113.242316 188.83787 
z
" style="fill:#ff7f0e;fill-opacity:0.8;stroke:#ffffff;stroke-opacity:0.8;stroke-width:0.339411;"/>
    <path clip-path="url(#pff5f157101)" d="M 622.636364 46.76132 
C 623.198944 46.76132 623.738559 46.537805 624.136364 46.14 
C 624.534168 45.742195 624.757684 45.202581 624.757684 44.64 
C 624.757684 44.077419 624.534168 43.537805 624.136364 43.14 
C 623.738559 42.742195 623.198944 42.51868 622.636364 42.51868 
C 622.073783 42.51868 621.534168 42.742195 621.136364 43.14 
C 620.738559 43.537805 620.515043 44.077419 620.515043 44.64 
C 620.515043 45.202581 620.738559 45.742195 621.136364 46.14 
C 621.534168 46.537805 622.073783 46.76132 622.636364 46.76132 
z
" style="fill:#1f77b4;fill-opacity:0.8;stroke:#ffffff;stroke-opacity:0.8;stroke-width:0.339411;"/>
    <path clip-path="url(#pff5f157101)" d="M 436.83206 110.879688 
C 437.394641 110.879688 437.934255 110.656172 438.33206 110.258368 
C 438.729865 109.860563 438.95338 109.320949 438.95338 108.758368 
C 438.95338 108.195787 438.729865 107.656172 438.33206 107.258368 
C 437.934255 106.860563 437.394641 106.637047 436.83206 106.637047 
C 436.269479 106.637047 435.729865 106.860563 435.33206 107.258368 
C 434.934255 107.656172 434.71074 108.195787 434.71074 108.758368 
C 434.71074 109.320949 434.934255 109.860563 435.33206 110.258368 
C 435.729865 110.656172 436.269479 110.879688 436.83206 110.879688 
z
" style="fill:#1f77b4;fill-opacity:0.8;stroke:#ffffff;stroke-opacity:0.8;stroke-width:0.339411;"/>
    <path clip-path="url(#pff5f157101)" d="M 472.80697 96.126216 
C 473.36955 96.126216 473.909165 95.9027 474.30697 95.504896 
C 474.704774 95.107091 474.92829 94.567476 474.92829 94.004896 
C 474.92829 93.442315 474.704774 92.9027 474.30697 92.504896 
C 473.909165 92.107091 473.36955 91.883575 472.80697 91.883575 
C 472.244389 91.883575 471.704774 92.107091 471.30697 92.504896 
C 470.909165 92.9027 470.685649 93.442315 470.685649 94.004896 
C 470.685649 94.567476 470.909165 95.107091 471.30697 95.504896 
C 471.704774 95.9027 472.244389 96.126216 472.80697 96.126216 
z
" style="fill:#1f77b4;fill-opacity:0.8;stroke:#ffffff;stroke-opacity:0.8;stroke-width:0.339411;"/>
    <path clip-path="url(#pff5f157101)" d="M 365.240458 148.441021 
C 365.803039 148.441021 366.342654 148.217506 366.740458 147.819701 
C 367.138263 147.421896 367.361779 146.882282 367.361779 146.319701 
C 367.361779 145.75712 367.138263 145.217506 366.740458 144.819701 
C 366.342654 144.421896 365.803039 144.198381 365.240458 144.198381 
C 364.677878 144.198381 364.138263 144.421896 363.740458 144.819701 
C 363.342654 145.217506 363.119138 145.75712 363.119138 146.319701 
C 363.119138 146.882282 363.342654 147.421896 363.740458 147.819701 
C 364.138263 148.217506 364.677878 148.441021 365.240458 148.441021 
z
" style="fill:#1f77b4;fill-opacity:0.8;stroke:#ffffff;stroke-opacity:0.8;stroke-width:0.339411;"/>
    <path clip-path="url(#pff5f157101)" d="M 492.835315 89.7838 
C 493.397895 89.7838 493.93751 89.560285 494.335315 89.16248 
C 494.733119 88.764675 494.956635 88.225061 494.956635 87.66248 
C 494.956635 87.099899 494.733119 86.560285 494.335315 86.16248 
C 493.93751 85.764675 493.397895 85.54116 492.835315 85.54116 
C 492.272734 85.54116 491.733119 85.764675 491.335315 86.16248 
C 490.93751 86.560285 490.713994 87.099899 490.713994 87.66248 
C 490.713994 88.225061 490.93751 88.764675 491.335315 89.16248 
C 491.733119 89.560285 492.272734 89.7838 492.835315 89.7838 
z
" style="fill:#1f77b4;fill-opacity:0.8;stroke:#ffffff;stroke-opacity:0.8;stroke-width:0.339411;"/>
    <path clip-path="url(#pff5f157101)" d="M 141.955567 219.09128 
C 142.518147 219.09128 143.057762 218.867765 143.455567 218.46996 
C 143.853371 218.072155 144.076887 217.532541 144.076887 216.96996 
C 144.076887 216.407379 143.853371 215.867765 143.455567 215.46996 
C 143.057762 215.072155 142.518147 214.84864 141.955567 214.84864 
C 141.392986 214.84864 140.853371 215.072155 140.455567 215.46996 
C 140.057762 215.867765 139.834246 216.407379 139.834246 216.96996 
C 139.834246 217.532541 140.057762 218.072155 140.455567 218.46996 
C 140.853371 218.867765 141.392986 219.09128 141.955567 219.09128 
z
" style="fill:#1f77b4;fill-opacity:0.8;stroke:#ffffff;stroke-opacity:0.8;stroke-width:0.339411;"/>
    <path clip-path="url(#pff5f157101)" d="M 363.68842 142.596452 
C 364.251001 142.596452 364.790616 142.372937 365.18842 141.975132 
C 365.586225 141.577327 365.809741 141.037713 365.809741 140.475132 
C 365.809741 139.912551 365.586225 139.372937 365.18842 138.975132 
C 364.790616 138.577327 364.251001 138.353812 363.68842 138.353812 
C 363.12584 138.353812 362.586225 138.577327 362.18842 138.975132 
C 361.790616 139.372937 361.5671 139.912551 361.5671 140.475132 
C 361.5671 141.037713 361.790616 141.577327 362.18842 141.975132 
C 362.586225 142.372937 363.12584 142.596452 363.68842 142.596452 
z
" style="fill:#1f77b4;fill-opacity:0.8;stroke:#ffffff;stroke-opacity:0.8;stroke-width:0.339411;"/>
    <path clip-path="url(#pff5f157101)" d="M 265.851649 176.651249 
C 266.41423 176.651249 266.953844 176.427734 267.351649 176.029929 
C 267.749454 175.632124 267.972969 175.09251 267.972969 174.529929 
C 267.972969 173.967348 267.749454 173.427734 267.351649 173.029929 
C 266.953844 172.632124 266.41423 172.408609 265.851649 172.408609 
C 265.289068 172.408609 264.749454 172.632124 264.351649 173.029929 
C 263.953844 173.427734 263.730329 173.967348 263.730329 174.529929 
C 263.730329 175.09251 263.953844 175.632124 264.351649 176.029929 
C 264.749454 176.427734 265.289068 176.651249 265.851649 176.651249 
z
" style="fill:#1f77b4;fill-opacity:0.8;stroke:#ffffff;stroke-opacity:0.8;stroke-width:0.339411;"/>
    <path clip-path="url(#pff5f157101)" d="M 563.387301 63.501602 
C 563.949882 63.501602 564.489497 63.278086 564.887301 62.880281 
C 565.285106 62.482477 565.508622 61.942862 565.508622 61.380281 
C 565.508622 60.817701 565.285106 60.278086 564.887301 59.880281 
C 564.489497 59.482477 563.949882 59.258961 563.387301 59.258961 
C 562.824721 59.258961 562.285106 59.482477 561.887301 59.880281 
C 561.489497 60.278086 561.265981 60.817701 561.265981 61.380281 
C 561.265981 61.942862 561.489497 62.482477 561.887301 62.880281 
C 562.285106 63.278086 562.824721 63.501602 563.387301 63.501602 
z
" style="fill:#1f77b4;fill-opacity:0.8;stroke:#ffffff;stroke-opacity:0.8;stroke-width:0.339411;"/>
    <path clip-path="url(#pff5f157101)" d="M 229.462448 193.319516 
C 230.025029 193.319516 230.564643 193.096001 230.962448 192.698196 
C 231.360252 192.300391 231.583768 191.760777 231.583768 191.198196 
C 231.583768 190.635615 231.360252 190.096001 230.962448 189.698196 
C 230.564643 189.300391 230.025029 189.076876 229.462448 189.076876 
C 228.899867 189.076876 228.360252 189.300391 227.962448 189.698196 
C 227.564643 190.096001 227.341127 190.635615 227.341127 191.198196 
C 227.341127 191.760777 227.564643 192.300391 227.962448 192.698196 
C 228.360252 193.096001 228.899867 193.319516 229.462448 193.319516 
z
" style="fill:#1f77b4;fill-opacity:0.8;stroke:#ffffff;stroke-opacity:0.8;stroke-width:0.339411;"/>
    <path clip-path="url(#pff5f157101)" d="M 573.103979 60.007399 
C 573.66656 60.007399 574.206175 59.783884 574.603979 59.386079 
C 575.001784 58.988274 575.2253 58.44866 575.2253 57.886079 
C 575.2253 57.323498 575.001784 56.783884 574.603979 56.386079 
C 574.206175 55.988274 573.66656 55.764759 573.103979 55.764759 
C 572.541399 55.764759 572.001784 55.988274 571.603979 56.386079 
C 571.206175 56.783884 570.982659 57.323498 570.982659 57.886079 
C 570.982659 58.44866 571.206175 58.988274 571.603979 59.386079 
C 572.001784 59.783884 572.541399 60.007399 573.103979 60.007399 
z
" style="fill:#1f77b4;fill-opacity:0.8;stroke:#ffffff;stroke-opacity:0.8;stroke-width:0.339411;"/>
    <path clip-path="url(#pff5f157101)" d="M 521.055812 80.28734 
C 521.618392 80.28734 522.158007 80.063824 522.555812 79.66602 
C 522.953616 79.268215 523.177132 78.7286 523.177132 78.16602 
C 523.177132 77.603439 522.953616 77.063824 522.555812 76.66602 
C 522.158007 76.268215 521.618392 76.044699 521.055812 76.044699 
C 520.493231 76.044699 519.953616 76.268215 519.555812 76.66602 
C 519.158007 77.063824 518.934491 77.603439 518.934491 78.16602 
C 518.934491 78.7286 519.158007 79.268215 519.555812 79.66602 
C 519.953616 80.063824 520.493231 80.28734 521.055812 80.28734 
z
" style="fill:#1f77b4;fill-opacity:0.8;stroke:#ffffff;stroke-opacity:0.8;stroke-width:0.339411;"/>
    <path clip-path="url(#pff5f157101)" d="M 115.363636 227.975176 
C 115.926217 227.975176 116.465832 227.751661 116.863636 227.353856 
C 117.261441 226.956051 117.484957 226.416437 117.484957 225.853856 
C 117.484957 225.291275 117.261441 224.751661 116.863636 224.353856 
C 116.465832 223.956051 115.926217 223.732536 115.363636 223.732536 
C 114.801056 223.732536 114.261441 223.956051 113.863636 224.353856 
C 113.465832 224.751661 113.242316 225.291275 113.242316 225.853856 
C 113.242316 226.416437 113.465832 226.956051 113.863636 227.353856 
C 114.261441 227.751661 114.801056 227.975176 115.363636 227.975176 
z
" style="fill:#1f77b4;fill-opacity:0.8;stroke:#ffffff;stroke-opacity:0.8;stroke-width:0.339411;"/>
   </g>
   <g id="PathCollection_2"/>
   <g id="PathCollection_3"/>
   <g id="PathCollection_4"/>
   <g id="patch_3">
    <path d="M 90 256.32 
L 90 34.56 
" style="fill:none;stroke:#cccccc;stroke-linecap:square;stroke-linejoin:miter;stroke-width:0.8;"/>
   </g>
   <g id="patch_4">
    <path d="M 648 256.32 
L 648 34.56 
" style="fill:none;stroke:#cccccc;stroke-linecap:square;stroke-linejoin:miter;stroke-width:0.8;"/>
   </g>
   <g id="patch_5">
    <path d="M 90 256.32 
L 648 256.32 
" style="fill:none;stroke:#cccccc;stroke-linecap:square;stroke-linejoin:miter;stroke-width:0.8;"/>
   </g>
   <g id="patch_6">
    <path d="M 90 34.56 
L 648 34.56 
" style="fill:none;stroke:#cccccc;stroke-linecap:square;stroke-linejoin:miter;stroke-width:0.8;"/>
   </g>
   <g id="legend_1">
    <g id="patch_7">
     <path d="M 97 99.258438 
L 172.360938 99.258438 
Q 174.360938 99.258438 174.360938 97.258438 
L 174.360938 41.56 
Q 174.360938 39.56 172.360938 39.56 
L 97 39.56 
Q 95 39.56 95 41.56 
L 95 97.258438 
Q 95 99.258438 97 99.258438 
z
" style="fill:#ffffff;opacity:0.8;stroke:#cccccc;stroke-linejoin:miter;"/>
    </g>
    <g id="text_11">
     <!-- filterer -->
     <g style="fill:#262626;" transform="translate(120.789844 50.717813)scale(0.1 -0.1)">
      <defs>
       <path d="M 556 0 
L 556 2881 
L 59 2881 
L 59 3319 
L 556 3319 
L 556 3672 
Q 556 4006 616 4169 
Q 697 4388 901 4523 
Q 1106 4659 1475 4659 
Q 1713 4659 2000 4603 
L 1916 4113 
Q 1741 4144 1584 4144 
Q 1328 4144 1222 4034 
Q 1116 3925 1116 3625 
L 1116 3319 
L 1763 3319 
L 1763 2881 
L 1116 2881 
L 1116 0 
L 556 0 
z
" id="ArialMT-66" transform="scale(0.015625)"/>
       <path d="M 1650 503 
L 1731 6 
Q 1494 -44 1306 -44 
Q 1000 -44 831 53 
Q 663 150 594 308 
Q 525 466 525 972 
L 525 2881 
L 113 2881 
L 113 3319 
L 525 3319 
L 525 4141 
L 1084 4478 
L 1084 3319 
L 1650 3319 
L 1650 2881 
L 1084 2881 
L 1084 941 
Q 1084 700 1114 631 
Q 1144 563 1211 522 
Q 1278 481 1403 481 
Q 1497 481 1650 503 
z
" id="ArialMT-74" transform="scale(0.015625)"/>
      </defs>
      <use xlink:href="#ArialMT-66"/>
      <use x="27.783203" xlink:href="#ArialMT-69"/>
      <use x="50" xlink:href="#ArialMT-6c"/>
      <use x="72.216797" xlink:href="#ArialMT-74"/>
      <use x="100" xlink:href="#ArialMT-65"/>
      <use x="155.615234" xlink:href="#ArialMT-72"/>
      <use x="188.916016" xlink:href="#ArialMT-65"/>
      <use x="244.53125" xlink:href="#ArialMT-72"/>
     </g>
    </g>
    <g id="PathCollection_5">
     <defs>
      <path d="M 0 3 
C 0.795609 3 1.55874 2.683901 2.12132 2.12132 
C 2.683901 1.55874 3 0.795609 3 0 
C 3 -0.795609 2.683901 -1.55874 2.12132 -2.12132 
C 1.55874 -2.683901 0.795609 -3 0 -3 
C -0.795609 -3 -1.55874 -2.683901 -2.12132 -2.12132 
C -2.683901 -1.55874 -3 -0.795609 -3 0 
C -3 0.795609 -2.683901 1.55874 -2.12132 2.12132 
C -1.55874 2.683901 -0.795609 3 0 3 
z
" id="m7d0341925e" style="stroke:#1f77b4;"/>
     </defs>
     <g>
      <use style="fill:#1f77b4;stroke:#1f77b4;" x="109" xlink:href="#m7d0341925e" y="62.238125"/>
     </g>
    </g>
    <g id="text_12">
     <!-- pythonset -->
     <g style="fill:#262626;" transform="translate(127 64.863125)scale(0.1 -0.1)">
      <defs>
       <path d="M 397 -1278 
L 334 -750 
Q 519 -800 656 -800 
Q 844 -800 956 -737 
Q 1069 -675 1141 -563 
Q 1194 -478 1313 -144 
Q 1328 -97 1363 -6 
L 103 3319 
L 709 3319 
L 1400 1397 
Q 1534 1031 1641 628 
Q 1738 1016 1872 1384 
L 2581 3319 
L 3144 3319 
L 1881 -56 
Q 1678 -603 1566 -809 
Q 1416 -1088 1222 -1217 
Q 1028 -1347 759 -1347 
Q 597 -1347 397 -1278 
z
" id="ArialMT-79" transform="scale(0.015625)"/>
       <path d="M 422 0 
L 422 4581 
L 984 4581 
L 984 2938 
Q 1378 3394 1978 3394 
Q 2347 3394 2619 3248 
Q 2891 3103 3008 2847 
Q 3125 2591 3125 2103 
L 3125 0 
L 2563 0 
L 2563 2103 
Q 2563 2525 2380 2717 
Q 2197 2909 1863 2909 
Q 1613 2909 1392 2779 
Q 1172 2650 1078 2428 
Q 984 2206 984 1816 
L 984 0 
L 422 0 
z
" id="ArialMT-68" transform="scale(0.015625)"/>
       <path d="M 213 1659 
Q 213 2581 725 3025 
Q 1153 3394 1769 3394 
Q 2453 3394 2887 2945 
Q 3322 2497 3322 1706 
Q 3322 1066 3130 698 
Q 2938 331 2570 128 
Q 2203 -75 1769 -75 
Q 1072 -75 642 372 
Q 213 819 213 1659 
z
M 791 1659 
Q 791 1022 1069 705 
Q 1347 388 1769 388 
Q 2188 388 2466 706 
Q 2744 1025 2744 1678 
Q 2744 2294 2464 2611 
Q 2184 2928 1769 2928 
Q 1347 2928 1069 2612 
Q 791 2297 791 1659 
z
" id="ArialMT-6f" transform="scale(0.015625)"/>
      </defs>
      <use xlink:href="#ArialMT-70"/>
      <use x="55.615234" xlink:href="#ArialMT-79"/>
      <use x="105.615234" xlink:href="#ArialMT-74"/>
      <use x="133.398438" xlink:href="#ArialMT-68"/>
      <use x="189.013672" xlink:href="#ArialMT-6f"/>
      <use x="244.628906" xlink:href="#ArialMT-6e"/>
      <use x="300.244141" xlink:href="#ArialMT-73"/>
      <use x="350.244141" xlink:href="#ArialMT-65"/>
      <use x="405.859375" xlink:href="#ArialMT-74"/>
     </g>
    </g>
    <g id="PathCollection_6">
     <defs>
      <path d="M -1.5 3 
L 0 1.5 
L 1.5 3 
L 3 1.5 
L 1.5 0 
L 3 -1.5 
L 1.5 -3 
L 0 -1.5 
L -1.5 -3 
L -3 -1.5 
L -1.5 0 
L -3 1.5 
z
" id="mb39aae7b2d" style="stroke:#ff7f0e;"/>
     </defs>
     <g>
      <use style="fill:#ff7f0e;stroke:#ff7f0e;" x="109" xlink:href="#mb39aae7b2d" y="76.500625"/>
     </g>
    </g>
    <g id="text_13">
     <!-- bloom -->
     <g style="fill:#262626;" transform="translate(127 79.125625)scale(0.1 -0.1)">
      <use xlink:href="#ArialMT-62"/>
      <use x="55.615234" xlink:href="#ArialMT-6c"/>
      <use x="77.832031" xlink:href="#ArialMT-6f"/>
      <use x="133.447266" xlink:href="#ArialMT-6f"/>
      <use x="189.0625" xlink:href="#ArialMT-6d"/>
     </g>
    </g>
    <g id="PathCollection_7">
     <defs>
      <path d="M 0 2.12132 
C 0.562581 2.12132 1.102195 1.897805 1.5 1.5 
C 1.897805 1.102195 2.12132 0.562581 2.12132 0 
C 2.12132 -0.562581 1.897805 -1.102195 1.5 -1.5 
C 1.102195 -1.897805 0.562581 -2.12132 0 -2.12132 
C -0.562581 -2.12132 -1.102195 -1.897805 -1.5 -1.5 
C -1.897805 -1.102195 -2.12132 -0.562581 -2.12132 0 
C -2.12132 0.562581 -1.897805 1.102195 -1.5 1.5 
C -1.102195 1.897805 -0.562581 2.12132 0 2.12132 
z
" id="mcb2b1bd03b" style="stroke:#333333;"/>
     </defs>
     <g>
      <use style="fill:#333333;stroke:#333333;" x="109" xlink:href="#mcb2b1bd03b" y="90.645938"/>
     </g>
    </g>
    <g id="text_14">
     <!-- 8 -->
     <g style="fill:#262626;" transform="translate(127 93.270938)scale(0.1 -0.1)">
      <defs>
       <path d="M 1131 2484 
Q 781 2613 612 2850 
Q 444 3088 444 3419 
Q 444 3919 803 4259 
Q 1163 4600 1759 4600 
Q 2359 4600 2725 4251 
Q 3091 3903 3091 3403 
Q 3091 3084 2923 2848 
Q 2756 2613 2416 2484 
Q 2838 2347 3058 2040 
Q 3278 1734 3278 1309 
Q 3278 722 2862 322 
Q 2447 -78 1769 -78 
Q 1091 -78 675 323 
Q 259 725 259 1325 
Q 259 1772 486 2073 
Q 713 2375 1131 2484 
z
M 1019 3438 
Q 1019 3113 1228 2906 
Q 1438 2700 1772 2700 
Q 2097 2700 2305 2904 
Q 2513 3109 2513 3406 
Q 2513 3716 2298 3927 
Q 2084 4138 1766 4138 
Q 1444 4138 1231 3931 
Q 1019 3725 1019 3438 
z
M 838 1322 
Q 838 1081 952 856 
Q 1066 631 1291 507 
Q 1516 384 1775 384 
Q 2178 384 2440 643 
Q 2703 903 2703 1303 
Q 2703 1709 2433 1975 
Q 2163 2241 1756 2241 
Q 1359 2241 1098 1978 
Q 838 1716 838 1322 
z
" id="ArialMT-38" transform="scale(0.015625)"/>
      </defs>
      <use xlink:href="#ArialMT-38"/>
     </g>
    </g>
   </g>
  </g>
 </g>
 <defs>
  <clipPath id="pff5f157101">
   <rect height="221.76" width="558" x="90" y="34.56"/>
  </clipPath>
 </defs>
</svg>
