<?xml version="1.0" encoding="utf-8" standalone="no"?>
<!DOCTYPE svg PUBLIC "-//W3C//DTD SVG 1.1//EN"
  "http://www.w3.org/Graphics/SVG/1.1/DTD/svg11.dtd">
<svg height="288pt" version="1.1" viewBox="0 0 720 288" width="720pt" xmlns="http://www.w3.org/2000/svg" xmlns:xlink="http://www.w3.org/1999/xlink">
 <metadata>
  <rdf:RDF xmlns:cc="http://creativecommons.org/ns#" xmlns:dc="http://purl.org/dc/elements/1.1/" xmlns:rdf="http://www.w3.org/1999/02/22-rdf-syntax-ns#">
   <cc:Work>
    <dc:type rdf:resource="http://purl.org/dc/dcmitype/StillImage"/>
    <dc:date>2021-04-25T11:38:26.556182</dc:date>
    <dc:format>image/svg+xml</dc:format>
    <dc:creator>
     <cc:Agent>
      <dc:title>Matplotlib v3.4.1, https://matplotlib.org/</dc:title>
     </cc:Agent>
    </dc:creator>
   </cc:Work>
  </rdf:RDF>
 </metadata>
 <defs>
  <style type="text/css">*{stroke-linecap:butt;stroke-linejoin:round;}</style>
 </defs>
 <g id="figure_1">
  <g id="patch_1">
   <path d="M 0 288 
L 720 288 
L 720 0 
L 0 0 
z
" style="fill:#ffffff;"/>
  </g>
  <g id="axes_1">
   <g id="patch_2">
    <path d="M 90 256.32 
L 648 256.32 
L 648 34.56 
L 90 34.56 
z
" style="fill:#ffffff;"/>
   </g>
   <g id="matplotlib.axis_1">
    <g id="xtick_1">
     <g id="line2d_1">
      <path clip-path="url(#p41b7e44c21)" d="M 107.66842 256.32 
L 107.66842 34.56 
" style="fill:none;stroke:#cccccc;stroke-linecap:round;stroke-width:0.8;"/>
     </g>
     <g id="text_1">
      <!-- $\mathdefault{10^{3}}$ -->
      <g style="fill:#262626;" transform="translate(99.81842 273.6325)scale(0.1 -0.1)">
       <defs>
        <path d="M 2384 0 
L 1822 0 
L 1822 3584 
Q 1619 3391 1289 3197 
Q 959 3003 697 2906 
L 697 3450 
Q 1169 3672 1522 3987 
Q 1875 4303 2022 4600 
L 2384 4600 
L 2384 0 
z
" id="ArialMT-31" transform="scale(0.015625)"/>
        <path d="M 266 2259 
Q 266 3072 433 3567 
Q 600 4063 929 4331 
Q 1259 4600 1759 4600 
Q 2128 4600 2406 4451 
Q 2684 4303 2865 4023 
Q 3047 3744 3150 3342 
Q 3253 2941 3253 2259 
Q 3253 1453 3087 958 
Q 2922 463 2592 192 
Q 2263 -78 1759 -78 
Q 1097 -78 719 397 
Q 266 969 266 2259 
z
M 844 2259 
Q 844 1131 1108 757 
Q 1372 384 1759 384 
Q 2147 384 2411 759 
Q 2675 1134 2675 2259 
Q 2675 3391 2411 3762 
Q 2147 4134 1753 4134 
Q 1366 4134 1134 3806 
Q 844 3388 844 2259 
z
" id="ArialMT-30" transform="scale(0.015625)"/>
        <path d="M 269 1209 
L 831 1284 
Q 928 806 1161 595 
Q 1394 384 1728 384 
Q 2125 384 2398 659 
Q 2672 934 2672 1341 
Q 2672 1728 2419 1979 
Q 2166 2231 1775 2231 
Q 1616 2231 1378 2169 
L 1441 2663 
Q 1497 2656 1531 2656 
Q 1891 2656 2178 2843 
Q 2466 3031 2466 3422 
Q 2466 3731 2256 3934 
Q 2047 4138 1716 4138 
Q 1388 4138 1169 3931 
Q 950 3725 888 3313 
L 325 3413 
Q 428 3978 793 4289 
Q 1159 4600 1703 4600 
Q 2078 4600 2393 4439 
Q 2709 4278 2876 4000 
Q 3044 3722 3044 3409 
Q 3044 3113 2884 2869 
Q 2725 2625 2413 2481 
Q 2819 2388 3044 2092 
Q 3269 1797 3269 1353 
Q 3269 753 2831 336 
Q 2394 -81 1725 -81 
Q 1122 -81 723 278 
Q 325 638 269 1209 
z
" id="ArialMT-33" transform="scale(0.015625)"/>
       </defs>
       <use transform="translate(0 0.99375)" xlink:href="#ArialMT-31"/>
       <use transform="translate(55.615234 0.99375)" xlink:href="#ArialMT-30"/>
       <use transform="translate(112.972813 70.6875)scale(0.7)" xlink:href="#ArialMT-33"/>
      </g>
     </g>
    </g>
    <g id="xtick_2">
     <g id="line2d_2">
      <path clip-path="url(#p41b7e44c21)" d="M 277.454628 256.32 
L 277.454628 34.56 
" style="fill:none;stroke:#cccccc;stroke-linecap:round;stroke-width:0.8;"/>
     </g>
     <g id="text_2">
      <!-- $\mathdefault{10^{4}}$ -->
      <g style="fill:#262626;" transform="translate(269.604628 273.5325)scale(0.1 -0.1)">
       <defs>
        <path d="M 2069 0 
L 2069 1097 
L 81 1097 
L 81 1613 
L 2172 4581 
L 2631 4581 
L 2631 1613 
L 3250 1613 
L 3250 1097 
L 2631 1097 
L 2631 0 
L 2069 0 
z
M 2069 1613 
L 2069 3678 
L 634 1613 
L 2069 1613 
z
" id="ArialMT-34" transform="scale(0.015625)"/>
       </defs>
       <use transform="translate(0 0.201563)" xlink:href="#ArialMT-31"/>
       <use transform="translate(55.615234 0.201563)" xlink:href="#ArialMT-30"/>
       <use transform="translate(112.972813 69.895313)scale(0.7)" xlink:href="#ArialMT-34"/>
      </g>
     </g>
    </g>
    <g id="xtick_3">
     <g id="line2d_3">
      <path clip-path="url(#p41b7e44c21)" d="M 447.240836 256.32 
L 447.240836 34.56 
" style="fill:none;stroke:#cccccc;stroke-linecap:round;stroke-width:0.8;"/>
     </g>
     <g id="text_3">
      <!-- $\mathdefault{10^{5}}$ -->
      <g style="fill:#262626;" transform="translate(439.390836 273.5325)scale(0.1 -0.1)">
       <defs>
        <path d="M 266 1200 
L 856 1250 
Q 922 819 1161 601 
Q 1400 384 1738 384 
Q 2144 384 2425 690 
Q 2706 997 2706 1503 
Q 2706 1984 2436 2262 
Q 2166 2541 1728 2541 
Q 1456 2541 1237 2417 
Q 1019 2294 894 2097 
L 366 2166 
L 809 4519 
L 3088 4519 
L 3088 3981 
L 1259 3981 
L 1013 2750 
Q 1425 3038 1878 3038 
Q 2478 3038 2890 2622 
Q 3303 2206 3303 1553 
Q 3303 931 2941 478 
Q 2500 -78 1738 -78 
Q 1113 -78 717 272 
Q 322 622 266 1200 
z
" id="ArialMT-35" transform="scale(0.015625)"/>
       </defs>
       <use transform="translate(0 0.879688)" xlink:href="#ArialMT-31"/>
       <use transform="translate(55.615234 0.879688)" xlink:href="#ArialMT-30"/>
       <use transform="translate(112.972813 70.573438)scale(0.7)" xlink:href="#ArialMT-35"/>
      </g>
     </g>
    </g>
    <g id="xtick_4">
     <g id="line2d_4">
      <path clip-path="url(#p41b7e44c21)" d="M 617.027044 256.32 
L 617.027044 34.56 
" style="fill:none;stroke:#cccccc;stroke-linecap:round;stroke-width:0.8;"/>
     </g>
     <g id="text_4">
      <!-- $\mathdefault{10^{6}}$ -->
      <g style="fill:#262626;" transform="translate(609.177044 273.6325)scale(0.1 -0.1)">
       <defs>
        <path d="M 3184 3459 
L 2625 3416 
Q 2550 3747 2413 3897 
Q 2184 4138 1850 4138 
Q 1581 4138 1378 3988 
Q 1113 3794 959 3422 
Q 806 3050 800 2363 
Q 1003 2672 1297 2822 
Q 1591 2972 1913 2972 
Q 2475 2972 2870 2558 
Q 3266 2144 3266 1488 
Q 3266 1056 3080 686 
Q 2894 316 2569 119 
Q 2244 -78 1831 -78 
Q 1128 -78 684 439 
Q 241 956 241 2144 
Q 241 3472 731 4075 
Q 1159 4600 1884 4600 
Q 2425 4600 2770 4297 
Q 3116 3994 3184 3459 
z
M 888 1484 
Q 888 1194 1011 928 
Q 1134 663 1356 523 
Q 1578 384 1822 384 
Q 2178 384 2434 671 
Q 2691 959 2691 1453 
Q 2691 1928 2437 2201 
Q 2184 2475 1800 2475 
Q 1419 2475 1153 2201 
Q 888 1928 888 1484 
z
" id="ArialMT-36" transform="scale(0.015625)"/>
       </defs>
       <use transform="translate(0 0.99375)" xlink:href="#ArialMT-31"/>
       <use transform="translate(55.615234 0.99375)" xlink:href="#ArialMT-30"/>
       <use transform="translate(112.972813 70.6875)scale(0.7)" xlink:href="#ArialMT-36"/>
      </g>
     </g>
    </g>
    <g id="xtick_5"/>
    <g id="xtick_6"/>
    <g id="xtick_7"/>
    <g id="xtick_8"/>
    <g id="xtick_9"/>
    <g id="xtick_10"/>
    <g id="xtick_11"/>
    <g id="xtick_12"/>
    <g id="xtick_13"/>
    <g id="xtick_14"/>
    <g id="xtick_15"/>
    <g id="xtick_16"/>
    <g id="xtick_17"/>
    <g id="xtick_18"/>
    <g id="xtick_19"/>
    <g id="xtick_20"/>
    <g id="xtick_21"/>
    <g id="xtick_22"/>
    <g id="xtick_23"/>
    <g id="xtick_24"/>
    <g id="xtick_25"/>
    <g id="xtick_26"/>
    <g id="xtick_27"/>
    <g id="xtick_28"/>
    <g id="xtick_29"/>
    <g id="xtick_30"/>
    <g id="text_5">
     <!-- Number Triples -->
     <g style="fill:#262626;" transform="translate(335.102344 286.777812)scale(0.1 -0.1)">
      <defs>
       <path d="M 488 0 
L 488 4581 
L 1109 4581 
L 3516 984 
L 3516 4581 
L 4097 4581 
L 4097 0 
L 3475 0 
L 1069 3600 
L 1069 0 
L 488 0 
z
" id="ArialMT-4e" transform="scale(0.015625)"/>
       <path d="M 2597 0 
L 2597 488 
Q 2209 -75 1544 -75 
Q 1250 -75 995 37 
Q 741 150 617 320 
Q 494 491 444 738 
Q 409 903 409 1263 
L 409 3319 
L 972 3319 
L 972 1478 
Q 972 1038 1006 884 
Q 1059 663 1231 536 
Q 1403 409 1656 409 
Q 1909 409 2131 539 
Q 2353 669 2445 892 
Q 2538 1116 2538 1541 
L 2538 3319 
L 3100 3319 
L 3100 0 
L 2597 0 
z
" id="ArialMT-75" transform="scale(0.015625)"/>
       <path d="M 422 0 
L 422 3319 
L 925 3319 
L 925 2853 
Q 1081 3097 1340 3245 
Q 1600 3394 1931 3394 
Q 2300 3394 2536 3241 
Q 2772 3088 2869 2813 
Q 3263 3394 3894 3394 
Q 4388 3394 4653 3120 
Q 4919 2847 4919 2278 
L 4919 0 
L 4359 0 
L 4359 2091 
Q 4359 2428 4304 2576 
Q 4250 2725 4106 2815 
Q 3963 2906 3769 2906 
Q 3419 2906 3187 2673 
Q 2956 2441 2956 1928 
L 2956 0 
L 2394 0 
L 2394 2156 
Q 2394 2531 2256 2718 
Q 2119 2906 1806 2906 
Q 1569 2906 1367 2781 
Q 1166 2656 1075 2415 
Q 984 2175 984 1722 
L 984 0 
L 422 0 
z
" id="ArialMT-6d" transform="scale(0.015625)"/>
       <path d="M 941 0 
L 419 0 
L 419 4581 
L 981 4581 
L 981 2947 
Q 1338 3394 1891 3394 
Q 2197 3394 2470 3270 
Q 2744 3147 2920 2923 
Q 3097 2700 3197 2384 
Q 3297 2069 3297 1709 
Q 3297 856 2875 390 
Q 2453 -75 1863 -75 
Q 1275 -75 941 416 
L 941 0 
z
M 934 1684 
Q 934 1088 1097 822 
Q 1363 388 1816 388 
Q 2184 388 2453 708 
Q 2722 1028 2722 1663 
Q 2722 2313 2464 2622 
Q 2206 2931 1841 2931 
Q 1472 2931 1203 2611 
Q 934 2291 934 1684 
z
" id="ArialMT-62" transform="scale(0.015625)"/>
       <path d="M 2694 1069 
L 3275 997 
Q 3138 488 2766 206 
Q 2394 -75 1816 -75 
Q 1088 -75 661 373 
Q 234 822 234 1631 
Q 234 2469 665 2931 
Q 1097 3394 1784 3394 
Q 2450 3394 2872 2941 
Q 3294 2488 3294 1666 
Q 3294 1616 3291 1516 
L 816 1516 
Q 847 969 1125 678 
Q 1403 388 1819 388 
Q 2128 388 2347 550 
Q 2566 713 2694 1069 
z
M 847 1978 
L 2700 1978 
Q 2663 2397 2488 2606 
Q 2219 2931 1791 2931 
Q 1403 2931 1139 2672 
Q 875 2413 847 1978 
z
" id="ArialMT-65" transform="scale(0.015625)"/>
       <path d="M 416 0 
L 416 3319 
L 922 3319 
L 922 2816 
Q 1116 3169 1280 3281 
Q 1444 3394 1641 3394 
Q 1925 3394 2219 3213 
L 2025 2691 
Q 1819 2813 1613 2813 
Q 1428 2813 1281 2702 
Q 1134 2591 1072 2394 
Q 978 2094 978 1738 
L 978 0 
L 416 0 
z
" id="ArialMT-72" transform="scale(0.015625)"/>
       <path id="ArialMT-20" transform="scale(0.015625)"/>
       <path d="M 1659 0 
L 1659 4041 
L 150 4041 
L 150 4581 
L 3781 4581 
L 3781 4041 
L 2266 4041 
L 2266 0 
L 1659 0 
z
" id="ArialMT-54" transform="scale(0.015625)"/>
       <path d="M 425 3934 
L 425 4581 
L 988 4581 
L 988 3934 
L 425 3934 
z
M 425 0 
L 425 3319 
L 988 3319 
L 988 0 
L 425 0 
z
" id="ArialMT-69" transform="scale(0.015625)"/>
       <path d="M 422 -1272 
L 422 3319 
L 934 3319 
L 934 2888 
Q 1116 3141 1344 3267 
Q 1572 3394 1897 3394 
Q 2322 3394 2647 3175 
Q 2972 2956 3137 2557 
Q 3303 2159 3303 1684 
Q 3303 1175 3120 767 
Q 2938 359 2589 142 
Q 2241 -75 1856 -75 
Q 1575 -75 1351 44 
Q 1128 163 984 344 
L 984 -1272 
L 422 -1272 
z
M 931 1641 
Q 931 1000 1190 694 
Q 1450 388 1819 388 
Q 2194 388 2461 705 
Q 2728 1022 2728 1688 
Q 2728 2322 2467 2637 
Q 2206 2953 1844 2953 
Q 1484 2953 1207 2617 
Q 931 2281 931 1641 
z
" id="ArialMT-70" transform="scale(0.015625)"/>
       <path d="M 409 0 
L 409 4581 
L 972 4581 
L 972 0 
L 409 0 
z
" id="ArialMT-6c" transform="scale(0.015625)"/>
       <path d="M 197 991 
L 753 1078 
Q 800 744 1014 566 
Q 1228 388 1613 388 
Q 2000 388 2187 545 
Q 2375 703 2375 916 
Q 2375 1106 2209 1216 
Q 2094 1291 1634 1406 
Q 1016 1563 777 1677 
Q 538 1791 414 1992 
Q 291 2194 291 2438 
Q 291 2659 392 2848 
Q 494 3038 669 3163 
Q 800 3259 1026 3326 
Q 1253 3394 1513 3394 
Q 1903 3394 2198 3281 
Q 2494 3169 2634 2976 
Q 2775 2784 2828 2463 
L 2278 2388 
Q 2241 2644 2061 2787 
Q 1881 2931 1553 2931 
Q 1166 2931 1000 2803 
Q 834 2675 834 2503 
Q 834 2394 903 2306 
Q 972 2216 1119 2156 
Q 1203 2125 1616 2013 
Q 2213 1853 2448 1751 
Q 2684 1650 2818 1456 
Q 2953 1263 2953 975 
Q 2953 694 2789 445 
Q 2625 197 2315 61 
Q 2006 -75 1616 -75 
Q 969 -75 630 194 
Q 291 463 197 991 
z
" id="ArialMT-73" transform="scale(0.015625)"/>
      </defs>
      <use xlink:href="#ArialMT-4e"/>
      <use x="72.216797" xlink:href="#ArialMT-75"/>
      <use x="127.832031" xlink:href="#ArialMT-6d"/>
      <use x="211.132812" xlink:href="#ArialMT-62"/>
      <use x="266.748047" xlink:href="#ArialMT-65"/>
      <use x="322.363281" xlink:href="#ArialMT-72"/>
      <use x="355.664062" xlink:href="#ArialMT-20"/>
      <use x="381.697266" xlink:href="#ArialMT-54"/>
      <use x="439.03125" xlink:href="#ArialMT-72"/>
      <use x="472.332031" xlink:href="#ArialMT-69"/>
      <use x="494.548828" xlink:href="#ArialMT-70"/>
      <use x="550.164062" xlink:href="#ArialMT-6c"/>
      <use x="572.380859" xlink:href="#ArialMT-65"/>
      <use x="627.996094" xlink:href="#ArialMT-73"/>
     </g>
    </g>
   </g>
   <g id="matplotlib.axis_2">
    <g id="ytick_1">
     <g id="line2d_5">
      <path clip-path="url(#p41b7e44c21)" d="M 90 234.550668 
L 648 234.550668 
" style="fill:none;stroke:#cccccc;stroke-linecap:round;stroke-width:0.8;"/>
     </g>
     <g id="text_6">
      <!-- $\mathdefault{10^{-4}}$ -->
      <g style="fill:#262626;" transform="translate(63.2 239.656918)scale(0.1 -0.1)">
       <defs>
        <path d="M 3381 1997 
L 356 1997 
L 356 2522 
L 3381 2522 
L 3381 1997 
z
" id="ArialMT-2212" transform="scale(0.015625)"/>
       </defs>
       <use transform="translate(0 0.201563)" xlink:href="#ArialMT-31"/>
       <use transform="translate(55.615234 0.201563)" xlink:href="#ArialMT-30"/>
       <use transform="translate(112.972813 69.895313)scale(0.7)" xlink:href="#ArialMT-2212"/>
       <use transform="translate(153.851719 69.895313)scale(0.7)" xlink:href="#ArialMT-34"/>
      </g>
     </g>
    </g>
    <g id="ytick_2">
     <g id="line2d_6">
      <path clip-path="url(#p41b7e44c21)" d="M 90 184.136636 
L 648 184.136636 
" style="fill:none;stroke:#cccccc;stroke-linecap:round;stroke-width:0.8;"/>
     </g>
     <g id="text_7">
      <!-- $\mathdefault{10^{-3}}$ -->
      <g style="fill:#262626;" transform="translate(63.2 189.292886)scale(0.1 -0.1)">
       <use transform="translate(0 0.99375)" xlink:href="#ArialMT-31"/>
       <use transform="translate(55.615234 0.99375)" xlink:href="#ArialMT-30"/>
       <use transform="translate(112.972813 70.6875)scale(0.7)" xlink:href="#ArialMT-2212"/>
       <use transform="translate(153.851719 70.6875)scale(0.7)" xlink:href="#ArialMT-33"/>
      </g>
     </g>
    </g>
    <g id="ytick_3">
     <g id="line2d_7">
      <path clip-path="url(#p41b7e44c21)" d="M 90 133.722603 
L 648 133.722603 
" style="fill:none;stroke:#cccccc;stroke-linecap:round;stroke-width:0.8;"/>
     </g>
     <g id="text_8">
      <!-- $\mathdefault{10^{-2}}$ -->
      <g style="fill:#262626;" transform="translate(63.2 138.878853)scale(0.1 -0.1)">
       <defs>
        <path d="M 3222 541 
L 3222 0 
L 194 0 
Q 188 203 259 391 
Q 375 700 629 1000 
Q 884 1300 1366 1694 
Q 2113 2306 2375 2664 
Q 2638 3022 2638 3341 
Q 2638 3675 2398 3904 
Q 2159 4134 1775 4134 
Q 1369 4134 1125 3890 
Q 881 3647 878 3216 
L 300 3275 
Q 359 3922 746 4261 
Q 1134 4600 1788 4600 
Q 2447 4600 2831 4234 
Q 3216 3869 3216 3328 
Q 3216 3053 3103 2787 
Q 2991 2522 2730 2228 
Q 2469 1934 1863 1422 
Q 1356 997 1212 845 
Q 1069 694 975 541 
L 3222 541 
z
" id="ArialMT-32" transform="scale(0.015625)"/>
       </defs>
       <use transform="translate(0 0.99375)" xlink:href="#ArialMT-31"/>
       <use transform="translate(55.615234 0.99375)" xlink:href="#ArialMT-30"/>
       <use transform="translate(112.972813 70.6875)scale(0.7)" xlink:href="#ArialMT-2212"/>
       <use transform="translate(153.851719 70.6875)scale(0.7)" xlink:href="#ArialMT-32"/>
      </g>
     </g>
    </g>
    <g id="ytick_4">
     <g id="line2d_8">
      <path clip-path="url(#p41b7e44c21)" d="M 90 83.308571 
L 648 83.308571 
" style="fill:none;stroke:#cccccc;stroke-linecap:round;stroke-width:0.8;"/>
     </g>
     <g id="text_9">
      <!-- $\mathdefault{10^{-1}}$ -->
      <g style="fill:#262626;" transform="translate(63.2 88.464821)scale(0.1 -0.1)">
       <use transform="translate(0 0.99375)" xlink:href="#ArialMT-31"/>
       <use transform="translate(55.615234 0.99375)" xlink:href="#ArialMT-30"/>
       <use transform="translate(112.972813 70.6875)scale(0.7)" xlink:href="#ArialMT-2212"/>
       <use transform="translate(153.851719 70.6875)scale(0.7)" xlink:href="#ArialMT-31"/>
      </g>
     </g>
    </g>
    <g id="ytick_5"/>
    <g id="ytick_6"/>
    <g id="ytick_7"/>
    <g id="ytick_8"/>
    <g id="ytick_9"/>
    <g id="ytick_10"/>
    <g id="ytick_11"/>
    <g id="ytick_12"/>
    <g id="ytick_13"/>
    <g id="ytick_14"/>
    <g id="ytick_15"/>
    <g id="ytick_16"/>
    <g id="ytick_17"/>
    <g id="ytick_18"/>
    <g id="ytick_19"/>
    <g id="ytick_20"/>
    <g id="ytick_21"/>
    <g id="ytick_22"/>
    <g id="ytick_23"/>
    <g id="ytick_24"/>
    <g id="ytick_25"/>
    <g id="ytick_26"/>
    <g id="ytick_27"/>
    <g id="ytick_28"/>
    <g id="ytick_29"/>
    <g id="ytick_30"/>
    <g id="ytick_31"/>
    <g id="ytick_32"/>
    <g id="ytick_33"/>
    <g id="ytick_34"/>
    <g id="ytick_35"/>
    <g id="ytick_36"/>
    <g id="ytick_37"/>
    <g id="ytick_38"/>
    <g id="ytick_39"/>
    <g id="ytick_40"/>
    <g id="ytick_41"/>
    <g id="ytick_42"/>
    <g id="text_10">
     <!-- Index Time (s) -->
     <g style="fill:#262626;" transform="translate(57.095312 177.113438)rotate(-90)scale(0.1 -0.1)">
      <defs>
       <path d="M 597 0 
L 597 4581 
L 1203 4581 
L 1203 0 
L 597 0 
z
" id="ArialMT-49" transform="scale(0.015625)"/>
       <path d="M 422 0 
L 422 3319 
L 928 3319 
L 928 2847 
Q 1294 3394 1984 3394 
Q 2284 3394 2536 3286 
Q 2788 3178 2913 3003 
Q 3038 2828 3088 2588 
Q 3119 2431 3119 2041 
L 3119 0 
L 2556 0 
L 2556 2019 
Q 2556 2363 2490 2533 
Q 2425 2703 2258 2804 
Q 2091 2906 1866 2906 
Q 1506 2906 1245 2678 
Q 984 2450 984 1813 
L 984 0 
L 422 0 
z
" id="ArialMT-6e" transform="scale(0.015625)"/>
       <path d="M 2575 0 
L 2575 419 
Q 2259 -75 1647 -75 
Q 1250 -75 917 144 
Q 584 363 401 755 
Q 219 1147 219 1656 
Q 219 2153 384 2558 
Q 550 2963 881 3178 
Q 1213 3394 1622 3394 
Q 1922 3394 2156 3267 
Q 2391 3141 2538 2938 
L 2538 4581 
L 3097 4581 
L 3097 0 
L 2575 0 
z
M 797 1656 
Q 797 1019 1065 703 
Q 1334 388 1700 388 
Q 2069 388 2326 689 
Q 2584 991 2584 1609 
Q 2584 2291 2321 2609 
Q 2059 2928 1675 2928 
Q 1300 2928 1048 2622 
Q 797 2316 797 1656 
z
" id="ArialMT-64" transform="scale(0.015625)"/>
       <path d="M 47 0 
L 1259 1725 
L 138 3319 
L 841 3319 
L 1350 2541 
Q 1494 2319 1581 2169 
Q 1719 2375 1834 2534 
L 2394 3319 
L 3066 3319 
L 1919 1756 
L 3153 0 
L 2463 0 
L 1781 1031 
L 1600 1309 
L 728 0 
L 47 0 
z
" id="ArialMT-78" transform="scale(0.015625)"/>
       <path d="M 1497 -1347 
Q 1031 -759 709 28 
Q 388 816 388 1659 
Q 388 2403 628 3084 
Q 909 3875 1497 4659 
L 1900 4659 
Q 1522 4009 1400 3731 
Q 1209 3300 1100 2831 
Q 966 2247 966 1656 
Q 966 153 1900 -1347 
L 1497 -1347 
z
" id="ArialMT-28" transform="scale(0.015625)"/>
       <path d="M 791 -1347 
L 388 -1347 
Q 1322 153 1322 1656 
Q 1322 2244 1188 2822 
Q 1081 3291 891 3722 
Q 769 4003 388 4659 
L 791 4659 
Q 1378 3875 1659 3084 
Q 1900 2403 1900 1659 
Q 1900 816 1576 28 
Q 1253 -759 791 -1347 
z
" id="ArialMT-29" transform="scale(0.015625)"/>
      </defs>
      <use xlink:href="#ArialMT-49"/>
      <use x="27.783203" xlink:href="#ArialMT-6e"/>
      <use x="83.398438" xlink:href="#ArialMT-64"/>
      <use x="139.013672" xlink:href="#ArialMT-65"/>
      <use x="194.628906" xlink:href="#ArialMT-78"/>
      <use x="244.628906" xlink:href="#ArialMT-20"/>
      <use x="270.662109" xlink:href="#ArialMT-54"/>
      <use x="327.996094" xlink:href="#ArialMT-69"/>
      <use x="350.212891" xlink:href="#ArialMT-6d"/>
      <use x="433.513672" xlink:href="#ArialMT-65"/>
      <use x="489.128906" xlink:href="#ArialMT-20"/>
      <use x="516.912109" xlink:href="#ArialMT-28"/>
      <use x="550.212891" xlink:href="#ArialMT-73"/>
      <use x="600.212891" xlink:href="#ArialMT-29"/>
     </g>
    </g>
   </g>
   <g id="PathCollection_1">
    <path clip-path="url(#p41b7e44c21)" d="M 491.335315 118.161559 
L 492.835315 116.661559 
L 494.335315 118.161559 
L 495.835315 116.661559 
L 494.335315 115.161559 
L 495.835315 113.661559 
L 494.335315 112.161559 
L 492.835315 113.661559 
L 491.335315 112.161559 
L 489.835315 113.661559 
L 491.335315 115.161559 
L 489.835315 116.661559 
z
" style="fill:#ff7f0e;fill-opacity:0.8;stroke:#ffffff;stroke-opacity:0.8;stroke-width:0.48;"/>
    <path clip-path="url(#p41b7e44c21)" d="M 491.335315 128.953134 
L 492.835315 127.453134 
L 494.335315 128.953134 
L 495.835315 127.453134 
L 494.335315 125.953134 
L 495.835315 124.453134 
L 494.335315 122.953134 
L 492.835315 124.453134 
L 491.335315 122.953134 
L 489.835315 124.453134 
L 491.335315 125.953134 
L 489.835315 127.453134 
z
" style="fill:#ff7f0e;fill-opacity:0.8;stroke:#ffffff;stroke-opacity:0.8;stroke-width:0.48;"/>
    <path clip-path="url(#p41b7e44c21)" d="M 491.335315 133.627117 
L 492.835315 132.127117 
L 494.335315 133.627117 
L 495.835315 132.127117 
L 494.335315 130.627117 
L 495.835315 129.127117 
L 494.335315 127.627117 
L 492.835315 129.127117 
L 491.335315 127.627117 
L 489.835315 129.127117 
L 491.335315 130.627117 
L 489.835315 132.127117 
z
" style="fill:#ff7f0e;fill-opacity:0.8;stroke:#ffffff;stroke-opacity:0.8;stroke-width:0.48;"/>
    <path clip-path="url(#p41b7e44c21)" d="M 491.335315 140.46377 
L 492.835315 138.96377 
L 494.335315 140.46377 
L 495.835315 138.96377 
L 494.335315 137.46377 
L 495.835315 135.96377 
L 494.335315 134.46377 
L 492.835315 135.96377 
L 491.335315 134.46377 
L 489.835315 135.96377 
L 491.335315 137.46377 
L 489.835315 138.96377 
z
" style="fill:#ff7f0e;fill-opacity:0.8;stroke:#ffffff;stroke-opacity:0.8;stroke-width:0.48;"/>
    <path clip-path="url(#p41b7e44c21)" d="M 491.335315 148.841908 
L 492.835315 147.341908 
L 494.335315 148.841908 
L 495.835315 147.341908 
L 494.335315 145.841908 
L 495.835315 144.341908 
L 494.335315 142.841908 
L 492.835315 144.341908 
L 491.335315 142.841908 
L 489.835315 144.341908 
L 491.335315 145.841908 
L 489.835315 147.341908 
z
" style="fill:#ff7f0e;fill-opacity:0.8;stroke:#ffffff;stroke-opacity:0.8;stroke-width:0.48;"/>
    <path clip-path="url(#p41b7e44c21)" d="M 491.335315 149.528825 
L 492.835315 148.028825 
L 494.335315 149.528825 
L 495.835315 148.028825 
L 494.335315 146.528825 
L 495.835315 145.028825 
L 494.335315 143.528825 
L 492.835315 145.028825 
L 491.335315 143.528825 
L 489.835315 145.028825 
L 491.335315 146.528825 
L 489.835315 148.028825 
z
" style="fill:#ff7f0e;fill-opacity:0.8;stroke:#ffffff;stroke-opacity:0.8;stroke-width:0.48;"/>
    <path clip-path="url(#p41b7e44c21)" d="M 491.335315 164.165766 
L 492.835315 162.665766 
L 494.335315 164.165766 
L 495.835315 162.665766 
L 494.335315 161.165766 
L 495.835315 159.665766 
L 494.335315 158.165766 
L 492.835315 159.665766 
L 491.335315 158.165766 
L 489.835315 159.665766 
L 491.335315 161.165766 
L 489.835315 162.665766 
z
" style="fill:#ff7f0e;fill-opacity:0.8;stroke:#ffffff;stroke-opacity:0.8;stroke-width:0.48;"/>
    <path clip-path="url(#p41b7e44c21)" d="M 491.335315 110.373455 
L 492.835315 108.873455 
L 494.335315 110.373455 
L 495.835315 108.873455 
L 494.335315 107.373455 
L 495.835315 105.873455 
L 494.335315 104.373455 
L 492.835315 105.873455 
L 491.335315 104.373455 
L 489.835315 105.873455 
L 491.335315 107.373455 
L 489.835315 108.873455 
z
" style="fill:#ff7f0e;fill-opacity:0.8;stroke:#ffffff;stroke-opacity:0.8;stroke-width:0.48;"/>
    <path clip-path="url(#p41b7e44c21)" d="M 519.555812 116.037377 
L 521.055812 114.537377 
L 522.555812 116.037377 
L 524.055812 114.537377 
L 522.555812 113.037377 
L 524.055812 111.537377 
L 522.555812 110.037377 
L 521.055812 111.537377 
L 519.555812 110.037377 
L 518.055812 111.537377 
L 519.555812 113.037377 
L 518.055812 114.537377 
z
" style="fill:#ff7f0e;fill-opacity:0.8;stroke:#ffffff;stroke-opacity:0.8;stroke-width:0.48;"/>
    <path clip-path="url(#p41b7e44c21)" d="M 519.555812 122.872092 
L 521.055812 121.372092 
L 522.555812 122.872092 
L 524.055812 121.372092 
L 522.555812 119.872092 
L 524.055812 118.372092 
L 522.555812 116.872092 
L 521.055812 118.372092 
L 519.555812 116.872092 
L 518.055812 118.372092 
L 519.555812 119.872092 
L 518.055812 121.372092 
z
" style="fill:#ff7f0e;fill-opacity:0.8;stroke:#ffffff;stroke-opacity:0.8;stroke-width:0.48;"/>
    <path clip-path="url(#p41b7e44c21)" d="M 519.555812 136.963674 
L 521.055812 135.463674 
L 522.555812 136.963674 
L 524.055812 135.463674 
L 522.555812 133.963674 
L 524.055812 132.463674 
L 522.555812 130.963674 
L 521.055812 132.463674 
L 519.555812 130.963674 
L 518.055812 132.463674 
L 519.555812 133.963674 
L 518.055812 135.463674 
z
" style="fill:#ff7f0e;fill-opacity:0.8;stroke:#ffffff;stroke-opacity:0.8;stroke-width:0.48;"/>
    <path clip-path="url(#p41b7e44c21)" d="M 471.30697 101.371831 
L 472.80697 99.871831 
L 474.30697 101.371831 
L 475.80697 99.871831 
L 474.30697 98.371831 
L 475.80697 96.871831 
L 474.30697 95.371831 
L 472.80697 96.871831 
L 471.30697 95.371831 
L 469.80697 96.871831 
L 471.30697 98.371831 
L 469.80697 99.871831 
z
" style="fill:#ff7f0e;fill-opacity:0.8;stroke:#ffffff;stroke-opacity:0.8;stroke-width:0.48;"/>
    <path clip-path="url(#p41b7e44c21)" d="M 519.555812 151.672912 
L 521.055812 150.172912 
L 522.555812 151.672912 
L 524.055812 150.172912 
L 522.555812 148.672912 
L 524.055812 147.172912 
L 522.555812 145.672912 
L 521.055812 147.172912 
L 519.555812 145.672912 
L 518.055812 147.172912 
L 519.555812 148.672912 
L 518.055812 150.172912 
z
" style="fill:#ff7f0e;fill-opacity:0.8;stroke:#ffffff;stroke-opacity:0.8;stroke-width:0.48;"/>
    <path clip-path="url(#p41b7e44c21)" d="M 491.335315 100.457097 
L 492.835315 98.957097 
L 494.335315 100.457097 
L 495.835315 98.957097 
L 494.335315 97.457097 
L 495.835315 95.957097 
L 494.335315 94.457097 
L 492.835315 95.957097 
L 491.335315 94.457097 
L 489.835315 95.957097 
L 491.335315 97.457097 
L 489.835315 98.957097 
z
" style="fill:#ff7f0e;fill-opacity:0.8;stroke:#ffffff;stroke-opacity:0.8;stroke-width:0.48;"/>
    <path clip-path="url(#p41b7e44c21)" d="M 491.335315 103.956478 
L 492.835315 102.456478 
L 494.335315 103.956478 
L 495.835315 102.456478 
L 494.335315 100.956478 
L 495.835315 99.456478 
L 494.335315 97.956478 
L 492.835315 99.456478 
L 491.335315 97.956478 
L 489.835315 99.456478 
L 491.335315 100.956478 
L 489.835315 102.456478 
z
" style="fill:#ff7f0e;fill-opacity:0.8;stroke:#ffffff;stroke-opacity:0.8;stroke-width:0.48;"/>
    <path clip-path="url(#p41b7e44c21)" d="M 519.555812 132.021598 
L 521.055812 130.521598 
L 522.555812 132.021598 
L 524.055812 130.521598 
L 522.555812 129.021598 
L 524.055812 127.521598 
L 522.555812 126.021598 
L 521.055812 127.521598 
L 519.555812 126.021598 
L 518.055812 127.521598 
L 519.555812 129.021598 
L 518.055812 130.521598 
z
" style="fill:#ff7f0e;fill-opacity:0.8;stroke:#ffffff;stroke-opacity:0.8;stroke-width:0.48;"/>
    <path clip-path="url(#p41b7e44c21)" d="M 471.30697 103.3021 
L 472.80697 101.8021 
L 474.30697 103.3021 
L 475.80697 101.8021 
L 474.30697 100.3021 
L 475.80697 98.8021 
L 474.30697 97.3021 
L 472.80697 98.8021 
L 471.30697 97.3021 
L 469.80697 98.8021 
L 471.30697 100.3021 
L 469.80697 101.8021 
z
" style="fill:#ff7f0e;fill-opacity:0.8;stroke:#ffffff;stroke-opacity:0.8;stroke-width:0.48;"/>
    <path clip-path="url(#p41b7e44c21)" d="M 435.33206 116.156004 
L 436.83206 114.656004 
L 438.33206 116.156004 
L 439.83206 114.656004 
L 438.33206 113.156004 
L 439.83206 111.656004 
L 438.33206 110.156004 
L 436.83206 111.656004 
L 435.33206 110.156004 
L 433.83206 111.656004 
L 435.33206 113.156004 
L 433.83206 114.656004 
z
" style="fill:#ff7f0e;fill-opacity:0.8;stroke:#ffffff;stroke-opacity:0.8;stroke-width:0.48;"/>
    <path clip-path="url(#p41b7e44c21)" d="M 435.33206 120.365845 
L 436.83206 118.865845 
L 438.33206 120.365845 
L 439.83206 118.865845 
L 438.33206 117.365845 
L 439.83206 115.865845 
L 438.33206 114.365845 
L 436.83206 115.865845 
L 435.33206 114.365845 
L 433.83206 115.865845 
L 435.33206 117.365845 
L 433.83206 118.865845 
z
" style="fill:#ff7f0e;fill-opacity:0.8;stroke:#ffffff;stroke-opacity:0.8;stroke-width:0.48;"/>
    <path clip-path="url(#p41b7e44c21)" d="M 435.33206 120.399342 
L 436.83206 118.899342 
L 438.33206 120.399342 
L 439.83206 118.899342 
L 438.33206 117.399342 
L 439.83206 115.899342 
L 438.33206 114.399342 
L 436.83206 115.899342 
L 435.33206 114.399342 
L 433.83206 115.899342 
L 435.33206 117.399342 
L 433.83206 118.899342 
z
" style="fill:#ff7f0e;fill-opacity:0.8;stroke:#ffffff;stroke-opacity:0.8;stroke-width:0.48;"/>
    <path clip-path="url(#p41b7e44c21)" d="M 435.33206 134.53231 
L 436.83206 133.03231 
L 438.33206 134.53231 
L 439.83206 133.03231 
L 438.33206 131.53231 
L 439.83206 130.03231 
L 438.33206 128.53231 
L 436.83206 130.03231 
L 435.33206 128.53231 
L 433.83206 130.03231 
L 435.33206 131.53231 
L 433.83206 133.03231 
z
" style="fill:#ff7f0e;fill-opacity:0.8;stroke:#ffffff;stroke-opacity:0.8;stroke-width:0.48;"/>
    <path clip-path="url(#p41b7e44c21)" d="M 435.33206 143.449024 
L 436.83206 141.949024 
L 438.33206 143.449024 
L 439.83206 141.949024 
L 438.33206 140.449024 
L 439.83206 138.949024 
L 438.33206 137.449024 
L 436.83206 138.949024 
L 435.33206 137.449024 
L 433.83206 138.949024 
L 435.33206 140.449024 
L 433.83206 141.949024 
z
" style="fill:#ff7f0e;fill-opacity:0.8;stroke:#ffffff;stroke-opacity:0.8;stroke-width:0.48;"/>
    <path clip-path="url(#p41b7e44c21)" d="M 435.33206 150.766571 
L 436.83206 149.266571 
L 438.33206 150.766571 
L 439.83206 149.266571 
L 438.33206 147.766571 
L 439.83206 146.266571 
L 438.33206 144.766571 
L 436.83206 146.266571 
L 435.33206 144.766571 
L 433.83206 146.266571 
L 435.33206 147.766571 
L 433.83206 149.266571 
z
" style="fill:#ff7f0e;fill-opacity:0.8;stroke:#ffffff;stroke-opacity:0.8;stroke-width:0.48;"/>
    <path clip-path="url(#p41b7e44c21)" d="M 435.33206 157.646635 
L 436.83206 156.146635 
L 438.33206 157.646635 
L 439.83206 156.146635 
L 438.33206 154.646635 
L 439.83206 153.146635 
L 438.33206 151.646635 
L 436.83206 153.146635 
L 435.33206 151.646635 
L 433.83206 153.146635 
L 435.33206 154.646635 
L 433.83206 156.146635 
z
" style="fill:#ff7f0e;fill-opacity:0.8;stroke:#ffffff;stroke-opacity:0.8;stroke-width:0.48;"/>
    <path clip-path="url(#p41b7e44c21)" d="M 435.33206 162.907871 
L 436.83206 161.407871 
L 438.33206 162.907871 
L 439.83206 161.407871 
L 438.33206 159.907871 
L 439.83206 158.407871 
L 438.33206 156.907871 
L 436.83206 158.407871 
L 435.33206 156.907871 
L 433.83206 158.407871 
L 435.33206 159.907871 
L 433.83206 161.407871 
z
" style="fill:#ff7f0e;fill-opacity:0.8;stroke:#ffffff;stroke-opacity:0.8;stroke-width:0.48;"/>
    <path clip-path="url(#p41b7e44c21)" d="M 519.555812 111.551227 
L 521.055812 110.051227 
L 522.555812 111.551227 
L 524.055812 110.051227 
L 522.555812 108.551227 
L 524.055812 107.051227 
L 522.555812 105.551227 
L 521.055812 107.051227 
L 519.555812 105.551227 
L 518.055812 107.051227 
L 519.555812 108.551227 
L 518.055812 110.051227 
z
" style="fill:#ff7f0e;fill-opacity:0.8;stroke:#ffffff;stroke-opacity:0.8;stroke-width:0.48;"/>
    <path clip-path="url(#p41b7e44c21)" d="M 471.30697 116.779136 
L 472.80697 115.279136 
L 474.30697 116.779136 
L 475.80697 115.279136 
L 474.30697 113.779136 
L 475.80697 112.279136 
L 474.30697 110.779136 
L 472.80697 112.279136 
L 471.30697 110.779136 
L 469.80697 112.279136 
L 471.30697 113.779136 
L 469.80697 115.279136 
z
" style="fill:#ff7f0e;fill-opacity:0.8;stroke:#ffffff;stroke-opacity:0.8;stroke-width:0.48;"/>
    <path clip-path="url(#p41b7e44c21)" d="M 471.30697 122.780216 
L 472.80697 121.280216 
L 474.30697 122.780216 
L 475.80697 121.280216 
L 474.30697 119.780216 
L 475.80697 118.280216 
L 474.30697 116.780216 
L 472.80697 118.280216 
L 471.30697 116.780216 
L 469.80697 118.280216 
L 471.30697 119.780216 
L 469.80697 121.280216 
z
" style="fill:#ff7f0e;fill-opacity:0.8;stroke:#ffffff;stroke-opacity:0.8;stroke-width:0.48;"/>
    <path clip-path="url(#p41b7e44c21)" d="M 471.30697 134.342372 
L 472.80697 132.842372 
L 474.30697 134.342372 
L 475.80697 132.842372 
L 474.30697 131.342372 
L 475.80697 129.842372 
L 474.30697 128.342372 
L 472.80697 129.842372 
L 471.30697 128.342372 
L 469.80697 129.842372 
L 471.30697 131.342372 
L 469.80697 132.842372 
z
" style="fill:#ff7f0e;fill-opacity:0.8;stroke:#ffffff;stroke-opacity:0.8;stroke-width:0.48;"/>
    <path clip-path="url(#p41b7e44c21)" d="M 471.30697 169.248612 
L 472.80697 167.748612 
L 474.30697 169.248612 
L 475.80697 167.748612 
L 474.30697 166.248612 
L 475.80697 164.748612 
L 474.30697 163.248612 
L 472.80697 164.748612 
L 471.30697 163.248612 
L 469.80697 164.748612 
L 471.30697 166.248612 
L 469.80697 167.748612 
z
" style="fill:#ff7f0e;fill-opacity:0.8;stroke:#ffffff;stroke-opacity:0.8;stroke-width:0.48;"/>
    <path clip-path="url(#p41b7e44c21)" d="M 471.30697 145.482678 
L 472.80697 143.982678 
L 474.30697 145.482678 
L 475.80697 143.982678 
L 474.30697 142.482678 
L 475.80697 140.982678 
L 474.30697 139.482678 
L 472.80697 140.982678 
L 471.30697 139.482678 
L 469.80697 140.982678 
L 471.30697 142.482678 
L 469.80697 143.982678 
z
" style="fill:#ff7f0e;fill-opacity:0.8;stroke:#ffffff;stroke-opacity:0.8;stroke-width:0.48;"/>
    <path clip-path="url(#p41b7e44c21)" d="M 471.30697 153.764326 
L 472.80697 152.264326 
L 474.30697 153.764326 
L 475.80697 152.264326 
L 474.30697 150.764326 
L 475.80697 149.264326 
L 474.30697 147.764326 
L 472.80697 149.264326 
L 471.30697 147.764326 
L 469.80697 149.264326 
L 471.30697 150.764326 
L 469.80697 152.264326 
z
" style="fill:#ff7f0e;fill-opacity:0.8;stroke:#ffffff;stroke-opacity:0.8;stroke-width:0.48;"/>
    <path clip-path="url(#p41b7e44c21)" d="M 471.30697 153.586687 
L 472.80697 152.086687 
L 474.30697 153.586687 
L 475.80697 152.086687 
L 474.30697 150.586687 
L 475.80697 149.086687 
L 474.30697 147.586687 
L 472.80697 149.086687 
L 471.30697 147.586687 
L 469.80697 149.086687 
L 471.30697 150.586687 
L 469.80697 152.086687 
z
" style="fill:#ff7f0e;fill-opacity:0.8;stroke:#ffffff;stroke-opacity:0.8;stroke-width:0.48;"/>
    <path clip-path="url(#p41b7e44c21)" d="M 471.30697 137.43911 
L 472.80697 135.93911 
L 474.30697 137.43911 
L 475.80697 135.93911 
L 474.30697 134.43911 
L 475.80697 132.93911 
L 474.30697 131.43911 
L 472.80697 132.93911 
L 471.30697 131.43911 
L 469.80697 132.93911 
L 471.30697 134.43911 
L 469.80697 135.93911 
z
" style="fill:#ff7f0e;fill-opacity:0.8;stroke:#ffffff;stroke-opacity:0.8;stroke-width:0.48;"/>
    <path clip-path="url(#p41b7e44c21)" d="M 519.555812 100.307253 
L 521.055812 98.807253 
L 522.555812 100.307253 
L 524.055812 98.807253 
L 522.555812 97.307253 
L 524.055812 95.807253 
L 522.555812 94.307253 
L 521.055812 95.807253 
L 519.555812 94.307253 
L 518.055812 95.807253 
L 519.555812 97.307253 
L 518.055812 98.807253 
z
" style="fill:#ff7f0e;fill-opacity:0.8;stroke:#ffffff;stroke-opacity:0.8;stroke-width:0.48;"/>
    <path clip-path="url(#p41b7e44c21)" d="M 621.136364 118.34947 
L 622.636364 116.84947 
L 624.136364 118.34947 
L 625.636364 116.84947 
L 624.136364 115.34947 
L 625.636364 113.84947 
L 624.136364 112.34947 
L 622.636364 113.84947 
L 621.136364 112.34947 
L 619.636364 113.84947 
L 621.136364 115.34947 
L 619.636364 116.84947 
z
" style="fill:#ff7f0e;fill-opacity:0.8;stroke:#ffffff;stroke-opacity:0.8;stroke-width:0.48;"/>
    <path clip-path="url(#p41b7e44c21)" d="M 571.603979 69.434974 
L 573.103979 67.934974 
L 574.603979 69.434974 
L 576.103979 67.934974 
L 574.603979 66.434974 
L 576.103979 64.934974 
L 574.603979 63.434974 
L 573.103979 64.934974 
L 571.603979 63.434974 
L 570.103979 64.934974 
L 571.603979 66.434974 
L 570.103979 67.934974 
z
" style="fill:#ff7f0e;fill-opacity:0.8;stroke:#ffffff;stroke-opacity:0.8;stroke-width:0.48;"/>
    <path clip-path="url(#p41b7e44c21)" d="M 571.603979 73.357063 
L 573.103979 71.857063 
L 574.603979 73.357063 
L 576.103979 71.857063 
L 574.603979 70.357063 
L 576.103979 68.857063 
L 574.603979 67.357063 
L 573.103979 68.857063 
L 571.603979 67.357063 
L 570.103979 68.857063 
L 571.603979 70.357063 
L 570.103979 71.857063 
z
" style="fill:#ff7f0e;fill-opacity:0.8;stroke:#ffffff;stroke-opacity:0.8;stroke-width:0.48;"/>
    <path clip-path="url(#p41b7e44c21)" d="M 571.603979 75.665658 
L 573.103979 74.165658 
L 574.603979 75.665658 
L 576.103979 74.165658 
L 574.603979 72.665658 
L 576.103979 71.165658 
L 574.603979 69.665658 
L 573.103979 71.165658 
L 571.603979 69.665658 
L 570.103979 71.165658 
L 571.603979 72.665658 
L 570.103979 74.165658 
z
" style="fill:#ff7f0e;fill-opacity:0.8;stroke:#ffffff;stroke-opacity:0.8;stroke-width:0.48;"/>
    <path clip-path="url(#p41b7e44c21)" d="M 571.603979 87.22814 
L 573.103979 85.72814 
L 574.603979 87.22814 
L 576.103979 85.72814 
L 574.603979 84.22814 
L 576.103979 82.72814 
L 574.603979 81.22814 
L 573.103979 82.72814 
L 571.603979 81.22814 
L 570.103979 82.72814 
L 571.603979 84.22814 
L 570.103979 85.72814 
z
" style="fill:#ff7f0e;fill-opacity:0.8;stroke:#ffffff;stroke-opacity:0.8;stroke-width:0.48;"/>
    <path clip-path="url(#p41b7e44c21)" d="M 571.603979 98.113541 
L 573.103979 96.613541 
L 574.603979 98.113541 
L 576.103979 96.613541 
L 574.603979 95.113541 
L 576.103979 93.613541 
L 574.603979 92.113541 
L 573.103979 93.613541 
L 571.603979 92.113541 
L 570.103979 93.613541 
L 571.603979 95.113541 
L 570.103979 96.613541 
z
" style="fill:#ff7f0e;fill-opacity:0.8;stroke:#ffffff;stroke-opacity:0.8;stroke-width:0.48;"/>
    <path clip-path="url(#p41b7e44c21)" d="M 571.603979 102.140401 
L 573.103979 100.640401 
L 574.603979 102.140401 
L 576.103979 100.640401 
L 574.603979 99.140401 
L 576.103979 97.640401 
L 574.603979 96.140401 
L 573.103979 97.640401 
L 571.603979 96.140401 
L 570.103979 97.640401 
L 571.603979 99.140401 
L 570.103979 100.640401 
z
" style="fill:#ff7f0e;fill-opacity:0.8;stroke:#ffffff;stroke-opacity:0.8;stroke-width:0.48;"/>
    <path clip-path="url(#p41b7e44c21)" d="M 621.136364 100.512546 
L 622.636364 99.012546 
L 624.136364 100.512546 
L 625.636364 99.012546 
L 624.136364 97.512546 
L 625.636364 96.012546 
L 624.136364 94.512546 
L 622.636364 96.012546 
L 621.136364 94.512546 
L 619.636364 96.012546 
L 621.136364 97.512546 
L 619.636364 99.012546 
z
" style="fill:#ff7f0e;fill-opacity:0.8;stroke:#ffffff;stroke-opacity:0.8;stroke-width:0.48;"/>
    <path clip-path="url(#p41b7e44c21)" d="M 621.136364 48.646258 
L 622.636364 47.146258 
L 624.136364 48.646258 
L 625.636364 47.146258 
L 624.136364 45.646258 
L 625.636364 44.146258 
L 624.136364 42.646258 
L 622.636364 44.146258 
L 621.136364 42.646258 
L 619.636364 44.146258 
L 621.136364 45.646258 
L 619.636364 47.146258 
z
" style="fill:#ff7f0e;fill-opacity:0.8;stroke:#ffffff;stroke-opacity:0.8;stroke-width:0.48;"/>
    <path clip-path="url(#p41b7e44c21)" d="M 621.136364 53.179473 
L 622.636364 51.679473 
L 624.136364 53.179473 
L 625.636364 51.679473 
L 624.136364 50.179473 
L 625.636364 48.679473 
L 624.136364 47.179473 
L 622.636364 48.679473 
L 621.136364 47.179473 
L 619.636364 48.679473 
L 621.136364 50.179473 
L 619.636364 51.679473 
z
" style="fill:#ff7f0e;fill-opacity:0.8;stroke:#ffffff;stroke-opacity:0.8;stroke-width:0.48;"/>
    <path clip-path="url(#p41b7e44c21)" d="M 621.136364 59.7229 
L 622.636364 58.2229 
L 624.136364 59.7229 
L 625.636364 58.2229 
L 624.136364 56.7229 
L 625.636364 55.2229 
L 624.136364 53.7229 
L 622.636364 55.2229 
L 621.136364 53.7229 
L 619.636364 55.2229 
L 621.136364 56.7229 
L 619.636364 58.2229 
z
" style="fill:#ff7f0e;fill-opacity:0.8;stroke:#ffffff;stroke-opacity:0.8;stroke-width:0.48;"/>
    <path clip-path="url(#p41b7e44c21)" d="M 621.136364 66.385604 
L 622.636364 64.885604 
L 624.136364 66.385604 
L 625.636364 64.885604 
L 624.136364 63.385604 
L 625.636364 61.885604 
L 624.136364 60.385604 
L 622.636364 61.885604 
L 621.136364 60.385604 
L 619.636364 61.885604 
L 621.136364 63.385604 
L 619.636364 64.885604 
z
" style="fill:#ff7f0e;fill-opacity:0.8;stroke:#ffffff;stroke-opacity:0.8;stroke-width:0.48;"/>
    <path clip-path="url(#p41b7e44c21)" d="M 621.136364 77.112936 
L 622.636364 75.612936 
L 624.136364 77.112936 
L 625.636364 75.612936 
L 624.136364 74.112936 
L 625.636364 72.612936 
L 624.136364 71.112936 
L 622.636364 72.612936 
L 621.136364 71.112936 
L 619.636364 72.612936 
L 621.136364 74.112936 
L 619.636364 75.612936 
z
" style="fill:#ff7f0e;fill-opacity:0.8;stroke:#ffffff;stroke-opacity:0.8;stroke-width:0.48;"/>
    <path clip-path="url(#p41b7e44c21)" d="M 621.136364 82.846186 
L 622.636364 81.346186 
L 624.136364 82.846186 
L 625.636364 81.346186 
L 624.136364 79.846186 
L 625.636364 78.346186 
L 624.136364 76.846186 
L 622.636364 78.346186 
L 621.136364 76.846186 
L 619.636364 78.346186 
L 621.136364 79.846186 
L 619.636364 81.346186 
z
" style="fill:#ff7f0e;fill-opacity:0.8;stroke:#ffffff;stroke-opacity:0.8;stroke-width:0.48;"/>
    <path clip-path="url(#p41b7e44c21)" d="M 621.136364 87.094587 
L 622.636364 85.594587 
L 624.136364 87.094587 
L 625.636364 85.594587 
L 624.136364 84.094587 
L 625.636364 82.594587 
L 624.136364 81.094587 
L 622.636364 82.594587 
L 621.136364 81.094587 
L 619.636364 82.594587 
L 621.136364 84.094587 
L 619.636364 85.594587 
z
" style="fill:#ff7f0e;fill-opacity:0.8;stroke:#ffffff;stroke-opacity:0.8;stroke-width:0.48;"/>
    <path clip-path="url(#p41b7e44c21)" d="M 621.136364 99.984109 
L 622.636364 98.484109 
L 624.136364 99.984109 
L 625.636364 98.484109 
L 624.136364 96.984109 
L 625.636364 95.484109 
L 624.136364 93.984109 
L 622.636364 95.484109 
L 621.136364 93.984109 
L 619.636364 95.484109 
L 621.136364 96.984109 
L 619.636364 98.484109 
z
" style="fill:#ff7f0e;fill-opacity:0.8;stroke:#ffffff;stroke-opacity:0.8;stroke-width:0.48;"/>
    <path clip-path="url(#p41b7e44c21)" d="M 571.603979 111.332291 
L 573.103979 109.832291 
L 574.603979 111.332291 
L 576.103979 109.832291 
L 574.603979 108.332291 
L 576.103979 106.832291 
L 574.603979 105.332291 
L 573.103979 106.832291 
L 571.603979 105.332291 
L 570.103979 106.832291 
L 571.603979 108.332291 
L 570.103979 109.832291 
z
" style="fill:#ff7f0e;fill-opacity:0.8;stroke:#ffffff;stroke-opacity:0.8;stroke-width:0.48;"/>
    <path clip-path="url(#p41b7e44c21)" d="M 561.887301 112.491581 
L 563.387301 110.991581 
L 564.887301 112.491581 
L 566.387301 110.991581 
L 564.887301 109.491581 
L 566.387301 107.991581 
L 564.887301 106.491581 
L 563.387301 107.991581 
L 561.887301 106.491581 
L 560.387301 107.991581 
L 561.887301 109.491581 
L 560.387301 110.991581 
z
" style="fill:#ff7f0e;fill-opacity:0.8;stroke:#ffffff;stroke-opacity:0.8;stroke-width:0.48;"/>
    <path clip-path="url(#p41b7e44c21)" d="M 561.887301 121.005703 
L 563.387301 119.505703 
L 564.887301 121.005703 
L 566.387301 119.505703 
L 564.887301 118.005703 
L 566.387301 116.505703 
L 564.887301 115.005703 
L 563.387301 116.505703 
L 561.887301 115.005703 
L 560.387301 116.505703 
L 561.887301 118.005703 
L 560.387301 119.505703 
z
" style="fill:#ff7f0e;fill-opacity:0.8;stroke:#ffffff;stroke-opacity:0.8;stroke-width:0.48;"/>
    <path clip-path="url(#p41b7e44c21)" d="M 561.887301 122.787009 
L 563.387301 121.287009 
L 564.887301 122.787009 
L 566.387301 121.287009 
L 564.887301 119.787009 
L 566.387301 118.287009 
L 564.887301 116.787009 
L 563.387301 118.287009 
L 561.887301 116.787009 
L 560.387301 118.287009 
L 561.887301 119.787009 
L 560.387301 121.287009 
z
" style="fill:#ff7f0e;fill-opacity:0.8;stroke:#ffffff;stroke-opacity:0.8;stroke-width:0.48;"/>
    <path clip-path="url(#p41b7e44c21)" d="M 561.887301 136.527362 
L 563.387301 135.027362 
L 564.887301 136.527362 
L 566.387301 135.027362 
L 564.887301 133.527362 
L 566.387301 132.027362 
L 564.887301 130.527362 
L 563.387301 132.027362 
L 561.887301 130.527362 
L 560.387301 132.027362 
L 561.887301 133.527362 
L 560.387301 135.027362 
z
" style="fill:#ff7f0e;fill-opacity:0.8;stroke:#ffffff;stroke-opacity:0.8;stroke-width:0.48;"/>
    <path clip-path="url(#p41b7e44c21)" d="M 519.555812 89.116038 
L 521.055812 87.616038 
L 522.555812 89.116038 
L 524.055812 87.616038 
L 522.555812 86.116038 
L 524.055812 84.616038 
L 522.555812 83.116038 
L 521.055812 84.616038 
L 519.555812 83.116038 
L 518.055812 84.616038 
L 519.555812 86.116038 
L 518.055812 87.616038 
z
" style="fill:#ff7f0e;fill-opacity:0.8;stroke:#ffffff;stroke-opacity:0.8;stroke-width:0.48;"/>
    <path clip-path="url(#p41b7e44c21)" d="M 519.555812 84.869389 
L 521.055812 83.369389 
L 522.555812 84.869389 
L 524.055812 83.369389 
L 522.555812 81.869389 
L 524.055812 80.369389 
L 522.555812 78.869389 
L 521.055812 80.369389 
L 519.555812 78.869389 
L 518.055812 80.369389 
L 519.555812 81.869389 
L 518.055812 83.369389 
z
" style="fill:#ff7f0e;fill-opacity:0.8;stroke:#ffffff;stroke-opacity:0.8;stroke-width:0.48;"/>
    <path clip-path="url(#p41b7e44c21)" d="M 519.555812 92.489791 
L 521.055812 90.989791 
L 522.555812 92.489791 
L 524.055812 90.989791 
L 522.555812 89.489791 
L 524.055812 87.989791 
L 522.555812 86.489791 
L 521.055812 87.989791 
L 519.555812 86.489791 
L 518.055812 87.989791 
L 519.555812 89.489791 
L 518.055812 90.989791 
z
" style="fill:#ff7f0e;fill-opacity:0.8;stroke:#ffffff;stroke-opacity:0.8;stroke-width:0.48;"/>
    <path clip-path="url(#p41b7e44c21)" d="M 561.887301 107.195684 
L 563.387301 105.695684 
L 564.887301 107.195684 
L 566.387301 105.695684 
L 564.887301 104.195684 
L 566.387301 102.695684 
L 564.887301 101.195684 
L 563.387301 102.695684 
L 561.887301 101.195684 
L 560.387301 102.695684 
L 561.887301 104.195684 
L 560.387301 105.695684 
z
" style="fill:#ff7f0e;fill-opacity:0.8;stroke:#ffffff;stroke-opacity:0.8;stroke-width:0.48;"/>
    <path clip-path="url(#p41b7e44c21)" d="M 571.603979 119.082076 
L 573.103979 117.582076 
L 574.603979 119.082076 
L 576.103979 117.582076 
L 574.603979 116.082076 
L 576.103979 114.582076 
L 574.603979 113.082076 
L 573.103979 114.582076 
L 571.603979 113.082076 
L 570.103979 114.582076 
L 571.603979 116.082076 
L 570.103979 117.582076 
z
" style="fill:#ff7f0e;fill-opacity:0.8;stroke:#ffffff;stroke-opacity:0.8;stroke-width:0.48;"/>
    <path clip-path="url(#p41b7e44c21)" d="M 571.603979 116.435449 
L 573.103979 114.935449 
L 574.603979 116.435449 
L 576.103979 114.935449 
L 574.603979 113.435449 
L 576.103979 111.935449 
L 574.603979 110.435449 
L 573.103979 111.935449 
L 571.603979 110.435449 
L 570.103979 111.935449 
L 571.603979 113.435449 
L 570.103979 114.935449 
z
" style="fill:#ff7f0e;fill-opacity:0.8;stroke:#ffffff;stroke-opacity:0.8;stroke-width:0.48;"/>
    <path clip-path="url(#p41b7e44c21)" d="M 571.603979 133.073815 
L 573.103979 131.573815 
L 574.603979 133.073815 
L 576.103979 131.573815 
L 574.603979 130.073815 
L 576.103979 128.573815 
L 574.603979 127.073815 
L 573.103979 128.573815 
L 571.603979 127.073815 
L 570.103979 128.573815 
L 571.603979 130.073815 
L 570.103979 131.573815 
z
" style="fill:#ff7f0e;fill-opacity:0.8;stroke:#ffffff;stroke-opacity:0.8;stroke-width:0.48;"/>
    <path clip-path="url(#p41b7e44c21)" d="M 561.887301 72.120317 
L 563.387301 70.620317 
L 564.887301 72.120317 
L 566.387301 70.620317 
L 564.887301 69.120317 
L 566.387301 67.620317 
L 564.887301 66.120317 
L 563.387301 67.620317 
L 561.887301 66.120317 
L 560.387301 67.620317 
L 561.887301 69.120317 
L 560.387301 70.620317 
z
" style="fill:#ff7f0e;fill-opacity:0.8;stroke:#ffffff;stroke-opacity:0.8;stroke-width:0.48;"/>
    <path clip-path="url(#p41b7e44c21)" d="M 561.887301 69.228453 
L 563.387301 67.728453 
L 564.887301 69.228453 
L 566.387301 67.728453 
L 564.887301 66.228453 
L 566.387301 64.728453 
L 564.887301 63.228453 
L 563.387301 64.728453 
L 561.887301 63.228453 
L 560.387301 64.728453 
L 561.887301 66.228453 
L 560.387301 67.728453 
z
" style="fill:#ff7f0e;fill-opacity:0.8;stroke:#ffffff;stroke-opacity:0.8;stroke-width:0.48;"/>
    <path clip-path="url(#p41b7e44c21)" d="M 561.887301 81.633998 
L 563.387301 80.133998 
L 564.887301 81.633998 
L 566.387301 80.133998 
L 564.887301 78.633998 
L 566.387301 77.133998 
L 564.887301 75.633998 
L 563.387301 77.133998 
L 561.887301 75.633998 
L 560.387301 77.133998 
L 561.887301 78.633998 
L 560.387301 80.133998 
z
" style="fill:#ff7f0e;fill-opacity:0.8;stroke:#ffffff;stroke-opacity:0.8;stroke-width:0.48;"/>
    <path clip-path="url(#p41b7e44c21)" d="M 561.887301 86.197539 
L 563.387301 84.697539 
L 564.887301 86.197539 
L 566.387301 84.697539 
L 564.887301 83.197539 
L 566.387301 81.697539 
L 564.887301 80.197539 
L 563.387301 81.697539 
L 561.887301 80.197539 
L 560.387301 81.697539 
L 561.887301 83.197539 
L 560.387301 84.697539 
z
" style="fill:#ff7f0e;fill-opacity:0.8;stroke:#ffffff;stroke-opacity:0.8;stroke-width:0.48;"/>
    <path clip-path="url(#p41b7e44c21)" d="M 561.887301 97.598681 
L 563.387301 96.098681 
L 564.887301 97.598681 
L 566.387301 96.098681 
L 564.887301 94.598681 
L 566.387301 93.098681 
L 564.887301 91.598681 
L 563.387301 93.098681 
L 561.887301 91.598681 
L 560.387301 93.098681 
L 561.887301 94.598681 
L 560.387301 96.098681 
z
" style="fill:#ff7f0e;fill-opacity:0.8;stroke:#ffffff;stroke-opacity:0.8;stroke-width:0.48;"/>
    <path clip-path="url(#p41b7e44c21)" d="M 227.962448 174.215151 
L 229.462448 172.715151 
L 230.962448 174.215151 
L 232.462448 172.715151 
L 230.962448 171.215151 
L 232.462448 169.715151 
L 230.962448 168.215151 
L 229.462448 169.715151 
L 227.962448 168.215151 
L 226.462448 169.715151 
L 227.962448 171.215151 
L 226.462448 172.715151 
z
" style="fill:#ff7f0e;fill-opacity:0.8;stroke:#ffffff;stroke-opacity:0.8;stroke-width:0.48;"/>
    <path clip-path="url(#p41b7e44c21)" d="M 227.962448 180.443589 
L 229.462448 178.943589 
L 230.962448 180.443589 
L 232.462448 178.943589 
L 230.962448 177.443589 
L 232.462448 175.943589 
L 230.962448 174.443589 
L 229.462448 175.943589 
L 227.962448 174.443589 
L 226.462448 175.943589 
L 227.962448 177.443589 
L 226.462448 178.943589 
z
" style="fill:#ff7f0e;fill-opacity:0.8;stroke:#ffffff;stroke-opacity:0.8;stroke-width:0.48;"/>
    <path clip-path="url(#p41b7e44c21)" d="M 113.863636 207.79434 
L 115.363636 206.29434 
L 116.863636 207.79434 
L 118.363636 206.29434 
L 116.863636 204.79434 
L 118.363636 203.29434 
L 116.863636 201.79434 
L 115.363636 203.29434 
L 113.863636 201.79434 
L 112.363636 203.29434 
L 113.863636 204.79434 
L 112.363636 206.29434 
z
" style="fill:#ff7f0e;fill-opacity:0.8;stroke:#ffffff;stroke-opacity:0.8;stroke-width:0.48;"/>
    <path clip-path="url(#p41b7e44c21)" d="M 227.962448 189.631066 
L 229.462448 188.131066 
L 230.962448 189.631066 
L 232.462448 188.131066 
L 230.962448 186.631066 
L 232.462448 185.131066 
L 230.962448 183.631066 
L 229.462448 185.131066 
L 227.962448 183.631066 
L 226.462448 185.131066 
L 227.962448 186.631066 
L 226.462448 188.131066 
z
" style="fill:#ff7f0e;fill-opacity:0.8;stroke:#ffffff;stroke-opacity:0.8;stroke-width:0.48;"/>
    <path clip-path="url(#p41b7e44c21)" d="M 227.962448 199.558137 
L 229.462448 198.058137 
L 230.962448 199.558137 
L 232.462448 198.058137 
L 230.962448 196.558137 
L 232.462448 195.058137 
L 230.962448 193.558137 
L 229.462448 195.058137 
L 227.962448 193.558137 
L 226.462448 195.058137 
L 227.962448 196.558137 
L 226.462448 198.058137 
z
" style="fill:#ff7f0e;fill-opacity:0.8;stroke:#ffffff;stroke-opacity:0.8;stroke-width:0.48;"/>
    <path clip-path="url(#p41b7e44c21)" d="M 227.962448 204.242118 
L 229.462448 202.742118 
L 230.962448 204.242118 
L 232.462448 202.742118 
L 230.962448 201.242118 
L 232.462448 199.742118 
L 230.962448 198.242118 
L 229.462448 199.742118 
L 227.962448 198.242118 
L 226.462448 199.742118 
L 227.962448 201.242118 
L 226.462448 202.742118 
z
" style="fill:#ff7f0e;fill-opacity:0.8;stroke:#ffffff;stroke-opacity:0.8;stroke-width:0.48;"/>
    <path clip-path="url(#p41b7e44c21)" d="M 227.962448 210.507201 
L 229.462448 209.007201 
L 230.962448 210.507201 
L 232.462448 209.007201 
L 230.962448 207.507201 
L 232.462448 206.007201 
L 230.962448 204.507201 
L 229.462448 206.007201 
L 227.962448 204.507201 
L 226.462448 206.007201 
L 227.962448 207.507201 
L 226.462448 209.007201 
z
" style="fill:#ff7f0e;fill-opacity:0.8;stroke:#ffffff;stroke-opacity:0.8;stroke-width:0.48;"/>
    <path clip-path="url(#p41b7e44c21)" d="M 227.962448 166.627504 
L 229.462448 165.127504 
L 230.962448 166.627504 
L 232.462448 165.127504 
L 230.962448 163.627504 
L 232.462448 162.127504 
L 230.962448 160.627504 
L 229.462448 162.127504 
L 227.962448 160.627504 
L 226.462448 162.127504 
L 227.962448 163.627504 
L 226.462448 165.127504 
z
" style="fill:#ff7f0e;fill-opacity:0.8;stroke:#ffffff;stroke-opacity:0.8;stroke-width:0.48;"/>
    <path clip-path="url(#p41b7e44c21)" d="M 264.351649 191.867603 
L 265.851649 190.367603 
L 267.351649 191.867603 
L 268.851649 190.367603 
L 267.351649 188.867603 
L 268.851649 187.367603 
L 267.351649 185.867603 
L 265.851649 187.367603 
L 264.351649 185.867603 
L 262.851649 187.367603 
L 264.351649 188.867603 
L 262.851649 190.367603 
z
" style="fill:#ff7f0e;fill-opacity:0.8;stroke:#ffffff;stroke-opacity:0.8;stroke-width:0.48;"/>
    <path clip-path="url(#p41b7e44c21)" d="M 264.351649 197.152481 
L 265.851649 195.652481 
L 267.351649 197.152481 
L 268.851649 195.652481 
L 267.351649 194.152481 
L 268.851649 192.652481 
L 267.351649 191.152481 
L 265.851649 192.652481 
L 264.351649 191.152481 
L 262.851649 192.652481 
L 264.351649 194.152481 
L 262.851649 195.652481 
z
" style="fill:#ff7f0e;fill-opacity:0.8;stroke:#ffffff;stroke-opacity:0.8;stroke-width:0.48;"/>
    <path clip-path="url(#p41b7e44c21)" d="M 264.351649 202.594055 
L 265.851649 201.094055 
L 267.351649 202.594055 
L 268.851649 201.094055 
L 267.351649 199.594055 
L 268.851649 198.094055 
L 267.351649 196.594055 
L 265.851649 198.094055 
L 264.351649 196.594055 
L 262.851649 198.094055 
L 264.351649 199.594055 
L 262.851649 201.094055 
z
" style="fill:#ff7f0e;fill-opacity:0.8;stroke:#ffffff;stroke-opacity:0.8;stroke-width:0.48;"/>
    <path clip-path="url(#p41b7e44c21)" d="M 264.351649 198.688604 
L 265.851649 197.188604 
L 267.351649 198.688604 
L 268.851649 197.188604 
L 267.351649 195.688604 
L 268.851649 194.188604 
L 267.351649 192.688604 
L 265.851649 194.188604 
L 264.351649 192.688604 
L 262.851649 194.188604 
L 264.351649 195.688604 
L 262.851649 197.188604 
z
" style="fill:#ff7f0e;fill-opacity:0.8;stroke:#ffffff;stroke-opacity:0.8;stroke-width:0.48;"/>
    <path clip-path="url(#p41b7e44c21)" d="M 264.351649 210.637377 
L 265.851649 209.137377 
L 267.351649 210.637377 
L 268.851649 209.137377 
L 267.351649 207.637377 
L 268.851649 206.137377 
L 267.351649 204.637377 
L 265.851649 206.137377 
L 264.351649 204.637377 
L 262.851649 206.137377 
L 264.351649 207.637377 
L 262.851649 209.137377 
z
" style="fill:#ff7f0e;fill-opacity:0.8;stroke:#ffffff;stroke-opacity:0.8;stroke-width:0.48;"/>
    <path clip-path="url(#p41b7e44c21)" d="M 264.351649 217.372908 
L 265.851649 215.872908 
L 267.351649 217.372908 
L 268.851649 215.872908 
L 267.351649 214.372908 
L 268.851649 212.872908 
L 267.351649 211.372908 
L 265.851649 212.872908 
L 264.351649 211.372908 
L 262.851649 212.872908 
L 264.351649 214.372908 
L 262.851649 215.872908 
z
" style="fill:#ff7f0e;fill-opacity:0.8;stroke:#ffffff;stroke-opacity:0.8;stroke-width:0.48;"/>
    <path clip-path="url(#p41b7e44c21)" d="M 435.33206 165.800894 
L 436.83206 164.300894 
L 438.33206 165.800894 
L 439.83206 164.300894 
L 438.33206 162.800894 
L 439.83206 161.300894 
L 438.33206 159.800894 
L 436.83206 161.300894 
L 435.33206 159.800894 
L 433.83206 161.300894 
L 435.33206 162.800894 
L 433.83206 164.300894 
z
" style="fill:#ff7f0e;fill-opacity:0.8;stroke:#ffffff;stroke-opacity:0.8;stroke-width:0.48;"/>
    <path clip-path="url(#p41b7e44c21)" d="M 227.962448 218.705976 
L 229.462448 217.205976 
L 230.962448 218.705976 
L 232.462448 217.205976 
L 230.962448 215.705976 
L 232.462448 214.205976 
L 230.962448 212.705976 
L 229.462448 214.205976 
L 227.962448 212.705976 
L 226.462448 214.205976 
L 227.962448 215.705976 
L 226.462448 217.205976 
z
" style="fill:#ff7f0e;fill-opacity:0.8;stroke:#ffffff;stroke-opacity:0.8;stroke-width:0.48;"/>
    <path clip-path="url(#p41b7e44c21)" d="M 140.455567 214.652594 
L 141.955567 213.152594 
L 143.455567 214.652594 
L 144.955567 213.152594 
L 143.455567 211.652594 
L 144.955567 210.152594 
L 143.455567 208.652594 
L 141.955567 210.152594 
L 140.455567 208.652594 
L 138.955567 210.152594 
L 140.455567 211.652594 
L 138.955567 213.152594 
z
" style="fill:#ff7f0e;fill-opacity:0.8;stroke:#ffffff;stroke-opacity:0.8;stroke-width:0.48;"/>
    <path clip-path="url(#p41b7e44c21)" d="M 140.455567 219.082401 
L 141.955567 217.582401 
L 143.455567 219.082401 
L 144.955567 217.582401 
L 143.455567 216.082401 
L 144.955567 214.582401 
L 143.455567 213.082401 
L 141.955567 214.582401 
L 140.455567 213.082401 
L 138.955567 214.582401 
L 140.455567 216.082401 
L 138.955567 217.582401 
z
" style="fill:#ff7f0e;fill-opacity:0.8;stroke:#ffffff;stroke-opacity:0.8;stroke-width:0.48;"/>
    <path clip-path="url(#p41b7e44c21)" d="M 140.455567 224.249607 
L 141.955567 222.749607 
L 143.455567 224.249607 
L 144.955567 222.749607 
L 143.455567 221.249607 
L 144.955567 219.749607 
L 143.455567 218.249607 
L 141.955567 219.749607 
L 140.455567 218.249607 
L 138.955567 219.749607 
L 140.455567 221.249607 
L 138.955567 222.749607 
z
" style="fill:#ff7f0e;fill-opacity:0.8;stroke:#ffffff;stroke-opacity:0.8;stroke-width:0.48;"/>
    <path clip-path="url(#p41b7e44c21)" d="M 140.455567 232.304992 
L 141.955567 230.804992 
L 143.455567 232.304992 
L 144.955567 230.804992 
L 143.455567 229.304992 
L 144.955567 227.804992 
L 143.455567 226.304992 
L 141.955567 227.804992 
L 140.455567 226.304992 
L 138.955567 227.804992 
L 140.455567 229.304992 
L 138.955567 230.804992 
z
" style="fill:#ff7f0e;fill-opacity:0.8;stroke:#ffffff;stroke-opacity:0.8;stroke-width:0.48;"/>
    <path clip-path="url(#p41b7e44c21)" d="M 140.455567 232.040275 
L 141.955567 230.540275 
L 143.455567 232.040275 
L 144.955567 230.540275 
L 143.455567 229.040275 
L 144.955567 227.540275 
L 143.455567 226.040275 
L 141.955567 227.540275 
L 140.455567 226.040275 
L 138.955567 227.540275 
L 140.455567 229.040275 
L 138.955567 230.540275 
z
" style="fill:#ff7f0e;fill-opacity:0.8;stroke:#ffffff;stroke-opacity:0.8;stroke-width:0.48;"/>
    <path clip-path="url(#p41b7e44c21)" d="M 140.455567 246.352306 
L 141.955567 244.852306 
L 143.455567 246.352306 
L 144.955567 244.852306 
L 143.455567 243.352306 
L 144.955567 241.852306 
L 143.455567 240.352306 
L 141.955567 241.852306 
L 140.455567 240.352306 
L 138.955567 241.852306 
L 140.455567 243.352306 
L 138.955567 244.852306 
z
" style="fill:#ff7f0e;fill-opacity:0.8;stroke:#ffffff;stroke-opacity:0.8;stroke-width:0.48;"/>
    <path clip-path="url(#p41b7e44c21)" d="M 140.455567 204.858795 
L 141.955567 203.358795 
L 143.455567 204.858795 
L 144.955567 203.358795 
L 143.455567 201.858795 
L 144.955567 200.358795 
L 143.455567 198.858795 
L 141.955567 200.358795 
L 140.455567 198.858795 
L 138.955567 200.358795 
L 140.455567 201.858795 
L 138.955567 203.358795 
z
" style="fill:#ff7f0e;fill-opacity:0.8;stroke:#ffffff;stroke-opacity:0.8;stroke-width:0.48;"/>
    <path clip-path="url(#p41b7e44c21)" d="M 227.962448 217.417176 
L 229.462448 215.917176 
L 230.962448 217.417176 
L 232.462448 215.917176 
L 230.962448 214.417176 
L 232.462448 212.917176 
L 230.962448 211.417176 
L 229.462448 212.917176 
L 227.962448 211.417176 
L 226.462448 212.917176 
L 227.962448 214.417176 
L 226.462448 215.917176 
z
" style="fill:#ff7f0e;fill-opacity:0.8;stroke:#ffffff;stroke-opacity:0.8;stroke-width:0.48;"/>
    <path clip-path="url(#p41b7e44c21)" d="M 227.962448 233.487362 
L 229.462448 231.987362 
L 230.962448 233.487362 
L 232.462448 231.987362 
L 230.962448 230.487362 
L 232.462448 228.987362 
L 230.962448 227.487362 
L 229.462448 228.987362 
L 227.962448 227.487362 
L 226.462448 228.987362 
L 227.962448 230.487362 
L 226.462448 231.987362 
z
" style="fill:#ff7f0e;fill-opacity:0.8;stroke:#ffffff;stroke-opacity:0.8;stroke-width:0.48;"/>
    <path clip-path="url(#p41b7e44c21)" d="M 113.863636 201.443971 
L 115.363636 199.943971 
L 116.863636 201.443971 
L 118.363636 199.943971 
L 116.863636 198.443971 
L 118.363636 196.943971 
L 116.863636 195.443971 
L 115.363636 196.943971 
L 113.863636 195.443971 
L 112.363636 196.943971 
L 113.863636 198.443971 
L 112.363636 199.943971 
z
" style="fill:#ff7f0e;fill-opacity:0.8;stroke:#ffffff;stroke-opacity:0.8;stroke-width:0.48;"/>
    <path clip-path="url(#p41b7e44c21)" d="M 140.455567 187.848931 
L 141.955567 186.348931 
L 143.455567 187.848931 
L 144.955567 186.348931 
L 143.455567 184.848931 
L 144.955567 183.348931 
L 143.455567 181.848931 
L 141.955567 183.348931 
L 140.455567 181.848931 
L 138.955567 183.348931 
L 140.455567 184.848931 
L 138.955567 186.348931 
z
" style="fill:#ff7f0e;fill-opacity:0.8;stroke:#ffffff;stroke-opacity:0.8;stroke-width:0.48;"/>
    <path clip-path="url(#p41b7e44c21)" d="M 140.455567 191.762334 
L 141.955567 190.262334 
L 143.455567 191.762334 
L 144.955567 190.262334 
L 143.455567 188.762334 
L 144.955567 187.262334 
L 143.455567 185.762334 
L 141.955567 187.262334 
L 140.455567 185.762334 
L 138.955567 187.262334 
L 140.455567 188.762334 
L 138.955567 190.262334 
z
" style="fill:#ff7f0e;fill-opacity:0.8;stroke:#ffffff;stroke-opacity:0.8;stroke-width:0.48;"/>
    <path clip-path="url(#p41b7e44c21)" d="M 113.863636 195.071779 
L 115.363636 193.571779 
L 116.863636 195.071779 
L 118.363636 193.571779 
L 116.863636 192.071779 
L 118.363636 190.571779 
L 116.863636 189.071779 
L 115.363636 190.571779 
L 113.863636 189.071779 
L 112.363636 190.571779 
L 113.863636 192.071779 
L 112.363636 193.571779 
z
" style="fill:#ff7f0e;fill-opacity:0.8;stroke:#ffffff;stroke-opacity:0.8;stroke-width:0.48;"/>
    <path clip-path="url(#p41b7e44c21)" d="M 140.455567 198.503354 
L 141.955567 197.003354 
L 143.455567 198.503354 
L 144.955567 197.003354 
L 143.455567 195.503354 
L 144.955567 194.003354 
L 143.455567 192.503354 
L 141.955567 194.003354 
L 140.455567 192.503354 
L 138.955567 194.003354 
L 140.455567 195.503354 
L 138.955567 197.003354 
z
" style="fill:#ff7f0e;fill-opacity:0.8;stroke:#ffffff;stroke-opacity:0.8;stroke-width:0.48;"/>
    <path clip-path="url(#p41b7e44c21)" d="M 113.863636 217.473246 
L 115.363636 215.973246 
L 116.863636 217.473246 
L 118.363636 215.973246 
L 116.863636 214.473246 
L 118.363636 212.973246 
L 116.863636 211.473246 
L 115.363636 212.973246 
L 113.863636 211.473246 
L 112.363636 212.973246 
L 113.863636 214.473246 
L 112.363636 215.973246 
z
" style="fill:#ff7f0e;fill-opacity:0.8;stroke:#ffffff;stroke-opacity:0.8;stroke-width:0.48;"/>
    <path clip-path="url(#p41b7e44c21)" d="M 113.863636 235.43581 
L 115.363636 233.93581 
L 116.863636 235.43581 
L 118.363636 233.93581 
L 116.863636 232.43581 
L 118.363636 230.93581 
L 116.863636 229.43581 
L 115.363636 230.93581 
L 113.863636 229.43581 
L 112.363636 230.93581 
L 113.863636 232.43581 
L 112.363636 233.93581 
z
" style="fill:#ff7f0e;fill-opacity:0.8;stroke:#ffffff;stroke-opacity:0.8;stroke-width:0.48;"/>
    <path clip-path="url(#p41b7e44c21)" d="M 363.740458 177.350798 
L 365.240458 175.850798 
L 366.740458 177.350798 
L 368.240458 175.850798 
L 366.740458 174.350798 
L 368.240458 172.850798 
L 366.740458 171.350798 
L 365.240458 172.850798 
L 363.740458 171.350798 
L 362.240458 172.850798 
L 363.740458 174.350798 
L 362.240458 175.850798 
z
" style="fill:#ff7f0e;fill-opacity:0.8;stroke:#ffffff;stroke-opacity:0.8;stroke-width:0.48;"/>
    <path clip-path="url(#p41b7e44c21)" d="M 363.740458 186.616326 
L 365.240458 185.116326 
L 366.740458 186.616326 
L 368.240458 185.116326 
L 366.740458 183.616326 
L 368.240458 182.116326 
L 366.740458 180.616326 
L 365.240458 182.116326 
L 363.740458 180.616326 
L 362.240458 182.116326 
L 363.740458 183.616326 
L 362.240458 185.116326 
z
" style="fill:#ff7f0e;fill-opacity:0.8;stroke:#ffffff;stroke-opacity:0.8;stroke-width:0.48;"/>
    <path clip-path="url(#p41b7e44c21)" d="M 363.740458 187.027131 
L 365.240458 185.527131 
L 366.740458 187.027131 
L 368.240458 185.527131 
L 366.740458 184.027131 
L 368.240458 182.527131 
L 366.740458 181.027131 
L 365.240458 182.527131 
L 363.740458 181.027131 
L 362.240458 182.527131 
L 363.740458 184.027131 
L 362.240458 185.527131 
z
" style="fill:#ff7f0e;fill-opacity:0.8;stroke:#ffffff;stroke-opacity:0.8;stroke-width:0.48;"/>
    <path clip-path="url(#p41b7e44c21)" d="M 363.740458 200.239272 
L 365.240458 198.739272 
L 366.740458 200.239272 
L 368.240458 198.739272 
L 366.740458 197.239272 
L 368.240458 195.739272 
L 366.740458 194.239272 
L 365.240458 195.739272 
L 363.740458 194.239272 
L 362.240458 195.739272 
L 363.740458 197.239272 
L 362.240458 198.739272 
z
" style="fill:#ff7f0e;fill-opacity:0.8;stroke:#ffffff;stroke-opacity:0.8;stroke-width:0.48;"/>
    <path clip-path="url(#p41b7e44c21)" d="M 113.863636 235.095268 
L 115.363636 233.595268 
L 116.863636 235.095268 
L 118.363636 233.595268 
L 116.863636 232.095268 
L 118.363636 230.595268 
L 116.863636 229.095268 
L 115.363636 230.595268 
L 113.863636 229.095268 
L 112.363636 230.595268 
L 113.863636 232.095268 
L 112.363636 233.595268 
z
" style="fill:#ff7f0e;fill-opacity:0.8;stroke:#ffffff;stroke-opacity:0.8;stroke-width:0.48;"/>
    <path clip-path="url(#p41b7e44c21)" d="M 435.33206 179.528158 
L 436.83206 178.028158 
L 438.33206 179.528158 
L 439.83206 178.028158 
L 438.33206 176.528158 
L 439.83206 175.028158 
L 438.33206 173.528158 
L 436.83206 175.028158 
L 435.33206 173.528158 
L 433.83206 175.028158 
L 435.33206 176.528158 
L 433.83206 178.028158 
z
" style="fill:#ff7f0e;fill-opacity:0.8;stroke:#ffffff;stroke-opacity:0.8;stroke-width:0.48;"/>
    <path clip-path="url(#p41b7e44c21)" d="M 113.863636 249.24 
L 115.363636 247.74 
L 116.863636 249.24 
L 118.363636 247.74 
L 116.863636 246.24 
L 118.363636 244.74 
L 116.863636 243.24 
L 115.363636 244.74 
L 113.863636 243.24 
L 112.363636 244.74 
L 113.863636 246.24 
L 112.363636 247.74 
z
" style="fill:#ff7f0e;fill-opacity:0.8;stroke:#ffffff;stroke-opacity:0.8;stroke-width:0.48;"/>
    <path clip-path="url(#p41b7e44c21)" d="M 363.740458 135.005728 
L 365.240458 133.505728 
L 366.740458 135.005728 
L 368.240458 133.505728 
L 366.740458 132.005728 
L 368.240458 130.505728 
L 366.740458 129.005728 
L 365.240458 130.505728 
L 363.740458 129.005728 
L 362.240458 130.505728 
L 363.740458 132.005728 
L 362.240458 133.505728 
z
" style="fill:#ff7f0e;fill-opacity:0.8;stroke:#ffffff;stroke-opacity:0.8;stroke-width:0.48;"/>
    <path clip-path="url(#p41b7e44c21)" d="M 363.740458 139.410121 
L 365.240458 137.910121 
L 366.740458 139.410121 
L 368.240458 137.910121 
L 366.740458 136.410121 
L 368.240458 134.910121 
L 366.740458 133.410121 
L 365.240458 134.910121 
L 363.740458 133.410121 
L 362.240458 134.910121 
L 363.740458 136.410121 
L 362.240458 137.910121 
z
" style="fill:#ff7f0e;fill-opacity:0.8;stroke:#ffffff;stroke-opacity:0.8;stroke-width:0.48;"/>
    <path clip-path="url(#p41b7e44c21)" d="M 363.740458 144.417694 
L 365.240458 142.917694 
L 366.740458 144.417694 
L 368.240458 142.917694 
L 366.740458 141.417694 
L 368.240458 139.917694 
L 366.740458 138.417694 
L 365.240458 139.917694 
L 363.740458 138.417694 
L 362.240458 139.917694 
L 363.740458 141.417694 
L 362.240458 142.917694 
z
" style="fill:#ff7f0e;fill-opacity:0.8;stroke:#ffffff;stroke-opacity:0.8;stroke-width:0.48;"/>
    <path clip-path="url(#p41b7e44c21)" d="M 363.740458 153.430258 
L 365.240458 151.930258 
L 366.740458 153.430258 
L 368.240458 151.930258 
L 366.740458 150.430258 
L 368.240458 148.930258 
L 366.740458 147.430258 
L 365.240458 148.930258 
L 363.740458 147.430258 
L 362.240458 148.930258 
L 363.740458 150.430258 
L 362.240458 151.930258 
z
" style="fill:#ff7f0e;fill-opacity:0.8;stroke:#ffffff;stroke-opacity:0.8;stroke-width:0.48;"/>
    <path clip-path="url(#p41b7e44c21)" d="M 363.740458 165.878038 
L 365.240458 164.378038 
L 366.740458 165.878038 
L 368.240458 164.378038 
L 366.740458 162.878038 
L 368.240458 161.378038 
L 366.740458 159.878038 
L 365.240458 161.378038 
L 363.740458 159.878038 
L 362.240458 161.378038 
L 363.740458 162.878038 
L 362.240458 164.378038 
z
" style="fill:#ff7f0e;fill-opacity:0.8;stroke:#ffffff;stroke-opacity:0.8;stroke-width:0.48;"/>
    <path clip-path="url(#p41b7e44c21)" d="M 363.740458 171.635437 
L 365.240458 170.135437 
L 366.740458 171.635437 
L 368.240458 170.135437 
L 366.740458 168.635437 
L 368.240458 167.135437 
L 366.740458 165.635437 
L 365.240458 167.135437 
L 363.740458 165.635437 
L 362.240458 167.135437 
L 363.740458 168.635437 
L 362.240458 170.135437 
z
" style="fill:#ff7f0e;fill-opacity:0.8;stroke:#ffffff;stroke-opacity:0.8;stroke-width:0.48;"/>
    <path clip-path="url(#p41b7e44c21)" d="M 362.18842 138.033709 
L 363.68842 136.533709 
L 365.18842 138.033709 
L 366.68842 136.533709 
L 365.18842 135.033709 
L 366.68842 133.533709 
L 365.18842 132.033709 
L 363.68842 133.533709 
L 362.18842 132.033709 
L 360.68842 133.533709 
L 362.18842 135.033709 
L 360.68842 136.533709 
z
" style="fill:#ff7f0e;fill-opacity:0.8;stroke:#ffffff;stroke-opacity:0.8;stroke-width:0.48;"/>
    <path clip-path="url(#p41b7e44c21)" d="M 362.18842 201.21307 
L 363.68842 199.71307 
L 365.18842 201.21307 
L 366.68842 199.71307 
L 365.18842 198.21307 
L 366.68842 196.71307 
L 365.18842 195.21307 
L 363.68842 196.71307 
L 362.18842 195.21307 
L 360.68842 196.71307 
L 362.18842 198.21307 
L 360.68842 199.71307 
z
" style="fill:#ff7f0e;fill-opacity:0.8;stroke:#ffffff;stroke-opacity:0.8;stroke-width:0.48;"/>
    <path clip-path="url(#p41b7e44c21)" d="M 113.863636 221.84331 
L 115.363636 220.34331 
L 116.863636 221.84331 
L 118.363636 220.34331 
L 116.863636 218.84331 
L 118.363636 217.34331 
L 116.863636 215.84331 
L 115.363636 217.34331 
L 113.863636 215.84331 
L 112.363636 217.34331 
L 113.863636 218.84331 
L 112.363636 220.34331 
z
" style="fill:#ff7f0e;fill-opacity:0.8;stroke:#ffffff;stroke-opacity:0.8;stroke-width:0.48;"/>
    <path clip-path="url(#p41b7e44c21)" d="M 264.351649 163.71326 
L 265.851649 162.21326 
L 267.351649 163.71326 
L 268.851649 162.21326 
L 267.351649 160.71326 
L 268.851649 159.21326 
L 267.351649 157.71326 
L 265.851649 159.21326 
L 264.351649 157.71326 
L 262.851649 159.21326 
L 264.351649 160.71326 
L 262.851649 162.21326 
z
" style="fill:#ff7f0e;fill-opacity:0.8;stroke:#ffffff;stroke-opacity:0.8;stroke-width:0.48;"/>
    <path clip-path="url(#p41b7e44c21)" d="M 264.351649 168.043753 
L 265.851649 166.543753 
L 267.351649 168.043753 
L 268.851649 166.543753 
L 267.351649 165.043753 
L 268.851649 163.543753 
L 267.351649 162.043753 
L 265.851649 163.543753 
L 264.351649 162.043753 
L 262.851649 163.543753 
L 264.351649 165.043753 
L 262.851649 166.543753 
z
" style="fill:#ff7f0e;fill-opacity:0.8;stroke:#ffffff;stroke-opacity:0.8;stroke-width:0.48;"/>
    <path clip-path="url(#p41b7e44c21)" d="M 264.351649 174.419185 
L 265.851649 172.919185 
L 267.351649 174.419185 
L 268.851649 172.919185 
L 267.351649 171.419185 
L 268.851649 169.919185 
L 267.351649 168.419185 
L 265.851649 169.919185 
L 264.351649 168.419185 
L 262.851649 169.919185 
L 264.351649 171.419185 
L 262.851649 172.919185 
z
" style="fill:#ff7f0e;fill-opacity:0.8;stroke:#ffffff;stroke-opacity:0.8;stroke-width:0.48;"/>
    <path clip-path="url(#p41b7e44c21)" d="M 264.351649 182.197767 
L 265.851649 180.697767 
L 267.351649 182.197767 
L 268.851649 180.697767 
L 267.351649 179.197767 
L 268.851649 177.697767 
L 267.351649 176.197767 
L 265.851649 177.697767 
L 264.351649 176.197767 
L 262.851649 177.697767 
L 264.351649 179.197767 
L 262.851649 180.697767 
z
" style="fill:#ff7f0e;fill-opacity:0.8;stroke:#ffffff;stroke-opacity:0.8;stroke-width:0.48;"/>
    <path clip-path="url(#p41b7e44c21)" d="M 362.18842 141.806555 
L 363.68842 140.306555 
L 365.18842 141.806555 
L 366.68842 140.306555 
L 365.18842 138.806555 
L 366.68842 137.306555 
L 365.18842 135.806555 
L 363.68842 137.306555 
L 362.18842 135.806555 
L 360.68842 137.306555 
L 362.18842 138.806555 
L 360.68842 140.306555 
z
" style="fill:#ff7f0e;fill-opacity:0.8;stroke:#ffffff;stroke-opacity:0.8;stroke-width:0.48;"/>
    <path clip-path="url(#p41b7e44c21)" d="M 362.18842 187.096464 
L 363.68842 185.596464 
L 365.18842 187.096464 
L 366.68842 185.596464 
L 365.18842 184.096464 
L 366.68842 182.596464 
L 365.18842 181.096464 
L 363.68842 182.596464 
L 362.18842 181.096464 
L 360.68842 182.596464 
L 362.18842 184.096464 
L 360.68842 185.596464 
z
" style="fill:#ff7f0e;fill-opacity:0.8;stroke:#ffffff;stroke-opacity:0.8;stroke-width:0.48;"/>
    <path clip-path="url(#p41b7e44c21)" d="M 362.18842 187.340412 
L 363.68842 185.840412 
L 365.18842 187.340412 
L 366.68842 185.840412 
L 365.18842 184.340412 
L 366.68842 182.840412 
L 365.18842 181.340412 
L 363.68842 182.840412 
L 362.18842 181.340412 
L 360.68842 182.840412 
L 362.18842 184.340412 
L 360.68842 185.840412 
z
" style="fill:#ff7f0e;fill-opacity:0.8;stroke:#ffffff;stroke-opacity:0.8;stroke-width:0.48;"/>
    <path clip-path="url(#p41b7e44c21)" d="M 362.18842 149.038919 
L 363.68842 147.538919 
L 365.18842 149.038919 
L 366.68842 147.538919 
L 365.18842 146.038919 
L 366.68842 144.538919 
L 365.18842 143.038919 
L 363.68842 144.538919 
L 362.18842 143.038919 
L 360.68842 144.538919 
L 362.18842 146.038919 
L 360.68842 147.538919 
z
" style="fill:#ff7f0e;fill-opacity:0.8;stroke:#ffffff;stroke-opacity:0.8;stroke-width:0.48;"/>
    <path clip-path="url(#p41b7e44c21)" d="M 362.18842 155.865444 
L 363.68842 154.365444 
L 365.18842 155.865444 
L 366.68842 154.365444 
L 365.18842 152.865444 
L 366.68842 151.365444 
L 365.18842 149.865444 
L 363.68842 151.365444 
L 362.18842 149.865444 
L 360.68842 151.365444 
L 362.18842 152.865444 
L 360.68842 154.365444 
z
" style="fill:#ff7f0e;fill-opacity:0.8;stroke:#ffffff;stroke-opacity:0.8;stroke-width:0.48;"/>
    <path clip-path="url(#p41b7e44c21)" d="M 362.18842 166.974278 
L 363.68842 165.474278 
L 365.18842 166.974278 
L 366.68842 165.474278 
L 365.18842 163.974278 
L 366.68842 162.474278 
L 365.18842 160.974278 
L 363.68842 162.474278 
L 362.18842 160.974278 
L 360.68842 162.474278 
L 362.18842 163.974278 
L 360.68842 165.474278 
z
" style="fill:#ff7f0e;fill-opacity:0.8;stroke:#ffffff;stroke-opacity:0.8;stroke-width:0.48;"/>
    <path clip-path="url(#p41b7e44c21)" d="M 113.863636 227.248125 
L 115.363636 225.748125 
L 116.863636 227.248125 
L 118.363636 225.748125 
L 116.863636 224.248125 
L 118.363636 222.748125 
L 116.863636 221.248125 
L 115.363636 222.748125 
L 113.863636 221.248125 
L 112.363636 222.748125 
L 113.863636 224.248125 
L 112.363636 225.748125 
z
" style="fill:#ff7f0e;fill-opacity:0.8;stroke:#ffffff;stroke-opacity:0.8;stroke-width:0.48;"/>
    <path clip-path="url(#p41b7e44c21)" d="M 362.18842 172.213979 
L 363.68842 170.713979 
L 365.18842 172.213979 
L 366.68842 170.713979 
L 365.18842 169.213979 
L 366.68842 167.713979 
L 365.18842 166.213979 
L 363.68842 167.713979 
L 362.18842 166.213979 
L 360.68842 167.713979 
L 362.18842 169.213979 
L 360.68842 170.713979 
z
" style="fill:#ff7f0e;fill-opacity:0.8;stroke:#ffffff;stroke-opacity:0.8;stroke-width:0.48;"/>
    <path clip-path="url(#p41b7e44c21)" d="M 362.18842 178.453183 
L 363.68842 176.953183 
L 365.18842 178.453183 
L 366.68842 176.953183 
L 365.18842 175.453183 
L 366.68842 173.953183 
L 365.18842 172.453183 
L 363.68842 173.953183 
L 362.18842 172.453183 
L 360.68842 173.953183 
L 362.18842 175.453183 
L 360.68842 176.953183 
z
" style="fill:#ff7f0e;fill-opacity:0.8;stroke:#ffffff;stroke-opacity:0.8;stroke-width:0.48;"/>
    <path clip-path="url(#p41b7e44c21)" d="M 113.863636 190.77721 
L 115.363636 189.27721 
L 116.863636 190.77721 
L 118.363636 189.27721 
L 116.863636 187.77721 
L 118.363636 186.27721 
L 116.863636 184.77721 
L 115.363636 186.27721 
L 113.863636 184.77721 
L 112.363636 186.27721 
L 113.863636 187.77721 
L 112.363636 189.27721 
z
" style="fill:#ff7f0e;fill-opacity:0.8;stroke:#ffffff;stroke-opacity:0.8;stroke-width:0.48;"/>
    <path clip-path="url(#p41b7e44c21)" d="M 622.636364 47.64 
C 623.431973 47.64 624.195103 47.323901 624.757684 46.76132 
C 625.320265 46.19874 625.636364 45.435609 625.636364 44.64 
C 625.636364 43.844391 625.320265 43.08126 624.757684 42.51868 
C 624.195103 41.956099 623.431973 41.64 622.636364 41.64 
C 621.840754 41.64 621.077624 41.956099 620.515043 42.51868 
C 619.952463 43.08126 619.636364 43.844391 619.636364 44.64 
C 619.636364 45.435609 619.952463 46.19874 620.515043 46.76132 
C 621.077624 47.323901 621.840754 47.64 622.636364 47.64 
z
" style="fill:#1f77b4;fill-opacity:0.8;stroke:#ffffff;stroke-opacity:0.8;stroke-width:0.48;"/>
    <path clip-path="url(#p41b7e44c21)" d="M 436.83206 111.758368 
C 437.627669 111.758368 438.3908 111.442269 438.95338 110.879688 
C 439.515961 110.317107 439.83206 109.553977 439.83206 108.758368 
C 439.83206 107.962759 439.515961 107.199628 438.95338 106.637047 
C 438.3908 106.074467 437.627669 105.758368 436.83206 105.758368 
C 436.036451 105.758368 435.27332 106.074467 434.71074 106.637047 
C 434.148159 107.199628 433.83206 107.962759 433.83206 108.758368 
C 433.83206 109.553977 434.148159 110.317107 434.71074 110.879688 
C 435.27332 111.442269 436.036451 111.758368 436.83206 111.758368 
z
" style="fill:#1f77b4;fill-opacity:0.8;stroke:#ffffff;stroke-opacity:0.8;stroke-width:0.48;"/>
    <path clip-path="url(#p41b7e44c21)" d="M 472.80697 97.004896 
C 473.602579 97.004896 474.365709 96.688797 474.92829 96.126216 
C 475.490871 95.563635 475.80697 94.800505 475.80697 94.004896 
C 475.80697 93.209286 475.490871 92.446156 474.92829 91.883575 
C 474.365709 91.320995 473.602579 91.004896 472.80697 91.004896 
C 472.01136 91.004896 471.24823 91.320995 470.685649 91.883575 
C 470.123069 92.446156 469.80697 93.209286 469.80697 94.004896 
C 469.80697 94.800505 470.123069 95.563635 470.685649 96.126216 
C 471.24823 96.688797 472.01136 97.004896 472.80697 97.004896 
z
" style="fill:#1f77b4;fill-opacity:0.8;stroke:#ffffff;stroke-opacity:0.8;stroke-width:0.48;"/>
    <path clip-path="url(#p41b7e44c21)" d="M 365.240458 149.319701 
C 366.036068 149.319701 366.799198 149.003602 367.361779 148.441021 
C 367.924359 147.878441 368.240458 147.11531 368.240458 146.319701 
C 368.240458 145.524092 367.924359 144.760961 367.361779 144.198381 
C 366.799198 143.6358 366.036068 143.319701 365.240458 143.319701 
C 364.444849 143.319701 363.681719 143.6358 363.119138 144.198381 
C 362.556557 144.760961 362.240458 145.524092 362.240458 146.319701 
C 362.240458 147.11531 362.556557 147.878441 363.119138 148.441021 
C 363.681719 149.003602 364.444849 149.319701 365.240458 149.319701 
z
" style="fill:#1f77b4;fill-opacity:0.8;stroke:#ffffff;stroke-opacity:0.8;stroke-width:0.48;"/>
    <path clip-path="url(#p41b7e44c21)" d="M 492.835315 90.66248 
C 493.630924 90.66248 494.394054 90.346381 494.956635 89.7838 
C 495.519216 89.221219 495.835315 88.458089 495.835315 87.66248 
C 495.835315 86.866871 495.519216 86.10374 494.956635 85.54116 
C 494.394054 84.978579 493.630924 84.66248 492.835315 84.66248 
C 492.039705 84.66248 491.276575 84.978579 490.713994 85.54116 
C 490.151414 86.10374 489.835315 86.866871 489.835315 87.66248 
C 489.835315 88.458089 490.151414 89.221219 490.713994 89.7838 
C 491.276575 90.346381 492.039705 90.66248 492.835315 90.66248 
z
" style="fill:#1f77b4;fill-opacity:0.8;stroke:#ffffff;stroke-opacity:0.8;stroke-width:0.48;"/>
    <path clip-path="url(#p41b7e44c21)" d="M 141.955567 219.96996 
C 142.751176 219.96996 143.514306 219.653861 144.076887 219.09128 
C 144.639468 218.5287 144.955567 217.765569 144.955567 216.96996 
C 144.955567 216.174351 144.639468 215.41122 144.076887 214.84864 
C 143.514306 214.286059 142.751176 213.96996 141.955567 213.96996 
C 141.159957 213.96996 140.396827 214.286059 139.834246 214.84864 
C 139.271666 215.41122 138.955567 216.174351 138.955567 216.96996 
C 138.955567 217.765569 139.271666 218.5287 139.834246 219.09128 
C 140.396827 219.653861 141.159957 219.96996 141.955567 219.96996 
z
" style="fill:#1f77b4;fill-opacity:0.8;stroke:#ffffff;stroke-opacity:0.8;stroke-width:0.48;"/>
    <path clip-path="url(#p41b7e44c21)" d="M 363.68842 143.475132 
C 364.48403 143.475132 365.24716 143.159033 365.809741 142.596452 
C 366.372321 142.033872 366.68842 141.270741 366.68842 140.475132 
C 366.68842 139.679523 366.372321 138.916392 365.809741 138.353812 
C 365.24716 137.791231 364.48403 137.475132 363.68842 137.475132 
C 362.892811 137.475132 362.129681 137.791231 361.5671 138.353812 
C 361.004519 138.916392 360.68842 139.679523 360.68842 140.475132 
C 360.68842 141.270741 361.004519 142.033872 361.5671 142.596452 
C 362.129681 143.159033 362.892811 143.475132 363.68842 143.475132 
z
" style="fill:#1f77b4;fill-opacity:0.8;stroke:#ffffff;stroke-opacity:0.8;stroke-width:0.48;"/>
    <path clip-path="url(#p41b7e44c21)" d="M 265.851649 177.529929 
C 266.647258 177.529929 267.410388 177.21383 267.972969 176.651249 
C 268.53555 176.088668 268.851649 175.325538 268.851649 174.529929 
C 268.851649 173.73432 268.53555 172.971189 267.972969 172.408609 
C 267.410388 171.846028 266.647258 171.529929 265.851649 171.529929 
C 265.05604 171.529929 264.292909 171.846028 263.730329 172.408609 
C 263.167748 172.971189 262.851649 173.73432 262.851649 174.529929 
C 262.851649 175.325538 263.167748 176.088668 263.730329 176.651249 
C 264.292909 177.21383 265.05604 177.529929 265.851649 177.529929 
z
" style="fill:#1f77b4;fill-opacity:0.8;stroke:#ffffff;stroke-opacity:0.8;stroke-width:0.48;"/>
    <path clip-path="url(#p41b7e44c21)" d="M 563.387301 64.380281 
C 564.182911 64.380281 564.946041 64.064183 565.508622 63.501602 
C 566.071202 62.939021 566.387301 62.175891 566.387301 61.380281 
C 566.387301 60.584672 566.071202 59.821542 565.508622 59.258961 
C 564.946041 58.69638 564.182911 58.380281 563.387301 58.380281 
C 562.591692 58.380281 561.828562 58.69638 561.265981 59.258961 
C 560.7034 59.821542 560.387301 60.584672 560.387301 61.380281 
C 560.387301 62.175891 560.7034 62.939021 561.265981 63.501602 
C 561.828562 64.064183 562.591692 64.380281 563.387301 64.380281 
z
" style="fill:#1f77b4;fill-opacity:0.8;stroke:#ffffff;stroke-opacity:0.8;stroke-width:0.48;"/>
    <path clip-path="url(#p41b7e44c21)" d="M 229.462448 194.198196 
C 230.258057 194.198196 231.021187 193.882097 231.583768 193.319516 
C 232.146349 192.756936 232.462448 191.993805 232.462448 191.198196 
C 232.462448 190.402587 232.146349 189.639456 231.583768 189.076876 
C 231.021187 188.514295 230.258057 188.198196 229.462448 188.198196 
C 228.666839 188.198196 227.903708 188.514295 227.341127 189.076876 
C 226.778547 189.639456 226.462448 190.402587 226.462448 191.198196 
C 226.462448 191.993805 226.778547 192.756936 227.341127 193.319516 
C 227.903708 193.882097 228.666839 194.198196 229.462448 194.198196 
z
" style="fill:#1f77b4;fill-opacity:0.8;stroke:#ffffff;stroke-opacity:0.8;stroke-width:0.48;"/>
    <path clip-path="url(#p41b7e44c21)" d="M 573.103979 60.886079 
C 573.899589 60.886079 574.662719 60.56998 575.2253 60.007399 
C 575.78788 59.444819 576.103979 58.681688 576.103979 57.886079 
C 576.103979 57.09047 575.78788 56.327339 575.2253 55.764759 
C 574.662719 55.202178 573.899589 54.886079 573.103979 54.886079 
C 572.30837 54.886079 571.54524 55.202178 570.982659 55.764759 
C 570.420078 56.327339 570.103979 57.09047 570.103979 57.886079 
C 570.103979 58.681688 570.420078 59.444819 570.982659 60.007399 
C 571.54524 60.56998 572.30837 60.886079 573.103979 60.886079 
z
" style="fill:#1f77b4;fill-opacity:0.8;stroke:#ffffff;stroke-opacity:0.8;stroke-width:0.48;"/>
    <path clip-path="url(#p41b7e44c21)" d="M 521.055812 81.16602 
C 521.851421 81.16602 522.614551 80.849921 523.177132 80.28734 
C 523.739713 79.724759 524.055812 78.961629 524.055812 78.16602 
C 524.055812 77.37041 523.739713 76.60728 523.177132 76.044699 
C 522.614551 75.482119 521.851421 75.16602 521.055812 75.16602 
C 520.260202 75.16602 519.497072 75.482119 518.934491 76.044699 
C 518.37191 76.60728 518.055812 77.37041 518.055812 78.16602 
C 518.055812 78.961629 518.37191 79.724759 518.934491 80.28734 
C 519.497072 80.849921 520.260202 81.16602 521.055812 81.16602 
z
" style="fill:#1f77b4;fill-opacity:0.8;stroke:#ffffff;stroke-opacity:0.8;stroke-width:0.48;"/>
    <path clip-path="url(#p41b7e44c21)" d="M 115.363636 228.853856 
C 116.159246 228.853856 116.922376 228.537757 117.484957 227.975176 
C 118.047537 227.412596 118.363636 226.649465 118.363636 225.853856 
C 118.363636 225.058247 118.047537 224.295116 117.484957 223.732536 
C 116.922376 223.169955 116.159246 222.853856 115.363636 222.853856 
C 114.568027 222.853856 113.804897 223.169955 113.242316 223.732536 
C 112.679735 224.295116 112.363636 225.058247 112.363636 225.853856 
C 112.363636 226.649465 112.679735 227.412596 113.242316 227.975176 
C 113.804897 228.537757 114.568027 228.853856 115.363636 228.853856 
z
" style="fill:#1f77b4;fill-opacity:0.8;stroke:#ffffff;stroke-opacity:0.8;stroke-width:0.48;"/>
   </g>
   <g id="PathCollection_2"/>
   <g id="PathCollection_3"/>
   <g id="patch_3">
    <path d="M 90 256.32 
L 90 34.56 
" style="fill:none;stroke:#cccccc;stroke-linecap:square;stroke-linejoin:miter;stroke-width:0.8;"/>
   </g>
   <g id="patch_4">
    <path d="M 648 256.32 
L 648 34.56 
" style="fill:none;stroke:#cccccc;stroke-linecap:square;stroke-linejoin:miter;stroke-width:0.8;"/>
   </g>
   <g id="patch_5">
    <path d="M 90 256.32 
L 648 256.32 
" style="fill:none;stroke:#cccccc;stroke-linecap:square;stroke-linejoin:miter;stroke-width:0.8;"/>
   </g>
   <g id="patch_6">
    <path d="M 90 34.56 
L 648 34.56 
" style="fill:none;stroke:#cccccc;stroke-linecap:square;stroke-linejoin:miter;stroke-width:0.8;"/>
   </g>
   <g id="legend_1">
    <g id="patch_7">
     <path d="M 97 85.113125 
L 172.360938 85.113125 
Q 174.360938 85.113125 174.360938 83.113125 
L 174.360938 41.56 
Q 174.360938 39.56 172.360938 39.56 
L 97 39.56 
Q 95 39.56 95 41.56 
L 95 83.113125 
Q 95 85.113125 97 85.113125 
z
" style="fill:#ffffff;opacity:0.8;stroke:#cccccc;stroke-linejoin:miter;"/>
    </g>
    <g id="text_11">
     <!-- filterer -->
     <g style="fill:#262626;" transform="translate(120.789844 50.717813)scale(0.1 -0.1)">
      <defs>
       <path d="M 556 0 
L 556 2881 
L 59 2881 
L 59 3319 
L 556 3319 
L 556 3672 
Q 556 4006 616 4169 
Q 697 4388 901 4523 
Q 1106 4659 1475 4659 
Q 1713 4659 2000 4603 
L 1916 4113 
Q 1741 4144 1584 4144 
Q 1328 4144 1222 4034 
Q 1116 3925 1116 3625 
L 1116 3319 
L 1763 3319 
L 1763 2881 
L 1116 2881 
L 1116 0 
L 556 0 
z
" id="ArialMT-66" transform="scale(0.015625)"/>
       <path d="M 1650 503 
L 1731 6 
Q 1494 -44 1306 -44 
Q 1000 -44 831 53 
Q 663 150 594 308 
Q 525 466 525 972 
L 525 2881 
L 113 2881 
L 113 3319 
L 525 3319 
L 525 4141 
L 1084 4478 
L 1084 3319 
L 1650 3319 
L 1650 2881 
L 1084 2881 
L 1084 941 
Q 1084 700 1114 631 
Q 1144 563 1211 522 
Q 1278 481 1403 481 
Q 1497 481 1650 503 
z
" id="ArialMT-74" transform="scale(0.015625)"/>
      </defs>
      <use xlink:href="#ArialMT-66"/>
      <use x="27.783203" xlink:href="#ArialMT-69"/>
      <use x="50" xlink:href="#ArialMT-6c"/>
      <use x="72.216797" xlink:href="#ArialMT-74"/>
      <use x="100" xlink:href="#ArialMT-65"/>
      <use x="155.615234" xlink:href="#ArialMT-72"/>
      <use x="188.916016" xlink:href="#ArialMT-65"/>
      <use x="244.53125" xlink:href="#ArialMT-72"/>
     </g>
    </g>
    <g id="PathCollection_4">
     <defs>
      <path d="M 0 3 
C 0.795609 3 1.55874 2.683901 2.12132 2.12132 
C 2.683901 1.55874 3 0.795609 3 0 
C 3 -0.795609 2.683901 -1.55874 2.12132 -2.12132 
C 1.55874 -2.683901 0.795609 -3 0 -3 
C -0.795609 -3 -1.55874 -2.683901 -2.12132 -2.12132 
C -2.683901 -1.55874 -3 -0.795609 -3 0 
C -3 0.795609 -2.683901 1.55874 -2.12132 2.12132 
C -1.55874 2.683901 -0.795609 3 0 3 
z
" id="m0a5681eebf" style="stroke:#1f77b4;"/>
     </defs>
     <g>
      <use style="fill:#1f77b4;stroke:#1f77b4;" x="109" xlink:href="#m0a5681eebf" y="62.238125"/>
     </g>
    </g>
    <g id="text_12">
     <!-- pythonset -->
     <g style="fill:#262626;" transform="translate(127 64.863125)scale(0.1 -0.1)">
      <defs>
       <path d="M 397 -1278 
L 334 -750 
Q 519 -800 656 -800 
Q 844 -800 956 -737 
Q 1069 -675 1141 -563 
Q 1194 -478 1313 -144 
Q 1328 -97 1363 -6 
L 103 3319 
L 709 3319 
L 1400 1397 
Q 1534 1031 1641 628 
Q 1738 1016 1872 1384 
L 2581 3319 
L 3144 3319 
L 1881 -56 
Q 1678 -603 1566 -809 
Q 1416 -1088 1222 -1217 
Q 1028 -1347 759 -1347 
Q 597 -1347 397 -1278 
z
" id="ArialMT-79" transform="scale(0.015625)"/>
       <path d="M 422 0 
L 422 4581 
L 984 4581 
L 984 2938 
Q 1378 3394 1978 3394 
Q 2347 3394 2619 3248 
Q 2891 3103 3008 2847 
Q 3125 2591 3125 2103 
L 3125 0 
L 2563 0 
L 2563 2103 
Q 2563 2525 2380 2717 
Q 2197 2909 1863 2909 
Q 1613 2909 1392 2779 
Q 1172 2650 1078 2428 
Q 984 2206 984 1816 
L 984 0 
L 422 0 
z
" id="ArialMT-68" transform="scale(0.015625)"/>
       <path d="M 213 1659 
Q 213 2581 725 3025 
Q 1153 3394 1769 3394 
Q 2453 3394 2887 2945 
Q 3322 2497 3322 1706 
Q 3322 1066 3130 698 
Q 2938 331 2570 128 
Q 2203 -75 1769 -75 
Q 1072 -75 642 372 
Q 213 819 213 1659 
z
M 791 1659 
Q 791 1022 1069 705 
Q 1347 388 1769 388 
Q 2188 388 2466 706 
Q 2744 1025 2744 1678 
Q 2744 2294 2464 2611 
Q 2184 2928 1769 2928 
Q 1347 2928 1069 2612 
Q 791 2297 791 1659 
z
" id="ArialMT-6f" transform="scale(0.015625)"/>
      </defs>
      <use xlink:href="#ArialMT-70"/>
      <use x="55.615234" xlink:href="#ArialMT-79"/>
      <use x="105.615234" xlink:href="#ArialMT-74"/>
      <use x="133.398438" xlink:href="#ArialMT-68"/>
      <use x="189.013672" xlink:href="#ArialMT-6f"/>
      <use x="244.628906" xlink:href="#ArialMT-6e"/>
      <use x="300.244141" xlink:href="#ArialMT-73"/>
      <use x="350.244141" xlink:href="#ArialMT-65"/>
      <use x="405.859375" xlink:href="#ArialMT-74"/>
     </g>
    </g>
    <g id="PathCollection_5">
     <defs>
      <path d="M -1.5 3 
L 0 1.5 
L 1.5 3 
L 3 1.5 
L 1.5 0 
L 3 -1.5 
L 1.5 -3 
L 0 -1.5 
L -1.5 -3 
L -3 -1.5 
L -1.5 0 
L -3 1.5 
z
" id="m4c9a3d9b47" style="stroke:#ff7f0e;"/>
     </defs>
     <g>
      <use style="fill:#ff7f0e;stroke:#ff7f0e;" x="109" xlink:href="#m4c9a3d9b47" y="76.500625"/>
     </g>
    </g>
    <g id="text_13">
     <!-- bloom -->
     <g style="fill:#262626;" transform="translate(127 79.125625)scale(0.1 -0.1)">
      <use xlink:href="#ArialMT-62"/>
      <use x="55.615234" xlink:href="#ArialMT-6c"/>
      <use x="77.832031" xlink:href="#ArialMT-6f"/>
      <use x="133.447266" xlink:href="#ArialMT-6f"/>
      <use x="189.0625" xlink:href="#ArialMT-6d"/>
     </g>
    </g>
   </g>
  </g>
 </g>
 <defs>
  <clipPath id="p41b7e44c21">
   <rect height="221.76" width="558" x="90" y="34.56"/>
  </clipPath>
 </defs>
</svg>
